M48
;DRILL file {KiCad 5.0.1} date Fri 21 Dec 2018 00:14:35 AEDT
;FORMAT={-:-/ absolute / metric / decimal}
FMAT,2
METRIC,TZ
T1C0.400
T2C1.000
%
G90
G05
M71
T1
X21.336Y-27.178
X26.162Y-44.958
X26.416Y-27.178
X26.924Y-58.674
X26.924Y-65.284
X27.178Y-44.958
X27.686Y-57.912
X27.686Y-64.516
X28.267Y-44.147
X28.448Y-56.896
X28.448Y-65.284
X29.21Y-43.688
X29.21Y-56.134
X29.21Y-64.516
X29.972Y-55.372
X29.972Y-65.284
X30.48Y-93.951
X30.48Y-151.638
X30.48Y-183.642
X30.634Y-43.936
X30.734Y-64.516
X30.786Y-54.61
X31.421Y-44.559
X31.496Y-27.178
X31.75Y-116.84
X31.75Y-175.26
X32.004Y-115.824
X32.258Y-63.5
X32.639Y-179.959
X32.766Y-191.516
X33.02Y-93.951
X33.02Y-151.638
X33.02Y-166.624
X33.02Y-175.26
X33.804Y-188.468
X34.036Y-27.178
X34.036Y-44.958
X34.1Y-192.786
X34.544Y-58.674
X34.544Y-120.142
X34.671Y-181.356
X34.73Y-45.928
X34.773Y-118.966
X34.798Y-108.204
X34.798Y-121.412
X34.798Y-167.386
X34.9Y-60.198
X35.306Y-57.658
X35.427Y-182.118
X35.549Y-195.294
X35.56Y-74.422
X35.56Y-93.951
X35.56Y-106.934
X35.56Y-130.302
X35.56Y-151.638
X35.56Y-201.168
X35.563Y-46.488
X35.563Y-169.164
X35.617Y-61.415
X36.068Y-67.056
X36.322Y-48.
X36.322Y-105.918
X36.322Y-173.482
X36.322Y-182.626
X36.5Y-193.548
X36.576Y-27.178
X36.957Y-61.595
X37.084Y-104.902
X37.084Y-135.89
X37.338Y-183.388
X37.846Y-193.802
X38.1Y-60.579
X38.1Y-93.951
X38.1Y-125.73
X38.1Y-151.638
X38.1Y-189.484
X38.354Y-184.15
X38.608Y-187.198
X38.862Y-87.89
X38.862Y-62.484
X38.862Y-68.453
X39.116Y-27.178
X39.243Y-56.769
X39.436Y-185.45
X39.624Y-86.614
X39.624Y-69.469
X39.624Y-124.714
X40.603Y-60.651
X40.64Y-93.951
X40.64Y-105.664
X40.64Y-135.636
X40.64Y-151.638
X40.64Y-169.418
X40.794Y-124.814
X40.894Y-59.69
X41.3Y-48.768
X41.3Y-112.522
X41.3Y-175.634
X41.402Y-134.62
X41.656Y-27.178
X41.91Y-54.61
X42.164Y-72.898
X42.164Y-44.958
X42.164Y-59.69
X42.164Y-122.682
X42.164Y-124.714
X42.418Y-55.626
X42.545Y-87.757
X42.672Y-70.612
X43.18Y-93.951
X43.18Y-151.638
X43.942Y-86.741
X44.196Y-27.178
X44.45Y-169.678
X45.72Y-109.728
X45.72Y-151.638
X45.72Y-188.214
X45.974Y-51.816
X45.974Y-60.96
X45.974Y-124.46
X46.228Y-125.984
X46.482Y-62.23
X46.736Y-27.178
X46.736Y-50.8
X46.736Y-112.522
X46.736Y-187.02
X46.99Y-92.964
X47.244Y-151.638
X47.244Y-172.46
X47.498Y-49.784
X47.498Y-62.738
X47.498Y-123.698
X47.752Y-114.808
X48.076Y-173.021
X48.26Y-48.768
X48.26Y-59.436
X48.26Y-125.984
X48.514Y-116.84
X48.763Y-118.623
X48.768Y-62.738
X48.775Y-173.743
X49.022Y-122.936
X49.096Y-142.494
X49.262Y-126.171
X49.276Y-27.178
X49.276Y-52.832
X49.53Y-57.912
X49.53Y-82.55
X49.53Y-174.498
X49.911Y-59.212
X50.038Y-122.936
X50.292Y-92.202
X50.8Y-81.28
X50.8Y-109.728
X51.054Y-39.624
X51.308Y-141.732
X51.308Y-189.484
X51.562Y-62.484
X51.562Y-125.984
X52.07Y-80.01
X53.34Y-78.74
X53.34Y-140.97
X53.848Y-198.12
X53.848Y-200.66
X54.61Y-77.47
X55.372Y-140.208
X55.88Y-76.2
X56.134Y-134.62
X56.134Y-137.16
X56.388Y-68.58
X56.388Y-71.12
X56.388Y-73.66
X57.15Y-74.93
X57.404Y-139.446
X58.42Y-73.66
X59.69Y-133.477
X59.944Y-82.804
X60.452Y-134.747
X60.96Y-111.76
X60.96Y-114.3
X60.96Y-116.84
X60.96Y-119.38
X60.96Y-121.92
X60.96Y-123.698
X60.96Y-125.476
X61.722Y-83.82
X61.722Y-175.26
X62.484Y-84.836
X62.484Y-125.476
X62.484Y-176.022
X63.246Y-85.852
X63.246Y-123.698
X63.246Y-176.784
X64.008Y-86.868
X64.008Y-121.92
X64.008Y-177.546
X64.77Y-87.884
X64.77Y-119.38
X64.77Y-184.15
X65.532Y-116.84
X65.538Y-88.9
X65.538Y-186.944
X66.3Y-89.916
X66.3Y-114.3
X66.3Y-193.765
X67.056Y-90.932
X67.056Y-111.76
X67.056Y-194.564
X67.818Y-104.14
X68.58Y-166.116
X70.358Y-165.608
X71.12Y-166.37
X71.882Y-170.186
X72.136Y-129.54
X72.644Y-55.88
X73.406Y-181.61
X73.406Y-170.688
X73.479Y-55.323
X73.914Y-91.694
X73.914Y-129.54
X74.235Y-54.61
X74.422Y-92.964
X74.676Y-94.488
X75.184Y-129.286
X75.184Y-180.848
X75.205Y-54.87
X75.438Y-72.644
X75.692Y-182.626
X75.946Y-186.944
X76.2Y-82.804
X76.2Y-120.396
X76.2Y-151.892
X76.454Y-55.88
X76.454Y-180.086
X76.51Y-186.113
X77.216Y-69.088
X78.74Y-151.892
X78.74Y-193.802
X79.499Y-58.216
X79.502Y-134.239
X79.502Y-142.494
X79.756Y-93.726
X79.756Y-113.284
X79.756Y-125.984
X79.756Y-137.414
X80.01Y-182.626
X80.01Y-184.404
X80.01Y-194.564
X80.264Y-118.11
X80.518Y-58.928
X80.645Y-188.595
X80.772Y-119.126
X80.772Y-120.142
X80.899Y-104.394
X81.026Y-181.737
X81.28Y-151.892
X81.28Y-200.914
X81.534Y-141.732
X81.612Y-59.755
X82.042Y-123.952
X82.042Y-147.574
X82.042Y-175.26
X82.22Y-67.056
X82.22Y-129.54
X82.22Y-194.818
X82.55Y-60.452
X82.55Y-189.484
X83.058Y-176.022
X83.312Y-151.892
X83.439Y-195.58
X83.566Y-65.786
X83.566Y-140.97
X83.693Y-62.484
X83.82Y-93.951
X83.82Y-125.984
X83.82Y-133.477
X83.82Y-182.626
X84.074Y-66.802
X84.328Y-50.292
X84.582Y-181.864
X84.709Y-195.58
X84.83Y-67.842
X84.836Y-109.22
X84.836Y-114.3
X84.836Y-169.672
X84.864Y-61.432
X85.09Y-170.688
X85.338Y-68.936
X85.598Y-48.514
X85.846Y-69.996
X85.852Y-140.208
X86.36Y-70.866
X86.36Y-157.451
X86.614Y-56.642
X86.736Y-72.004
X86.868Y-55.626
X87.02Y-50.292
X87.02Y-112.776
X87.02Y-177.292
X87.376Y-119.888
X87.403Y-120.931
X87.63Y-122.174
X87.658Y-123.215
X87.884Y-59.69
X87.884Y-93.726
X87.884Y-125.222
X88.138Y-45.466
X88.138Y-139.446
X88.9Y-157.451
X90.678Y-138.684
X90.932Y-61.722
X91.186Y-55.118
X91.44Y-121.92
X91.44Y-157.451
X91.44Y-188.214
X91.694Y-60.198
X91.694Y-124.714
X91.743Y-55.953
X92.583Y-105.918
X92.717Y-56.709
X92.964Y-60.96
X92.964Y-123.52
X93.218Y-137.922
X93.218Y-187.02
X93.472Y-57.404
X93.98Y-176.778
X93.98Y-105.918
X93.98Y-157.451
X94.812Y-177.54
X95.541Y-178.302
X96.012Y-137.16
X96.372Y-179.064
X96.52Y-82.804
X97.028Y-127.
X97.79Y-121.92
X97.79Y-186.436
X98.044Y-125.984
X98.298Y-136.398
X99.314Y-124.46
X99.314Y-198.12
X99.314Y-200.406
X99.568Y-60.96
X100.33Y-121.158
X100.33Y-67.056
X100.584Y-135.636
X101.346Y-122.682
X103.124Y-113.284
X103.124Y-134.874
X103.378Y-49.276
X103.632Y-127.
X104.648Y-125.984
X105.156Y-39.624
X105.918Y-134.112
X106.68Y-24.638
X106.934Y-124.968
X107.42Y-126.417
X108.458Y-64.77
X108.458Y-133.35
X109.474Y-52.324
X109.982Y-67.818
X110.49Y-53.34
X110.743Y-68.684
X111.494Y-54.306
X111.76Y-24.638
X112.399Y-55.22
X114.3Y-24.638
X114.3Y-93.951
X114.554Y-65.532
X115.062Y-42.164
X115.316Y-56.896
X115.316Y-66.294
X115.824Y-43.18
X115.824Y-54.991
X115.824Y-58.42
X116.078Y-175.26
X116.332Y-67.056
X116.586Y-44.196
X116.84Y-24.638
X116.84Y-93.951
X117.094Y-133.35
X117.348Y-44.958
X117.602Y-55.118
X117.78Y-66.294
X117.856Y-134.112
X118.11Y-45.974
X118.364Y-72.39
X118.364Y-176.022
X118.618Y-134.874
X119.38Y-24.638
X119.38Y-66.04
X119.38Y-93.951
X119.38Y-135.636
X120.142Y-136.398
X120.169Y-176.757
X120.55Y-56.996
X120.904Y-85.852
X120.904Y-137.16
X121.158Y-62.484
X121.566Y-58.012
X121.666Y-50.8
X121.666Y-86.868
X121.666Y-137.922
X121.92Y-24.638
X121.92Y-42.926
X121.92Y-93.951
X121.92Y-111.76
X121.92Y-151.892
X122.174Y-124.986
X122.174Y-125.99
X122.174Y-183.642
X122.301Y-179.705
X122.428Y-48.482
X122.428Y-87.884
X122.428Y-138.684
X122.428Y-61.62
X122.655Y-113.565
X122.676Y-55.222
X122.688Y-56.794
X123.19Y-139.446
X123.444Y-88.9
X123.952Y-46.482
X123.952Y-50.8
X123.952Y-193.294
X124.376Y-115.286
X124.46Y-24.638
X124.46Y-65.659
X124.46Y-93.951
X124.46Y-151.892
X124.714Y-192.532
X125.521Y-110.666
X125.584Y-177.803
X125.603Y-65.659
X125.73Y-120.142
X125.73Y-176.784
X125.869Y-123.938
X125.941Y-182.873
X125.984Y-184.404
X126.411Y-110.201
X126.492Y-122.174
X126.746Y-118.618
X126.746Y-120.65
X126.746Y-124.714
X127.Y-24.638
X127.Y-52.324
X127.Y-60.96
X127.Y-89.916
X127.Y-93.951
X127.Y-143.256
X127.Y-151.892
X127.Y-200.914
X127.127Y-188.976
X127.508Y-178.308
X127.762Y-110.49
X127.94Y-129.54
X127.94Y-194.926
X128.016Y-47.244
X128.27Y-140.208
X128.524Y-111.252
X128.778Y-49.276
X128.778Y-60.02
X129.286Y-125.73
X129.286Y-195.58
X129.371Y-111.791
X129.54Y-24.638
X129.54Y-50.038
X129.54Y-93.951
X129.54Y-140.97
X129.54Y-151.892
X129.54Y-189.484
X130.192Y-112.369
X130.34Y-194.564
X130.556Y-141.732
X130.556Y-147.32
X130.683Y-50.8
X130.878Y-113.102
X131.064Y-123.698
X131.572Y-193.802
X131.59Y-113.81
X131.773Y-55.88
X131.94Y-122.682
X132.08Y-93.951
X132.08Y-151.892
X132.08Y-169.418
X132.334Y-114.554
X132.74Y-175.768
X132.842Y-58.355
X132.842Y-193.802
X133.096Y-132.588
X133.157Y-125.59
X133.35Y-62.738
X133.35Y-69.088
X133.35Y-75.438
X133.35Y-188.468
X133.604Y-109.474
X133.604Y-193.04
X133.858Y-107.95
X133.858Y-120.904
X134.444Y-127.508
X134.62Y-93.951
X134.62Y-151.892
X135.122Y-131.717
X135.301Y-60.815
X135.382Y-84.836
X135.636Y-116.078
X135.904Y-60.013
X136.144Y-83.82
X136.398Y-127.254
X136.652Y-117.348
X136.906Y-59.944
X136.906Y-90.932
X137.16Y-93.951
X137.16Y-147.32
X137.16Y-151.892
X137.16Y-189.42
X137.188Y-118.643
X137.414Y-187.96
X137.484Y-122.676
X137.668Y-107.696
X137.668Y-185.928
X137.922Y-85.852
X137.99Y-119.502
X138.684Y-121.92
X138.684Y-123.698
X138.938Y-86.868
X138.938Y-111.76
X139.192Y-107.696
X139.446Y-124.46
X139.446Y-187.42
X139.7Y-93.951
X139.7Y-151.892
X139.954Y-87.884
X139.954Y-126.492
X140.208Y-135.636
X140.716Y-88.9
X140.97Y-192.278
X141.732Y-89.916
X142.24Y-134.874
X142.24Y-93.951
X142.494Y-51.816
X142.494Y-82.804
X143.256Y-126.238
X143.51Y-143.51
X144.272Y-134.112
X144.272Y-116.84
X144.78Y-93.951
X145.542Y-187.96
X146.304Y-91.694
X146.304Y-133.35
X152.146Y-83.052
X152.4Y-123.229
X152.654Y-77.47
X153.174Y-125.73
X153.416Y-76.708
X153.93Y-127.254
X154.178Y-74.93
X154.178Y-110.236
X154.686Y-128.016
X154.946Y-75.692
X154.946Y-111.252
X155.448Y-128.778
X155.702Y-74.168
X156.21Y-129.54
X156.464Y-73.406
X156.972Y-130.302
X157.226Y-65.532
X157.48Y-143.002
X157.734Y-131.064
X157.988Y-66.548
X158.242Y-171.45
X158.496Y-131.826
X158.75Y-67.31
X159.258Y-132.588
X159.512Y-68.072
X159.76Y-172.747
X160.02Y-143.002
X160.274Y-68.834
X160.528Y-173.863
X161.036Y-69.596
X161.29Y-174.752
X161.798Y-70.358
X161.798Y-143.002
X162.046Y-175.78
X162.56Y-71.12
X162.56Y-157.451
X162.65Y-178.477
X163.322Y-64.77
X163.357Y-177.764
X163.576Y-176.784
X164.084Y-59.69
X164.084Y-54.61
X164.084Y-57.15
X164.084Y-62.23
X164.338Y-143.002
X164.857Y-71.882
X165.1Y-157.451
X165.354Y-130.302
X166.37Y-120.904
X166.37Y-183.896
X166.624Y-185.42
X166.878Y-132.588
X166.878Y-143.002
X167.132Y-63.754
X167.386Y-58.674
X167.386Y-72.644
X167.64Y-157.451
X168.58Y-194.926
X168.91Y-131.826
X169.158Y-63.246
X169.164Y-83.052
X169.164Y-199.39
X169.672Y-60.198
X169.672Y-103.626
X170.18Y-189.738
X170.752Y-106.617
X170.942Y-131.064
X171.196Y-157.48
X171.45Y-58.674
X171.45Y-143.002
X171.704Y-103.886
X171.704Y-150.114
X172.085Y-183.388
X172.212Y-106.934
X172.72Y-24.892
X172.72Y-83.82
X172.72Y-137.414
X172.974Y-108.458
X172.974Y-196.85
X173.38Y-176.784
X173.66Y-130.302
X173.736Y-143.002
X173.736Y-44.196
X173.736Y-55.245
X173.736Y-157.48
X173.787Y-109.499
X173.994Y-117.596
X174.244Y-56.388
X174.244Y-171.45
X174.752Y-150.114
X174.757Y-118.359
X175.26Y-24.892
X175.26Y-78.232
X175.26Y-84.836
X175.26Y-125.984
X175.514Y-57.912
X175.517Y-119.12
X175.768Y-130.048
X175.768Y-98.298
X175.795Y-122.201
X176.022Y-113.03
X176.022Y-123.713
X176.276Y-59.055
X176.276Y-107.95
X176.276Y-143.002
X176.276Y-157.48
X176.53Y-125.984
X176.622Y-129.038
X177.038Y-60.325
X177.038Y-91.694
X177.038Y-97.79
X177.038Y-121.412
X177.038Y-171.704
X177.038Y-198.12
X177.292Y-150.114
X177.69Y-123.83
X177.8Y-61.595
X177.8Y-24.892
X177.8Y-85.852
X177.8Y-188.468
X177.9Y-124.868
X178.074Y-125.856
X178.308Y-118.618
X178.46Y-112.776
X178.562Y-62.738
X178.816Y-44.196
X178.816Y-78.232
X178.816Y-130.302
X178.816Y-157.48
X179.07Y-143.002
X179.324Y-64.125
X179.686Y-187.02
X179.832Y-150.114
X180.086Y-65.405
X180.34Y-24.892
X180.848Y-66.675
X181.356Y-117.094
X181.356Y-157.48
X181.61Y-67.818
X181.61Y-143.002
X182.372Y-150.114
X182.88Y-24.892
X182.88Y-90.932
X182.88Y-124.714
X183.161Y-72.95
X183.403Y-104.155
X183.89Y-106.317
X183.89Y-109.873
X183.89Y-111.651
X183.89Y-113.429
X183.896Y-143.002
X183.896Y-43.18
X183.896Y-189.484
X184.658Y-102.87
X184.658Y-124.206
X184.912Y-116.332
X184.912Y-120.364
X184.912Y-150.114
X185.42Y-24.892
X185.42Y-89.916
X185.928Y-102.108
X186.182Y-143.002
X186.944Y-101.6
X187.452Y-150.114
X187.96Y-143.002
X187.96Y-24.892
X187.96Y-88.9
X188.468Y-56.388
X188.722Y-57.912
X188.976Y-87.884
X189.581Y-55.983
X189.992Y-86.868
X189.992Y-150.114
X190.5Y-24.892
X190.754Y-124.46
X190.754Y-198.12
X190.754Y-200.66
X190.981Y-67.537
X191.262Y-91.694
X191.516Y-63.5
X191.516Y-65.786
X192.024Y-92.456
X192.432Y-59.336
X192.532Y-55.372
X192.532Y-67.056
X193.04Y-24.892
X193.548Y-111.76
X193.548Y-54.356
X194.056Y-50.8
X194.31Y-62.885
X194.31Y-109.22
X195.072Y-106.68
X195.58Y-24.892
X195.834Y-104.14
X196.596Y-101.6
X197.104Y-40.894
X197.358Y-99.06
X197.612Y-46.482
X197.612Y-118.618
X197.612Y-147.32
X197.866Y-53.975
X197.866Y-56.515
X197.866Y-60.198
X197.866Y-64.008
X198.12Y-24.892
X198.12Y-66.548
X198.12Y-96.52
X198.374Y-41.148
X198.374Y-42.418
X198.882Y-45.466
X198.882Y-57.912
X198.882Y-93.98
X199.898Y-42.418
X199.898Y-91.694
X200.152Y-43.688
X200.66Y-24.892
X200.914Y-44.704
X201.676Y-92.456
X201.93Y-122.428
X202.946Y-121.412
X203.2Y-24.892
X203.454Y-53.594
X203.454Y-55.372
X204.47Y-59.436
X205.74Y-24.892
X205.74Y-45.466
X206.248Y-46.736
X206.248Y-68.58
X206.756Y-49.022
X207.01Y-65.532
X208.28Y-24.892
X208.28Y-77.47
X209.036Y-92.456
X209.804Y-75.692
X209.804Y-91.694
X210.566Y-189.484
X210.82Y-24.892
X210.82Y-76.708
X211.836Y-171.704
X212.09Y-156.464
X212.09Y-161.29
X212.09Y-166.878
X213.36Y-24.892
X213.36Y-88.646
X213.36Y-184.15
X213.868Y-152.654
X214.254Y-102.484
X215.9Y-24.892
X215.9Y-88.646
X216.154Y-193.04
X216.408Y-132.588
X216.662Y-103.378
X217.17Y-119.888
X217.17Y-183.134
X217.424Y-118.364
X217.424Y-194.05
X218.186Y-183.642
X218.186Y-184.912
X218.44Y-88.646
X218.44Y-137.414
X218.694Y-43.18
X218.694Y-45.72
X218.694Y-48.26
X218.694Y-50.8
X218.694Y-53.34
X218.694Y-55.88
X218.694Y-58.42
X218.694Y-60.96
X218.694Y-66.04
X218.694Y-68.58
X218.694Y-71.12
X218.694Y-73.66
X218.743Y-185.747
X219.194Y-195.072
X219.202Y-104.14
X219.456Y-120.142
X219.71Y-131.064
X219.964Y-133.35
X219.964Y-170.942
X219.964Y-199.136
X220.291Y-120.953
X220.953Y-131.091
X220.98Y-88.646
X220.98Y-126.238
X220.98Y-186.436
X220.98Y-192.532
X221.272Y-121.166
X221.742Y-104.902
X221.742Y-130.302
X221.996Y-162.052
X221.996Y-172.974
X222.189Y-121.723
X222.213Y-112.191
X222.25Y-188.468
X222.25Y-193.294
X222.277Y-164.819
X222.504Y-194.31
X222.624Y-113.107
X222.758Y-130.048
X223.072Y-122.2
X223.266Y-117.856
X223.266Y-182.88
X223.52Y-88.646
X223.597Y-129.497
X224.028Y-176.772
X224.18Y-114.3
X224.282Y-188.976
X224.536Y-105.664
X224.536Y-152.654
X224.577Y-129.277
X224.586Y-122.877
X224.79Y-124.968
X225.071Y-167.613
X226.06Y-88.646
X227.076Y-107.95
X227.33Y-106.426
X228.092Y-152.654
X228.346Y-124.46
X228.346Y-127.254
X228.6Y-88.646
X228.854Y-188.214
X229.108Y-161.798
X229.362Y-194.564
X229.616Y-184.912
X229.843Y-107.723
X230.124Y-117.856
X230.124Y-187.02
X230.378Y-183.642
X230.486Y-123.52
X230.886Y-181.356
X231.068Y-118.198
X231.14Y-88.646
X231.902Y-110.49
X232.052Y-118.395
X232.998Y-118.732
X233.426Y-103.378
X233.426Y-104.648
X233.426Y-105.918
X233.426Y-107.442
X233.426Y-108.966
X233.426Y-110.236
X234.95Y-126.238
X235.458Y-170.18
X235.458Y-200.406
X236.728Y-187.96
X236.982Y-177.038
X237.49Y-161.544
X239.014Y-152.654
X239.776Y-193.294
X242.824Y-162.814
X243.078Y-193.294
X243.332Y-152.654
X246.888Y-160.02
X247.142Y-170.18
X247.142Y-199.898
X247.65Y-109.22
X249.428Y-108.966
X250.952Y-114.554
X250.952Y-129.794
X252.476Y-97.79
X252.476Y-199.39
X252.73Y-161.544
X252.73Y-171.704
X252.73Y-181.864
X252.73Y-191.77
X254.254Y-152.654
X255.016Y-107.696
X255.27Y-95.504
X255.27Y-122.936
X258.354Y-183.17
X258.572Y-152.654
X258.572Y-162.814
X258.572Y-193.294
X258.826Y-172.974
X260.35Y-98.044
X260.35Y-107.696
X260.35Y-125.984
X260.604Y-95.504
X260.604Y-131.318
X261.874Y-180.34
X262.128Y-114.554
X262.128Y-160.02
X262.128Y-170.18
X262.128Y-190.5
X262.128Y-200.66
T2
X69.85Y-53.34
X69.85Y-55.88
X69.85Y-58.42
X69.85Y-60.96
X69.85Y-63.5
X69.85Y-180.34
X69.85Y-182.88
X69.85Y-185.42
X69.85Y-187.96
X69.85Y-190.5
X165.1Y-99.06
X165.1Y-101.6
X165.1Y-104.14
X165.1Y-106.68
X165.1Y-109.22
X165.1Y-111.76
X165.1Y-114.3
X147.32Y-30.48
X147.32Y-33.02
X147.32Y-35.56
X147.32Y-38.1
X147.32Y-40.64
X147.32Y-43.18
X147.32Y-45.72
X147.32Y-48.26
X147.32Y-50.8
X147.32Y-53.34
X147.32Y-55.88
X147.32Y-58.42
X147.32Y-60.96
X147.32Y-63.5
X147.32Y-66.04
X147.32Y-68.58
X147.32Y-71.12
X149.86Y-30.48
X149.86Y-33.02
X149.86Y-35.56
X149.86Y-38.1
X149.86Y-40.64
X149.86Y-43.18
X149.86Y-45.72
X149.86Y-48.26
X149.86Y-50.8
X149.86Y-53.34
X149.86Y-55.88
X149.86Y-58.42
X149.86Y-60.96
X149.86Y-63.5
X149.86Y-66.04
X149.86Y-68.58
X149.86Y-71.12
X69.85Y-116.84
X69.85Y-119.38
X69.85Y-121.92
X69.85Y-124.46
X69.85Y-127.
X161.29Y-116.84
X161.29Y-119.38
X161.29Y-121.92
X161.29Y-124.46
X161.29Y-127.
X24.13Y-180.34
X24.13Y-182.88
X24.13Y-185.42
X24.13Y-187.96
X24.13Y-190.5
X115.57Y-116.84
X115.57Y-119.38
X115.57Y-121.92
X115.57Y-124.46
X115.57Y-127.
X207.01Y-116.84
X207.01Y-119.38
X207.01Y-121.92
X207.01Y-124.46
X207.01Y-127.
X24.13Y-53.34
X24.13Y-55.88
X24.13Y-58.42
X24.13Y-60.96
X24.13Y-63.5
X156.21Y-180.34
X156.21Y-182.88
X156.21Y-185.42
X156.21Y-187.96
X156.21Y-190.5
X24.13Y-116.84
X24.13Y-119.38
X24.13Y-121.92
X24.13Y-124.46
X24.13Y-127.
X115.57Y-180.34
X115.57Y-182.88
X115.57Y-185.42
X115.57Y-187.96
X115.57Y-190.5
X208.28Y-180.34
X208.28Y-182.88
X208.28Y-185.42
X208.28Y-187.96
X208.28Y-190.5
X105.41Y-53.34
X105.41Y-55.88
X105.41Y-58.42
X105.41Y-60.96
X105.41Y-63.5
X241.3Y-96.52
X241.3Y-99.06
X241.3Y-101.6
X241.3Y-104.14
X241.3Y-106.68
X241.3Y-109.22
X241.3Y-111.76
X241.3Y-114.3
X241.3Y-116.84
X241.3Y-119.38
X241.3Y-121.92
X241.3Y-124.46
X241.3Y-127.
X241.3Y-129.54
X243.84Y-96.52
X243.84Y-99.06
X243.84Y-101.6
X243.84Y-104.14
X243.84Y-106.68
X243.84Y-109.22
X243.84Y-111.76
X243.84Y-114.3
X243.84Y-116.84
X243.84Y-119.38
X243.84Y-121.92
X243.84Y-124.46
X243.84Y-127.
X243.84Y-129.54
T0
M30
