%FSLAX45Y45*%
G04 Gerber Fmt 4.5, Leading zero omitted, Abs format (unit mm)*
G04 Created by KiCad (PCBNEW 5.0.1) date Fri 21 Dec 2018 00:14:36 AEDT*
%MOMM*%
%LPD*%
G01*
G04 APERTURE LIST*
%ADD10C,0.150000*%
%ADD11C,0.200000*%
%ADD12C,0.300000*%
G04 APERTURE END LIST*
D10*
X1016000Y-1524000D02*
G75*
G02X1524000Y-1016000I508000J0D01*
G01*
X1524000Y-20828000D02*
G75*
G02X1016000Y-20320000I0J508000D01*
G01*
X26924000Y-20320000D02*
G75*
G02X26416000Y-20828000I-508000J0D01*
G01*
X26416000Y-1016000D02*
G75*
G02X26924000Y-1524000I0J-508000D01*
G01*
X26416000Y-1016000D02*
X1524000Y-1016000D01*
X26924000Y-20320000D02*
X26924000Y-1524000D01*
X1524000Y-20828000D02*
X26416000Y-20828000D01*
X1016000Y-1524000D02*
X1016000Y-20320000D01*
D11*
X2113600Y-2697800D02*
X2153600Y-2737800D01*
X2153600Y-2697800D02*
X2113600Y-2737800D01*
X2596201Y-4475800D02*
X2636201Y-4515800D01*
X2636201Y-4475800D02*
X2596201Y-4515800D01*
X2621600Y-2697800D02*
X2661600Y-2737800D01*
X2661600Y-2697800D02*
X2621600Y-2737800D01*
X2672400Y-5847400D02*
X2712400Y-5887400D01*
X2712400Y-5847400D02*
X2672400Y-5887400D01*
X2672400Y-6508399D02*
X2712400Y-6548399D01*
X2712400Y-6508399D02*
X2672400Y-6548399D01*
X2697800Y-4475800D02*
X2737800Y-4515800D01*
X2737800Y-4475800D02*
X2697800Y-4515800D01*
X2748600Y-5771200D02*
X2788600Y-5811200D01*
X2788600Y-5771200D02*
X2748600Y-5811200D01*
X2748600Y-6431600D02*
X2788600Y-6471600D01*
X2788600Y-6431600D02*
X2748600Y-6471600D01*
X2806739Y-4394707D02*
X2846739Y-4434707D01*
X2846739Y-4394707D02*
X2806739Y-4434707D01*
X2824800Y-5669600D02*
X2864800Y-5709600D01*
X2864800Y-5669600D02*
X2824800Y-5709600D01*
X2824800Y-6508399D02*
X2864800Y-6548399D01*
X2864800Y-6508399D02*
X2824800Y-6548399D01*
X2901000Y-4348800D02*
X2941000Y-4388800D01*
X2941000Y-4348800D02*
X2901000Y-4388800D01*
X2901000Y-5593400D02*
X2941000Y-5633400D01*
X2941000Y-5593400D02*
X2901000Y-5633400D01*
X2901000Y-6431600D02*
X2941000Y-6471600D01*
X2941000Y-6431600D02*
X2901000Y-6471600D01*
X2977200Y-5517200D02*
X3017200Y-5557200D01*
X3017200Y-5517200D02*
X2977200Y-5557200D01*
X2977200Y-6508399D02*
X3017200Y-6548399D01*
X3017200Y-6508399D02*
X2977200Y-6548399D01*
X3028000Y-9375100D02*
X3068000Y-9415100D01*
X3068000Y-9375100D02*
X3028000Y-9415100D01*
X3028000Y-15143800D02*
X3068000Y-15183800D01*
X3068000Y-15143800D02*
X3028000Y-15183800D01*
X3028000Y-18344200D02*
X3068000Y-18384200D01*
X3068000Y-18344200D02*
X3028000Y-18384200D01*
X3043358Y-4373601D02*
X3083358Y-4413601D01*
X3083358Y-4373601D02*
X3043358Y-4413601D01*
X3053400Y-6431600D02*
X3093400Y-6471600D01*
X3093400Y-6431600D02*
X3053400Y-6471600D01*
X3058600Y-5441000D02*
X3098600Y-5481000D01*
X3098600Y-5441000D02*
X3058600Y-5481000D01*
X3122060Y-4435942D02*
X3162060Y-4475942D01*
X3162060Y-4435942D02*
X3122060Y-4475942D01*
X3129600Y-2697800D02*
X3169600Y-2737800D01*
X3169600Y-2697800D02*
X3129600Y-2737800D01*
X3155000Y-11664000D02*
X3195000Y-11704000D01*
X3195000Y-11664000D02*
X3155000Y-11704000D01*
X3155000Y-17506000D02*
X3195000Y-17546000D01*
X3195000Y-17506000D02*
X3155000Y-17546000D01*
X3180400Y-11562399D02*
X3220400Y-11602399D01*
X3220400Y-11562399D02*
X3180400Y-11602399D01*
X3205800Y-6330000D02*
X3245800Y-6370000D01*
X3245800Y-6330000D02*
X3205800Y-6370000D01*
X3243900Y-17975900D02*
X3283900Y-18015900D01*
X3283900Y-17975900D02*
X3243900Y-18015900D01*
X3256600Y-19131600D02*
X3296600Y-19171600D01*
X3296600Y-19131600D02*
X3256600Y-19171600D01*
X3282000Y-9375100D02*
X3322000Y-9415100D01*
X3322000Y-9375100D02*
X3282000Y-9415100D01*
X3282000Y-15143800D02*
X3322000Y-15183800D01*
X3322000Y-15143800D02*
X3282000Y-15183800D01*
X3282000Y-16642400D02*
X3322000Y-16682400D01*
X3322000Y-16642400D02*
X3282000Y-16682400D01*
X3282000Y-17506000D02*
X3322000Y-17546000D01*
X3322000Y-17506000D02*
X3282000Y-17546000D01*
X3360402Y-18826800D02*
X3400402Y-18866800D01*
X3400402Y-18826800D02*
X3360402Y-18866800D01*
X3383600Y-2697800D02*
X3423600Y-2737800D01*
X3423600Y-2697800D02*
X3383600Y-2737800D01*
X3383600Y-4475800D02*
X3423600Y-4515800D01*
X3423600Y-4475800D02*
X3383600Y-4515800D01*
X3390000Y-19258600D02*
X3430000Y-19298600D01*
X3430000Y-19258600D02*
X3390000Y-19298600D01*
X3434399Y-5847400D02*
X3474399Y-5887400D01*
X3474399Y-5847400D02*
X3434399Y-5887400D01*
X3434400Y-11994200D02*
X3474400Y-12034200D01*
X3474400Y-11994200D02*
X3434400Y-12034200D01*
X3447100Y-18115600D02*
X3487100Y-18155600D01*
X3487100Y-18115600D02*
X3447100Y-18155600D01*
X3452957Y-4572802D02*
X3492957Y-4612802D01*
X3492957Y-4572802D02*
X3452957Y-4612802D01*
X3457280Y-11876596D02*
X3497280Y-11916596D01*
X3497280Y-11876596D02*
X3457280Y-11916596D01*
X3459800Y-10800400D02*
X3499800Y-10840400D01*
X3499800Y-10800400D02*
X3459800Y-10840400D01*
X3459800Y-12121200D02*
X3499800Y-12161200D01*
X3499800Y-12121200D02*
X3459800Y-12161200D01*
X3459800Y-16718600D02*
X3499800Y-16758600D01*
X3499800Y-16718600D02*
X3459800Y-16758600D01*
X3470000Y-5999800D02*
X3510000Y-6039800D01*
X3510000Y-5999800D02*
X3470000Y-6039800D01*
X3510600Y-5745800D02*
X3550600Y-5785800D01*
X3550600Y-5745800D02*
X3510600Y-5785800D01*
X3522701Y-18191800D02*
X3562701Y-18231800D01*
X3562701Y-18191800D02*
X3522701Y-18231800D01*
X3534921Y-19509417D02*
X3574921Y-19549417D01*
X3574921Y-19509417D02*
X3534921Y-19549417D01*
X3536000Y-7422200D02*
X3576000Y-7462200D01*
X3576000Y-7422200D02*
X3536000Y-7462200D01*
X3536000Y-9375100D02*
X3576000Y-9415100D01*
X3576000Y-9375100D02*
X3536000Y-9415100D01*
X3536000Y-10673400D02*
X3576000Y-10713400D01*
X3576000Y-10673400D02*
X3536000Y-10713400D01*
X3536000Y-13010200D02*
X3576000Y-13050200D01*
X3576000Y-13010200D02*
X3536000Y-13050200D01*
X3536000Y-15143800D02*
X3576000Y-15183800D01*
X3576000Y-15143800D02*
X3536000Y-15183800D01*
X3536000Y-20096800D02*
X3576000Y-20136800D01*
X3576000Y-20096800D02*
X3536000Y-20136800D01*
X3536292Y-4628799D02*
X3576292Y-4668799D01*
X3576292Y-4628799D02*
X3536292Y-4668799D01*
X3536292Y-16896400D02*
X3576292Y-16936400D01*
X3576292Y-16896400D02*
X3536292Y-16936400D01*
X3541668Y-6121450D02*
X3581668Y-6161450D01*
X3581668Y-6121450D02*
X3541668Y-6161450D01*
X3586800Y-6685600D02*
X3626800Y-6725600D01*
X3626800Y-6685600D02*
X3586800Y-6725600D01*
X3612200Y-4780001D02*
X3652200Y-4820001D01*
X3652200Y-4780001D02*
X3612200Y-4820001D01*
X3612200Y-10571800D02*
X3652200Y-10611800D01*
X3652200Y-10571800D02*
X3612200Y-10611800D01*
X3612200Y-17328200D02*
X3652200Y-17368200D01*
X3652200Y-17328200D02*
X3612200Y-17368200D01*
X3612200Y-18242600D02*
X3652200Y-18282600D01*
X3652200Y-18242600D02*
X3612200Y-18282600D01*
X3630000Y-19334800D02*
X3670000Y-19374800D01*
X3670000Y-19334800D02*
X3630000Y-19374800D01*
X3637600Y-2697800D02*
X3677600Y-2737800D01*
X3677600Y-2697800D02*
X3637600Y-2737800D01*
X3675700Y-6139500D02*
X3715700Y-6179500D01*
X3715700Y-6139500D02*
X3675700Y-6179500D01*
X3688400Y-10470200D02*
X3728400Y-10510200D01*
X3728400Y-10470200D02*
X3688400Y-10510200D01*
X3688400Y-13569000D02*
X3728400Y-13609000D01*
X3728400Y-13569000D02*
X3688400Y-13609000D01*
X3713800Y-18318800D02*
X3753800Y-18358800D01*
X3753800Y-18318800D02*
X3713800Y-18358800D01*
X3764600Y-19360200D02*
X3804600Y-19400200D01*
X3804600Y-19360200D02*
X3764600Y-19400200D01*
X3790000Y-6037900D02*
X3830000Y-6077900D01*
X3830000Y-6037900D02*
X3790000Y-6077900D01*
X3790000Y-9375100D02*
X3830000Y-9415100D01*
X3830000Y-9375100D02*
X3790000Y-9415100D01*
X3790000Y-12553000D02*
X3830000Y-12593000D01*
X3830000Y-12553000D02*
X3790000Y-12593000D01*
X3790000Y-15143800D02*
X3830000Y-15183800D01*
X3830000Y-15143800D02*
X3790000Y-15183800D01*
X3790000Y-18928400D02*
X3830000Y-18968400D01*
X3830000Y-18928400D02*
X3790000Y-18968400D01*
X3815400Y-18395000D02*
X3855400Y-18435000D01*
X3855400Y-18395000D02*
X3815400Y-18435000D01*
X3840800Y-18699800D02*
X3880800Y-18739800D01*
X3880800Y-18699800D02*
X3840800Y-18739800D01*
X3866200Y-8769000D02*
X3906200Y-8809000D01*
X3906200Y-8769000D02*
X3866200Y-8809000D01*
X3866200Y-6228400D02*
X3906200Y-6268400D01*
X3906200Y-6228400D02*
X3866200Y-6268400D01*
X3866200Y-6825300D02*
X3906200Y-6865300D01*
X3906200Y-6825300D02*
X3866200Y-6865300D01*
X3891600Y-2697800D02*
X3931600Y-2737800D01*
X3931600Y-2697800D02*
X3891600Y-2737800D01*
X3904300Y-5656900D02*
X3944300Y-5696900D01*
X3944300Y-5656900D02*
X3904300Y-5696900D01*
X3923572Y-18524981D02*
X3963572Y-18564981D01*
X3963572Y-18524981D02*
X3923572Y-18564981D01*
X3942399Y-8641400D02*
X3982399Y-8681400D01*
X3982399Y-8641400D02*
X3942399Y-8681400D01*
X3942400Y-6926900D02*
X3982400Y-6966900D01*
X3982400Y-6926900D02*
X3942400Y-6966900D01*
X3942400Y-12451401D02*
X3982400Y-12491401D01*
X3982400Y-12451401D02*
X3942400Y-12491401D01*
X4040339Y-6045103D02*
X4080339Y-6085103D01*
X4080339Y-6045103D02*
X4040339Y-6085103D01*
X4044000Y-9375100D02*
X4084000Y-9415100D01*
X4084000Y-9375100D02*
X4044000Y-9415100D01*
X4044000Y-10546400D02*
X4084000Y-10586400D01*
X4084000Y-10546400D02*
X4044000Y-10586400D01*
X4044000Y-13543600D02*
X4084000Y-13583600D01*
X4084000Y-13543600D02*
X4044000Y-13583600D01*
X4044000Y-15143800D02*
X4084000Y-15183800D01*
X4084000Y-15143800D02*
X4044000Y-15183800D01*
X4044000Y-16921800D02*
X4084000Y-16961800D01*
X4084000Y-16921800D02*
X4044000Y-16961800D01*
X4059358Y-12461442D02*
X4099358Y-12501442D01*
X4099358Y-12461442D02*
X4059358Y-12501442D01*
X4069400Y-5949000D02*
X4109400Y-5989000D01*
X4109400Y-5949000D02*
X4069400Y-5989000D01*
X4110000Y-4856800D02*
X4150000Y-4896800D01*
X4150000Y-4856800D02*
X4110000Y-4896800D01*
X4110000Y-11232200D02*
X4150000Y-11272200D01*
X4150000Y-11232200D02*
X4110000Y-11272200D01*
X4110000Y-17543400D02*
X4150000Y-17583400D01*
X4150000Y-17543400D02*
X4110000Y-17583400D01*
X4120200Y-13442000D02*
X4160200Y-13482000D01*
X4160200Y-13442000D02*
X4120200Y-13482000D01*
X4145600Y-2697800D02*
X4185600Y-2737800D01*
X4185600Y-2697800D02*
X4145600Y-2737800D01*
X4171000Y-5441000D02*
X4211000Y-5481000D01*
X4211000Y-5441000D02*
X4171000Y-5481000D01*
X4196399Y-7269800D02*
X4236399Y-7309800D01*
X4236399Y-7269800D02*
X4196399Y-7309800D01*
X4196400Y-4475800D02*
X4236400Y-4515800D01*
X4236400Y-4475800D02*
X4196400Y-4515800D01*
X4196400Y-5949000D02*
X4236400Y-5989000D01*
X4236400Y-5949000D02*
X4196400Y-5989000D01*
X4196400Y-12248200D02*
X4236400Y-12288200D01*
X4236400Y-12248200D02*
X4196400Y-12288200D01*
X4196401Y-12451400D02*
X4236401Y-12491400D01*
X4236401Y-12451400D02*
X4196401Y-12491400D01*
X4221800Y-5542600D02*
X4261800Y-5582600D01*
X4261800Y-5542600D02*
X4221800Y-5582600D01*
X4234500Y-8755700D02*
X4274500Y-8795700D01*
X4274500Y-8755700D02*
X4234500Y-8795700D01*
X4247200Y-7041199D02*
X4287200Y-7081199D01*
X4287200Y-7041199D02*
X4247200Y-7081199D01*
X4298000Y-9375100D02*
X4338000Y-9415100D01*
X4338000Y-9375100D02*
X4298000Y-9415100D01*
X4298000Y-15143800D02*
X4338000Y-15183800D01*
X4338000Y-15143800D02*
X4298000Y-15183800D01*
X4374200Y-8654100D02*
X4414200Y-8694100D01*
X4414200Y-8654100D02*
X4374200Y-8694100D01*
X4399600Y-2697800D02*
X4439600Y-2737800D01*
X4439600Y-2697800D02*
X4399600Y-2737800D01*
X4425000Y-16947797D02*
X4465000Y-16987797D01*
X4465000Y-16947797D02*
X4425000Y-16987797D01*
X4552000Y-10952800D02*
X4592000Y-10992800D01*
X4592000Y-10952800D02*
X4552000Y-10992800D01*
X4552000Y-15143800D02*
X4592000Y-15183800D01*
X4592000Y-15143800D02*
X4552000Y-15183800D01*
X4552000Y-18801400D02*
X4592000Y-18841400D01*
X4592000Y-18801400D02*
X4552000Y-18841400D01*
X4577400Y-5161600D02*
X4617400Y-5201600D01*
X4617400Y-5161600D02*
X4577400Y-5201600D01*
X4577400Y-6076000D02*
X4617400Y-6116000D01*
X4617400Y-6076000D02*
X4577400Y-6116000D01*
X4577400Y-12426000D02*
X4617400Y-12466000D01*
X4617400Y-12426000D02*
X4577400Y-12466000D01*
X4602800Y-12578400D02*
X4642800Y-12618400D01*
X4642800Y-12578400D02*
X4602800Y-12618400D01*
X4628200Y-6203000D02*
X4668200Y-6243000D01*
X4668200Y-6203000D02*
X4628200Y-6243000D01*
X4653600Y-2697800D02*
X4693600Y-2737800D01*
X4693600Y-2697800D02*
X4653600Y-2737800D01*
X4653600Y-5060000D02*
X4693600Y-5100000D01*
X4693600Y-5060000D02*
X4653600Y-5100000D01*
X4653600Y-11232200D02*
X4693600Y-11272200D01*
X4693600Y-11232200D02*
X4653600Y-11272200D01*
X4653600Y-18682000D02*
X4693600Y-18722000D01*
X4693600Y-18682000D02*
X4653600Y-18722000D01*
X4679000Y-9276400D02*
X4719000Y-9316400D01*
X4719000Y-9276400D02*
X4679000Y-9316400D01*
X4704400Y-15143800D02*
X4744400Y-15183800D01*
X4744400Y-15143800D02*
X4704400Y-15183800D01*
X4704400Y-17226002D02*
X4744400Y-17266002D01*
X4744400Y-17226002D02*
X4704400Y-17266002D01*
X4729800Y-4958400D02*
X4769800Y-4998400D01*
X4769800Y-4958400D02*
X4729800Y-4998400D01*
X4729800Y-6253800D02*
X4769800Y-6293800D01*
X4769800Y-6253800D02*
X4729800Y-6293800D01*
X4729800Y-12349800D02*
X4769800Y-12389800D01*
X4769800Y-12349800D02*
X4729800Y-12389800D01*
X4755200Y-11460798D02*
X4795200Y-11500798D01*
X4795200Y-11460798D02*
X4755200Y-11500798D01*
X4787636Y-17282146D02*
X4827636Y-17322146D01*
X4827636Y-17282146D02*
X4787636Y-17322146D01*
X4806000Y-4856800D02*
X4846000Y-4896800D01*
X4846000Y-4856800D02*
X4806000Y-4896800D01*
X4806000Y-5923600D02*
X4846000Y-5963600D01*
X4846000Y-5923600D02*
X4806000Y-5963600D01*
X4806000Y-12578400D02*
X4846000Y-12618400D01*
X4846000Y-12578400D02*
X4806000Y-12618400D01*
X4831400Y-11664000D02*
X4871400Y-11704000D01*
X4871400Y-11664000D02*
X4831400Y-11704000D01*
X4856320Y-11842280D02*
X4896320Y-11882280D01*
X4896320Y-11842280D02*
X4856320Y-11882280D01*
X4856800Y-6253800D02*
X4896800Y-6293800D01*
X4896800Y-6253800D02*
X4856800Y-6293800D01*
X4857475Y-17354277D02*
X4897475Y-17394277D01*
X4897475Y-17354277D02*
X4857475Y-17394277D01*
X4882200Y-12273600D02*
X4922200Y-12313600D01*
X4922200Y-12273600D02*
X4882200Y-12313600D01*
X4889599Y-14229400D02*
X4929599Y-14269400D01*
X4929599Y-14229400D02*
X4889599Y-14269400D01*
X4906179Y-12597122D02*
X4946179Y-12637122D01*
X4946179Y-12597122D02*
X4906179Y-12637122D01*
X4907600Y-2697800D02*
X4947600Y-2737800D01*
X4947600Y-2697800D02*
X4907600Y-2737800D01*
X4907600Y-5263200D02*
X4947600Y-5303200D01*
X4947600Y-5263200D02*
X4907600Y-5303200D01*
X4933000Y-5771200D02*
X4973000Y-5811200D01*
X4973000Y-5771200D02*
X4933000Y-5811200D01*
X4933000Y-8235000D02*
X4973000Y-8275000D01*
X4973000Y-8235000D02*
X4933000Y-8275000D01*
X4933000Y-17429800D02*
X4973000Y-17469800D01*
X4973000Y-17429800D02*
X4933000Y-17469800D01*
X4971101Y-5901199D02*
X5011101Y-5941199D01*
X5011101Y-5901199D02*
X4971101Y-5941199D01*
X4983800Y-12273600D02*
X5023800Y-12313600D01*
X5023800Y-12273600D02*
X4983800Y-12313600D01*
X5009200Y-9200200D02*
X5049200Y-9240200D01*
X5049200Y-9200200D02*
X5009200Y-9240200D01*
X5060000Y-8108000D02*
X5100000Y-8148000D01*
X5100000Y-8108000D02*
X5060000Y-8148000D01*
X5060000Y-10952800D02*
X5100000Y-10992800D01*
X5100000Y-10952800D02*
X5060000Y-10992800D01*
X5085400Y-3942400D02*
X5125400Y-3982400D01*
X5125400Y-3942400D02*
X5085400Y-3982400D01*
X5110800Y-14153200D02*
X5150800Y-14193200D01*
X5150800Y-14153200D02*
X5110800Y-14193200D01*
X5110800Y-18928400D02*
X5150800Y-18968400D01*
X5150800Y-18928400D02*
X5110800Y-18968400D01*
X5136200Y-6228400D02*
X5176200Y-6268400D01*
X5176200Y-6228400D02*
X5136200Y-6268400D01*
X5136200Y-12578400D02*
X5176200Y-12618400D01*
X5176200Y-12578400D02*
X5136200Y-12618400D01*
X5187000Y-7981000D02*
X5227000Y-8021000D01*
X5227000Y-7981000D02*
X5187000Y-8021000D01*
X5314000Y-7854000D02*
X5354000Y-7894000D01*
X5354000Y-7854000D02*
X5314000Y-7894000D01*
X5314000Y-14077000D02*
X5354000Y-14117000D01*
X5354000Y-14077000D02*
X5314000Y-14117000D01*
X5364800Y-19792000D02*
X5404800Y-19832000D01*
X5404800Y-19792000D02*
X5364800Y-19832000D01*
X5364800Y-20046000D02*
X5404800Y-20086000D01*
X5404800Y-20046000D02*
X5364800Y-20086000D01*
X5441000Y-7727000D02*
X5481000Y-7767000D01*
X5481000Y-7727000D02*
X5441000Y-7767000D01*
X5517200Y-14000800D02*
X5557200Y-14040800D01*
X5557200Y-14000800D02*
X5517200Y-14040800D01*
X5568000Y-7600000D02*
X5608000Y-7640000D01*
X5608000Y-7600000D02*
X5568000Y-7640000D01*
X5593400Y-13442000D02*
X5633400Y-13482000D01*
X5633400Y-13442000D02*
X5593400Y-13482000D01*
X5593400Y-13696000D02*
X5633400Y-13736000D01*
X5633400Y-13696000D02*
X5593400Y-13736000D01*
X5618800Y-6838000D02*
X5658800Y-6878000D01*
X5658800Y-6838000D02*
X5618800Y-6878000D01*
X5618800Y-7092000D02*
X5658800Y-7132000D01*
X5658800Y-7092000D02*
X5618800Y-7132000D01*
X5618800Y-7346000D02*
X5658800Y-7386000D01*
X5658800Y-7346000D02*
X5618800Y-7386000D01*
X5695000Y-7473000D02*
X5735000Y-7513000D01*
X5735000Y-7473000D02*
X5695000Y-7513000D01*
X5720400Y-13924600D02*
X5760400Y-13964600D01*
X5760400Y-13924600D02*
X5720400Y-13964600D01*
X5822000Y-7346000D02*
X5862000Y-7386000D01*
X5862000Y-7346000D02*
X5822000Y-7386000D01*
X5949000Y-13327700D02*
X5989000Y-13367700D01*
X5989000Y-13327700D02*
X5949000Y-13367700D01*
X5974400Y-8260400D02*
X6014400Y-8300400D01*
X6014400Y-8260400D02*
X5974400Y-8300400D01*
X6025200Y-13454700D02*
X6065200Y-13494700D01*
X6065200Y-13454700D02*
X6025200Y-13494700D01*
X6076000Y-11156000D02*
X6116000Y-11196000D01*
X6116000Y-11156000D02*
X6076000Y-11196000D01*
X6076000Y-11410000D02*
X6116000Y-11450000D01*
X6116000Y-11410000D02*
X6076000Y-11450000D01*
X6076000Y-11664000D02*
X6116000Y-11704000D01*
X6116000Y-11664000D02*
X6076000Y-11704000D01*
X6076000Y-11918000D02*
X6116000Y-11958000D01*
X6116000Y-11918000D02*
X6076000Y-11958000D01*
X6076000Y-12172000D02*
X6116000Y-12212000D01*
X6116000Y-12172000D02*
X6076000Y-12212000D01*
X6076000Y-12349800D02*
X6116000Y-12389800D01*
X6116000Y-12349800D02*
X6076000Y-12389800D01*
X6076000Y-12527600D02*
X6116000Y-12567600D01*
X6116000Y-12527600D02*
X6076000Y-12567600D01*
X6152200Y-8362000D02*
X6192200Y-8402000D01*
X6192200Y-8362000D02*
X6152200Y-8402000D01*
X6152200Y-17506000D02*
X6192200Y-17546000D01*
X6192200Y-17506000D02*
X6152200Y-17546000D01*
X6228400Y-8463600D02*
X6268400Y-8503600D01*
X6268400Y-8463600D02*
X6228400Y-8503600D01*
X6228400Y-12527600D02*
X6268400Y-12567600D01*
X6268400Y-12527600D02*
X6228400Y-12567600D01*
X6228400Y-17582200D02*
X6268400Y-17622200D01*
X6268400Y-17582200D02*
X6228400Y-17622200D01*
X6304600Y-8565200D02*
X6344600Y-8605200D01*
X6344600Y-8565200D02*
X6304600Y-8605200D01*
X6304600Y-12349800D02*
X6344600Y-12389800D01*
X6344600Y-12349800D02*
X6304600Y-12389800D01*
X6304600Y-17658400D02*
X6344600Y-17698400D01*
X6344600Y-17658400D02*
X6304600Y-17698400D01*
X6380800Y-8666800D02*
X6420800Y-8706800D01*
X6420800Y-8666800D02*
X6380800Y-8706800D01*
X6380800Y-12172000D02*
X6420800Y-12212000D01*
X6420800Y-12172000D02*
X6380800Y-12212000D01*
X6380800Y-17734600D02*
X6420800Y-17774600D01*
X6420800Y-17734600D02*
X6380800Y-17774600D01*
X6457000Y-8768400D02*
X6497000Y-8808400D01*
X6497000Y-8768400D02*
X6457000Y-8808400D01*
X6457000Y-11918000D02*
X6497000Y-11958000D01*
X6497000Y-11918000D02*
X6457000Y-11958000D01*
X6457000Y-18395000D02*
X6497000Y-18435000D01*
X6497000Y-18395000D02*
X6457000Y-18435000D01*
X6533200Y-11664000D02*
X6573200Y-11704000D01*
X6573200Y-11664000D02*
X6533200Y-11704000D01*
X6533799Y-8870000D02*
X6573799Y-8910000D01*
X6573799Y-8870000D02*
X6533799Y-8910000D01*
X6533799Y-18674400D02*
X6573799Y-18714400D01*
X6573799Y-18674400D02*
X6533799Y-18714400D01*
X6609999Y-8971600D02*
X6649999Y-9011600D01*
X6649999Y-8971600D02*
X6609999Y-9011600D01*
X6609999Y-11410000D02*
X6649999Y-11450000D01*
X6649999Y-11410000D02*
X6609999Y-11450000D01*
X6609999Y-19356534D02*
X6649999Y-19396534D01*
X6649999Y-19356534D02*
X6609999Y-19396534D01*
X6685601Y-9073200D02*
X6725601Y-9113200D01*
X6725601Y-9073200D02*
X6685601Y-9113200D01*
X6685601Y-11156000D02*
X6725601Y-11196000D01*
X6725601Y-11156000D02*
X6685601Y-11196000D01*
X6685601Y-19436400D02*
X6725601Y-19476400D01*
X6725601Y-19436400D02*
X6685601Y-19476400D01*
X6761800Y-10394000D02*
X6801800Y-10434000D01*
X6801800Y-10394000D02*
X6761800Y-10434000D01*
X6838000Y-16591600D02*
X6878000Y-16631600D01*
X6878000Y-16591600D02*
X6838000Y-16631600D01*
X7015800Y-16540800D02*
X7055800Y-16580800D01*
X7055800Y-16540800D02*
X7015800Y-16580800D01*
X7092000Y-16617000D02*
X7132000Y-16657000D01*
X7132000Y-16617000D02*
X7092000Y-16657000D01*
X7168200Y-16998598D02*
X7208200Y-17038598D01*
X7208200Y-16998598D02*
X7168200Y-17038598D01*
X7193600Y-12934000D02*
X7233600Y-12974000D01*
X7233600Y-12934000D02*
X7193600Y-12974000D01*
X7244400Y-5568000D02*
X7284400Y-5608000D01*
X7284400Y-5568000D02*
X7244400Y-5608000D01*
X7320600Y-18141000D02*
X7360600Y-18181000D01*
X7360600Y-18141000D02*
X7320600Y-18181000D01*
X7320601Y-17048800D02*
X7360601Y-17088800D01*
X7360601Y-17048800D02*
X7320601Y-17088800D01*
X7327939Y-5512308D02*
X7367939Y-5552308D01*
X7367939Y-5512308D02*
X7327939Y-5552308D01*
X7371400Y-9149400D02*
X7411400Y-9189400D01*
X7411400Y-9149400D02*
X7371400Y-9189400D01*
X7371400Y-12934000D02*
X7411400Y-12974000D01*
X7411400Y-12934000D02*
X7371400Y-12974000D01*
X7403540Y-5441000D02*
X7443540Y-5481000D01*
X7443540Y-5441000D02*
X7403540Y-5481000D01*
X7422200Y-9276400D02*
X7462200Y-9316400D01*
X7462200Y-9276400D02*
X7422200Y-9316400D01*
X7447600Y-9428800D02*
X7487600Y-9468800D01*
X7487600Y-9428800D02*
X7447600Y-9468800D01*
X7498400Y-12908600D02*
X7538400Y-12948600D01*
X7538400Y-12908600D02*
X7498400Y-12948600D01*
X7498400Y-18064800D02*
X7538400Y-18104800D01*
X7538400Y-18064800D02*
X7498400Y-18104800D01*
X7500525Y-5466966D02*
X7540525Y-5506966D01*
X7540525Y-5466966D02*
X7500525Y-5506966D01*
X7523800Y-7244400D02*
X7563800Y-7284400D01*
X7563800Y-7244400D02*
X7523800Y-7284400D01*
X7549199Y-18242600D02*
X7589199Y-18282600D01*
X7589199Y-18242600D02*
X7549199Y-18282600D01*
X7574600Y-18674400D02*
X7614600Y-18714400D01*
X7614600Y-18674400D02*
X7574600Y-18714400D01*
X7600000Y-8260400D02*
X7640000Y-8300400D01*
X7640000Y-8260400D02*
X7600000Y-8300400D01*
X7600000Y-12019600D02*
X7640000Y-12059600D01*
X7640000Y-12019600D02*
X7600000Y-12059600D01*
X7600000Y-15169200D02*
X7640000Y-15209200D01*
X7640000Y-15169200D02*
X7600000Y-15209200D01*
X7625400Y-5568000D02*
X7665400Y-5608000D01*
X7665400Y-5568000D02*
X7625400Y-5608000D01*
X7625400Y-17988600D02*
X7665400Y-18028600D01*
X7665400Y-17988600D02*
X7625400Y-18028600D01*
X7630955Y-18591306D02*
X7670955Y-18631306D01*
X7670955Y-18591306D02*
X7630955Y-18631306D01*
X7701600Y-6888800D02*
X7741600Y-6928800D01*
X7741600Y-6888800D02*
X7701600Y-6928800D01*
X7854000Y-15169200D02*
X7894000Y-15209200D01*
X7894000Y-15169200D02*
X7854000Y-15209200D01*
X7854000Y-19360200D02*
X7894000Y-19400200D01*
X7894000Y-19360200D02*
X7854000Y-19400200D01*
X7929901Y-5801617D02*
X7969901Y-5841617D01*
X7969901Y-5801617D02*
X7929901Y-5841617D01*
X7930200Y-13403900D02*
X7970200Y-13443900D01*
X7970200Y-13403900D02*
X7930200Y-13443900D01*
X7930200Y-14229400D02*
X7970200Y-14269400D01*
X7970200Y-14229400D02*
X7930200Y-14269400D01*
X7955600Y-9352600D02*
X7995600Y-9392600D01*
X7995600Y-9352600D02*
X7955600Y-9392600D01*
X7955600Y-11308400D02*
X7995600Y-11348400D01*
X7995600Y-11308400D02*
X7955600Y-11348400D01*
X7955600Y-12578400D02*
X7995600Y-12618400D01*
X7995600Y-12578400D02*
X7955600Y-12618400D01*
X7955600Y-13721400D02*
X7995600Y-13761400D01*
X7995600Y-13721400D02*
X7955600Y-13761400D01*
X7980998Y-18242600D02*
X8020998Y-18282600D01*
X8020998Y-18242600D02*
X7980998Y-18282600D01*
X7981000Y-18420400D02*
X8021000Y-18460400D01*
X8021000Y-18420400D02*
X7981000Y-18460400D01*
X7981000Y-19436400D02*
X8021000Y-19476400D01*
X8021000Y-19436400D02*
X7981000Y-19476400D01*
X8006400Y-11791000D02*
X8046400Y-11831000D01*
X8046400Y-11791000D02*
X8006400Y-11831000D01*
X8031800Y-5872801D02*
X8071800Y-5912801D01*
X8071800Y-5872801D02*
X8031800Y-5912801D01*
X8044500Y-18839500D02*
X8084500Y-18879500D01*
X8084500Y-18839500D02*
X8044500Y-18879500D01*
X8057200Y-11892600D02*
X8097200Y-11932600D01*
X8097200Y-11892600D02*
X8057200Y-11932600D01*
X8057200Y-11994200D02*
X8097200Y-12034200D01*
X8097200Y-11994200D02*
X8057200Y-12034200D01*
X8069900Y-10419400D02*
X8109900Y-10459400D01*
X8109900Y-10419400D02*
X8069900Y-10459400D01*
X8082600Y-18153700D02*
X8122600Y-18193700D01*
X8122600Y-18153700D02*
X8082600Y-18193700D01*
X8108000Y-15169200D02*
X8148000Y-15209200D01*
X8148000Y-15169200D02*
X8108000Y-15209200D01*
X8108000Y-20071400D02*
X8148000Y-20111400D01*
X8148000Y-20071400D02*
X8108000Y-20111400D01*
X8133400Y-14153200D02*
X8173400Y-14193200D01*
X8173400Y-14153200D02*
X8133400Y-14193200D01*
X8141156Y-5955548D02*
X8181156Y-5995548D01*
X8181156Y-5955548D02*
X8141156Y-5995548D01*
X8184200Y-12375200D02*
X8224200Y-12415200D01*
X8224200Y-12375200D02*
X8184200Y-12415200D01*
X8184200Y-14737398D02*
X8224200Y-14777398D01*
X8224200Y-14737398D02*
X8184200Y-14777398D01*
X8184200Y-17506000D02*
X8224200Y-17546000D01*
X8224200Y-17506000D02*
X8184200Y-17546000D01*
X8202000Y-6685600D02*
X8242000Y-6725600D01*
X8242000Y-6685600D02*
X8202000Y-6725600D01*
X8202000Y-12934000D02*
X8242000Y-12974000D01*
X8242000Y-12934000D02*
X8202000Y-12974000D01*
X8202000Y-19461800D02*
X8242000Y-19501800D01*
X8242000Y-19461800D02*
X8202000Y-19501800D01*
X8235000Y-6025200D02*
X8275000Y-6065200D01*
X8275000Y-6025200D02*
X8235000Y-6065200D01*
X8235000Y-18928400D02*
X8275000Y-18968400D01*
X8275000Y-18928400D02*
X8235000Y-18968400D01*
X8285800Y-17582200D02*
X8325800Y-17622200D01*
X8325800Y-17582200D02*
X8285800Y-17622200D01*
X8311200Y-15169200D02*
X8351200Y-15209200D01*
X8351200Y-15169200D02*
X8311200Y-15209200D01*
X8323900Y-19538000D02*
X8363900Y-19578000D01*
X8363900Y-19538000D02*
X8323900Y-19578000D01*
X8336600Y-6558600D02*
X8376600Y-6598600D01*
X8376600Y-6558600D02*
X8336600Y-6598600D01*
X8336600Y-14077000D02*
X8376600Y-14117000D01*
X8376600Y-14077000D02*
X8336600Y-14117000D01*
X8349300Y-6228400D02*
X8389300Y-6268400D01*
X8389300Y-6228400D02*
X8349300Y-6268400D01*
X8362000Y-9375100D02*
X8402000Y-9415100D01*
X8402000Y-9375100D02*
X8362000Y-9415100D01*
X8362000Y-12578400D02*
X8402000Y-12618400D01*
X8402000Y-12578400D02*
X8362000Y-12618400D01*
X8362000Y-13327700D02*
X8402000Y-13367700D01*
X8402000Y-13327700D02*
X8362000Y-13367700D01*
X8362000Y-18242600D02*
X8402000Y-18282600D01*
X8402000Y-18242600D02*
X8362000Y-18282600D01*
X8387400Y-6660200D02*
X8427400Y-6700200D01*
X8427400Y-6660200D02*
X8387400Y-6700200D01*
X8412800Y-5009200D02*
X8452800Y-5049200D01*
X8452800Y-5009200D02*
X8412800Y-5049200D01*
X8438200Y-18166400D02*
X8478200Y-18206400D01*
X8478200Y-18166400D02*
X8438200Y-18206400D01*
X8450900Y-19538000D02*
X8490900Y-19578000D01*
X8490900Y-19538000D02*
X8450900Y-19578000D01*
X8463001Y-6764247D02*
X8503001Y-6804247D01*
X8503001Y-6764247D02*
X8463001Y-6804247D01*
X8463600Y-10902000D02*
X8503600Y-10942000D01*
X8503600Y-10902000D02*
X8463600Y-10942000D01*
X8463600Y-11410000D02*
X8503600Y-11450000D01*
X8503600Y-11410000D02*
X8463600Y-11450000D01*
X8463600Y-16947200D02*
X8503600Y-16987200D01*
X8503600Y-16947200D02*
X8463600Y-16987200D01*
X8466437Y-6123197D02*
X8506437Y-6163197D01*
X8506437Y-6123197D02*
X8466437Y-6163197D01*
X8489000Y-17048800D02*
X8529000Y-17088800D01*
X8529000Y-17048800D02*
X8489000Y-17088800D01*
X8513802Y-6873614D02*
X8553802Y-6913614D01*
X8553802Y-6873614D02*
X8513802Y-6913614D01*
X8539800Y-4831400D02*
X8579800Y-4871400D01*
X8579800Y-4831400D02*
X8539800Y-4871400D01*
X8564603Y-6979565D02*
X8604603Y-7019565D01*
X8604603Y-6979565D02*
X8564603Y-7019565D01*
X8565200Y-14000800D02*
X8605200Y-14040800D01*
X8605200Y-14000800D02*
X8565200Y-14040800D01*
X8616000Y-7066600D02*
X8656000Y-7106600D01*
X8656000Y-7066600D02*
X8616000Y-7106600D01*
X8616000Y-15725100D02*
X8656000Y-15765100D01*
X8656000Y-15725100D02*
X8616000Y-15765100D01*
X8641400Y-5644200D02*
X8681400Y-5684200D01*
X8681400Y-5644200D02*
X8641400Y-5684200D01*
X8653620Y-7180420D02*
X8693620Y-7220420D01*
X8693620Y-7180420D02*
X8653620Y-7220420D01*
X8666800Y-5542600D02*
X8706800Y-5582600D01*
X8706800Y-5542600D02*
X8666800Y-5582600D01*
X8682000Y-5009200D02*
X8722000Y-5049200D01*
X8722000Y-5009200D02*
X8682000Y-5049200D01*
X8682000Y-11257600D02*
X8722000Y-11297600D01*
X8722000Y-11257600D02*
X8682000Y-11297600D01*
X8682000Y-17709200D02*
X8722000Y-17749200D01*
X8722000Y-17709200D02*
X8682000Y-17749200D01*
X8717600Y-11968800D02*
X8757600Y-12008800D01*
X8757600Y-11968800D02*
X8717600Y-12008800D01*
X8720258Y-12073058D02*
X8760258Y-12113058D01*
X8760258Y-12073058D02*
X8720258Y-12113058D01*
X8743000Y-12197400D02*
X8783000Y-12237400D01*
X8783000Y-12197400D02*
X8743000Y-12237400D01*
X8745846Y-12301470D02*
X8785846Y-12341470D01*
X8785846Y-12301470D02*
X8745846Y-12341470D01*
X8768400Y-5949000D02*
X8808400Y-5989000D01*
X8808400Y-5949000D02*
X8768400Y-5989000D01*
X8768400Y-9352600D02*
X8808400Y-9392600D01*
X8808400Y-9352600D02*
X8768400Y-9392600D01*
X8768400Y-12502200D02*
X8808400Y-12542200D01*
X8808400Y-12502200D02*
X8768400Y-12542200D01*
X8793800Y-4526600D02*
X8833800Y-4566600D01*
X8833800Y-4526600D02*
X8793800Y-4566600D01*
X8793800Y-13924600D02*
X8833800Y-13964600D01*
X8833800Y-13924600D02*
X8793800Y-13964600D01*
X8870000Y-15725100D02*
X8910000Y-15765100D01*
X8910000Y-15725100D02*
X8870000Y-15765100D01*
X9047800Y-13848400D02*
X9087800Y-13888400D01*
X9087800Y-13848400D02*
X9047800Y-13888400D01*
X9073200Y-6152200D02*
X9113200Y-6192200D01*
X9113200Y-6152200D02*
X9073200Y-6192200D01*
X9098600Y-5491800D02*
X9138600Y-5531800D01*
X9138600Y-5491800D02*
X9098600Y-5531800D01*
X9124000Y-12172000D02*
X9164000Y-12212000D01*
X9164000Y-12172000D02*
X9124000Y-12212000D01*
X9124000Y-15725100D02*
X9164000Y-15765100D01*
X9164000Y-15725100D02*
X9124000Y-15765100D01*
X9124000Y-18801400D02*
X9164000Y-18841400D01*
X9164000Y-18801400D02*
X9124000Y-18841400D01*
X9149400Y-5999800D02*
X9189400Y-6039800D01*
X9189400Y-5999800D02*
X9149400Y-6039800D01*
X9149400Y-12451400D02*
X9189400Y-12491400D01*
X9189400Y-12451400D02*
X9149400Y-12491400D01*
X9154293Y-5575339D02*
X9194293Y-5615339D01*
X9194293Y-5575339D02*
X9154293Y-5615339D01*
X9238300Y-10571800D02*
X9278300Y-10611800D01*
X9278300Y-10571800D02*
X9238300Y-10611800D01*
X9251673Y-5650940D02*
X9291673Y-5690940D01*
X9291673Y-5650940D02*
X9251673Y-5690940D01*
X9276400Y-6076000D02*
X9316400Y-6116000D01*
X9316400Y-6076000D02*
X9276400Y-6116000D01*
X9276400Y-12332000D02*
X9316400Y-12372000D01*
X9316400Y-12332000D02*
X9276400Y-12372000D01*
X9301800Y-13772200D02*
X9341800Y-13812200D01*
X9341800Y-13772200D02*
X9301800Y-13812200D01*
X9301800Y-18682000D02*
X9341800Y-18722000D01*
X9341800Y-18682000D02*
X9301800Y-18722000D01*
X9327200Y-5720400D02*
X9367200Y-5760400D01*
X9367200Y-5720400D02*
X9327200Y-5760400D01*
X9377963Y-17657801D02*
X9417963Y-17697801D01*
X9417963Y-17657801D02*
X9377963Y-17697801D01*
X9378000Y-10571800D02*
X9418000Y-10611800D01*
X9418000Y-10571800D02*
X9378000Y-10611800D01*
X9378000Y-15725100D02*
X9418000Y-15765100D01*
X9418000Y-15725100D02*
X9378000Y-15765100D01*
X9461216Y-17734001D02*
X9501216Y-17774001D01*
X9501216Y-17734001D02*
X9461216Y-17774001D01*
X9534072Y-17810201D02*
X9574072Y-17850201D01*
X9574072Y-17810201D02*
X9534072Y-17850201D01*
X9581200Y-13696000D02*
X9621200Y-13736000D01*
X9621200Y-13696000D02*
X9581200Y-13736000D01*
X9617153Y-17886401D02*
X9657153Y-17926401D01*
X9657153Y-17886401D02*
X9617153Y-17926401D01*
X9632001Y-8260400D02*
X9672001Y-8300400D01*
X9672001Y-8260400D02*
X9632001Y-8300400D01*
X9682800Y-12680000D02*
X9722800Y-12720000D01*
X9722800Y-12680000D02*
X9682800Y-12720000D01*
X9759000Y-12172000D02*
X9799000Y-12212000D01*
X9799000Y-12172000D02*
X9759000Y-12212000D01*
X9759000Y-18623600D02*
X9799000Y-18663600D01*
X9799000Y-18623600D02*
X9759000Y-18663600D01*
X9784400Y-12578400D02*
X9824400Y-12618400D01*
X9824400Y-12578400D02*
X9784400Y-12618400D01*
X9809800Y-13619800D02*
X9849800Y-13659800D01*
X9849800Y-13619800D02*
X9809800Y-13659800D01*
X9911400Y-12426000D02*
X9951400Y-12466000D01*
X9951400Y-12426000D02*
X9911400Y-12466000D01*
X9911400Y-19792000D02*
X9951400Y-19832000D01*
X9951400Y-19792000D02*
X9911400Y-19832000D01*
X9911400Y-20020600D02*
X9951400Y-20060600D01*
X9951400Y-20020600D02*
X9911400Y-20060600D01*
X9936800Y-6076000D02*
X9976800Y-6116000D01*
X9976800Y-6076000D02*
X9936800Y-6116000D01*
X10013000Y-12095800D02*
X10053000Y-12135800D01*
X10053000Y-12095800D02*
X10013000Y-12135800D01*
X10013000Y-6685600D02*
X10053000Y-6725600D01*
X10053000Y-6685600D02*
X10013000Y-6725600D01*
X10038400Y-13543600D02*
X10078400Y-13583600D01*
X10078400Y-13543600D02*
X10038400Y-13583600D01*
X10114600Y-12248200D02*
X10154600Y-12288200D01*
X10154600Y-12248200D02*
X10114600Y-12288200D01*
X10292400Y-11308400D02*
X10332400Y-11348400D01*
X10332400Y-11308400D02*
X10292400Y-11348400D01*
X10292400Y-13467400D02*
X10332400Y-13507400D01*
X10332400Y-13467400D02*
X10292400Y-13507400D01*
X10317800Y-4907600D02*
X10357800Y-4947600D01*
X10357800Y-4907600D02*
X10317800Y-4947600D01*
X10343200Y-12680000D02*
X10383200Y-12720000D01*
X10383200Y-12680000D02*
X10343200Y-12720000D01*
X10444800Y-12578400D02*
X10484800Y-12618400D01*
X10484800Y-12578400D02*
X10444800Y-12618400D01*
X10495600Y-3942401D02*
X10535600Y-3982401D01*
X10535600Y-3942401D02*
X10495600Y-3982401D01*
X10571800Y-13391200D02*
X10611800Y-13431200D01*
X10611800Y-13391200D02*
X10571800Y-13431200D01*
X10648000Y-2443800D02*
X10688000Y-2483800D01*
X10688000Y-2443800D02*
X10648000Y-2483800D01*
X10673400Y-12476800D02*
X10713400Y-12516800D01*
X10713400Y-12476800D02*
X10673400Y-12516800D01*
X10722008Y-12621692D02*
X10762008Y-12661692D01*
X10762008Y-12621692D02*
X10722008Y-12661692D01*
X10825800Y-6457000D02*
X10865800Y-6497000D01*
X10865800Y-6457000D02*
X10825800Y-6497000D01*
X10825800Y-13315000D02*
X10865800Y-13355000D01*
X10865800Y-13315000D02*
X10825800Y-13355000D01*
X10927400Y-5212400D02*
X10967400Y-5252400D01*
X10967400Y-5212400D02*
X10927400Y-5252400D01*
X10978200Y-6761800D02*
X11018200Y-6801800D01*
X11018200Y-6761800D02*
X10978200Y-6801800D01*
X11029000Y-5314000D02*
X11069000Y-5354000D01*
X11069000Y-5314000D02*
X11029000Y-5354000D01*
X11054321Y-6848448D02*
X11094321Y-6888448D01*
X11094321Y-6848448D02*
X11054321Y-6888448D01*
X11129402Y-5410574D02*
X11169402Y-5450574D01*
X11169402Y-5410574D02*
X11129402Y-5450574D01*
X11156000Y-2443800D02*
X11196000Y-2483800D01*
X11196000Y-2443800D02*
X11156000Y-2483800D01*
X11219861Y-5502000D02*
X11259861Y-5542000D01*
X11259861Y-5502000D02*
X11219861Y-5542000D01*
X11410000Y-2443800D02*
X11450000Y-2483800D01*
X11450000Y-2443800D02*
X11410000Y-2483800D01*
X11410000Y-9375100D02*
X11450000Y-9415100D01*
X11450000Y-9375100D02*
X11410000Y-9415100D01*
X11435400Y-6533200D02*
X11475400Y-6573200D01*
X11475400Y-6533200D02*
X11435400Y-6573200D01*
X11486200Y-4196400D02*
X11526200Y-4236400D01*
X11526200Y-4196400D02*
X11486200Y-4236400D01*
X11511600Y-5669600D02*
X11551600Y-5709600D01*
X11551600Y-5669600D02*
X11511600Y-5709600D01*
X11511600Y-6609400D02*
X11551600Y-6649400D01*
X11551600Y-6609400D02*
X11511600Y-6649400D01*
X11562400Y-4298000D02*
X11602400Y-4338000D01*
X11602400Y-4298000D02*
X11562400Y-4338000D01*
X11562400Y-5479100D02*
X11602400Y-5519100D01*
X11602400Y-5479100D02*
X11562400Y-5519100D01*
X11562400Y-5822000D02*
X11602400Y-5862000D01*
X11602400Y-5822000D02*
X11562400Y-5862000D01*
X11587800Y-17506000D02*
X11627800Y-17546000D01*
X11627800Y-17506000D02*
X11587800Y-17546000D01*
X11613200Y-6685600D02*
X11653200Y-6725600D01*
X11653200Y-6685600D02*
X11613200Y-6725600D01*
X11638600Y-4399600D02*
X11678600Y-4439600D01*
X11678600Y-4399600D02*
X11638600Y-4439600D01*
X11664000Y-2443800D02*
X11704000Y-2483800D01*
X11704000Y-2443800D02*
X11664000Y-2483800D01*
X11664000Y-9375100D02*
X11704000Y-9415100D01*
X11704000Y-9375100D02*
X11664000Y-9415100D01*
X11689400Y-13315000D02*
X11729400Y-13355000D01*
X11729400Y-13315000D02*
X11689400Y-13355000D01*
X11714800Y-4475800D02*
X11754800Y-4515800D01*
X11754800Y-4475800D02*
X11714800Y-4515800D01*
X11740200Y-5491800D02*
X11780200Y-5531800D01*
X11780200Y-5491800D02*
X11740200Y-5531800D01*
X11758000Y-6609400D02*
X11798000Y-6649400D01*
X11798000Y-6609400D02*
X11758000Y-6649400D01*
X11765600Y-13391200D02*
X11805600Y-13431200D01*
X11805600Y-13391200D02*
X11765600Y-13431200D01*
X11791000Y-4577400D02*
X11831000Y-4617400D01*
X11831000Y-4577400D02*
X11791000Y-4617400D01*
X11816400Y-7219000D02*
X11856400Y-7259000D01*
X11856400Y-7219000D02*
X11816400Y-7259000D01*
X11816400Y-17582200D02*
X11856400Y-17622200D01*
X11856400Y-17582200D02*
X11816400Y-17622200D01*
X11841800Y-13467400D02*
X11881800Y-13507400D01*
X11881800Y-13467400D02*
X11841800Y-13507400D01*
X11918000Y-2443800D02*
X11958000Y-2483800D01*
X11958000Y-2443800D02*
X11918000Y-2483800D01*
X11918000Y-6584000D02*
X11958000Y-6624000D01*
X11958000Y-6584000D02*
X11918000Y-6624000D01*
X11918000Y-9375100D02*
X11958000Y-9415100D01*
X11958000Y-9375100D02*
X11918000Y-9415100D01*
X11918000Y-13543600D02*
X11958000Y-13583600D01*
X11958000Y-13543600D02*
X11918000Y-13583600D01*
X11994200Y-13619800D02*
X12034200Y-13659800D01*
X12034200Y-13619800D02*
X11994200Y-13659800D01*
X11996858Y-17655742D02*
X12036858Y-17695742D01*
X12036858Y-17655742D02*
X11996858Y-17695742D01*
X12034958Y-5679642D02*
X12074958Y-5719642D01*
X12074958Y-5679642D02*
X12034958Y-5719642D01*
X12070400Y-8565200D02*
X12110400Y-8605200D01*
X12110400Y-8565200D02*
X12070400Y-8605200D01*
X12070400Y-13696000D02*
X12110400Y-13736000D01*
X12110400Y-13696000D02*
X12070400Y-13736000D01*
X12095800Y-6228400D02*
X12135800Y-6268400D01*
X12135800Y-6228400D02*
X12095800Y-6268400D01*
X12136558Y-5781242D02*
X12176558Y-5821242D01*
X12176558Y-5781242D02*
X12136558Y-5821242D01*
X12146600Y-5060000D02*
X12186600Y-5100000D01*
X12186600Y-5060000D02*
X12146600Y-5100000D01*
X12146600Y-8666800D02*
X12186600Y-8706800D01*
X12186600Y-8666800D02*
X12146600Y-8706800D01*
X12146600Y-13772200D02*
X12186600Y-13812200D01*
X12186600Y-13772200D02*
X12146600Y-13812200D01*
X12172000Y-2443800D02*
X12212000Y-2483800D01*
X12212000Y-2443800D02*
X12172000Y-2483800D01*
X12172000Y-4272600D02*
X12212000Y-4312600D01*
X12212000Y-4272600D02*
X12172000Y-4312600D01*
X12172000Y-9375100D02*
X12212000Y-9415100D01*
X12212000Y-9375100D02*
X12172000Y-9415100D01*
X12172000Y-11156000D02*
X12212000Y-11196000D01*
X12212000Y-11156000D02*
X12172000Y-11196000D01*
X12172000Y-15169200D02*
X12212000Y-15209200D01*
X12212000Y-15169200D02*
X12172000Y-15209200D01*
X12197400Y-12478598D02*
X12237400Y-12518598D01*
X12237400Y-12478598D02*
X12197400Y-12518598D01*
X12197400Y-12578999D02*
X12237400Y-12618999D01*
X12237400Y-12578999D02*
X12197400Y-12618999D01*
X12197400Y-18344200D02*
X12237400Y-18384200D01*
X12237400Y-18344200D02*
X12197400Y-18384200D01*
X12210100Y-17950500D02*
X12250100Y-17990500D01*
X12250100Y-17950500D02*
X12210100Y-17990500D01*
X12222800Y-4828200D02*
X12262800Y-4868200D01*
X12262800Y-4828200D02*
X12222800Y-4868200D01*
X12222800Y-8768400D02*
X12262800Y-8808400D01*
X12262800Y-8768400D02*
X12222800Y-8808400D01*
X12222800Y-13848400D02*
X12262800Y-13888400D01*
X12262800Y-13848400D02*
X12222800Y-13888400D01*
X12222801Y-6142000D02*
X12262801Y-6182000D01*
X12262801Y-6142000D02*
X12222801Y-6182000D01*
X12245542Y-11336458D02*
X12285542Y-11376458D01*
X12285542Y-11336458D02*
X12245542Y-11376458D01*
X12247625Y-5502170D02*
X12287625Y-5542170D01*
X12287625Y-5502170D02*
X12247625Y-5542170D01*
X12248799Y-5659357D02*
X12288799Y-5699357D01*
X12288799Y-5659357D02*
X12248799Y-5699357D01*
X12299000Y-13924600D02*
X12339000Y-13964600D01*
X12339000Y-13924600D02*
X12299000Y-13964600D01*
X12324400Y-8870000D02*
X12364400Y-8910000D01*
X12364400Y-8870000D02*
X12324400Y-8910000D01*
X12375200Y-4628200D02*
X12415200Y-4668200D01*
X12415200Y-4628200D02*
X12375200Y-4668200D01*
X12375200Y-5060000D02*
X12415200Y-5100000D01*
X12415200Y-5060000D02*
X12375200Y-5100000D01*
X12375200Y-19309400D02*
X12415200Y-19349400D01*
X12415200Y-19309400D02*
X12375200Y-19349400D01*
X12417639Y-11508555D02*
X12457639Y-11548555D01*
X12457639Y-11508555D02*
X12417639Y-11548555D01*
X12426000Y-2443800D02*
X12466000Y-2483800D01*
X12466000Y-2443800D02*
X12426000Y-2483800D01*
X12426000Y-6545900D02*
X12466000Y-6585900D01*
X12466000Y-6545900D02*
X12426000Y-6585900D01*
X12426000Y-9375100D02*
X12466000Y-9415100D01*
X12466000Y-9375100D02*
X12426000Y-9415100D01*
X12426000Y-15169200D02*
X12466000Y-15209200D01*
X12466000Y-15169200D02*
X12426000Y-15209200D01*
X12451400Y-19233200D02*
X12491400Y-19273200D01*
X12491400Y-19233200D02*
X12451400Y-19273200D01*
X12532053Y-11046551D02*
X12572053Y-11086551D01*
X12572053Y-11046551D02*
X12532053Y-11086551D01*
X12538399Y-17760320D02*
X12578399Y-17800320D01*
X12578399Y-17760320D02*
X12538399Y-17800320D01*
X12540300Y-6545900D02*
X12580300Y-6585900D01*
X12580300Y-6545900D02*
X12540300Y-6585900D01*
X12553000Y-11994200D02*
X12593000Y-12034200D01*
X12593000Y-11994200D02*
X12553000Y-12034200D01*
X12553000Y-17658400D02*
X12593000Y-17698400D01*
X12593000Y-17658400D02*
X12553000Y-17698400D01*
X12566899Y-12373814D02*
X12606899Y-12413814D01*
X12606899Y-12373814D02*
X12566899Y-12413814D01*
X12574074Y-18267266D02*
X12614074Y-18307266D01*
X12614074Y-18267266D02*
X12574074Y-18307266D01*
X12578400Y-18420400D02*
X12618400Y-18460400D01*
X12618400Y-18420400D02*
X12578400Y-18460400D01*
X12621069Y-11000112D02*
X12661069Y-11040112D01*
X12661069Y-11000112D02*
X12621069Y-11040112D01*
X12629199Y-12197400D02*
X12669199Y-12237400D01*
X12669199Y-12197400D02*
X12629199Y-12237400D01*
X12654600Y-11841800D02*
X12694600Y-11881800D01*
X12694600Y-11841800D02*
X12654600Y-11881800D01*
X12654600Y-12045000D02*
X12694600Y-12085000D01*
X12694600Y-12045000D02*
X12654600Y-12085000D01*
X12654600Y-12451400D02*
X12694600Y-12491400D01*
X12694600Y-12451400D02*
X12654600Y-12491400D01*
X12680000Y-2443800D02*
X12720000Y-2483800D01*
X12720000Y-2443800D02*
X12680000Y-2483800D01*
X12680000Y-5212400D02*
X12720000Y-5252400D01*
X12720000Y-5212400D02*
X12680000Y-5252400D01*
X12680000Y-6076000D02*
X12720000Y-6116000D01*
X12720000Y-6076000D02*
X12680000Y-6116000D01*
X12680000Y-8971600D02*
X12720000Y-9011600D01*
X12720000Y-8971600D02*
X12680000Y-9011600D01*
X12680000Y-9375100D02*
X12720000Y-9415100D01*
X12720000Y-9375100D02*
X12680000Y-9415100D01*
X12680000Y-14305600D02*
X12720000Y-14345600D01*
X12720000Y-14305600D02*
X12680000Y-14345600D01*
X12680000Y-15169200D02*
X12720000Y-15209200D01*
X12720000Y-15169200D02*
X12680000Y-15209200D01*
X12680000Y-20071400D02*
X12720000Y-20111400D01*
X12720000Y-20071400D02*
X12680000Y-20111400D01*
X12692700Y-18877600D02*
X12732700Y-18917600D01*
X12732700Y-18877600D02*
X12692700Y-18917600D01*
X12730800Y-17810800D02*
X12770800Y-17850800D01*
X12770800Y-17810800D02*
X12730800Y-17850800D01*
X12756200Y-11029000D02*
X12796200Y-11069000D01*
X12796200Y-11029000D02*
X12756200Y-11069000D01*
X12774000Y-12934000D02*
X12814000Y-12974000D01*
X12814000Y-12934000D02*
X12774000Y-12974000D01*
X12774000Y-19472600D02*
X12814000Y-19512600D01*
X12814000Y-19472600D02*
X12774000Y-19512600D01*
X12781600Y-4704400D02*
X12821600Y-4744400D01*
X12821600Y-4704400D02*
X12781600Y-4744400D01*
X12807000Y-14000800D02*
X12847000Y-14040800D01*
X12847000Y-14000800D02*
X12807000Y-14040800D01*
X12832400Y-11105200D02*
X12872400Y-11145200D01*
X12872400Y-11105200D02*
X12832400Y-11145200D01*
X12857800Y-4907600D02*
X12897800Y-4947600D01*
X12897800Y-4907600D02*
X12857800Y-4947600D01*
X12857800Y-5982000D02*
X12897800Y-6022000D01*
X12897800Y-5982000D02*
X12857800Y-6022000D01*
X12908600Y-12553000D02*
X12948600Y-12593000D01*
X12948600Y-12553000D02*
X12908600Y-12593000D01*
X12908600Y-19538000D02*
X12948600Y-19578000D01*
X12948600Y-19538000D02*
X12908600Y-19578000D01*
X12917095Y-11159117D02*
X12957095Y-11199117D01*
X12957095Y-11159117D02*
X12917095Y-11199117D01*
X12934000Y-2443800D02*
X12974000Y-2483800D01*
X12974000Y-2443800D02*
X12934000Y-2483800D01*
X12934000Y-4983800D02*
X12974000Y-5023800D01*
X12974000Y-4983800D02*
X12934000Y-5023800D01*
X12934000Y-9375100D02*
X12974000Y-9415100D01*
X12974000Y-9375100D02*
X12934000Y-9415100D01*
X12934000Y-14077000D02*
X12974000Y-14117000D01*
X12974000Y-14077000D02*
X12934000Y-14117000D01*
X12934000Y-15169200D02*
X12974000Y-15209200D01*
X12974000Y-15169200D02*
X12934000Y-15209200D01*
X12934000Y-18928400D02*
X12974000Y-18968400D01*
X12974000Y-18928400D02*
X12934000Y-18968400D01*
X12999206Y-11216895D02*
X13039206Y-11256895D01*
X13039206Y-11216895D02*
X12999206Y-11256895D01*
X13014000Y-19436400D02*
X13054000Y-19476400D01*
X13054000Y-19436400D02*
X13014000Y-19476400D01*
X13035600Y-14153200D02*
X13075600Y-14193200D01*
X13075600Y-14153200D02*
X13035600Y-14193200D01*
X13035600Y-14712000D02*
X13075600Y-14752000D01*
X13075600Y-14712000D02*
X13035600Y-14752000D01*
X13048300Y-5060000D02*
X13088300Y-5100000D01*
X13088300Y-5060000D02*
X13048300Y-5100000D01*
X13067804Y-11290207D02*
X13107804Y-11330207D01*
X13107804Y-11290207D02*
X13067804Y-11330207D01*
X13086400Y-12349800D02*
X13126400Y-12389800D01*
X13126400Y-12349800D02*
X13086400Y-12389800D01*
X13137200Y-19360200D02*
X13177200Y-19400200D01*
X13177200Y-19360200D02*
X13137200Y-19400200D01*
X13139005Y-11360995D02*
X13179005Y-11400995D01*
X13179005Y-11360995D02*
X13139005Y-11400995D01*
X13157284Y-5568000D02*
X13197284Y-5608000D01*
X13197284Y-5568000D02*
X13157284Y-5608000D01*
X13174000Y-12248200D02*
X13214000Y-12288200D01*
X13214000Y-12248200D02*
X13174000Y-12288200D01*
X13188000Y-9375100D02*
X13228000Y-9415100D01*
X13228000Y-9375100D02*
X13188000Y-9415100D01*
X13188000Y-15169200D02*
X13228000Y-15209200D01*
X13228000Y-15169200D02*
X13188000Y-15209200D01*
X13188000Y-16921800D02*
X13228000Y-16961800D01*
X13228000Y-16921800D02*
X13188000Y-16961800D01*
X13213400Y-11435400D02*
X13253400Y-11475400D01*
X13253400Y-11435400D02*
X13213400Y-11475400D01*
X13254000Y-17556800D02*
X13294000Y-17596800D01*
X13294000Y-17556800D02*
X13254000Y-17596800D01*
X13264200Y-5815535D02*
X13304200Y-5855535D01*
X13304200Y-5815535D02*
X13264200Y-5855535D01*
X13264200Y-19360200D02*
X13304200Y-19400200D01*
X13304200Y-19360200D02*
X13264200Y-19400200D01*
X13289600Y-13238800D02*
X13329600Y-13278800D01*
X13329600Y-13238800D02*
X13289600Y-13278800D01*
X13295679Y-12538995D02*
X13335679Y-12578995D01*
X13335679Y-12538995D02*
X13295679Y-12578995D01*
X13315000Y-6253800D02*
X13355000Y-6293800D01*
X13355000Y-6253800D02*
X13315000Y-6293800D01*
X13315000Y-6888800D02*
X13355000Y-6928800D01*
X13355000Y-6888800D02*
X13315000Y-6928800D01*
X13315000Y-7523800D02*
X13355000Y-7563800D01*
X13355000Y-7523800D02*
X13315000Y-7563800D01*
X13315000Y-18826800D02*
X13355000Y-18866800D01*
X13355000Y-18826800D02*
X13315000Y-18866800D01*
X13340400Y-10927400D02*
X13380400Y-10967400D01*
X13380400Y-10927400D02*
X13340400Y-10967400D01*
X13340400Y-19284000D02*
X13380400Y-19324000D01*
X13380400Y-19284000D02*
X13340400Y-19324000D01*
X13365800Y-10775000D02*
X13405800Y-10815000D01*
X13405800Y-10775000D02*
X13365800Y-10815000D01*
X13365800Y-12070400D02*
X13405800Y-12110400D01*
X13405800Y-12070400D02*
X13365800Y-12110400D01*
X13424400Y-12730800D02*
X13464400Y-12770800D01*
X13464400Y-12730800D02*
X13424400Y-12770800D01*
X13442000Y-9375100D02*
X13482000Y-9415100D01*
X13482000Y-9375100D02*
X13442000Y-9415100D01*
X13442000Y-15169200D02*
X13482000Y-15209200D01*
X13482000Y-15169200D02*
X13442000Y-15209200D01*
X13492201Y-13151720D02*
X13532201Y-13191720D01*
X13532201Y-13151720D02*
X13492201Y-13191720D01*
X13510061Y-6061541D02*
X13550061Y-6101541D01*
X13550061Y-6061541D02*
X13510061Y-6101541D01*
X13518200Y-8463600D02*
X13558200Y-8503600D01*
X13558200Y-8463600D02*
X13518200Y-8503600D01*
X13543600Y-11587800D02*
X13583600Y-11627800D01*
X13583600Y-11587800D02*
X13543600Y-11627800D01*
X13570438Y-5981322D02*
X13610438Y-6021322D01*
X13610438Y-5981322D02*
X13570438Y-6021322D01*
X13594401Y-8362000D02*
X13634401Y-8402000D01*
X13634401Y-8362000D02*
X13594401Y-8402000D01*
X13619800Y-12705400D02*
X13659800Y-12745400D01*
X13659800Y-12705400D02*
X13619800Y-12745400D01*
X13645200Y-11714800D02*
X13685200Y-11754800D01*
X13685200Y-11714800D02*
X13645200Y-11754800D01*
X13670600Y-5974400D02*
X13710600Y-6014400D01*
X13710600Y-5974400D02*
X13670600Y-6014400D01*
X13670600Y-9073200D02*
X13710600Y-9113200D01*
X13710600Y-9073200D02*
X13670600Y-9113200D01*
X13696000Y-9375100D02*
X13736000Y-9415100D01*
X13736000Y-9375100D02*
X13696000Y-9415100D01*
X13696000Y-14712000D02*
X13736000Y-14752000D01*
X13736000Y-14712000D02*
X13696000Y-14752000D01*
X13696000Y-15169200D02*
X13736000Y-15209200D01*
X13736000Y-15169200D02*
X13696000Y-15209200D01*
X13696000Y-18922000D02*
X13736000Y-18962000D01*
X13736000Y-18922000D02*
X13696000Y-18962000D01*
X13698776Y-11844340D02*
X13738776Y-11884340D01*
X13738776Y-11844340D02*
X13698776Y-11884340D01*
X13721400Y-18776000D02*
X13761400Y-18816000D01*
X13761400Y-18776000D02*
X13721400Y-18816000D01*
X13728393Y-12247601D02*
X13768393Y-12287601D01*
X13768393Y-12247601D02*
X13728393Y-12287601D01*
X13746800Y-10749600D02*
X13786800Y-10789600D01*
X13786800Y-10749600D02*
X13746800Y-10789600D01*
X13746800Y-18572800D02*
X13786800Y-18612800D01*
X13786800Y-18572800D02*
X13746800Y-18612800D01*
X13772200Y-8565200D02*
X13812200Y-8605200D01*
X13812200Y-8565200D02*
X13772200Y-8605200D01*
X13779039Y-11930155D02*
X13819039Y-11970155D01*
X13819039Y-11930155D02*
X13779039Y-11970155D01*
X13848400Y-12172000D02*
X13888400Y-12212000D01*
X13888400Y-12172000D02*
X13848400Y-12212000D01*
X13848400Y-12349800D02*
X13888400Y-12389800D01*
X13888400Y-12349800D02*
X13848400Y-12389800D01*
X13873800Y-8666800D02*
X13913800Y-8706800D01*
X13913800Y-8666800D02*
X13873800Y-8706800D01*
X13873800Y-11156000D02*
X13913800Y-11196000D01*
X13913800Y-11156000D02*
X13873800Y-11196000D01*
X13899200Y-10749600D02*
X13939200Y-10789600D01*
X13939200Y-10749600D02*
X13899200Y-10789600D01*
X13924600Y-12426000D02*
X13964600Y-12466000D01*
X13964600Y-12426000D02*
X13924600Y-12466000D01*
X13924600Y-18722000D02*
X13964600Y-18762000D01*
X13964600Y-18722000D02*
X13924600Y-18762000D01*
X13950000Y-9375100D02*
X13990000Y-9415100D01*
X13990000Y-9375100D02*
X13950000Y-9415100D01*
X13950000Y-15169200D02*
X13990000Y-15209200D01*
X13990000Y-15169200D02*
X13950000Y-15209200D01*
X13975400Y-8768400D02*
X14015400Y-8808400D01*
X14015400Y-8768400D02*
X13975400Y-8808400D01*
X13975400Y-12629200D02*
X14015400Y-12669200D01*
X14015400Y-12629200D02*
X13975400Y-12669200D01*
X14000800Y-13543600D02*
X14040800Y-13583600D01*
X14040800Y-13543600D02*
X14000800Y-13583600D01*
X14051600Y-8870000D02*
X14091600Y-8910000D01*
X14091600Y-8870000D02*
X14051600Y-8910000D01*
X14077000Y-19207800D02*
X14117000Y-19247800D01*
X14117000Y-19207800D02*
X14077000Y-19247800D01*
X14153200Y-8971600D02*
X14193200Y-9011600D01*
X14193200Y-8971600D02*
X14153200Y-9011600D01*
X14204000Y-13467400D02*
X14244000Y-13507400D01*
X14244000Y-13467400D02*
X14204000Y-13507400D01*
X14204000Y-9375100D02*
X14244000Y-9415100D01*
X14244000Y-9375100D02*
X14204000Y-9415100D01*
X14229400Y-5161600D02*
X14269400Y-5201600D01*
X14269400Y-5161600D02*
X14229400Y-5201600D01*
X14229400Y-8260400D02*
X14269400Y-8300400D01*
X14269400Y-8260400D02*
X14229400Y-8300400D01*
X14305600Y-12603800D02*
X14345600Y-12643800D01*
X14345600Y-12603800D02*
X14305600Y-12643800D01*
X14331000Y-14331000D02*
X14371000Y-14371000D01*
X14371000Y-14331000D02*
X14331000Y-14371000D01*
X14407200Y-13391200D02*
X14447200Y-13431200D01*
X14447200Y-13391200D02*
X14407200Y-13431200D01*
X14407200Y-11664000D02*
X14447200Y-11704000D01*
X14447200Y-11664000D02*
X14407200Y-11704000D01*
X14458000Y-9375100D02*
X14498000Y-9415100D01*
X14498000Y-9375100D02*
X14458000Y-9415100D01*
X14534200Y-18776000D02*
X14574200Y-18816000D01*
X14574200Y-18776000D02*
X14534200Y-18816000D01*
X14610400Y-9149400D02*
X14650400Y-9189400D01*
X14650400Y-9149400D02*
X14610400Y-9189400D01*
X14610400Y-13315000D02*
X14650400Y-13355000D01*
X14650400Y-13315000D02*
X14610400Y-13355000D01*
X15194601Y-8285201D02*
X15234601Y-8325201D01*
X15234601Y-8285201D02*
X15194601Y-8325201D01*
X15220000Y-12302900D02*
X15260000Y-12342900D01*
X15260000Y-12302900D02*
X15220000Y-12342900D01*
X15245400Y-7727000D02*
X15285400Y-7767000D01*
X15285400Y-7727000D02*
X15245400Y-7767000D01*
X15297398Y-12553000D02*
X15337398Y-12593000D01*
X15337398Y-12553000D02*
X15297398Y-12593000D01*
X15321600Y-7650800D02*
X15361600Y-7690800D01*
X15361600Y-7650800D02*
X15321600Y-7690800D01*
X15372999Y-12705400D02*
X15412999Y-12745400D01*
X15412999Y-12705400D02*
X15372999Y-12745400D01*
X15397800Y-7473000D02*
X15437800Y-7513000D01*
X15437800Y-7473000D02*
X15397800Y-7513000D01*
X15397800Y-11003600D02*
X15437800Y-11043600D01*
X15437800Y-11003600D02*
X15397800Y-11043600D01*
X15448600Y-12781600D02*
X15488600Y-12821600D01*
X15488600Y-12781600D02*
X15448600Y-12821600D01*
X15474599Y-7549200D02*
X15514599Y-7589200D01*
X15514599Y-7549200D02*
X15474599Y-7589200D01*
X15474599Y-11105200D02*
X15514599Y-11145200D01*
X15514599Y-11105200D02*
X15474599Y-11145200D01*
X15524800Y-12857800D02*
X15564800Y-12897800D01*
X15564800Y-12857800D02*
X15524800Y-12897800D01*
X15550200Y-7396800D02*
X15590200Y-7436800D01*
X15590200Y-7396800D02*
X15550200Y-7436800D01*
X15601000Y-12934000D02*
X15641000Y-12974000D01*
X15641000Y-12934000D02*
X15601000Y-12974000D01*
X15626400Y-7320600D02*
X15666400Y-7360600D01*
X15666400Y-7320600D02*
X15626400Y-7360600D01*
X15677200Y-13010200D02*
X15717200Y-13050200D01*
X15717200Y-13010200D02*
X15677200Y-13050200D01*
X15702600Y-6533200D02*
X15742600Y-6573200D01*
X15742600Y-6533200D02*
X15702600Y-6573200D01*
X15728000Y-14280200D02*
X15768000Y-14320200D01*
X15768000Y-14280200D02*
X15728000Y-14320200D01*
X15753400Y-13086400D02*
X15793400Y-13126400D01*
X15793400Y-13086400D02*
X15753400Y-13126400D01*
X15778800Y-6634800D02*
X15818800Y-6674800D01*
X15818800Y-6634800D02*
X15778800Y-6674800D01*
X15804200Y-17125000D02*
X15844200Y-17165000D01*
X15844200Y-17125000D02*
X15804200Y-17165000D01*
X15829600Y-13162600D02*
X15869600Y-13202600D01*
X15869600Y-13162600D02*
X15829600Y-13202600D01*
X15855000Y-6711000D02*
X15895000Y-6751000D01*
X15895000Y-6711000D02*
X15855000Y-6751000D01*
X15905800Y-13238800D02*
X15945800Y-13278800D01*
X15945800Y-13238800D02*
X15905800Y-13278800D01*
X15931200Y-6787200D02*
X15971200Y-6827200D01*
X15971200Y-6787200D02*
X15931200Y-6827200D01*
X15956001Y-17254658D02*
X15996001Y-17294658D01*
X15996001Y-17254658D02*
X15956001Y-17294658D01*
X15982000Y-14280200D02*
X16022000Y-14320200D01*
X16022000Y-14280200D02*
X15982000Y-14320200D01*
X16007400Y-6863400D02*
X16047400Y-6903400D01*
X16047400Y-6863400D02*
X16007400Y-6903400D01*
X16032800Y-17366300D02*
X16072800Y-17406300D01*
X16072800Y-17366300D02*
X16032800Y-17406300D01*
X16083600Y-6939600D02*
X16123600Y-6979600D01*
X16123600Y-6939600D02*
X16083600Y-6979600D01*
X16109000Y-17455200D02*
X16149000Y-17495200D01*
X16149000Y-17455200D02*
X16109000Y-17495200D01*
X16159800Y-7015800D02*
X16199800Y-7055800D01*
X16199800Y-7015800D02*
X16159800Y-7055800D01*
X16159800Y-14280200D02*
X16199800Y-14320200D01*
X16199800Y-14280200D02*
X16159800Y-14320200D01*
X16184601Y-17557980D02*
X16224601Y-17597980D01*
X16224601Y-17557980D02*
X16184601Y-17597980D01*
X16236000Y-7092000D02*
X16276000Y-7132000D01*
X16276000Y-7092000D02*
X16236000Y-7132000D01*
X16236000Y-15725100D02*
X16276000Y-15765100D01*
X16276000Y-15725100D02*
X16236000Y-15765100D01*
X16245028Y-17827734D02*
X16285028Y-17867734D01*
X16285028Y-17827734D02*
X16245028Y-17867734D01*
X16312200Y-6457000D02*
X16352200Y-6497000D01*
X16352200Y-6457000D02*
X16312200Y-6497000D01*
X16315654Y-17756373D02*
X16355654Y-17796373D01*
X16355654Y-17756373D02*
X16315654Y-17796373D01*
X16337600Y-17658400D02*
X16377600Y-17698400D01*
X16377600Y-17658400D02*
X16337600Y-17698400D01*
X16388399Y-5949000D02*
X16428399Y-5989000D01*
X16428399Y-5949000D02*
X16388399Y-5989000D01*
X16388400Y-5440999D02*
X16428400Y-5480999D01*
X16428400Y-5440999D02*
X16388400Y-5480999D01*
X16388400Y-5695000D02*
X16428400Y-5735000D01*
X16428400Y-5695000D02*
X16388400Y-5735000D01*
X16388400Y-6203000D02*
X16428400Y-6243000D01*
X16428400Y-6203000D02*
X16388400Y-6243000D01*
X16413800Y-14280200D02*
X16453800Y-14320200D01*
X16453800Y-14280200D02*
X16413800Y-14320200D01*
X16465687Y-7168200D02*
X16505687Y-7208200D01*
X16505687Y-7168200D02*
X16465687Y-7208200D01*
X16490000Y-15725100D02*
X16530000Y-15765100D01*
X16530000Y-15725100D02*
X16490000Y-15765100D01*
X16515400Y-13010200D02*
X16555400Y-13050200D01*
X16555400Y-13010200D02*
X16515400Y-13050200D01*
X16617000Y-12070400D02*
X16657000Y-12110400D01*
X16657000Y-12070400D02*
X16617000Y-12110400D01*
X16617000Y-18369600D02*
X16657000Y-18409600D01*
X16657000Y-18369600D02*
X16617000Y-18409600D01*
X16642400Y-18522000D02*
X16682400Y-18562000D01*
X16682400Y-18522000D02*
X16642400Y-18562000D01*
X16667800Y-13238800D02*
X16707800Y-13278800D01*
X16707800Y-13238800D02*
X16667800Y-13278800D01*
X16667800Y-14280200D02*
X16707800Y-14320200D01*
X16707800Y-14280200D02*
X16667800Y-14320200D01*
X16693200Y-6355400D02*
X16733200Y-6395400D01*
X16733200Y-6355400D02*
X16693200Y-6395400D01*
X16718600Y-5847400D02*
X16758600Y-5887400D01*
X16758600Y-5847400D02*
X16718600Y-5887400D01*
X16718600Y-7244400D02*
X16758600Y-7284400D01*
X16758600Y-7244400D02*
X16718600Y-7284400D01*
X16744000Y-15725100D02*
X16784000Y-15765100D01*
X16784000Y-15725100D02*
X16744000Y-15765100D01*
X16838000Y-19472600D02*
X16878000Y-19512600D01*
X16878000Y-19472600D02*
X16838000Y-19512600D01*
X16870999Y-13162600D02*
X16910999Y-13202600D01*
X16910999Y-13162600D02*
X16870999Y-13202600D01*
X16895801Y-6304600D02*
X16935801Y-6344600D01*
X16935801Y-6304600D02*
X16895801Y-6344600D01*
X16896400Y-8285201D02*
X16936400Y-8325201D01*
X16936400Y-8285201D02*
X16896400Y-8325201D01*
X16896400Y-19919000D02*
X16936400Y-19959000D01*
X16936400Y-19919000D02*
X16896400Y-19959000D01*
X16947200Y-5999800D02*
X16987200Y-6039800D01*
X16987200Y-5999800D02*
X16947200Y-6039800D01*
X16947200Y-10342601D02*
X16987200Y-10382601D01*
X16987200Y-10342601D02*
X16947200Y-10382601D01*
X16998000Y-18953800D02*
X17038000Y-18993800D01*
X17038000Y-18953800D02*
X16998000Y-18993800D01*
X17055151Y-10641650D02*
X17095151Y-10681650D01*
X17095151Y-10641650D02*
X17055151Y-10681650D01*
X17074201Y-13086400D02*
X17114201Y-13126400D01*
X17114201Y-13086400D02*
X17074201Y-13126400D01*
X17099600Y-15728000D02*
X17139600Y-15768000D01*
X17139600Y-15728000D02*
X17099600Y-15768000D01*
X17125000Y-5847400D02*
X17165000Y-5887400D01*
X17165000Y-5847400D02*
X17125000Y-5887400D01*
X17125000Y-14280200D02*
X17165000Y-14320200D01*
X17165000Y-14280200D02*
X17125000Y-14320200D01*
X17150400Y-10368600D02*
X17190400Y-10408600D01*
X17190400Y-10368600D02*
X17150400Y-10408600D01*
X17150400Y-14991400D02*
X17190400Y-15031400D01*
X17190400Y-14991400D02*
X17150400Y-15031400D01*
X17188500Y-18318800D02*
X17228500Y-18358800D01*
X17228500Y-18318800D02*
X17188500Y-18358800D01*
X17201200Y-10673400D02*
X17241200Y-10713400D01*
X17241200Y-10673400D02*
X17201200Y-10713400D01*
X17252000Y-2469200D02*
X17292000Y-2509200D01*
X17292000Y-2469200D02*
X17252000Y-2509200D01*
X17252000Y-8362000D02*
X17292000Y-8402000D01*
X17292000Y-8362000D02*
X17252000Y-8402000D01*
X17252000Y-13721400D02*
X17292000Y-13761400D01*
X17292000Y-13721400D02*
X17252000Y-13761400D01*
X17277400Y-10825800D02*
X17317400Y-10865800D01*
X17317400Y-10825800D02*
X17277400Y-10865800D01*
X17277400Y-19665000D02*
X17317400Y-19705000D01*
X17317400Y-19665000D02*
X17277400Y-19705000D01*
X17318000Y-17658400D02*
X17358000Y-17698400D01*
X17358000Y-17658400D02*
X17318000Y-17698400D01*
X17346000Y-13010200D02*
X17386000Y-13050200D01*
X17386000Y-13010200D02*
X17346000Y-13050200D01*
X17353600Y-14280200D02*
X17393600Y-14320200D01*
X17393600Y-14280200D02*
X17353600Y-14320200D01*
X17353600Y-4399600D02*
X17393600Y-4439600D01*
X17393600Y-4399600D02*
X17353600Y-4439600D01*
X17353600Y-5504500D02*
X17393600Y-5544500D01*
X17393600Y-5504500D02*
X17353600Y-5544500D01*
X17353600Y-15728000D02*
X17393600Y-15768000D01*
X17393600Y-15728000D02*
X17353600Y-15768000D01*
X17358680Y-10929940D02*
X17398680Y-10969940D01*
X17398680Y-10929940D02*
X17358680Y-10969940D01*
X17379384Y-11739625D02*
X17419384Y-11779625D01*
X17419384Y-11739625D02*
X17379384Y-11779625D01*
X17404400Y-5618800D02*
X17444400Y-5658800D01*
X17444400Y-5618800D02*
X17404400Y-5658800D01*
X17404400Y-17125000D02*
X17444400Y-17165000D01*
X17444400Y-17125000D02*
X17404400Y-17165000D01*
X17455200Y-14991400D02*
X17495200Y-15031400D01*
X17495200Y-14991400D02*
X17455200Y-15031400D01*
X17455679Y-11815920D02*
X17495679Y-11855920D01*
X17495679Y-11815920D02*
X17455679Y-11855920D01*
X17506000Y-2469200D02*
X17546000Y-2509200D01*
X17546000Y-2469200D02*
X17506000Y-2509200D01*
X17506000Y-7803200D02*
X17546000Y-7843200D01*
X17546000Y-7803200D02*
X17506000Y-7843200D01*
X17506000Y-8463600D02*
X17546000Y-8503600D01*
X17546000Y-8463600D02*
X17506000Y-8503600D01*
X17506000Y-12578400D02*
X17546000Y-12618400D01*
X17546000Y-12578400D02*
X17506000Y-12618400D01*
X17531400Y-5771200D02*
X17571400Y-5811200D01*
X17571400Y-5771200D02*
X17531400Y-5811200D01*
X17531721Y-11891961D02*
X17571721Y-11931961D01*
X17571721Y-11891961D02*
X17531721Y-11931961D01*
X17556798Y-12984800D02*
X17596798Y-13024800D01*
X17596798Y-12984800D02*
X17556798Y-13024800D01*
X17556800Y-9809800D02*
X17596800Y-9849800D01*
X17596800Y-9809800D02*
X17556800Y-9849800D01*
X17559458Y-12200058D02*
X17599458Y-12240058D01*
X17599458Y-12200058D02*
X17559458Y-12240058D01*
X17582200Y-11283000D02*
X17622200Y-11323000D01*
X17622200Y-11283000D02*
X17582200Y-11323000D01*
X17582200Y-12351259D02*
X17622200Y-12391259D01*
X17622200Y-12351259D02*
X17582200Y-12391259D01*
X17607598Y-5885500D02*
X17647598Y-5925500D01*
X17647598Y-5885500D02*
X17607598Y-5925500D01*
X17607600Y-10775000D02*
X17647600Y-10815000D01*
X17647600Y-10775000D02*
X17607600Y-10815000D01*
X17607600Y-14280200D02*
X17647600Y-14320200D01*
X17647600Y-14280200D02*
X17607600Y-14320200D01*
X17607600Y-15728000D02*
X17647600Y-15768000D01*
X17647600Y-15728000D02*
X17607600Y-15768000D01*
X17633000Y-12578400D02*
X17673000Y-12618400D01*
X17673000Y-12578400D02*
X17633000Y-12618400D01*
X17642204Y-12883799D02*
X17682204Y-12923799D01*
X17682204Y-12883799D02*
X17642204Y-12923799D01*
X17683800Y-6012500D02*
X17723800Y-6052500D01*
X17723800Y-6012500D02*
X17683800Y-6052500D01*
X17683800Y-9149400D02*
X17723800Y-9189400D01*
X17723800Y-9149400D02*
X17683800Y-9189400D01*
X17683800Y-9759000D02*
X17723800Y-9799000D01*
X17723800Y-9759000D02*
X17683800Y-9799000D01*
X17683800Y-12121200D02*
X17723800Y-12161200D01*
X17723800Y-12121200D02*
X17683800Y-12161200D01*
X17683800Y-17150400D02*
X17723800Y-17190400D01*
X17723800Y-17150400D02*
X17683800Y-17190400D01*
X17683800Y-19792000D02*
X17723800Y-19832000D01*
X17723800Y-19792000D02*
X17683800Y-19832000D01*
X17709200Y-14991400D02*
X17749200Y-15031400D01*
X17749200Y-14991400D02*
X17709200Y-15031400D01*
X17749018Y-12363014D02*
X17789018Y-12403014D01*
X17789018Y-12363014D02*
X17749018Y-12403014D01*
X17760000Y-6139500D02*
X17800000Y-6179500D01*
X17800000Y-6139500D02*
X17760000Y-6179500D01*
X17760000Y-2469200D02*
X17800000Y-2509200D01*
X17800000Y-2469200D02*
X17760000Y-2509200D01*
X17760000Y-8565200D02*
X17800000Y-8605200D01*
X17800000Y-8565200D02*
X17760000Y-8605200D01*
X17760000Y-18826800D02*
X17800000Y-18866800D01*
X17800000Y-18826800D02*
X17760000Y-18866800D01*
X17770042Y-12466758D02*
X17810042Y-12506758D01*
X17810042Y-12466758D02*
X17770042Y-12506758D01*
X17787409Y-12565646D02*
X17827409Y-12605646D01*
X17827409Y-12565646D02*
X17787409Y-12605646D01*
X17810800Y-11841800D02*
X17850800Y-11881800D01*
X17850800Y-11841800D02*
X17810800Y-11881800D01*
X17826000Y-11257600D02*
X17866000Y-11297600D01*
X17866000Y-11257600D02*
X17826000Y-11297600D01*
X17836200Y-6253800D02*
X17876200Y-6293800D01*
X17876200Y-6253800D02*
X17836200Y-6293800D01*
X17861600Y-4399600D02*
X17901600Y-4439600D01*
X17901600Y-4399600D02*
X17861600Y-4439600D01*
X17861600Y-7803200D02*
X17901600Y-7843200D01*
X17901600Y-7803200D02*
X17861600Y-7843200D01*
X17861600Y-13010200D02*
X17901600Y-13050200D01*
X17901600Y-13010200D02*
X17861600Y-13050200D01*
X17861600Y-15728000D02*
X17901600Y-15768000D01*
X17901600Y-15728000D02*
X17861600Y-15768000D01*
X17887000Y-14280200D02*
X17927000Y-14320200D01*
X17927000Y-14280200D02*
X17887000Y-14320200D01*
X17912400Y-6392500D02*
X17952400Y-6432500D01*
X17952400Y-6392500D02*
X17912400Y-6432500D01*
X17948600Y-18682000D02*
X17988600Y-18722000D01*
X17988600Y-18682000D02*
X17948600Y-18722000D01*
X17963200Y-14991400D02*
X18003200Y-15031400D01*
X18003200Y-14991400D02*
X17963200Y-15031400D01*
X17988600Y-6520500D02*
X18028600Y-6560500D01*
X18028600Y-6520500D02*
X17988600Y-6560500D01*
X18014000Y-2469200D02*
X18054000Y-2509200D01*
X18054000Y-2469200D02*
X18014000Y-2509200D01*
X18064800Y-6647500D02*
X18104800Y-6687500D01*
X18104800Y-6647500D02*
X18064800Y-6687500D01*
X18115600Y-11689400D02*
X18155600Y-11729400D01*
X18155600Y-11689400D02*
X18115600Y-11729400D01*
X18115600Y-15728000D02*
X18155600Y-15768000D01*
X18155600Y-15728000D02*
X18115600Y-15768000D01*
X18141000Y-6761800D02*
X18181000Y-6801800D01*
X18181000Y-6761800D02*
X18141000Y-6801800D01*
X18141000Y-14280200D02*
X18181000Y-14320200D01*
X18181000Y-14280200D02*
X18141000Y-14320200D01*
X18217200Y-14991400D02*
X18257200Y-15031400D01*
X18257200Y-14991400D02*
X18217200Y-15031400D01*
X18268000Y-2469200D02*
X18308000Y-2509200D01*
X18308000Y-2469200D02*
X18268000Y-2509200D01*
X18268000Y-9073200D02*
X18308000Y-9113200D01*
X18308000Y-9073200D02*
X18268000Y-9113200D01*
X18268000Y-12451400D02*
X18308000Y-12491400D01*
X18308000Y-12451400D02*
X18268000Y-12491400D01*
X18296058Y-7274999D02*
X18336058Y-7314999D01*
X18336058Y-7274999D02*
X18296058Y-7314999D01*
X18320343Y-10395542D02*
X18360343Y-10435542D01*
X18360343Y-10395542D02*
X18320343Y-10435542D01*
X18369001Y-10611721D02*
X18409001Y-10651721D01*
X18409001Y-10611721D02*
X18369001Y-10651721D01*
X18369001Y-10967321D02*
X18409001Y-11007321D01*
X18409001Y-10967321D02*
X18369001Y-11007321D01*
X18369001Y-11145121D02*
X18409001Y-11185120D01*
X18409001Y-11145121D02*
X18369001Y-11185120D01*
X18369001Y-11322920D02*
X18409001Y-11362920D01*
X18409001Y-11322920D02*
X18369001Y-11362920D01*
X18369599Y-14280200D02*
X18409599Y-14320200D01*
X18409599Y-14280200D02*
X18369599Y-14320200D01*
X18369600Y-4298000D02*
X18409600Y-4338000D01*
X18409600Y-4298000D02*
X18369600Y-4338000D01*
X18369600Y-18928400D02*
X18409600Y-18968400D01*
X18409600Y-18928400D02*
X18369600Y-18968400D01*
X18445799Y-10267000D02*
X18485799Y-10307000D01*
X18485799Y-10267000D02*
X18445799Y-10307000D01*
X18445800Y-12400600D02*
X18485800Y-12440600D01*
X18485800Y-12400600D02*
X18445800Y-12440600D01*
X18471200Y-11613200D02*
X18511200Y-11653200D01*
X18511200Y-11613200D02*
X18471200Y-11653200D01*
X18471200Y-12016399D02*
X18511200Y-12056399D01*
X18511200Y-12016399D02*
X18471200Y-12056399D01*
X18471200Y-14991400D02*
X18511200Y-15031400D01*
X18511200Y-14991400D02*
X18471200Y-15031400D01*
X18522000Y-2469200D02*
X18562000Y-2509200D01*
X18562000Y-2469200D02*
X18522000Y-2509200D01*
X18522000Y-8971600D02*
X18562000Y-9011600D01*
X18562000Y-8971600D02*
X18522000Y-9011600D01*
X18572800Y-10190800D02*
X18612800Y-10230800D01*
X18612800Y-10190800D02*
X18572800Y-10230800D01*
X18598200Y-14280200D02*
X18638200Y-14320200D01*
X18638200Y-14280200D02*
X18598200Y-14320200D01*
X18674400Y-10140000D02*
X18714400Y-10180000D01*
X18714400Y-10140000D02*
X18674400Y-10180000D01*
X18725200Y-14991400D02*
X18765200Y-15031400D01*
X18765200Y-14991400D02*
X18725200Y-15031400D01*
X18775999Y-14280200D02*
X18815999Y-14320200D01*
X18815999Y-14280200D02*
X18775999Y-14320200D01*
X18776000Y-2469200D02*
X18816000Y-2509200D01*
X18816000Y-2469200D02*
X18776000Y-2509200D01*
X18776000Y-8870000D02*
X18816000Y-8910000D01*
X18816000Y-8870000D02*
X18776000Y-8910000D01*
X18826800Y-5618800D02*
X18866800Y-5658800D01*
X18866800Y-5618800D02*
X18826800Y-5658800D01*
X18852200Y-5771200D02*
X18892200Y-5811200D01*
X18892200Y-5771200D02*
X18852200Y-5811200D01*
X18877600Y-8768400D02*
X18917600Y-8808400D01*
X18917600Y-8768400D02*
X18877600Y-8808400D01*
X18938143Y-5578342D02*
X18978143Y-5618341D01*
X18978143Y-5578342D02*
X18938143Y-5618341D01*
X18979200Y-8666800D02*
X19019200Y-8706800D01*
X19019200Y-8666800D02*
X18979200Y-8706800D01*
X18979200Y-14991400D02*
X19019200Y-15031400D01*
X19019200Y-14991400D02*
X18979200Y-15031400D01*
X19030000Y-2469200D02*
X19070000Y-2509200D01*
X19070000Y-2469200D02*
X19030000Y-2509200D01*
X19055400Y-12426000D02*
X19095400Y-12466000D01*
X19095400Y-12426000D02*
X19055400Y-12466000D01*
X19055400Y-19792000D02*
X19095400Y-19832000D01*
X19095400Y-19792000D02*
X19055400Y-19832000D01*
X19055400Y-20046000D02*
X19095400Y-20086000D01*
X19095400Y-20046000D02*
X19055400Y-20086000D01*
X19078142Y-6733742D02*
X19118142Y-6773742D01*
X19118142Y-6733742D02*
X19078142Y-6773742D01*
X19106200Y-9149400D02*
X19146200Y-9189400D01*
X19146200Y-9149400D02*
X19106200Y-9189400D01*
X19131600Y-6330000D02*
X19171600Y-6370000D01*
X19171600Y-6330000D02*
X19131600Y-6370000D01*
X19131600Y-6558600D02*
X19171600Y-6598600D01*
X19171600Y-6558600D02*
X19131600Y-6598600D01*
X19182400Y-9225600D02*
X19222400Y-9265600D01*
X19222400Y-9225600D02*
X19182400Y-9265600D01*
X19223158Y-5913558D02*
X19263158Y-5953558D01*
X19263158Y-5913558D02*
X19223158Y-5953558D01*
X19233200Y-5517200D02*
X19273200Y-5557200D01*
X19273200Y-5517200D02*
X19233200Y-5557200D01*
X19233200Y-6685600D02*
X19273200Y-6725600D01*
X19273200Y-6685600D02*
X19233200Y-6725600D01*
X19284000Y-2469200D02*
X19324000Y-2509200D01*
X19324000Y-2469200D02*
X19284000Y-2509200D01*
X19334799Y-11156000D02*
X19374799Y-11196000D01*
X19374799Y-11156000D02*
X19334799Y-11196000D01*
X19334800Y-5415600D02*
X19374800Y-5455600D01*
X19374800Y-5415600D02*
X19334800Y-5455600D01*
X19385600Y-5060000D02*
X19425600Y-5100000D01*
X19425600Y-5060000D02*
X19385600Y-5100000D01*
X19411000Y-6268500D02*
X19451000Y-6308500D01*
X19451000Y-6268500D02*
X19411000Y-6308500D01*
X19411000Y-10902000D02*
X19451000Y-10942000D01*
X19451000Y-10902000D02*
X19411000Y-10942000D01*
X19487200Y-10648000D02*
X19527200Y-10688000D01*
X19527200Y-10648000D02*
X19487200Y-10688000D01*
X19538000Y-2469200D02*
X19578000Y-2509200D01*
X19578000Y-2469200D02*
X19538000Y-2509200D01*
X19563400Y-10394000D02*
X19603400Y-10434000D01*
X19603400Y-10394000D02*
X19563400Y-10434000D01*
X19639600Y-10140000D02*
X19679600Y-10180000D01*
X19679600Y-10140000D02*
X19639600Y-10180000D01*
X19690400Y-4069400D02*
X19730400Y-4109400D01*
X19730400Y-4069400D02*
X19690400Y-4109400D01*
X19715800Y-9886000D02*
X19755800Y-9926000D01*
X19755800Y-9886000D02*
X19715800Y-9926000D01*
X19741200Y-4628200D02*
X19781200Y-4668200D01*
X19781200Y-4628200D02*
X19741200Y-4668200D01*
X19741200Y-11841800D02*
X19781200Y-11881800D01*
X19781200Y-11841800D02*
X19741200Y-11881800D01*
X19741200Y-14712000D02*
X19781200Y-14752000D01*
X19781200Y-14712000D02*
X19741200Y-14752000D01*
X19766600Y-5377500D02*
X19806600Y-5417500D01*
X19806600Y-5377500D02*
X19766600Y-5417500D01*
X19766600Y-5631500D02*
X19806600Y-5671500D01*
X19806600Y-5631500D02*
X19766600Y-5671500D01*
X19766600Y-5999800D02*
X19806600Y-6039800D01*
X19806600Y-5999800D02*
X19766600Y-6039800D01*
X19766600Y-6380800D02*
X19806600Y-6420800D01*
X19806600Y-6380800D02*
X19766600Y-6420800D01*
X19792000Y-2469200D02*
X19832000Y-2509200D01*
X19832000Y-2469200D02*
X19792000Y-2509200D01*
X19792000Y-6634800D02*
X19832000Y-6674800D01*
X19832000Y-6634800D02*
X19792000Y-6674800D01*
X19792000Y-9632000D02*
X19832000Y-9672000D01*
X19832000Y-9632000D02*
X19792000Y-9672000D01*
X19817400Y-4094800D02*
X19857400Y-4134800D01*
X19857400Y-4094800D02*
X19817400Y-4134800D01*
X19817400Y-4221800D02*
X19857400Y-4261800D01*
X19857400Y-4221800D02*
X19817400Y-4261800D01*
X19868200Y-4526600D02*
X19908200Y-4566600D01*
X19908200Y-4526600D02*
X19868200Y-4566600D01*
X19868200Y-5771200D02*
X19908200Y-5811200D01*
X19908200Y-5771200D02*
X19868200Y-5811200D01*
X19868200Y-9378000D02*
X19908200Y-9418000D01*
X19908200Y-9378000D02*
X19868200Y-9418000D01*
X19969800Y-4221800D02*
X20009800Y-4261800D01*
X20009800Y-4221800D02*
X19969800Y-4261800D01*
X19969800Y-9149401D02*
X20009800Y-9189401D01*
X20009800Y-9149401D02*
X19969800Y-9189401D01*
X19995200Y-4348800D02*
X20035200Y-4388800D01*
X20035200Y-4348800D02*
X19995200Y-4388800D01*
X20046000Y-2469200D02*
X20086000Y-2509200D01*
X20086000Y-2469200D02*
X20046000Y-2509200D01*
X20071400Y-4450400D02*
X20111400Y-4490400D01*
X20111400Y-4450400D02*
X20071400Y-4490400D01*
X20147600Y-9225600D02*
X20187600Y-9265600D01*
X20187600Y-9225600D02*
X20147600Y-9265600D01*
X20173000Y-12222800D02*
X20213000Y-12262800D01*
X20213000Y-12222800D02*
X20173000Y-12262800D01*
X20274600Y-12121200D02*
X20314600Y-12161200D01*
X20314600Y-12121200D02*
X20274600Y-12161200D01*
X20300000Y-2469200D02*
X20340000Y-2509200D01*
X20340000Y-2469200D02*
X20300000Y-2509200D01*
X20325400Y-5339400D02*
X20365400Y-5379400D01*
X20365400Y-5339400D02*
X20325400Y-5379400D01*
X20325400Y-5517200D02*
X20365400Y-5557200D01*
X20365400Y-5517200D02*
X20325400Y-5557200D01*
X20427000Y-5923600D02*
X20467000Y-5963600D01*
X20467000Y-5923600D02*
X20427000Y-5963600D01*
X20554000Y-2469200D02*
X20594000Y-2509200D01*
X20594000Y-2469200D02*
X20554000Y-2509200D01*
X20554000Y-4526600D02*
X20594000Y-4566600D01*
X20594000Y-4526600D02*
X20554000Y-4566600D01*
X20604800Y-4653600D02*
X20644800Y-4693600D01*
X20644800Y-4653600D02*
X20604800Y-4693600D01*
X20604801Y-6838000D02*
X20644801Y-6878000D01*
X20644801Y-6838000D02*
X20604801Y-6878000D01*
X20655600Y-4882200D02*
X20695600Y-4922200D01*
X20695600Y-4882200D02*
X20655600Y-4922200D01*
X20681000Y-6533200D02*
X20721000Y-6573200D01*
X20721000Y-6533200D02*
X20681000Y-6573200D01*
X20808000Y-2469200D02*
X20848000Y-2509200D01*
X20848000Y-2469200D02*
X20808000Y-2509200D01*
X20808000Y-7727000D02*
X20848000Y-7767000D01*
X20848000Y-7727000D02*
X20808000Y-7767000D01*
X20883600Y-9225600D02*
X20923600Y-9265600D01*
X20923600Y-9225600D02*
X20883600Y-9265600D01*
X20960400Y-7549200D02*
X21000400Y-7589200D01*
X21000400Y-7549200D02*
X20960400Y-7589200D01*
X20960400Y-9149400D02*
X21000400Y-9189400D01*
X21000400Y-9149400D02*
X20960400Y-9189400D01*
X21036600Y-18928400D02*
X21076600Y-18968400D01*
X21076600Y-18928400D02*
X21036600Y-18968400D01*
X21062000Y-2469200D02*
X21102000Y-2509200D01*
X21102000Y-2469200D02*
X21062000Y-2509200D01*
X21062000Y-7650800D02*
X21102000Y-7690800D01*
X21102000Y-7650800D02*
X21062000Y-7690800D01*
X21163600Y-17150400D02*
X21203600Y-17190400D01*
X21203600Y-17150400D02*
X21163600Y-17190400D01*
X21189000Y-15626400D02*
X21229000Y-15666400D01*
X21229000Y-15626400D02*
X21189000Y-15666400D01*
X21189000Y-16109000D02*
X21229000Y-16149000D01*
X21229000Y-16109000D02*
X21189000Y-16149000D01*
X21189000Y-16667800D02*
X21229000Y-16707800D01*
X21229000Y-16667800D02*
X21189000Y-16707800D01*
X21316000Y-2469200D02*
X21356000Y-2509200D01*
X21356000Y-2469200D02*
X21316000Y-2509200D01*
X21316000Y-8844600D02*
X21356000Y-8884600D01*
X21356000Y-8844600D02*
X21316000Y-8884600D01*
X21316000Y-18395000D02*
X21356000Y-18435000D01*
X21356000Y-18395000D02*
X21316000Y-18435000D01*
X21366800Y-15245400D02*
X21406800Y-15285400D01*
X21406800Y-15245400D02*
X21366800Y-15285400D01*
X21405380Y-10228420D02*
X21445380Y-10268420D01*
X21445380Y-10228420D02*
X21405380Y-10268420D01*
X21570000Y-2469200D02*
X21610000Y-2509200D01*
X21610000Y-2469200D02*
X21570000Y-2509200D01*
X21570000Y-8844600D02*
X21610000Y-8884600D01*
X21610000Y-8844600D02*
X21570000Y-8884600D01*
X21595400Y-19284000D02*
X21635400Y-19324000D01*
X21635400Y-19284000D02*
X21595400Y-19324000D01*
X21620800Y-13238800D02*
X21660800Y-13278800D01*
X21660800Y-13238800D02*
X21620800Y-13278800D01*
X21646200Y-10317800D02*
X21686200Y-10357800D01*
X21686200Y-10317800D02*
X21646200Y-10357800D01*
X21697000Y-11968800D02*
X21737000Y-12008800D01*
X21737000Y-11968800D02*
X21697000Y-12008800D01*
X21697000Y-18293400D02*
X21737000Y-18333400D01*
X21737000Y-18293400D02*
X21697000Y-18333400D01*
X21722400Y-11816400D02*
X21762400Y-11856400D01*
X21762400Y-11816400D02*
X21722400Y-11856400D01*
X21722400Y-19385001D02*
X21762400Y-19425001D01*
X21762400Y-19385001D02*
X21722400Y-19425001D01*
X21798600Y-18344200D02*
X21838600Y-18384200D01*
X21838600Y-18344200D02*
X21798600Y-18384200D01*
X21798600Y-18471200D02*
X21838600Y-18511200D01*
X21838600Y-18471200D02*
X21798600Y-18511200D01*
X21824000Y-8844600D02*
X21864000Y-8884600D01*
X21864000Y-8844600D02*
X21824000Y-8884600D01*
X21824000Y-13721400D02*
X21864000Y-13761400D01*
X21864000Y-13721400D02*
X21824000Y-13761400D01*
X21849400Y-4298000D02*
X21889400Y-4338000D01*
X21889400Y-4298000D02*
X21849400Y-4338000D01*
X21849400Y-4552000D02*
X21889400Y-4592000D01*
X21889400Y-4552000D02*
X21849400Y-4592000D01*
X21849400Y-4806000D02*
X21889400Y-4846000D01*
X21889400Y-4806000D02*
X21849400Y-4846000D01*
X21849400Y-5060000D02*
X21889400Y-5100000D01*
X21889400Y-5060000D02*
X21849400Y-5100000D01*
X21849400Y-5314000D02*
X21889400Y-5354000D01*
X21889400Y-5314000D02*
X21849400Y-5354000D01*
X21849400Y-5568000D02*
X21889400Y-5608000D01*
X21889400Y-5568000D02*
X21849400Y-5608000D01*
X21849400Y-5822000D02*
X21889400Y-5862000D01*
X21889400Y-5822000D02*
X21849400Y-5862000D01*
X21849400Y-6076000D02*
X21889400Y-6116000D01*
X21889400Y-6076000D02*
X21849400Y-6116000D01*
X21849400Y-6584000D02*
X21889400Y-6624000D01*
X21889400Y-6584000D02*
X21849400Y-6624000D01*
X21849400Y-6838000D02*
X21889400Y-6878000D01*
X21889400Y-6838000D02*
X21849400Y-6878000D01*
X21849400Y-7092000D02*
X21889400Y-7132000D01*
X21889400Y-7092000D02*
X21849400Y-7132000D01*
X21849400Y-7346000D02*
X21889400Y-7386000D01*
X21889400Y-7346000D02*
X21849400Y-7386000D01*
X21854293Y-18554739D02*
X21894293Y-18594739D01*
X21894293Y-18554739D02*
X21854293Y-18594739D01*
X21899400Y-19487200D02*
X21939400Y-19527200D01*
X21939400Y-19487200D02*
X21899400Y-19527200D01*
X21900198Y-10394000D02*
X21940198Y-10434000D01*
X21940198Y-10394000D02*
X21900198Y-10434000D01*
X21925600Y-11994200D02*
X21965600Y-12034200D01*
X21965600Y-11994200D02*
X21925600Y-12034200D01*
X21951000Y-13086401D02*
X21991000Y-13126401D01*
X21991000Y-13086401D02*
X21951000Y-13126401D01*
X21976400Y-13315000D02*
X22016400Y-13355000D01*
X22016400Y-13315000D02*
X21976400Y-13355000D01*
X21976400Y-17074200D02*
X22016400Y-17114200D01*
X22016400Y-17074200D02*
X21976400Y-17114200D01*
X21976400Y-19893600D02*
X22016400Y-19933600D01*
X22016400Y-19893600D02*
X21976400Y-19933600D01*
X22009139Y-12075292D02*
X22049139Y-12115292D01*
X22049139Y-12075292D02*
X22009139Y-12115292D01*
X22075343Y-13089059D02*
X22115343Y-13129059D01*
X22115343Y-13089059D02*
X22075343Y-13129059D01*
X22078000Y-8844600D02*
X22118000Y-8884600D01*
X22118000Y-8844600D02*
X22078000Y-8884600D01*
X22078000Y-12603800D02*
X22118000Y-12643800D01*
X22118000Y-12603800D02*
X22078000Y-12643800D01*
X22078000Y-18623600D02*
X22118000Y-18663600D01*
X22118000Y-18623600D02*
X22078000Y-18663600D01*
X22078000Y-19233200D02*
X22118000Y-19273200D01*
X22118000Y-19233200D02*
X22078000Y-19273200D01*
X22107245Y-12096637D02*
X22147245Y-12136637D01*
X22147245Y-12096637D02*
X22107245Y-12136637D01*
X22154198Y-10470200D02*
X22194198Y-10510200D01*
X22194198Y-10470200D02*
X22154198Y-10510200D01*
X22154200Y-13010200D02*
X22194200Y-13050200D01*
X22194200Y-13010200D02*
X22154200Y-13050200D01*
X22179600Y-16185200D02*
X22219600Y-16225200D01*
X22219600Y-16185200D02*
X22179600Y-16225200D01*
X22179600Y-17277400D02*
X22219600Y-17317400D01*
X22219600Y-17277400D02*
X22179600Y-17317400D01*
X22198871Y-12152276D02*
X22238871Y-12192276D01*
X22238871Y-12152276D02*
X22198871Y-12192276D01*
X22201282Y-11199144D02*
X22241282Y-11239144D01*
X22241282Y-11199144D02*
X22201282Y-11239144D01*
X22205000Y-18826800D02*
X22245000Y-18866800D01*
X22245000Y-18826800D02*
X22205000Y-18866800D01*
X22205000Y-19309400D02*
X22245000Y-19349400D01*
X22245000Y-19309400D02*
X22205000Y-19349400D01*
X22207658Y-16461942D02*
X22247658Y-16501942D01*
X22247658Y-16461942D02*
X22207658Y-16501942D01*
X22230400Y-19411000D02*
X22270400Y-19451000D01*
X22270400Y-19411000D02*
X22230400Y-19451000D01*
X22242399Y-11290740D02*
X22282399Y-11330740D01*
X22282399Y-11290740D02*
X22242399Y-11330740D01*
X22255800Y-12984800D02*
X22295800Y-13024800D01*
X22295800Y-12984800D02*
X22255800Y-13024800D01*
X22287183Y-12200040D02*
X22327183Y-12240040D01*
X22327183Y-12200040D02*
X22287183Y-12240040D01*
X22306600Y-11765600D02*
X22346600Y-11805600D01*
X22346600Y-11765600D02*
X22306600Y-11805600D01*
X22306600Y-18268000D02*
X22346600Y-18308000D01*
X22346600Y-18268000D02*
X22306600Y-18308000D01*
X22332000Y-8844600D02*
X22372000Y-8884600D01*
X22372000Y-8844600D02*
X22332000Y-8884600D01*
X22339744Y-12929720D02*
X22379744Y-12969720D01*
X22379744Y-12929720D02*
X22339744Y-12969720D01*
X22382800Y-17657200D02*
X22422800Y-17697200D01*
X22422800Y-17657200D02*
X22382800Y-17697200D01*
X22398000Y-11410000D02*
X22438000Y-11450000D01*
X22438000Y-11410000D02*
X22398000Y-11450000D01*
X22408200Y-18877600D02*
X22448200Y-18917600D01*
X22448200Y-18877600D02*
X22408200Y-18917600D01*
X22433600Y-10546400D02*
X22473600Y-10586400D01*
X22473600Y-10546400D02*
X22433600Y-10586400D01*
X22433600Y-15245400D02*
X22473600Y-15285400D01*
X22473600Y-15245400D02*
X22433600Y-15285400D01*
X22437696Y-12907678D02*
X22477696Y-12947678D01*
X22477696Y-12907678D02*
X22437696Y-12947678D01*
X22438582Y-12267694D02*
X22478582Y-12307694D01*
X22478582Y-12267694D02*
X22438582Y-12307694D01*
X22459000Y-12476800D02*
X22499000Y-12516800D01*
X22499000Y-12476800D02*
X22459000Y-12516800D01*
X22487058Y-16741342D02*
X22527058Y-16781342D01*
X22527058Y-16741342D02*
X22487058Y-16781342D01*
X22586000Y-8844600D02*
X22626000Y-8884600D01*
X22626000Y-8844600D02*
X22586000Y-8884600D01*
X22687600Y-10775000D02*
X22727600Y-10815000D01*
X22727600Y-10775000D02*
X22687600Y-10815000D01*
X22713000Y-10622600D02*
X22753000Y-10662600D01*
X22753000Y-10622600D02*
X22713000Y-10662600D01*
X22789200Y-15245400D02*
X22829200Y-15285400D01*
X22829200Y-15245400D02*
X22789200Y-15285400D01*
X22814600Y-12426000D02*
X22854600Y-12466000D01*
X22854600Y-12426000D02*
X22814600Y-12466000D01*
X22814600Y-12705400D02*
X22854600Y-12745400D01*
X22854600Y-12705400D02*
X22814600Y-12745400D01*
X22840000Y-8844600D02*
X22880000Y-8884600D01*
X22880000Y-8844600D02*
X22840000Y-8884600D01*
X22865400Y-18801400D02*
X22905400Y-18841400D01*
X22905400Y-18801400D02*
X22865400Y-18841400D01*
X22890800Y-16159800D02*
X22930800Y-16199800D01*
X22930800Y-16159800D02*
X22890800Y-16199800D01*
X22916200Y-19436400D02*
X22956200Y-19476400D01*
X22956200Y-19436400D02*
X22916200Y-19476400D01*
X22941600Y-18471200D02*
X22981600Y-18511200D01*
X22981600Y-18471200D02*
X22941600Y-18511200D01*
X22964342Y-10752258D02*
X23004342Y-10792258D01*
X23004342Y-10752258D02*
X22964342Y-10792258D01*
X22992400Y-11765599D02*
X23032400Y-11805599D01*
X23032400Y-11765599D02*
X22992400Y-11805599D01*
X22992400Y-18682000D02*
X23032400Y-18722000D01*
X23032400Y-18682000D02*
X22992400Y-18722000D01*
X23017800Y-18344200D02*
X23057800Y-18384200D01*
X23057800Y-18344200D02*
X23017800Y-18384200D01*
X23028600Y-12332000D02*
X23068600Y-12372000D01*
X23068600Y-12332000D02*
X23028600Y-12372000D01*
X23068600Y-18115600D02*
X23108600Y-18155600D01*
X23108600Y-18115600D02*
X23068600Y-18155600D01*
X23086787Y-11799826D02*
X23126787Y-11839826D01*
X23126787Y-11799826D02*
X23086787Y-11839826D01*
X23094000Y-8844600D02*
X23134000Y-8884600D01*
X23134000Y-8844600D02*
X23094000Y-8884600D01*
X23170200Y-11029000D02*
X23210200Y-11069000D01*
X23210200Y-11029000D02*
X23170200Y-11069000D01*
X23185248Y-11819472D02*
X23225248Y-11859472D01*
X23225248Y-11819472D02*
X23185248Y-11859472D01*
X23279812Y-11853205D02*
X23319812Y-11893205D01*
X23319812Y-11853205D02*
X23279812Y-11893205D01*
X23322600Y-10317800D02*
X23362600Y-10357800D01*
X23362600Y-10317800D02*
X23322600Y-10357800D01*
X23322600Y-10444800D02*
X23362600Y-10484800D01*
X23362600Y-10444800D02*
X23322600Y-10484800D01*
X23322600Y-10571800D02*
X23362600Y-10611800D01*
X23362600Y-10571800D02*
X23322600Y-10611800D01*
X23322600Y-10724200D02*
X23362600Y-10764200D01*
X23362600Y-10724200D02*
X23322600Y-10764200D01*
X23322600Y-10876600D02*
X23362600Y-10916600D01*
X23362600Y-10876600D02*
X23322600Y-10916600D01*
X23322600Y-11003600D02*
X23362600Y-11043600D01*
X23362600Y-11003600D02*
X23322600Y-11043600D01*
X23475000Y-12603800D02*
X23515000Y-12643800D01*
X23515000Y-12603800D02*
X23475000Y-12643800D01*
X23525800Y-16998000D02*
X23565800Y-17038000D01*
X23565800Y-16998000D02*
X23525800Y-17038000D01*
X23525800Y-20020600D02*
X23565800Y-20060600D01*
X23565800Y-20020600D02*
X23525800Y-20060600D01*
X23652800Y-18776000D02*
X23692800Y-18816000D01*
X23692800Y-18776000D02*
X23652800Y-18816000D01*
X23678200Y-17683800D02*
X23718200Y-17723800D01*
X23718200Y-17683800D02*
X23678200Y-17723800D01*
X23729000Y-16134400D02*
X23769000Y-16174400D01*
X23769000Y-16134400D02*
X23729000Y-16174400D01*
X23881400Y-15245400D02*
X23921400Y-15285400D01*
X23921400Y-15245400D02*
X23881400Y-15285400D01*
X23957600Y-19309400D02*
X23997600Y-19349400D01*
X23997600Y-19309400D02*
X23957600Y-19349400D01*
X24262400Y-16261400D02*
X24302400Y-16301400D01*
X24302400Y-16261400D02*
X24262400Y-16301400D01*
X24287800Y-19309400D02*
X24327800Y-19349400D01*
X24327800Y-19309400D02*
X24287800Y-19349400D01*
X24313200Y-15245400D02*
X24353200Y-15285400D01*
X24353200Y-15245400D02*
X24313200Y-15285400D01*
X24668800Y-15982000D02*
X24708800Y-16022000D01*
X24708800Y-15982000D02*
X24668800Y-16022000D01*
X24694200Y-16998000D02*
X24734200Y-17038000D01*
X24734200Y-16998000D02*
X24694200Y-17038000D01*
X24694200Y-19969800D02*
X24734200Y-20009800D01*
X24734200Y-19969800D02*
X24694200Y-20009800D01*
X24745000Y-10902000D02*
X24785000Y-10942000D01*
X24785000Y-10902000D02*
X24745000Y-10942000D01*
X24922800Y-10876600D02*
X24962800Y-10916600D01*
X24962800Y-10876600D02*
X24922800Y-10916600D01*
X25075200Y-11435400D02*
X25115200Y-11475400D01*
X25115200Y-11435400D02*
X25075200Y-11475400D01*
X25075200Y-12959400D02*
X25115200Y-12999400D01*
X25115200Y-12959400D02*
X25075200Y-12999400D01*
X25227600Y-9759000D02*
X25267600Y-9799000D01*
X25267600Y-9759000D02*
X25227600Y-9799000D01*
X25227600Y-19919000D02*
X25267600Y-19959000D01*
X25267600Y-19919000D02*
X25227600Y-19959000D01*
X25253000Y-16134400D02*
X25293000Y-16174400D01*
X25293000Y-16134400D02*
X25253000Y-16174400D01*
X25253000Y-17150400D02*
X25293000Y-17190400D01*
X25293000Y-17150400D02*
X25253000Y-17190400D01*
X25253000Y-18166400D02*
X25293000Y-18206400D01*
X25293000Y-18166400D02*
X25253000Y-18206400D01*
X25253000Y-19157000D02*
X25293000Y-19197000D01*
X25293000Y-19157000D02*
X25253000Y-19197000D01*
X25405400Y-15245400D02*
X25445400Y-15285400D01*
X25445400Y-15245400D02*
X25405400Y-15285400D01*
X25481600Y-10749600D02*
X25521600Y-10789600D01*
X25521600Y-10749600D02*
X25481600Y-10789600D01*
X25507000Y-9530400D02*
X25547000Y-9570400D01*
X25547000Y-9530400D02*
X25507000Y-9570400D01*
X25507000Y-12273600D02*
X25547000Y-12313600D01*
X25547000Y-12273600D02*
X25507000Y-12313600D01*
X25815400Y-18297000D02*
X25855400Y-18337000D01*
X25855400Y-18297000D02*
X25815400Y-18337000D01*
X25837200Y-15245400D02*
X25877200Y-15285400D01*
X25877200Y-15245400D02*
X25837200Y-15285400D01*
X25837200Y-16261400D02*
X25877200Y-16301400D01*
X25877200Y-16261400D02*
X25837200Y-16301400D01*
X25837200Y-19309400D02*
X25877200Y-19349400D01*
X25877200Y-19309400D02*
X25837200Y-19349400D01*
X25862600Y-17277400D02*
X25902600Y-17317400D01*
X25902600Y-17277400D02*
X25862600Y-17317400D01*
X26015000Y-9784400D02*
X26055000Y-9824400D01*
X26055000Y-9784400D02*
X26015000Y-9824400D01*
X26015000Y-10749600D02*
X26055000Y-10789600D01*
X26055000Y-10749600D02*
X26015000Y-10789600D01*
X26015000Y-12578400D02*
X26055000Y-12618400D01*
X26055000Y-12578400D02*
X26015000Y-12618400D01*
X26040400Y-9530400D02*
X26080400Y-9570400D01*
X26080400Y-9530400D02*
X26040400Y-9570400D01*
X26040400Y-13111800D02*
X26080400Y-13151800D01*
X26080400Y-13111800D02*
X26040400Y-13151800D01*
X26167400Y-18014000D02*
X26207400Y-18054000D01*
X26207400Y-18014000D02*
X26167400Y-18054000D01*
X26192800Y-11435400D02*
X26232800Y-11475400D01*
X26232800Y-11435400D02*
X26192800Y-11475400D01*
X26192800Y-15982000D02*
X26232800Y-16022000D01*
X26232800Y-15982000D02*
X26192800Y-16022000D01*
X26192800Y-16998000D02*
X26232800Y-17038000D01*
X26232800Y-16998000D02*
X26192800Y-17038000D01*
X26192800Y-19030000D02*
X26232800Y-19070000D01*
X26232800Y-19030000D02*
X26192800Y-19070000D01*
X26192800Y-20046000D02*
X26232800Y-20086000D01*
X26232800Y-20046000D02*
X26192800Y-20086000D01*
X7035000Y-5334000D02*
G75*
G03X7035000Y-5334000I-50000J0D01*
G01*
X7035000Y-5588000D02*
G75*
G03X7035000Y-5588000I-50000J0D01*
G01*
X7035000Y-5842000D02*
G75*
G03X7035000Y-5842000I-50000J0D01*
G01*
X7035000Y-6096000D02*
G75*
G03X7035000Y-6096000I-50000J0D01*
G01*
X7035000Y-6350000D02*
G75*
G03X7035000Y-6350000I-50000J0D01*
G01*
X7035000Y-18034000D02*
G75*
G03X7035000Y-18034000I-50000J0D01*
G01*
X7035000Y-18288000D02*
G75*
G03X7035000Y-18288000I-50000J0D01*
G01*
X7035000Y-18542000D02*
G75*
G03X7035000Y-18542000I-50000J0D01*
G01*
X7035000Y-18796000D02*
G75*
G03X7035000Y-18796000I-50000J0D01*
G01*
X7035000Y-19050000D02*
G75*
G03X7035000Y-19050000I-50000J0D01*
G01*
X16560000Y-9906000D02*
G75*
G03X16560000Y-9906000I-50000J0D01*
G01*
X16560000Y-10160000D02*
G75*
G03X16560000Y-10160000I-50000J0D01*
G01*
X16560000Y-10414000D02*
G75*
G03X16560000Y-10414000I-50000J0D01*
G01*
X16560000Y-10668000D02*
G75*
G03X16560000Y-10668000I-50000J0D01*
G01*
X16560000Y-10922000D02*
G75*
G03X16560000Y-10922000I-50000J0D01*
G01*
X16560000Y-11176000D02*
G75*
G03X16560000Y-11176000I-50000J0D01*
G01*
X16560000Y-11430000D02*
G75*
G03X16560000Y-11430000I-50000J0D01*
G01*
X14782000Y-3048000D02*
G75*
G03X14782000Y-3048000I-50000J0D01*
G01*
X14782000Y-3302000D02*
G75*
G03X14782000Y-3302000I-50000J0D01*
G01*
X14782000Y-3556000D02*
G75*
G03X14782000Y-3556000I-50000J0D01*
G01*
X14782000Y-3810000D02*
G75*
G03X14782000Y-3810000I-50000J0D01*
G01*
X14782000Y-4064000D02*
G75*
G03X14782000Y-4064000I-50000J0D01*
G01*
X14782000Y-4318000D02*
G75*
G03X14782000Y-4318000I-50000J0D01*
G01*
X14782000Y-4572000D02*
G75*
G03X14782000Y-4572000I-50000J0D01*
G01*
X14782000Y-4826000D02*
G75*
G03X14782000Y-4826000I-50000J0D01*
G01*
X14782000Y-5080000D02*
G75*
G03X14782000Y-5080000I-50000J0D01*
G01*
X14782000Y-5334000D02*
G75*
G03X14782000Y-5334000I-50000J0D01*
G01*
X14782000Y-5588000D02*
G75*
G03X14782000Y-5588000I-50000J0D01*
G01*
X14782000Y-5842000D02*
G75*
G03X14782000Y-5842000I-50000J0D01*
G01*
X14782000Y-6096000D02*
G75*
G03X14782000Y-6096000I-50000J0D01*
G01*
X14782000Y-6350000D02*
G75*
G03X14782000Y-6350000I-50000J0D01*
G01*
X14782000Y-6604000D02*
G75*
G03X14782000Y-6604000I-50000J0D01*
G01*
X14782000Y-6858000D02*
G75*
G03X14782000Y-6858000I-50000J0D01*
G01*
X14782000Y-7112000D02*
G75*
G03X14782000Y-7112000I-50000J0D01*
G01*
X15036000Y-3048000D02*
G75*
G03X15036000Y-3048000I-50000J0D01*
G01*
X15036000Y-3302000D02*
G75*
G03X15036000Y-3302000I-50000J0D01*
G01*
X15036000Y-3556000D02*
G75*
G03X15036000Y-3556000I-50000J0D01*
G01*
X15036000Y-3810000D02*
G75*
G03X15036000Y-3810000I-50000J0D01*
G01*
X15036000Y-4064000D02*
G75*
G03X15036000Y-4064000I-50000J0D01*
G01*
X15036000Y-4318000D02*
G75*
G03X15036000Y-4318000I-50000J0D01*
G01*
X15036000Y-4572000D02*
G75*
G03X15036000Y-4572000I-50000J0D01*
G01*
X15036000Y-4826000D02*
G75*
G03X15036000Y-4826000I-50000J0D01*
G01*
X15036000Y-5080000D02*
G75*
G03X15036000Y-5080000I-50000J0D01*
G01*
X15036000Y-5334000D02*
G75*
G03X15036000Y-5334000I-50000J0D01*
G01*
X15036000Y-5588000D02*
G75*
G03X15036000Y-5588000I-50000J0D01*
G01*
X15036000Y-5842000D02*
G75*
G03X15036000Y-5842000I-50000J0D01*
G01*
X15036000Y-6096000D02*
G75*
G03X15036000Y-6096000I-50000J0D01*
G01*
X15036000Y-6350000D02*
G75*
G03X15036000Y-6350000I-50000J0D01*
G01*
X15036000Y-6604000D02*
G75*
G03X15036000Y-6604000I-50000J0D01*
G01*
X15036000Y-6858000D02*
G75*
G03X15036000Y-6858000I-50000J0D01*
G01*
X15036000Y-7112000D02*
G75*
G03X15036000Y-7112000I-50000J0D01*
G01*
X7035000Y-11684000D02*
G75*
G03X7035000Y-11684000I-50000J0D01*
G01*
X7035000Y-11938000D02*
G75*
G03X7035000Y-11938000I-50000J0D01*
G01*
X7035000Y-12192000D02*
G75*
G03X7035000Y-12192000I-50000J0D01*
G01*
X7035000Y-12446000D02*
G75*
G03X7035000Y-12446000I-50000J0D01*
G01*
X7035000Y-12700000D02*
G75*
G03X7035000Y-12700000I-50000J0D01*
G01*
X16179000Y-11684000D02*
G75*
G03X16179000Y-11684000I-50000J0D01*
G01*
X16179000Y-11938000D02*
G75*
G03X16179000Y-11938000I-50000J0D01*
G01*
X16179000Y-12192000D02*
G75*
G03X16179000Y-12192000I-50000J0D01*
G01*
X16179000Y-12446000D02*
G75*
G03X16179000Y-12446000I-50000J0D01*
G01*
X16179000Y-12700000D02*
G75*
G03X16179000Y-12700000I-50000J0D01*
G01*
X2463000Y-18034000D02*
G75*
G03X2463000Y-18034000I-50000J0D01*
G01*
X2463000Y-18288000D02*
G75*
G03X2463000Y-18288000I-50000J0D01*
G01*
X2463000Y-18542000D02*
G75*
G03X2463000Y-18542000I-50000J0D01*
G01*
X2463000Y-18796000D02*
G75*
G03X2463000Y-18796000I-50000J0D01*
G01*
X2463000Y-19050000D02*
G75*
G03X2463000Y-19050000I-50000J0D01*
G01*
X11607000Y-11684000D02*
G75*
G03X11607000Y-11684000I-50000J0D01*
G01*
X11607000Y-11938000D02*
G75*
G03X11607000Y-11938000I-50000J0D01*
G01*
X11607000Y-12192000D02*
G75*
G03X11607000Y-12192000I-50000J0D01*
G01*
X11607000Y-12446000D02*
G75*
G03X11607000Y-12446000I-50000J0D01*
G01*
X11607000Y-12700000D02*
G75*
G03X11607000Y-12700000I-50000J0D01*
G01*
X20751000Y-11684000D02*
G75*
G03X20751000Y-11684000I-50000J0D01*
G01*
X20751000Y-11938000D02*
G75*
G03X20751000Y-11938000I-50000J0D01*
G01*
X20751000Y-12192000D02*
G75*
G03X20751000Y-12192000I-50000J0D01*
G01*
X20751000Y-12446000D02*
G75*
G03X20751000Y-12446000I-50000J0D01*
G01*
X20751000Y-12700000D02*
G75*
G03X20751000Y-12700000I-50000J0D01*
G01*
X2463000Y-5334000D02*
G75*
G03X2463000Y-5334000I-50000J0D01*
G01*
X2463000Y-5588000D02*
G75*
G03X2463000Y-5588000I-50000J0D01*
G01*
X2463000Y-5842000D02*
G75*
G03X2463000Y-5842000I-50000J0D01*
G01*
X2463000Y-6096000D02*
G75*
G03X2463000Y-6096000I-50000J0D01*
G01*
X2463000Y-6350000D02*
G75*
G03X2463000Y-6350000I-50000J0D01*
G01*
X15671000Y-18034000D02*
G75*
G03X15671000Y-18034000I-50000J0D01*
G01*
X15671000Y-18288000D02*
G75*
G03X15671000Y-18288000I-50000J0D01*
G01*
X15671000Y-18542000D02*
G75*
G03X15671000Y-18542000I-50000J0D01*
G01*
X15671000Y-18796000D02*
G75*
G03X15671000Y-18796000I-50000J0D01*
G01*
X15671000Y-19050000D02*
G75*
G03X15671000Y-19050000I-50000J0D01*
G01*
X2463000Y-11684000D02*
G75*
G03X2463000Y-11684000I-50000J0D01*
G01*
X2463000Y-11938000D02*
G75*
G03X2463000Y-11938000I-50000J0D01*
G01*
X2463000Y-12192000D02*
G75*
G03X2463000Y-12192000I-50000J0D01*
G01*
X2463000Y-12446000D02*
G75*
G03X2463000Y-12446000I-50000J0D01*
G01*
X2463000Y-12700000D02*
G75*
G03X2463000Y-12700000I-50000J0D01*
G01*
X11607000Y-18034000D02*
G75*
G03X11607000Y-18034000I-50000J0D01*
G01*
X11607000Y-18288000D02*
G75*
G03X11607000Y-18288000I-50000J0D01*
G01*
X11607000Y-18542000D02*
G75*
G03X11607000Y-18542000I-50000J0D01*
G01*
X11607000Y-18796000D02*
G75*
G03X11607000Y-18796000I-50000J0D01*
G01*
X11607000Y-19050000D02*
G75*
G03X11607000Y-19050000I-50000J0D01*
G01*
X20878000Y-18034000D02*
G75*
G03X20878000Y-18034000I-50000J0D01*
G01*
X20878000Y-18288000D02*
G75*
G03X20878000Y-18288000I-50000J0D01*
G01*
X20878000Y-18542000D02*
G75*
G03X20878000Y-18542000I-50000J0D01*
G01*
X20878000Y-18796000D02*
G75*
G03X20878000Y-18796000I-50000J0D01*
G01*
X20878000Y-19050000D02*
G75*
G03X20878000Y-19050000I-50000J0D01*
G01*
X10591000Y-5334000D02*
G75*
G03X10591000Y-5334000I-50000J0D01*
G01*
X10591000Y-5588000D02*
G75*
G03X10591000Y-5588000I-50000J0D01*
G01*
X10591000Y-5842000D02*
G75*
G03X10591000Y-5842000I-50000J0D01*
G01*
X10591000Y-6096000D02*
G75*
G03X10591000Y-6096000I-50000J0D01*
G01*
X10591000Y-6350000D02*
G75*
G03X10591000Y-6350000I-50000J0D01*
G01*
X24180000Y-9652000D02*
G75*
G03X24180000Y-9652000I-50000J0D01*
G01*
X24180000Y-9906000D02*
G75*
G03X24180000Y-9906000I-50000J0D01*
G01*
X24180000Y-10160000D02*
G75*
G03X24180000Y-10160000I-50000J0D01*
G01*
X24180000Y-10414000D02*
G75*
G03X24180000Y-10414000I-50000J0D01*
G01*
X24180000Y-10668000D02*
G75*
G03X24180000Y-10668000I-50000J0D01*
G01*
X24180000Y-10922000D02*
G75*
G03X24180000Y-10922000I-50000J0D01*
G01*
X24180000Y-11176000D02*
G75*
G03X24180000Y-11176000I-50000J0D01*
G01*
X24180000Y-11430000D02*
G75*
G03X24180000Y-11430000I-50000J0D01*
G01*
X24180000Y-11684000D02*
G75*
G03X24180000Y-11684000I-50000J0D01*
G01*
X24180000Y-11938000D02*
G75*
G03X24180000Y-11938000I-50000J0D01*
G01*
X24180000Y-12192000D02*
G75*
G03X24180000Y-12192000I-50000J0D01*
G01*
X24180000Y-12446000D02*
G75*
G03X24180000Y-12446000I-50000J0D01*
G01*
X24180000Y-12700000D02*
G75*
G03X24180000Y-12700000I-50000J0D01*
G01*
X24180000Y-12954000D02*
G75*
G03X24180000Y-12954000I-50000J0D01*
G01*
X24434000Y-9652000D02*
G75*
G03X24434000Y-9652000I-50000J0D01*
G01*
X24434000Y-9906000D02*
G75*
G03X24434000Y-9906000I-50000J0D01*
G01*
X24434000Y-10160000D02*
G75*
G03X24434000Y-10160000I-50000J0D01*
G01*
X24434000Y-10414000D02*
G75*
G03X24434000Y-10414000I-50000J0D01*
G01*
X24434000Y-10668000D02*
G75*
G03X24434000Y-10668000I-50000J0D01*
G01*
X24434000Y-10922000D02*
G75*
G03X24434000Y-10922000I-50000J0D01*
G01*
X24434000Y-11176000D02*
G75*
G03X24434000Y-11176000I-50000J0D01*
G01*
X24434000Y-11430000D02*
G75*
G03X24434000Y-11430000I-50000J0D01*
G01*
X24434000Y-11684000D02*
G75*
G03X24434000Y-11684000I-50000J0D01*
G01*
X24434000Y-11938000D02*
G75*
G03X24434000Y-11938000I-50000J0D01*
G01*
X24434000Y-12192000D02*
G75*
G03X24434000Y-12192000I-50000J0D01*
G01*
X24434000Y-12446000D02*
G75*
G03X24434000Y-12446000I-50000J0D01*
G01*
X24434000Y-12700000D02*
G75*
G03X24434000Y-12700000I-50000J0D01*
G01*
X24434000Y-12954000D02*
G75*
G03X24434000Y-12954000I-50000J0D01*
G01*
D12*
X1294928Y-21301214D02*
X1294928Y-21001214D01*
X1366357Y-21001214D01*
X1409214Y-21015500D01*
X1437786Y-21044072D01*
X1452071Y-21072643D01*
X1466357Y-21129786D01*
X1466357Y-21172643D01*
X1452071Y-21229786D01*
X1437786Y-21258357D01*
X1409214Y-21286929D01*
X1366357Y-21301214D01*
X1294928Y-21301214D01*
X1594928Y-21301214D02*
X1594928Y-21101214D01*
X1594928Y-21158357D02*
X1609214Y-21129786D01*
X1623500Y-21115500D01*
X1652071Y-21101214D01*
X1680643Y-21101214D01*
X1780643Y-21301214D02*
X1780643Y-21101214D01*
X1780643Y-21001214D02*
X1766357Y-21015500D01*
X1780643Y-21029786D01*
X1794928Y-21015500D01*
X1780643Y-21001214D01*
X1780643Y-21029786D01*
X1966357Y-21301214D02*
X1937786Y-21286929D01*
X1923500Y-21258357D01*
X1923500Y-21001214D01*
X2123500Y-21301214D02*
X2094928Y-21286929D01*
X2080643Y-21258357D01*
X2080643Y-21001214D01*
X2466357Y-21301214D02*
X2466357Y-21001214D01*
X2566357Y-21215500D01*
X2666357Y-21001214D01*
X2666357Y-21301214D01*
X2937786Y-21301214D02*
X2937786Y-21144072D01*
X2923500Y-21115500D01*
X2894928Y-21101214D01*
X2837786Y-21101214D01*
X2809214Y-21115500D01*
X2937786Y-21286929D02*
X2909214Y-21301214D01*
X2837786Y-21301214D01*
X2809214Y-21286929D01*
X2794928Y-21258357D01*
X2794928Y-21229786D01*
X2809214Y-21201214D01*
X2837786Y-21186929D01*
X2909214Y-21186929D01*
X2937786Y-21172643D01*
X3080643Y-21101214D02*
X3080643Y-21401214D01*
X3080643Y-21115500D02*
X3109214Y-21101214D01*
X3166357Y-21101214D01*
X3194928Y-21115500D01*
X3209214Y-21129786D01*
X3223500Y-21158357D01*
X3223500Y-21244072D01*
X3209214Y-21272643D01*
X3194928Y-21286929D01*
X3166357Y-21301214D01*
X3109214Y-21301214D01*
X3080643Y-21286929D01*
X3352071Y-21272643D02*
X3366357Y-21286929D01*
X3352071Y-21301214D01*
X3337786Y-21286929D01*
X3352071Y-21272643D01*
X3352071Y-21301214D01*
X3352071Y-21115500D02*
X3366357Y-21129786D01*
X3352071Y-21144072D01*
X3337786Y-21129786D01*
X3352071Y-21115500D01*
X3352071Y-21144072D01*
X968500Y-21775500D02*
X1008500Y-21815500D01*
X1008500Y-21775500D02*
X968500Y-21815500D01*
X1352071Y-21631214D02*
X1380643Y-21631214D01*
X1409214Y-21645500D01*
X1423500Y-21659786D01*
X1437786Y-21688357D01*
X1452071Y-21745500D01*
X1452071Y-21816929D01*
X1437786Y-21874072D01*
X1423500Y-21902643D01*
X1409214Y-21916929D01*
X1380643Y-21931214D01*
X1352071Y-21931214D01*
X1323500Y-21916929D01*
X1309214Y-21902643D01*
X1294928Y-21874072D01*
X1280643Y-21816929D01*
X1280643Y-21745500D01*
X1294928Y-21688357D01*
X1309214Y-21659786D01*
X1323500Y-21645500D01*
X1352071Y-21631214D01*
X1580643Y-21902643D02*
X1594928Y-21916929D01*
X1580643Y-21931214D01*
X1566357Y-21916929D01*
X1580643Y-21902643D01*
X1580643Y-21931214D01*
X1852071Y-21731214D02*
X1852071Y-21931214D01*
X1780643Y-21616929D02*
X1709214Y-21831214D01*
X1894928Y-21831214D01*
X2066357Y-21631214D02*
X2094928Y-21631214D01*
X2123500Y-21645500D01*
X2137786Y-21659786D01*
X2152071Y-21688357D01*
X2166357Y-21745500D01*
X2166357Y-21816929D01*
X2152071Y-21874072D01*
X2137786Y-21902643D01*
X2123500Y-21916929D01*
X2094928Y-21931214D01*
X2066357Y-21931214D01*
X2037786Y-21916929D01*
X2023500Y-21902643D01*
X2009214Y-21874072D01*
X1994928Y-21816929D01*
X1994928Y-21745500D01*
X2009214Y-21688357D01*
X2023500Y-21659786D01*
X2037786Y-21645500D01*
X2066357Y-21631214D01*
X2294928Y-21931214D02*
X2294928Y-21731214D01*
X2294928Y-21759786D02*
X2309214Y-21745500D01*
X2337786Y-21731214D01*
X2380643Y-21731214D01*
X2409214Y-21745500D01*
X2423500Y-21774072D01*
X2423500Y-21931214D01*
X2423500Y-21774072D02*
X2437786Y-21745500D01*
X2466357Y-21731214D01*
X2509214Y-21731214D01*
X2537786Y-21745500D01*
X2552071Y-21774072D01*
X2552071Y-21931214D01*
X2694928Y-21931214D02*
X2694928Y-21731214D01*
X2694928Y-21759786D02*
X2709214Y-21745500D01*
X2737786Y-21731214D01*
X2780643Y-21731214D01*
X2809214Y-21745500D01*
X2823500Y-21774072D01*
X2823500Y-21931214D01*
X2823500Y-21774072D02*
X2837786Y-21745500D01*
X2866357Y-21731214D01*
X2909214Y-21731214D01*
X2937786Y-21745500D01*
X2952071Y-21774072D01*
X2952071Y-21931214D01*
X3537786Y-21616929D02*
X3280643Y-22002643D01*
X3923500Y-21631214D02*
X3952071Y-21631214D01*
X3980643Y-21645500D01*
X3994928Y-21659786D01*
X4009214Y-21688357D01*
X4023500Y-21745500D01*
X4023500Y-21816929D01*
X4009214Y-21874072D01*
X3994928Y-21902643D01*
X3980643Y-21916929D01*
X3952071Y-21931214D01*
X3923500Y-21931214D01*
X3894928Y-21916929D01*
X3880643Y-21902643D01*
X3866357Y-21874072D01*
X3852071Y-21816929D01*
X3852071Y-21745500D01*
X3866357Y-21688357D01*
X3880643Y-21659786D01*
X3894928Y-21645500D01*
X3923500Y-21631214D01*
X4152071Y-21902643D02*
X4166357Y-21916929D01*
X4152071Y-21931214D01*
X4137786Y-21916929D01*
X4152071Y-21902643D01*
X4152071Y-21931214D01*
X4352071Y-21631214D02*
X4380643Y-21631214D01*
X4409214Y-21645500D01*
X4423500Y-21659786D01*
X4437786Y-21688357D01*
X4452071Y-21745500D01*
X4452071Y-21816929D01*
X4437786Y-21874072D01*
X4423500Y-21902643D01*
X4409214Y-21916929D01*
X4380643Y-21931214D01*
X4352071Y-21931214D01*
X4323500Y-21916929D01*
X4309214Y-21902643D01*
X4294928Y-21874072D01*
X4280643Y-21816929D01*
X4280643Y-21745500D01*
X4294928Y-21688357D01*
X4309214Y-21659786D01*
X4323500Y-21645500D01*
X4352071Y-21631214D01*
X4737786Y-21931214D02*
X4566357Y-21931214D01*
X4652071Y-21931214D02*
X4652071Y-21631214D01*
X4623500Y-21674072D01*
X4594928Y-21702643D01*
X4566357Y-21716929D01*
X4994928Y-21631214D02*
X4937786Y-21631214D01*
X4909214Y-21645500D01*
X4894928Y-21659786D01*
X4866357Y-21702643D01*
X4852071Y-21759786D01*
X4852071Y-21874072D01*
X4866357Y-21902643D01*
X4880643Y-21916929D01*
X4909214Y-21931214D01*
X4966357Y-21931214D01*
X4994928Y-21916929D01*
X5009214Y-21902643D01*
X5023500Y-21874072D01*
X5023500Y-21802643D01*
X5009214Y-21774072D01*
X4994928Y-21759786D01*
X4966357Y-21745500D01*
X4909214Y-21745500D01*
X4880643Y-21759786D01*
X4866357Y-21774072D01*
X4852071Y-21802643D01*
X5137786Y-21631214D02*
X5137786Y-21688357D01*
X5252071Y-21631214D02*
X5252071Y-21688357D01*
X5694928Y-22045500D02*
X5680643Y-22031214D01*
X5652071Y-21988357D01*
X5637786Y-21959786D01*
X5623500Y-21916929D01*
X5609214Y-21845500D01*
X5609214Y-21788357D01*
X5623500Y-21716929D01*
X5637786Y-21674072D01*
X5652071Y-21645500D01*
X5680643Y-21602643D01*
X5694928Y-21588357D01*
X5823500Y-21931214D02*
X5880643Y-21931214D01*
X5909214Y-21916929D01*
X5923500Y-21902643D01*
X5952071Y-21859786D01*
X5966357Y-21802643D01*
X5966357Y-21688357D01*
X5952071Y-21659786D01*
X5937786Y-21645500D01*
X5909214Y-21631214D01*
X5852071Y-21631214D01*
X5823500Y-21645500D01*
X5809214Y-21659786D01*
X5794928Y-21688357D01*
X5794928Y-21759786D01*
X5809214Y-21788357D01*
X5823500Y-21802643D01*
X5852071Y-21816929D01*
X5909214Y-21816929D01*
X5937786Y-21802643D01*
X5952071Y-21788357D01*
X5966357Y-21759786D01*
X6066357Y-21631214D02*
X6252071Y-21631214D01*
X6152071Y-21745500D01*
X6194928Y-21745500D01*
X6223500Y-21759786D01*
X6237786Y-21774072D01*
X6252071Y-21802643D01*
X6252071Y-21874072D01*
X6237786Y-21902643D01*
X6223500Y-21916929D01*
X6194928Y-21931214D01*
X6109214Y-21931214D01*
X6080643Y-21916929D01*
X6066357Y-21902643D01*
X6352071Y-21631214D02*
X6537786Y-21631214D01*
X6437786Y-21745500D01*
X6480643Y-21745500D01*
X6509214Y-21759786D01*
X6523500Y-21774072D01*
X6537786Y-21802643D01*
X6537786Y-21874072D01*
X6523500Y-21902643D01*
X6509214Y-21916929D01*
X6480643Y-21931214D01*
X6394928Y-21931214D01*
X6366357Y-21916929D01*
X6352071Y-21902643D01*
X6894928Y-21931214D02*
X6894928Y-21631214D01*
X7023500Y-21931214D02*
X7023500Y-21774072D01*
X7009214Y-21745500D01*
X6980643Y-21731214D01*
X6937786Y-21731214D01*
X6909214Y-21745500D01*
X6894928Y-21759786D01*
X7209214Y-21931214D02*
X7180643Y-21916929D01*
X7166357Y-21902643D01*
X7152071Y-21874072D01*
X7152071Y-21788357D01*
X7166357Y-21759786D01*
X7180643Y-21745500D01*
X7209214Y-21731214D01*
X7252071Y-21731214D01*
X7280643Y-21745500D01*
X7294928Y-21759786D01*
X7309214Y-21788357D01*
X7309214Y-21874072D01*
X7294928Y-21902643D01*
X7280643Y-21916929D01*
X7252071Y-21931214D01*
X7209214Y-21931214D01*
X7480643Y-21931214D02*
X7452071Y-21916929D01*
X7437786Y-21888357D01*
X7437786Y-21631214D01*
X7709214Y-21916929D02*
X7680643Y-21931214D01*
X7623500Y-21931214D01*
X7594928Y-21916929D01*
X7580643Y-21888357D01*
X7580643Y-21774072D01*
X7594928Y-21745500D01*
X7623500Y-21731214D01*
X7680643Y-21731214D01*
X7709214Y-21745500D01*
X7723500Y-21774072D01*
X7723500Y-21802643D01*
X7580643Y-21831214D01*
X7837786Y-21916929D02*
X7866357Y-21931214D01*
X7923500Y-21931214D01*
X7952071Y-21916929D01*
X7966357Y-21888357D01*
X7966357Y-21874072D01*
X7952071Y-21845500D01*
X7923500Y-21831214D01*
X7880643Y-21831214D01*
X7852071Y-21816929D01*
X7837786Y-21788357D01*
X7837786Y-21774072D01*
X7852071Y-21745500D01*
X7880643Y-21731214D01*
X7923500Y-21731214D01*
X7952071Y-21745500D01*
X8066357Y-22045500D02*
X8080643Y-22031214D01*
X8109214Y-21988357D01*
X8123500Y-21959786D01*
X8137786Y-21916929D01*
X8152071Y-21845500D01*
X8152071Y-21788357D01*
X8137786Y-21716929D01*
X8123500Y-21674072D01*
X8109214Y-21645500D01*
X8080643Y-21602643D01*
X8066357Y-21588357D01*
X1008500Y-22191500D02*
G75*
G03X1008500Y-22191500I-50000J0D01*
G01*
X1452071Y-22327214D02*
X1280643Y-22327214D01*
X1366357Y-22327214D02*
X1366357Y-22027214D01*
X1337786Y-22070072D01*
X1309214Y-22098643D01*
X1280643Y-22112929D01*
X1580643Y-22298643D02*
X1594928Y-22312929D01*
X1580643Y-22327214D01*
X1566357Y-22312929D01*
X1580643Y-22298643D01*
X1580643Y-22327214D01*
X1780643Y-22027214D02*
X1809214Y-22027214D01*
X1837786Y-22041500D01*
X1852071Y-22055786D01*
X1866357Y-22084357D01*
X1880643Y-22141500D01*
X1880643Y-22212929D01*
X1866357Y-22270072D01*
X1852071Y-22298643D01*
X1837786Y-22312929D01*
X1809214Y-22327214D01*
X1780643Y-22327214D01*
X1752071Y-22312929D01*
X1737786Y-22298643D01*
X1723500Y-22270072D01*
X1709214Y-22212929D01*
X1709214Y-22141500D01*
X1723500Y-22084357D01*
X1737786Y-22055786D01*
X1752071Y-22041500D01*
X1780643Y-22027214D01*
X2066357Y-22027214D02*
X2094928Y-22027214D01*
X2123500Y-22041500D01*
X2137786Y-22055786D01*
X2152071Y-22084357D01*
X2166357Y-22141500D01*
X2166357Y-22212929D01*
X2152071Y-22270072D01*
X2137786Y-22298643D01*
X2123500Y-22312929D01*
X2094928Y-22327214D01*
X2066357Y-22327214D01*
X2037786Y-22312929D01*
X2023500Y-22298643D01*
X2009214Y-22270072D01*
X1994928Y-22212929D01*
X1994928Y-22141500D01*
X2009214Y-22084357D01*
X2023500Y-22055786D01*
X2037786Y-22041500D01*
X2066357Y-22027214D01*
X2294928Y-22327214D02*
X2294928Y-22127214D01*
X2294928Y-22155786D02*
X2309214Y-22141500D01*
X2337786Y-22127214D01*
X2380643Y-22127214D01*
X2409214Y-22141500D01*
X2423500Y-22170072D01*
X2423500Y-22327214D01*
X2423500Y-22170072D02*
X2437786Y-22141500D01*
X2466357Y-22127214D01*
X2509214Y-22127214D01*
X2537786Y-22141500D01*
X2552071Y-22170072D01*
X2552071Y-22327214D01*
X2694928Y-22327214D02*
X2694928Y-22127214D01*
X2694928Y-22155786D02*
X2709214Y-22141500D01*
X2737786Y-22127214D01*
X2780643Y-22127214D01*
X2809214Y-22141500D01*
X2823500Y-22170072D01*
X2823500Y-22327214D01*
X2823500Y-22170072D02*
X2837786Y-22141500D01*
X2866357Y-22127214D01*
X2909214Y-22127214D01*
X2937786Y-22141500D01*
X2952071Y-22170072D01*
X2952071Y-22327214D01*
X3537786Y-22012929D02*
X3280643Y-22398643D01*
X3923500Y-22027214D02*
X3952071Y-22027214D01*
X3980643Y-22041500D01*
X3994928Y-22055786D01*
X4009214Y-22084357D01*
X4023500Y-22141500D01*
X4023500Y-22212929D01*
X4009214Y-22270072D01*
X3994928Y-22298643D01*
X3980643Y-22312929D01*
X3952071Y-22327214D01*
X3923500Y-22327214D01*
X3894928Y-22312929D01*
X3880643Y-22298643D01*
X3866357Y-22270072D01*
X3852071Y-22212929D01*
X3852071Y-22141500D01*
X3866357Y-22084357D01*
X3880643Y-22055786D01*
X3894928Y-22041500D01*
X3923500Y-22027214D01*
X4152071Y-22298643D02*
X4166357Y-22312929D01*
X4152071Y-22327214D01*
X4137786Y-22312929D01*
X4152071Y-22298643D01*
X4152071Y-22327214D01*
X4352071Y-22027214D02*
X4380643Y-22027214D01*
X4409214Y-22041500D01*
X4423500Y-22055786D01*
X4437786Y-22084357D01*
X4452071Y-22141500D01*
X4452071Y-22212929D01*
X4437786Y-22270072D01*
X4423500Y-22298643D01*
X4409214Y-22312929D01*
X4380643Y-22327214D01*
X4352071Y-22327214D01*
X4323500Y-22312929D01*
X4309214Y-22298643D01*
X4294928Y-22270072D01*
X4280643Y-22212929D01*
X4280643Y-22141500D01*
X4294928Y-22084357D01*
X4309214Y-22055786D01*
X4323500Y-22041500D01*
X4352071Y-22027214D01*
X4552071Y-22027214D02*
X4737786Y-22027214D01*
X4637786Y-22141500D01*
X4680643Y-22141500D01*
X4709214Y-22155786D01*
X4723500Y-22170072D01*
X4737786Y-22198643D01*
X4737786Y-22270072D01*
X4723500Y-22298643D01*
X4709214Y-22312929D01*
X4680643Y-22327214D01*
X4594928Y-22327214D01*
X4566357Y-22312929D01*
X4552071Y-22298643D01*
X4880643Y-22327214D02*
X4937786Y-22327214D01*
X4966357Y-22312929D01*
X4980643Y-22298643D01*
X5009214Y-22255786D01*
X5023500Y-22198643D01*
X5023500Y-22084357D01*
X5009214Y-22055786D01*
X4994928Y-22041500D01*
X4966357Y-22027214D01*
X4909214Y-22027214D01*
X4880643Y-22041500D01*
X4866357Y-22055786D01*
X4852071Y-22084357D01*
X4852071Y-22155786D01*
X4866357Y-22184357D01*
X4880643Y-22198643D01*
X4909214Y-22212929D01*
X4966357Y-22212929D01*
X4994928Y-22198643D01*
X5009214Y-22184357D01*
X5023500Y-22155786D01*
X5137786Y-22027214D02*
X5137786Y-22084357D01*
X5252071Y-22027214D02*
X5252071Y-22084357D01*
X5694928Y-22441500D02*
X5680643Y-22427214D01*
X5652071Y-22384357D01*
X5637786Y-22355786D01*
X5623500Y-22312929D01*
X5609214Y-22241500D01*
X5609214Y-22184357D01*
X5623500Y-22112929D01*
X5637786Y-22070072D01*
X5652071Y-22041500D01*
X5680643Y-21998643D01*
X5694928Y-21984357D01*
X5966357Y-22327214D02*
X5794928Y-22327214D01*
X5880643Y-22327214D02*
X5880643Y-22027214D01*
X5852071Y-22070072D01*
X5823500Y-22098643D01*
X5794928Y-22112929D01*
X6066357Y-22027214D02*
X6252071Y-22027214D01*
X6152071Y-22141500D01*
X6194928Y-22141500D01*
X6223500Y-22155786D01*
X6237786Y-22170072D01*
X6252071Y-22198643D01*
X6252071Y-22270072D01*
X6237786Y-22298643D01*
X6223500Y-22312929D01*
X6194928Y-22327214D01*
X6109214Y-22327214D01*
X6080643Y-22312929D01*
X6066357Y-22298643D01*
X6509214Y-22127214D02*
X6509214Y-22327214D01*
X6437786Y-22012929D02*
X6366357Y-22227214D01*
X6552071Y-22227214D01*
X6894928Y-22327214D02*
X6894928Y-22027214D01*
X7023500Y-22327214D02*
X7023500Y-22170072D01*
X7009214Y-22141500D01*
X6980643Y-22127214D01*
X6937786Y-22127214D01*
X6909214Y-22141500D01*
X6894928Y-22155786D01*
X7209214Y-22327214D02*
X7180643Y-22312929D01*
X7166357Y-22298643D01*
X7152071Y-22270072D01*
X7152071Y-22184357D01*
X7166357Y-22155786D01*
X7180643Y-22141500D01*
X7209214Y-22127214D01*
X7252071Y-22127214D01*
X7280643Y-22141500D01*
X7294928Y-22155786D01*
X7309214Y-22184357D01*
X7309214Y-22270072D01*
X7294928Y-22298643D01*
X7280643Y-22312929D01*
X7252071Y-22327214D01*
X7209214Y-22327214D01*
X7480643Y-22327214D02*
X7452071Y-22312929D01*
X7437786Y-22284357D01*
X7437786Y-22027214D01*
X7709214Y-22312929D02*
X7680643Y-22327214D01*
X7623500Y-22327214D01*
X7594928Y-22312929D01*
X7580643Y-22284357D01*
X7580643Y-22170072D01*
X7594928Y-22141500D01*
X7623500Y-22127214D01*
X7680643Y-22127214D01*
X7709214Y-22141500D01*
X7723500Y-22170072D01*
X7723500Y-22198643D01*
X7580643Y-22227214D01*
X7837786Y-22312929D02*
X7866357Y-22327214D01*
X7923500Y-22327214D01*
X7952071Y-22312929D01*
X7966357Y-22284357D01*
X7966357Y-22270072D01*
X7952071Y-22241500D01*
X7923500Y-22227214D01*
X7880643Y-22227214D01*
X7852071Y-22212929D01*
X7837786Y-22184357D01*
X7837786Y-22170072D01*
X7852071Y-22141500D01*
X7880643Y-22127214D01*
X7923500Y-22127214D01*
X7952071Y-22141500D01*
X8066357Y-22441500D02*
X8080643Y-22427214D01*
X8109214Y-22384357D01*
X8123500Y-22355786D01*
X8137786Y-22312929D01*
X8152071Y-22241500D01*
X8152071Y-22184357D01*
X8137786Y-22112929D01*
X8123500Y-22070072D01*
X8109214Y-22041500D01*
X8080643Y-21998643D01*
X8066357Y-21984357D01*
M02*
