G04 #@! TF.GenerationSoftware,KiCad,Pcbnew,5.0.1*
G04 #@! TF.CreationDate,2018-12-21T00:49:29+11:00*
G04 #@! TF.ProjectId,cpld-cpu,63706C642D6370752E6B696361645F70,rev?*
G04 #@! TF.SameCoordinates,Original*
G04 #@! TF.FileFunction,Soldermask,Bot*
G04 #@! TF.FilePolarity,Negative*
%FSLAX46Y46*%
G04 Gerber Fmt 4.6, Leading zero omitted, Abs format (unit mm)*
G04 Created by KiCad (PCBNEW 5.0.1) date Fri 21 Dec 2018 00:49:29 AEDT*
%MOMM*%
%LPD*%
G01*
G04 APERTURE LIST*
%ADD10C,0.050000*%
G04 APERTURE END LIST*
D10*
G36*
X264801719Y-201084545D02*
X265202089Y-201250384D01*
X265202091Y-201250385D01*
X265562418Y-201491148D01*
X265868852Y-201797582D01*
X265868854Y-201797585D01*
X266109616Y-202157911D01*
X266275455Y-202558281D01*
X266360000Y-202983318D01*
X266360000Y-203416682D01*
X266275455Y-203841719D01*
X266109616Y-204242089D01*
X266109615Y-204242091D01*
X265868852Y-204602418D01*
X265562418Y-204908852D01*
X265202091Y-205149615D01*
X265202090Y-205149616D01*
X265202089Y-205149616D01*
X264801719Y-205315455D01*
X264376682Y-205400000D01*
X263943318Y-205400000D01*
X263518281Y-205315455D01*
X263117911Y-205149616D01*
X263117910Y-205149616D01*
X263117909Y-205149615D01*
X262757582Y-204908852D01*
X262451148Y-204602418D01*
X262210385Y-204242091D01*
X262210384Y-204242089D01*
X262044545Y-203841719D01*
X261960000Y-203416682D01*
X261960000Y-202983318D01*
X262044545Y-202558281D01*
X262210384Y-202157911D01*
X262451146Y-201797585D01*
X262451148Y-201797582D01*
X262757582Y-201491148D01*
X263117909Y-201250385D01*
X263117911Y-201250384D01*
X263518281Y-201084545D01*
X263943318Y-201000000D01*
X264376682Y-201000000D01*
X264801719Y-201084545D01*
X264801719Y-201084545D01*
G37*
G36*
X15881719Y-201084545D02*
X16282089Y-201250384D01*
X16282091Y-201250385D01*
X16642418Y-201491148D01*
X16948852Y-201797582D01*
X16948854Y-201797585D01*
X17189616Y-202157911D01*
X17355455Y-202558281D01*
X17440000Y-202983318D01*
X17440000Y-203416682D01*
X17355455Y-203841719D01*
X17189616Y-204242089D01*
X17189615Y-204242091D01*
X16948852Y-204602418D01*
X16642418Y-204908852D01*
X16282091Y-205149615D01*
X16282090Y-205149616D01*
X16282089Y-205149616D01*
X15881719Y-205315455D01*
X15456682Y-205400000D01*
X15023318Y-205400000D01*
X14598281Y-205315455D01*
X14197911Y-205149616D01*
X14197910Y-205149616D01*
X14197909Y-205149615D01*
X13837582Y-204908852D01*
X13531148Y-204602418D01*
X13290385Y-204242091D01*
X13290384Y-204242089D01*
X13124545Y-203841719D01*
X13040000Y-203416682D01*
X13040000Y-202983318D01*
X13124545Y-202558281D01*
X13290384Y-202157911D01*
X13531146Y-201797585D01*
X13531148Y-201797582D01*
X13837582Y-201491148D01*
X14197909Y-201250385D01*
X14197911Y-201250384D01*
X14598281Y-201084545D01*
X15023318Y-201000000D01*
X15456682Y-201000000D01*
X15881719Y-201084545D01*
X15881719Y-201084545D01*
G37*
G36*
X208456431Y-189613023D02*
X208626081Y-189664486D01*
X208782432Y-189748057D01*
X208919475Y-189860525D01*
X209031943Y-189997568D01*
X209115514Y-190153919D01*
X209166977Y-190323569D01*
X209184354Y-190500000D01*
X209166977Y-190676431D01*
X209115514Y-190846081D01*
X209031943Y-191002432D01*
X208919475Y-191139475D01*
X208782432Y-191251943D01*
X208626081Y-191335514D01*
X208456431Y-191386977D01*
X208324207Y-191400000D01*
X208235793Y-191400000D01*
X208103569Y-191386977D01*
X207933919Y-191335514D01*
X207777568Y-191251943D01*
X207640525Y-191139475D01*
X207528057Y-191002432D01*
X207444486Y-190846081D01*
X207393023Y-190676431D01*
X207375646Y-190500000D01*
X207393023Y-190323569D01*
X207444486Y-190153919D01*
X207528057Y-189997568D01*
X207640525Y-189860525D01*
X207777568Y-189748057D01*
X207933919Y-189664486D01*
X208103569Y-189613023D01*
X208235793Y-189600000D01*
X208324207Y-189600000D01*
X208456431Y-189613023D01*
X208456431Y-189613023D01*
G37*
G36*
X24306431Y-189613023D02*
X24476081Y-189664486D01*
X24632432Y-189748057D01*
X24769475Y-189860525D01*
X24881943Y-189997568D01*
X24965514Y-190153919D01*
X25016977Y-190323569D01*
X25034354Y-190500000D01*
X25016977Y-190676431D01*
X24965514Y-190846081D01*
X24881943Y-191002432D01*
X24769475Y-191139475D01*
X24632432Y-191251943D01*
X24476081Y-191335514D01*
X24306431Y-191386977D01*
X24174207Y-191400000D01*
X24085793Y-191400000D01*
X23953569Y-191386977D01*
X23783919Y-191335514D01*
X23627568Y-191251943D01*
X23490525Y-191139475D01*
X23378057Y-191002432D01*
X23294486Y-190846081D01*
X23243023Y-190676431D01*
X23225646Y-190500000D01*
X23243023Y-190323569D01*
X23294486Y-190153919D01*
X23378057Y-189997568D01*
X23490525Y-189860525D01*
X23627568Y-189748057D01*
X23783919Y-189664486D01*
X23953569Y-189613023D01*
X24085793Y-189600000D01*
X24174207Y-189600000D01*
X24306431Y-189613023D01*
X24306431Y-189613023D01*
G37*
G36*
X70026431Y-189613023D02*
X70196081Y-189664486D01*
X70352432Y-189748057D01*
X70489475Y-189860525D01*
X70601943Y-189997568D01*
X70685514Y-190153919D01*
X70736977Y-190323569D01*
X70754354Y-190500000D01*
X70736977Y-190676431D01*
X70685514Y-190846081D01*
X70601943Y-191002432D01*
X70489475Y-191139475D01*
X70352432Y-191251943D01*
X70196081Y-191335514D01*
X70026431Y-191386977D01*
X69894207Y-191400000D01*
X69805793Y-191400000D01*
X69673569Y-191386977D01*
X69503919Y-191335514D01*
X69347568Y-191251943D01*
X69210525Y-191139475D01*
X69098057Y-191002432D01*
X69014486Y-190846081D01*
X68963023Y-190676431D01*
X68945646Y-190500000D01*
X68963023Y-190323569D01*
X69014486Y-190153919D01*
X69098057Y-189997568D01*
X69210525Y-189860525D01*
X69347568Y-189748057D01*
X69503919Y-189664486D01*
X69673569Y-189613023D01*
X69805793Y-189600000D01*
X69894207Y-189600000D01*
X70026431Y-189613023D01*
X70026431Y-189613023D01*
G37*
G36*
X115746431Y-189613023D02*
X115916081Y-189664486D01*
X116072432Y-189748057D01*
X116209475Y-189860525D01*
X116321943Y-189997568D01*
X116405514Y-190153919D01*
X116456977Y-190323569D01*
X116474354Y-190500000D01*
X116456977Y-190676431D01*
X116405514Y-190846081D01*
X116321943Y-191002432D01*
X116209475Y-191139475D01*
X116072432Y-191251943D01*
X115916081Y-191335514D01*
X115746431Y-191386977D01*
X115614207Y-191400000D01*
X115525793Y-191400000D01*
X115393569Y-191386977D01*
X115223919Y-191335514D01*
X115067568Y-191251943D01*
X114930525Y-191139475D01*
X114818057Y-191002432D01*
X114734486Y-190846081D01*
X114683023Y-190676431D01*
X114665646Y-190500000D01*
X114683023Y-190323569D01*
X114734486Y-190153919D01*
X114818057Y-189997568D01*
X114930525Y-189860525D01*
X115067568Y-189748057D01*
X115223919Y-189664486D01*
X115393569Y-189613023D01*
X115525793Y-189600000D01*
X115614207Y-189600000D01*
X115746431Y-189613023D01*
X115746431Y-189613023D01*
G37*
G36*
X156386431Y-189613023D02*
X156556081Y-189664486D01*
X156712432Y-189748057D01*
X156849475Y-189860525D01*
X156961943Y-189997568D01*
X157045514Y-190153919D01*
X157096977Y-190323569D01*
X157114354Y-190500000D01*
X157096977Y-190676431D01*
X157045514Y-190846081D01*
X156961943Y-191002432D01*
X156849475Y-191139475D01*
X156712432Y-191251943D01*
X156556081Y-191335514D01*
X156386431Y-191386977D01*
X156254207Y-191400000D01*
X156165793Y-191400000D01*
X156033569Y-191386977D01*
X155863919Y-191335514D01*
X155707568Y-191251943D01*
X155570525Y-191139475D01*
X155458057Y-191002432D01*
X155374486Y-190846081D01*
X155323023Y-190676431D01*
X155305646Y-190500000D01*
X155323023Y-190323569D01*
X155374486Y-190153919D01*
X155458057Y-189997568D01*
X155570525Y-189860525D01*
X155707568Y-189748057D01*
X155863919Y-189664486D01*
X156033569Y-189613023D01*
X156165793Y-189600000D01*
X156254207Y-189600000D01*
X156386431Y-189613023D01*
X156386431Y-189613023D01*
G37*
G36*
X24306431Y-187073023D02*
X24476081Y-187124486D01*
X24632432Y-187208057D01*
X24769475Y-187320525D01*
X24881943Y-187457568D01*
X24965514Y-187613919D01*
X25016977Y-187783569D01*
X25034354Y-187960000D01*
X25016977Y-188136431D01*
X24965514Y-188306081D01*
X24881943Y-188462432D01*
X24769475Y-188599475D01*
X24632432Y-188711943D01*
X24476081Y-188795514D01*
X24306431Y-188846977D01*
X24174207Y-188860000D01*
X24085793Y-188860000D01*
X23953569Y-188846977D01*
X23783919Y-188795514D01*
X23627568Y-188711943D01*
X23490525Y-188599475D01*
X23378057Y-188462432D01*
X23294486Y-188306081D01*
X23243023Y-188136431D01*
X23225646Y-187960000D01*
X23243023Y-187783569D01*
X23294486Y-187613919D01*
X23378057Y-187457568D01*
X23490525Y-187320525D01*
X23627568Y-187208057D01*
X23783919Y-187124486D01*
X23953569Y-187073023D01*
X24085793Y-187060000D01*
X24174207Y-187060000D01*
X24306431Y-187073023D01*
X24306431Y-187073023D01*
G37*
G36*
X115746431Y-187073023D02*
X115916081Y-187124486D01*
X116072432Y-187208057D01*
X116209475Y-187320525D01*
X116321943Y-187457568D01*
X116405514Y-187613919D01*
X116456977Y-187783569D01*
X116474354Y-187960000D01*
X116456977Y-188136431D01*
X116405514Y-188306081D01*
X116321943Y-188462432D01*
X116209475Y-188599475D01*
X116072432Y-188711943D01*
X115916081Y-188795514D01*
X115746431Y-188846977D01*
X115614207Y-188860000D01*
X115525793Y-188860000D01*
X115393569Y-188846977D01*
X115223919Y-188795514D01*
X115067568Y-188711943D01*
X114930525Y-188599475D01*
X114818057Y-188462432D01*
X114734486Y-188306081D01*
X114683023Y-188136431D01*
X114665646Y-187960000D01*
X114683023Y-187783569D01*
X114734486Y-187613919D01*
X114818057Y-187457568D01*
X114930525Y-187320525D01*
X115067568Y-187208057D01*
X115223919Y-187124486D01*
X115393569Y-187073023D01*
X115525793Y-187060000D01*
X115614207Y-187060000D01*
X115746431Y-187073023D01*
X115746431Y-187073023D01*
G37*
G36*
X156386431Y-187073023D02*
X156556081Y-187124486D01*
X156712432Y-187208057D01*
X156849475Y-187320525D01*
X156961943Y-187457568D01*
X157045514Y-187613919D01*
X157096977Y-187783569D01*
X157114354Y-187960000D01*
X157096977Y-188136431D01*
X157045514Y-188306081D01*
X156961943Y-188462432D01*
X156849475Y-188599475D01*
X156712432Y-188711943D01*
X156556081Y-188795514D01*
X156386431Y-188846977D01*
X156254207Y-188860000D01*
X156165793Y-188860000D01*
X156033569Y-188846977D01*
X155863919Y-188795514D01*
X155707568Y-188711943D01*
X155570525Y-188599475D01*
X155458057Y-188462432D01*
X155374486Y-188306081D01*
X155323023Y-188136431D01*
X155305646Y-187960000D01*
X155323023Y-187783569D01*
X155374486Y-187613919D01*
X155458057Y-187457568D01*
X155570525Y-187320525D01*
X155707568Y-187208057D01*
X155863919Y-187124486D01*
X156033569Y-187073023D01*
X156165793Y-187060000D01*
X156254207Y-187060000D01*
X156386431Y-187073023D01*
X156386431Y-187073023D01*
G37*
G36*
X70026431Y-187073023D02*
X70196081Y-187124486D01*
X70352432Y-187208057D01*
X70489475Y-187320525D01*
X70601943Y-187457568D01*
X70685514Y-187613919D01*
X70736977Y-187783569D01*
X70754354Y-187960000D01*
X70736977Y-188136431D01*
X70685514Y-188306081D01*
X70601943Y-188462432D01*
X70489475Y-188599475D01*
X70352432Y-188711943D01*
X70196081Y-188795514D01*
X70026431Y-188846977D01*
X69894207Y-188860000D01*
X69805793Y-188860000D01*
X69673569Y-188846977D01*
X69503919Y-188795514D01*
X69347568Y-188711943D01*
X69210525Y-188599475D01*
X69098057Y-188462432D01*
X69014486Y-188306081D01*
X68963023Y-188136431D01*
X68945646Y-187960000D01*
X68963023Y-187783569D01*
X69014486Y-187613919D01*
X69098057Y-187457568D01*
X69210525Y-187320525D01*
X69347568Y-187208057D01*
X69503919Y-187124486D01*
X69673569Y-187073023D01*
X69805793Y-187060000D01*
X69894207Y-187060000D01*
X70026431Y-187073023D01*
X70026431Y-187073023D01*
G37*
G36*
X208456431Y-187073023D02*
X208626081Y-187124486D01*
X208782432Y-187208057D01*
X208919475Y-187320525D01*
X209031943Y-187457568D01*
X209115514Y-187613919D01*
X209166977Y-187783569D01*
X209184354Y-187960000D01*
X209166977Y-188136431D01*
X209115514Y-188306081D01*
X209031943Y-188462432D01*
X208919475Y-188599475D01*
X208782432Y-188711943D01*
X208626081Y-188795514D01*
X208456431Y-188846977D01*
X208324207Y-188860000D01*
X208235793Y-188860000D01*
X208103569Y-188846977D01*
X207933919Y-188795514D01*
X207777568Y-188711943D01*
X207640525Y-188599475D01*
X207528057Y-188462432D01*
X207444486Y-188306081D01*
X207393023Y-188136431D01*
X207375646Y-187960000D01*
X207393023Y-187783569D01*
X207444486Y-187613919D01*
X207528057Y-187457568D01*
X207640525Y-187320525D01*
X207777568Y-187208057D01*
X207933919Y-187124486D01*
X208103569Y-187073023D01*
X208235793Y-187060000D01*
X208324207Y-187060000D01*
X208456431Y-187073023D01*
X208456431Y-187073023D01*
G37*
G36*
X208456431Y-184533023D02*
X208626081Y-184584486D01*
X208782432Y-184668057D01*
X208919475Y-184780525D01*
X209031943Y-184917568D01*
X209115514Y-185073919D01*
X209166977Y-185243569D01*
X209184354Y-185420000D01*
X209166977Y-185596431D01*
X209115514Y-185766081D01*
X209031943Y-185922432D01*
X208919475Y-186059475D01*
X208782432Y-186171943D01*
X208626081Y-186255514D01*
X208456431Y-186306977D01*
X208324207Y-186320000D01*
X208235793Y-186320000D01*
X208103569Y-186306977D01*
X207933919Y-186255514D01*
X207777568Y-186171943D01*
X207640525Y-186059475D01*
X207528057Y-185922432D01*
X207444486Y-185766081D01*
X207393023Y-185596431D01*
X207375646Y-185420000D01*
X207393023Y-185243569D01*
X207444486Y-185073919D01*
X207528057Y-184917568D01*
X207640525Y-184780525D01*
X207777568Y-184668057D01*
X207933919Y-184584486D01*
X208103569Y-184533023D01*
X208235793Y-184520000D01*
X208324207Y-184520000D01*
X208456431Y-184533023D01*
X208456431Y-184533023D01*
G37*
G36*
X70026431Y-184533023D02*
X70196081Y-184584486D01*
X70352432Y-184668057D01*
X70489475Y-184780525D01*
X70601943Y-184917568D01*
X70685514Y-185073919D01*
X70736977Y-185243569D01*
X70754354Y-185420000D01*
X70736977Y-185596431D01*
X70685514Y-185766081D01*
X70601943Y-185922432D01*
X70489475Y-186059475D01*
X70352432Y-186171943D01*
X70196081Y-186255514D01*
X70026431Y-186306977D01*
X69894207Y-186320000D01*
X69805793Y-186320000D01*
X69673569Y-186306977D01*
X69503919Y-186255514D01*
X69347568Y-186171943D01*
X69210525Y-186059475D01*
X69098057Y-185922432D01*
X69014486Y-185766081D01*
X68963023Y-185596431D01*
X68945646Y-185420000D01*
X68963023Y-185243569D01*
X69014486Y-185073919D01*
X69098057Y-184917568D01*
X69210525Y-184780525D01*
X69347568Y-184668057D01*
X69503919Y-184584486D01*
X69673569Y-184533023D01*
X69805793Y-184520000D01*
X69894207Y-184520000D01*
X70026431Y-184533023D01*
X70026431Y-184533023D01*
G37*
G36*
X24306431Y-184533023D02*
X24476081Y-184584486D01*
X24632432Y-184668057D01*
X24769475Y-184780525D01*
X24881943Y-184917568D01*
X24965514Y-185073919D01*
X25016977Y-185243569D01*
X25034354Y-185420000D01*
X25016977Y-185596431D01*
X24965514Y-185766081D01*
X24881943Y-185922432D01*
X24769475Y-186059475D01*
X24632432Y-186171943D01*
X24476081Y-186255514D01*
X24306431Y-186306977D01*
X24174207Y-186320000D01*
X24085793Y-186320000D01*
X23953569Y-186306977D01*
X23783919Y-186255514D01*
X23627568Y-186171943D01*
X23490525Y-186059475D01*
X23378057Y-185922432D01*
X23294486Y-185766081D01*
X23243023Y-185596431D01*
X23225646Y-185420000D01*
X23243023Y-185243569D01*
X23294486Y-185073919D01*
X23378057Y-184917568D01*
X23490525Y-184780525D01*
X23627568Y-184668057D01*
X23783919Y-184584486D01*
X23953569Y-184533023D01*
X24085793Y-184520000D01*
X24174207Y-184520000D01*
X24306431Y-184533023D01*
X24306431Y-184533023D01*
G37*
G36*
X115746431Y-184533023D02*
X115916081Y-184584486D01*
X116072432Y-184668057D01*
X116209475Y-184780525D01*
X116321943Y-184917568D01*
X116405514Y-185073919D01*
X116456977Y-185243569D01*
X116474354Y-185420000D01*
X116456977Y-185596431D01*
X116405514Y-185766081D01*
X116321943Y-185922432D01*
X116209475Y-186059475D01*
X116072432Y-186171943D01*
X115916081Y-186255514D01*
X115746431Y-186306977D01*
X115614207Y-186320000D01*
X115525793Y-186320000D01*
X115393569Y-186306977D01*
X115223919Y-186255514D01*
X115067568Y-186171943D01*
X114930525Y-186059475D01*
X114818057Y-185922432D01*
X114734486Y-185766081D01*
X114683023Y-185596431D01*
X114665646Y-185420000D01*
X114683023Y-185243569D01*
X114734486Y-185073919D01*
X114818057Y-184917568D01*
X114930525Y-184780525D01*
X115067568Y-184668057D01*
X115223919Y-184584486D01*
X115393569Y-184533023D01*
X115525793Y-184520000D01*
X115614207Y-184520000D01*
X115746431Y-184533023D01*
X115746431Y-184533023D01*
G37*
G36*
X156386431Y-184533023D02*
X156556081Y-184584486D01*
X156712432Y-184668057D01*
X156849475Y-184780525D01*
X156961943Y-184917568D01*
X157045514Y-185073919D01*
X157096977Y-185243569D01*
X157114354Y-185420000D01*
X157096977Y-185596431D01*
X157045514Y-185766081D01*
X156961943Y-185922432D01*
X156849475Y-186059475D01*
X156712432Y-186171943D01*
X156556081Y-186255514D01*
X156386431Y-186306977D01*
X156254207Y-186320000D01*
X156165793Y-186320000D01*
X156033569Y-186306977D01*
X155863919Y-186255514D01*
X155707568Y-186171943D01*
X155570525Y-186059475D01*
X155458057Y-185922432D01*
X155374486Y-185766081D01*
X155323023Y-185596431D01*
X155305646Y-185420000D01*
X155323023Y-185243569D01*
X155374486Y-185073919D01*
X155458057Y-184917568D01*
X155570525Y-184780525D01*
X155707568Y-184668057D01*
X155863919Y-184584486D01*
X156033569Y-184533023D01*
X156165793Y-184520000D01*
X156254207Y-184520000D01*
X156386431Y-184533023D01*
X156386431Y-184533023D01*
G37*
G36*
X156386431Y-181993023D02*
X156556081Y-182044486D01*
X156712432Y-182128057D01*
X156849475Y-182240525D01*
X156961943Y-182377568D01*
X157045514Y-182533919D01*
X157096977Y-182703569D01*
X157114354Y-182880000D01*
X157096977Y-183056431D01*
X157045514Y-183226081D01*
X156961943Y-183382432D01*
X156849475Y-183519475D01*
X156712432Y-183631943D01*
X156556081Y-183715514D01*
X156386431Y-183766977D01*
X156254207Y-183780000D01*
X156165793Y-183780000D01*
X156033569Y-183766977D01*
X155863919Y-183715514D01*
X155707568Y-183631943D01*
X155570525Y-183519475D01*
X155458057Y-183382432D01*
X155374486Y-183226081D01*
X155323023Y-183056431D01*
X155305646Y-182880000D01*
X155323023Y-182703569D01*
X155374486Y-182533919D01*
X155458057Y-182377568D01*
X155570525Y-182240525D01*
X155707568Y-182128057D01*
X155863919Y-182044486D01*
X156033569Y-181993023D01*
X156165793Y-181980000D01*
X156254207Y-181980000D01*
X156386431Y-181993023D01*
X156386431Y-181993023D01*
G37*
G36*
X208456431Y-181993023D02*
X208626081Y-182044486D01*
X208782432Y-182128057D01*
X208919475Y-182240525D01*
X209031943Y-182377568D01*
X209115514Y-182533919D01*
X209166977Y-182703569D01*
X209184354Y-182880000D01*
X209166977Y-183056431D01*
X209115514Y-183226081D01*
X209031943Y-183382432D01*
X208919475Y-183519475D01*
X208782432Y-183631943D01*
X208626081Y-183715514D01*
X208456431Y-183766977D01*
X208324207Y-183780000D01*
X208235793Y-183780000D01*
X208103569Y-183766977D01*
X207933919Y-183715514D01*
X207777568Y-183631943D01*
X207640525Y-183519475D01*
X207528057Y-183382432D01*
X207444486Y-183226081D01*
X207393023Y-183056431D01*
X207375646Y-182880000D01*
X207393023Y-182703569D01*
X207444486Y-182533919D01*
X207528057Y-182377568D01*
X207640525Y-182240525D01*
X207777568Y-182128057D01*
X207933919Y-182044486D01*
X208103569Y-181993023D01*
X208235793Y-181980000D01*
X208324207Y-181980000D01*
X208456431Y-181993023D01*
X208456431Y-181993023D01*
G37*
G36*
X24306431Y-181993023D02*
X24476081Y-182044486D01*
X24632432Y-182128057D01*
X24769475Y-182240525D01*
X24881943Y-182377568D01*
X24965514Y-182533919D01*
X25016977Y-182703569D01*
X25034354Y-182880000D01*
X25016977Y-183056431D01*
X24965514Y-183226081D01*
X24881943Y-183382432D01*
X24769475Y-183519475D01*
X24632432Y-183631943D01*
X24476081Y-183715514D01*
X24306431Y-183766977D01*
X24174207Y-183780000D01*
X24085793Y-183780000D01*
X23953569Y-183766977D01*
X23783919Y-183715514D01*
X23627568Y-183631943D01*
X23490525Y-183519475D01*
X23378057Y-183382432D01*
X23294486Y-183226081D01*
X23243023Y-183056431D01*
X23225646Y-182880000D01*
X23243023Y-182703569D01*
X23294486Y-182533919D01*
X23378057Y-182377568D01*
X23490525Y-182240525D01*
X23627568Y-182128057D01*
X23783919Y-182044486D01*
X23953569Y-181993023D01*
X24085793Y-181980000D01*
X24174207Y-181980000D01*
X24306431Y-181993023D01*
X24306431Y-181993023D01*
G37*
G36*
X70026431Y-181993023D02*
X70196081Y-182044486D01*
X70352432Y-182128057D01*
X70489475Y-182240525D01*
X70601943Y-182377568D01*
X70685514Y-182533919D01*
X70736977Y-182703569D01*
X70754354Y-182880000D01*
X70736977Y-183056431D01*
X70685514Y-183226081D01*
X70601943Y-183382432D01*
X70489475Y-183519475D01*
X70352432Y-183631943D01*
X70196081Y-183715514D01*
X70026431Y-183766977D01*
X69894207Y-183780000D01*
X69805793Y-183780000D01*
X69673569Y-183766977D01*
X69503919Y-183715514D01*
X69347568Y-183631943D01*
X69210525Y-183519475D01*
X69098057Y-183382432D01*
X69014486Y-183226081D01*
X68963023Y-183056431D01*
X68945646Y-182880000D01*
X68963023Y-182703569D01*
X69014486Y-182533919D01*
X69098057Y-182377568D01*
X69210525Y-182240525D01*
X69347568Y-182128057D01*
X69503919Y-182044486D01*
X69673569Y-181993023D01*
X69805793Y-181980000D01*
X69894207Y-181980000D01*
X70026431Y-181993023D01*
X70026431Y-181993023D01*
G37*
G36*
X115746431Y-181993023D02*
X115916081Y-182044486D01*
X116072432Y-182128057D01*
X116209475Y-182240525D01*
X116321943Y-182377568D01*
X116405514Y-182533919D01*
X116456977Y-182703569D01*
X116474354Y-182880000D01*
X116456977Y-183056431D01*
X116405514Y-183226081D01*
X116321943Y-183382432D01*
X116209475Y-183519475D01*
X116072432Y-183631943D01*
X115916081Y-183715514D01*
X115746431Y-183766977D01*
X115614207Y-183780000D01*
X115525793Y-183780000D01*
X115393569Y-183766977D01*
X115223919Y-183715514D01*
X115067568Y-183631943D01*
X114930525Y-183519475D01*
X114818057Y-183382432D01*
X114734486Y-183226081D01*
X114683023Y-183056431D01*
X114665646Y-182880000D01*
X114683023Y-182703569D01*
X114734486Y-182533919D01*
X114818057Y-182377568D01*
X114930525Y-182240525D01*
X115067568Y-182128057D01*
X115223919Y-182044486D01*
X115393569Y-181993023D01*
X115525793Y-181980000D01*
X115614207Y-181980000D01*
X115746431Y-181993023D01*
X115746431Y-181993023D01*
G37*
G36*
X25030000Y-181240000D02*
X23230000Y-181240000D01*
X23230000Y-179440000D01*
X25030000Y-179440000D01*
X25030000Y-181240000D01*
X25030000Y-181240000D01*
G37*
G36*
X209180000Y-181240000D02*
X207380000Y-181240000D01*
X207380000Y-179440000D01*
X209180000Y-179440000D01*
X209180000Y-181240000D01*
X209180000Y-181240000D01*
G37*
G36*
X157110000Y-181240000D02*
X155310000Y-181240000D01*
X155310000Y-179440000D01*
X157110000Y-179440000D01*
X157110000Y-181240000D01*
X157110000Y-181240000D01*
G37*
G36*
X70750000Y-181240000D02*
X68950000Y-181240000D01*
X68950000Y-179440000D01*
X70750000Y-179440000D01*
X70750000Y-181240000D01*
X70750000Y-181240000D01*
G37*
G36*
X116470000Y-181240000D02*
X114670000Y-181240000D01*
X114670000Y-179440000D01*
X116470000Y-179440000D01*
X116470000Y-181240000D01*
X116470000Y-181240000D01*
G37*
G36*
X244740000Y-130440000D02*
X242940000Y-130440000D01*
X242940000Y-128640000D01*
X244740000Y-128640000D01*
X244740000Y-130440000D01*
X244740000Y-130440000D01*
G37*
G36*
X241476431Y-128653023D02*
X241646081Y-128704486D01*
X241802432Y-128788057D01*
X241939475Y-128900525D01*
X242051943Y-129037568D01*
X242135514Y-129193919D01*
X242186977Y-129363569D01*
X242204354Y-129540000D01*
X242186977Y-129716431D01*
X242135514Y-129886081D01*
X242051943Y-130042432D01*
X241939475Y-130179475D01*
X241802432Y-130291943D01*
X241646081Y-130375514D01*
X241476431Y-130426977D01*
X241344207Y-130440000D01*
X241255793Y-130440000D01*
X241123569Y-130426977D01*
X240953919Y-130375514D01*
X240797568Y-130291943D01*
X240660525Y-130179475D01*
X240548057Y-130042432D01*
X240464486Y-129886081D01*
X240413023Y-129716431D01*
X240395646Y-129540000D01*
X240413023Y-129363569D01*
X240464486Y-129193919D01*
X240548057Y-129037568D01*
X240660525Y-128900525D01*
X240797568Y-128788057D01*
X240953919Y-128704486D01*
X241123569Y-128653023D01*
X241255793Y-128640000D01*
X241344207Y-128640000D01*
X241476431Y-128653023D01*
X241476431Y-128653023D01*
G37*
G36*
X161466431Y-126113023D02*
X161636081Y-126164486D01*
X161792432Y-126248057D01*
X161929475Y-126360525D01*
X162041943Y-126497568D01*
X162125514Y-126653919D01*
X162176977Y-126823569D01*
X162194354Y-127000000D01*
X162176977Y-127176431D01*
X162125514Y-127346081D01*
X162041943Y-127502432D01*
X161929475Y-127639475D01*
X161792432Y-127751943D01*
X161636081Y-127835514D01*
X161466431Y-127886977D01*
X161334207Y-127900000D01*
X161245793Y-127900000D01*
X161113569Y-127886977D01*
X160943919Y-127835514D01*
X160787568Y-127751943D01*
X160650525Y-127639475D01*
X160538057Y-127502432D01*
X160454486Y-127346081D01*
X160403023Y-127176431D01*
X160385646Y-127000000D01*
X160403023Y-126823569D01*
X160454486Y-126653919D01*
X160538057Y-126497568D01*
X160650525Y-126360525D01*
X160787568Y-126248057D01*
X160943919Y-126164486D01*
X161113569Y-126113023D01*
X161245793Y-126100000D01*
X161334207Y-126100000D01*
X161466431Y-126113023D01*
X161466431Y-126113023D01*
G37*
G36*
X115746431Y-126113023D02*
X115916081Y-126164486D01*
X116072432Y-126248057D01*
X116209475Y-126360525D01*
X116321943Y-126497568D01*
X116405514Y-126653919D01*
X116456977Y-126823569D01*
X116474354Y-127000000D01*
X116456977Y-127176431D01*
X116405514Y-127346081D01*
X116321943Y-127502432D01*
X116209475Y-127639475D01*
X116072432Y-127751943D01*
X115916081Y-127835514D01*
X115746431Y-127886977D01*
X115614207Y-127900000D01*
X115525793Y-127900000D01*
X115393569Y-127886977D01*
X115223919Y-127835514D01*
X115067568Y-127751943D01*
X114930525Y-127639475D01*
X114818057Y-127502432D01*
X114734486Y-127346081D01*
X114683023Y-127176431D01*
X114665646Y-127000000D01*
X114683023Y-126823569D01*
X114734486Y-126653919D01*
X114818057Y-126497568D01*
X114930525Y-126360525D01*
X115067568Y-126248057D01*
X115223919Y-126164486D01*
X115393569Y-126113023D01*
X115525793Y-126100000D01*
X115614207Y-126100000D01*
X115746431Y-126113023D01*
X115746431Y-126113023D01*
G37*
G36*
X241476431Y-126113023D02*
X241646081Y-126164486D01*
X241802432Y-126248057D01*
X241939475Y-126360525D01*
X242051943Y-126497568D01*
X242135514Y-126653919D01*
X242186977Y-126823569D01*
X242204354Y-127000000D01*
X242186977Y-127176431D01*
X242135514Y-127346081D01*
X242051943Y-127502432D01*
X241939475Y-127639475D01*
X241802432Y-127751943D01*
X241646081Y-127835514D01*
X241476431Y-127886977D01*
X241344207Y-127900000D01*
X241255793Y-127900000D01*
X241123569Y-127886977D01*
X240953919Y-127835514D01*
X240797568Y-127751943D01*
X240660525Y-127639475D01*
X240548057Y-127502432D01*
X240464486Y-127346081D01*
X240413023Y-127176431D01*
X240395646Y-127000000D01*
X240413023Y-126823569D01*
X240464486Y-126653919D01*
X240548057Y-126497568D01*
X240660525Y-126360525D01*
X240797568Y-126248057D01*
X240953919Y-126164486D01*
X241123569Y-126113023D01*
X241255793Y-126100000D01*
X241344207Y-126100000D01*
X241476431Y-126113023D01*
X241476431Y-126113023D01*
G37*
G36*
X24306431Y-126113023D02*
X24476081Y-126164486D01*
X24632432Y-126248057D01*
X24769475Y-126360525D01*
X24881943Y-126497568D01*
X24965514Y-126653919D01*
X25016977Y-126823569D01*
X25034354Y-127000000D01*
X25016977Y-127176431D01*
X24965514Y-127346081D01*
X24881943Y-127502432D01*
X24769475Y-127639475D01*
X24632432Y-127751943D01*
X24476081Y-127835514D01*
X24306431Y-127886977D01*
X24174207Y-127900000D01*
X24085793Y-127900000D01*
X23953569Y-127886977D01*
X23783919Y-127835514D01*
X23627568Y-127751943D01*
X23490525Y-127639475D01*
X23378057Y-127502432D01*
X23294486Y-127346081D01*
X23243023Y-127176431D01*
X23225646Y-127000000D01*
X23243023Y-126823569D01*
X23294486Y-126653919D01*
X23378057Y-126497568D01*
X23490525Y-126360525D01*
X23627568Y-126248057D01*
X23783919Y-126164486D01*
X23953569Y-126113023D01*
X24085793Y-126100000D01*
X24174207Y-126100000D01*
X24306431Y-126113023D01*
X24306431Y-126113023D01*
G37*
G36*
X244016431Y-126113023D02*
X244186081Y-126164486D01*
X244342432Y-126248057D01*
X244479475Y-126360525D01*
X244591943Y-126497568D01*
X244675514Y-126653919D01*
X244726977Y-126823569D01*
X244744354Y-127000000D01*
X244726977Y-127176431D01*
X244675514Y-127346081D01*
X244591943Y-127502432D01*
X244479475Y-127639475D01*
X244342432Y-127751943D01*
X244186081Y-127835514D01*
X244016431Y-127886977D01*
X243884207Y-127900000D01*
X243795793Y-127900000D01*
X243663569Y-127886977D01*
X243493919Y-127835514D01*
X243337568Y-127751943D01*
X243200525Y-127639475D01*
X243088057Y-127502432D01*
X243004486Y-127346081D01*
X242953023Y-127176431D01*
X242935646Y-127000000D01*
X242953023Y-126823569D01*
X243004486Y-126653919D01*
X243088057Y-126497568D01*
X243200525Y-126360525D01*
X243337568Y-126248057D01*
X243493919Y-126164486D01*
X243663569Y-126113023D01*
X243795793Y-126100000D01*
X243884207Y-126100000D01*
X244016431Y-126113023D01*
X244016431Y-126113023D01*
G37*
G36*
X207186431Y-126113023D02*
X207356081Y-126164486D01*
X207512432Y-126248057D01*
X207649475Y-126360525D01*
X207761943Y-126497568D01*
X207845514Y-126653919D01*
X207896977Y-126823569D01*
X207914354Y-127000000D01*
X207896977Y-127176431D01*
X207845514Y-127346081D01*
X207761943Y-127502432D01*
X207649475Y-127639475D01*
X207512432Y-127751943D01*
X207356081Y-127835514D01*
X207186431Y-127886977D01*
X207054207Y-127900000D01*
X206965793Y-127900000D01*
X206833569Y-127886977D01*
X206663919Y-127835514D01*
X206507568Y-127751943D01*
X206370525Y-127639475D01*
X206258057Y-127502432D01*
X206174486Y-127346081D01*
X206123023Y-127176431D01*
X206105646Y-127000000D01*
X206123023Y-126823569D01*
X206174486Y-126653919D01*
X206258057Y-126497568D01*
X206370525Y-126360525D01*
X206507568Y-126248057D01*
X206663919Y-126164486D01*
X206833569Y-126113023D01*
X206965793Y-126100000D01*
X207054207Y-126100000D01*
X207186431Y-126113023D01*
X207186431Y-126113023D01*
G37*
G36*
X70026431Y-126113023D02*
X70196081Y-126164486D01*
X70352432Y-126248057D01*
X70489475Y-126360525D01*
X70601943Y-126497568D01*
X70685514Y-126653919D01*
X70736977Y-126823569D01*
X70754354Y-127000000D01*
X70736977Y-127176431D01*
X70685514Y-127346081D01*
X70601943Y-127502432D01*
X70489475Y-127639475D01*
X70352432Y-127751943D01*
X70196081Y-127835514D01*
X70026431Y-127886977D01*
X69894207Y-127900000D01*
X69805793Y-127900000D01*
X69673569Y-127886977D01*
X69503919Y-127835514D01*
X69347568Y-127751943D01*
X69210525Y-127639475D01*
X69098057Y-127502432D01*
X69014486Y-127346081D01*
X68963023Y-127176431D01*
X68945646Y-127000000D01*
X68963023Y-126823569D01*
X69014486Y-126653919D01*
X69098057Y-126497568D01*
X69210525Y-126360525D01*
X69347568Y-126248057D01*
X69503919Y-126164486D01*
X69673569Y-126113023D01*
X69805793Y-126100000D01*
X69894207Y-126100000D01*
X70026431Y-126113023D01*
X70026431Y-126113023D01*
G37*
G36*
X207186431Y-123573023D02*
X207356081Y-123624486D01*
X207512432Y-123708057D01*
X207649475Y-123820525D01*
X207761943Y-123957568D01*
X207845514Y-124113919D01*
X207896977Y-124283569D01*
X207914354Y-124460000D01*
X207896977Y-124636431D01*
X207845514Y-124806081D01*
X207761943Y-124962432D01*
X207649475Y-125099475D01*
X207512432Y-125211943D01*
X207356081Y-125295514D01*
X207186431Y-125346977D01*
X207054207Y-125360000D01*
X206965793Y-125360000D01*
X206833569Y-125346977D01*
X206663919Y-125295514D01*
X206507568Y-125211943D01*
X206370525Y-125099475D01*
X206258057Y-124962432D01*
X206174486Y-124806081D01*
X206123023Y-124636431D01*
X206105646Y-124460000D01*
X206123023Y-124283569D01*
X206174486Y-124113919D01*
X206258057Y-123957568D01*
X206370525Y-123820525D01*
X206507568Y-123708057D01*
X206663919Y-123624486D01*
X206833569Y-123573023D01*
X206965793Y-123560000D01*
X207054207Y-123560000D01*
X207186431Y-123573023D01*
X207186431Y-123573023D01*
G37*
G36*
X244016431Y-123573023D02*
X244186081Y-123624486D01*
X244342432Y-123708057D01*
X244479475Y-123820525D01*
X244591943Y-123957568D01*
X244675514Y-124113919D01*
X244726977Y-124283569D01*
X244744354Y-124460000D01*
X244726977Y-124636431D01*
X244675514Y-124806081D01*
X244591943Y-124962432D01*
X244479475Y-125099475D01*
X244342432Y-125211943D01*
X244186081Y-125295514D01*
X244016431Y-125346977D01*
X243884207Y-125360000D01*
X243795793Y-125360000D01*
X243663569Y-125346977D01*
X243493919Y-125295514D01*
X243337568Y-125211943D01*
X243200525Y-125099475D01*
X243088057Y-124962432D01*
X243004486Y-124806081D01*
X242953023Y-124636431D01*
X242935646Y-124460000D01*
X242953023Y-124283569D01*
X243004486Y-124113919D01*
X243088057Y-123957568D01*
X243200525Y-123820525D01*
X243337568Y-123708057D01*
X243493919Y-123624486D01*
X243663569Y-123573023D01*
X243795793Y-123560000D01*
X243884207Y-123560000D01*
X244016431Y-123573023D01*
X244016431Y-123573023D01*
G37*
G36*
X70026431Y-123573023D02*
X70196081Y-123624486D01*
X70352432Y-123708057D01*
X70489475Y-123820525D01*
X70601943Y-123957568D01*
X70685514Y-124113919D01*
X70736977Y-124283569D01*
X70754354Y-124460000D01*
X70736977Y-124636431D01*
X70685514Y-124806081D01*
X70601943Y-124962432D01*
X70489475Y-125099475D01*
X70352432Y-125211943D01*
X70196081Y-125295514D01*
X70026431Y-125346977D01*
X69894207Y-125360000D01*
X69805793Y-125360000D01*
X69673569Y-125346977D01*
X69503919Y-125295514D01*
X69347568Y-125211943D01*
X69210525Y-125099475D01*
X69098057Y-124962432D01*
X69014486Y-124806081D01*
X68963023Y-124636431D01*
X68945646Y-124460000D01*
X68963023Y-124283569D01*
X69014486Y-124113919D01*
X69098057Y-123957568D01*
X69210525Y-123820525D01*
X69347568Y-123708057D01*
X69503919Y-123624486D01*
X69673569Y-123573023D01*
X69805793Y-123560000D01*
X69894207Y-123560000D01*
X70026431Y-123573023D01*
X70026431Y-123573023D01*
G37*
G36*
X24306431Y-123573023D02*
X24476081Y-123624486D01*
X24632432Y-123708057D01*
X24769475Y-123820525D01*
X24881943Y-123957568D01*
X24965514Y-124113919D01*
X25016977Y-124283569D01*
X25034354Y-124460000D01*
X25016977Y-124636431D01*
X24965514Y-124806081D01*
X24881943Y-124962432D01*
X24769475Y-125099475D01*
X24632432Y-125211943D01*
X24476081Y-125295514D01*
X24306431Y-125346977D01*
X24174207Y-125360000D01*
X24085793Y-125360000D01*
X23953569Y-125346977D01*
X23783919Y-125295514D01*
X23627568Y-125211943D01*
X23490525Y-125099475D01*
X23378057Y-124962432D01*
X23294486Y-124806081D01*
X23243023Y-124636431D01*
X23225646Y-124460000D01*
X23243023Y-124283569D01*
X23294486Y-124113919D01*
X23378057Y-123957568D01*
X23490525Y-123820525D01*
X23627568Y-123708057D01*
X23783919Y-123624486D01*
X23953569Y-123573023D01*
X24085793Y-123560000D01*
X24174207Y-123560000D01*
X24306431Y-123573023D01*
X24306431Y-123573023D01*
G37*
G36*
X115746431Y-123573023D02*
X115916081Y-123624486D01*
X116072432Y-123708057D01*
X116209475Y-123820525D01*
X116321943Y-123957568D01*
X116405514Y-124113919D01*
X116456977Y-124283569D01*
X116474354Y-124460000D01*
X116456977Y-124636431D01*
X116405514Y-124806081D01*
X116321943Y-124962432D01*
X116209475Y-125099475D01*
X116072432Y-125211943D01*
X115916081Y-125295514D01*
X115746431Y-125346977D01*
X115614207Y-125360000D01*
X115525793Y-125360000D01*
X115393569Y-125346977D01*
X115223919Y-125295514D01*
X115067568Y-125211943D01*
X114930525Y-125099475D01*
X114818057Y-124962432D01*
X114734486Y-124806081D01*
X114683023Y-124636431D01*
X114665646Y-124460000D01*
X114683023Y-124283569D01*
X114734486Y-124113919D01*
X114818057Y-123957568D01*
X114930525Y-123820525D01*
X115067568Y-123708057D01*
X115223919Y-123624486D01*
X115393569Y-123573023D01*
X115525793Y-123560000D01*
X115614207Y-123560000D01*
X115746431Y-123573023D01*
X115746431Y-123573023D01*
G37*
G36*
X241476431Y-123573023D02*
X241646081Y-123624486D01*
X241802432Y-123708057D01*
X241939475Y-123820525D01*
X242051943Y-123957568D01*
X242135514Y-124113919D01*
X242186977Y-124283569D01*
X242204354Y-124460000D01*
X242186977Y-124636431D01*
X242135514Y-124806081D01*
X242051943Y-124962432D01*
X241939475Y-125099475D01*
X241802432Y-125211943D01*
X241646081Y-125295514D01*
X241476431Y-125346977D01*
X241344207Y-125360000D01*
X241255793Y-125360000D01*
X241123569Y-125346977D01*
X240953919Y-125295514D01*
X240797568Y-125211943D01*
X240660525Y-125099475D01*
X240548057Y-124962432D01*
X240464486Y-124806081D01*
X240413023Y-124636431D01*
X240395646Y-124460000D01*
X240413023Y-124283569D01*
X240464486Y-124113919D01*
X240548057Y-123957568D01*
X240660525Y-123820525D01*
X240797568Y-123708057D01*
X240953919Y-123624486D01*
X241123569Y-123573023D01*
X241255793Y-123560000D01*
X241344207Y-123560000D01*
X241476431Y-123573023D01*
X241476431Y-123573023D01*
G37*
G36*
X161466431Y-123573023D02*
X161636081Y-123624486D01*
X161792432Y-123708057D01*
X161929475Y-123820525D01*
X162041943Y-123957568D01*
X162125514Y-124113919D01*
X162176977Y-124283569D01*
X162194354Y-124460000D01*
X162176977Y-124636431D01*
X162125514Y-124806081D01*
X162041943Y-124962432D01*
X161929475Y-125099475D01*
X161792432Y-125211943D01*
X161636081Y-125295514D01*
X161466431Y-125346977D01*
X161334207Y-125360000D01*
X161245793Y-125360000D01*
X161113569Y-125346977D01*
X160943919Y-125295514D01*
X160787568Y-125211943D01*
X160650525Y-125099475D01*
X160538057Y-124962432D01*
X160454486Y-124806081D01*
X160403023Y-124636431D01*
X160385646Y-124460000D01*
X160403023Y-124283569D01*
X160454486Y-124113919D01*
X160538057Y-123957568D01*
X160650525Y-123820525D01*
X160787568Y-123708057D01*
X160943919Y-123624486D01*
X161113569Y-123573023D01*
X161245793Y-123560000D01*
X161334207Y-123560000D01*
X161466431Y-123573023D01*
X161466431Y-123573023D01*
G37*
G36*
X24306431Y-121033023D02*
X24476081Y-121084486D01*
X24632432Y-121168057D01*
X24769475Y-121280525D01*
X24881943Y-121417568D01*
X24965514Y-121573919D01*
X25016977Y-121743569D01*
X25034354Y-121920000D01*
X25016977Y-122096431D01*
X24965514Y-122266081D01*
X24881943Y-122422432D01*
X24769475Y-122559475D01*
X24632432Y-122671943D01*
X24476081Y-122755514D01*
X24306431Y-122806977D01*
X24174207Y-122820000D01*
X24085793Y-122820000D01*
X23953569Y-122806977D01*
X23783919Y-122755514D01*
X23627568Y-122671943D01*
X23490525Y-122559475D01*
X23378057Y-122422432D01*
X23294486Y-122266081D01*
X23243023Y-122096431D01*
X23225646Y-121920000D01*
X23243023Y-121743569D01*
X23294486Y-121573919D01*
X23378057Y-121417568D01*
X23490525Y-121280525D01*
X23627568Y-121168057D01*
X23783919Y-121084486D01*
X23953569Y-121033023D01*
X24085793Y-121020000D01*
X24174207Y-121020000D01*
X24306431Y-121033023D01*
X24306431Y-121033023D01*
G37*
G36*
X115746431Y-121033023D02*
X115916081Y-121084486D01*
X116072432Y-121168057D01*
X116209475Y-121280525D01*
X116321943Y-121417568D01*
X116405514Y-121573919D01*
X116456977Y-121743569D01*
X116474354Y-121920000D01*
X116456977Y-122096431D01*
X116405514Y-122266081D01*
X116321943Y-122422432D01*
X116209475Y-122559475D01*
X116072432Y-122671943D01*
X115916081Y-122755514D01*
X115746431Y-122806977D01*
X115614207Y-122820000D01*
X115525793Y-122820000D01*
X115393569Y-122806977D01*
X115223919Y-122755514D01*
X115067568Y-122671943D01*
X114930525Y-122559475D01*
X114818057Y-122422432D01*
X114734486Y-122266081D01*
X114683023Y-122096431D01*
X114665646Y-121920000D01*
X114683023Y-121743569D01*
X114734486Y-121573919D01*
X114818057Y-121417568D01*
X114930525Y-121280525D01*
X115067568Y-121168057D01*
X115223919Y-121084486D01*
X115393569Y-121033023D01*
X115525793Y-121020000D01*
X115614207Y-121020000D01*
X115746431Y-121033023D01*
X115746431Y-121033023D01*
G37*
G36*
X161466431Y-121033023D02*
X161636081Y-121084486D01*
X161792432Y-121168057D01*
X161929475Y-121280525D01*
X162041943Y-121417568D01*
X162125514Y-121573919D01*
X162176977Y-121743569D01*
X162194354Y-121920000D01*
X162176977Y-122096431D01*
X162125514Y-122266081D01*
X162041943Y-122422432D01*
X161929475Y-122559475D01*
X161792432Y-122671943D01*
X161636081Y-122755514D01*
X161466431Y-122806977D01*
X161334207Y-122820000D01*
X161245793Y-122820000D01*
X161113569Y-122806977D01*
X160943919Y-122755514D01*
X160787568Y-122671943D01*
X160650525Y-122559475D01*
X160538057Y-122422432D01*
X160454486Y-122266081D01*
X160403023Y-122096431D01*
X160385646Y-121920000D01*
X160403023Y-121743569D01*
X160454486Y-121573919D01*
X160538057Y-121417568D01*
X160650525Y-121280525D01*
X160787568Y-121168057D01*
X160943919Y-121084486D01*
X161113569Y-121033023D01*
X161245793Y-121020000D01*
X161334207Y-121020000D01*
X161466431Y-121033023D01*
X161466431Y-121033023D01*
G37*
G36*
X241476431Y-121033023D02*
X241646081Y-121084486D01*
X241802432Y-121168057D01*
X241939475Y-121280525D01*
X242051943Y-121417568D01*
X242135514Y-121573919D01*
X242186977Y-121743569D01*
X242204354Y-121920000D01*
X242186977Y-122096431D01*
X242135514Y-122266081D01*
X242051943Y-122422432D01*
X241939475Y-122559475D01*
X241802432Y-122671943D01*
X241646081Y-122755514D01*
X241476431Y-122806977D01*
X241344207Y-122820000D01*
X241255793Y-122820000D01*
X241123569Y-122806977D01*
X240953919Y-122755514D01*
X240797568Y-122671943D01*
X240660525Y-122559475D01*
X240548057Y-122422432D01*
X240464486Y-122266081D01*
X240413023Y-122096431D01*
X240395646Y-121920000D01*
X240413023Y-121743569D01*
X240464486Y-121573919D01*
X240548057Y-121417568D01*
X240660525Y-121280525D01*
X240797568Y-121168057D01*
X240953919Y-121084486D01*
X241123569Y-121033023D01*
X241255793Y-121020000D01*
X241344207Y-121020000D01*
X241476431Y-121033023D01*
X241476431Y-121033023D01*
G37*
G36*
X244016431Y-121033023D02*
X244186081Y-121084486D01*
X244342432Y-121168057D01*
X244479475Y-121280525D01*
X244591943Y-121417568D01*
X244675514Y-121573919D01*
X244726977Y-121743569D01*
X244744354Y-121920000D01*
X244726977Y-122096431D01*
X244675514Y-122266081D01*
X244591943Y-122422432D01*
X244479475Y-122559475D01*
X244342432Y-122671943D01*
X244186081Y-122755514D01*
X244016431Y-122806977D01*
X243884207Y-122820000D01*
X243795793Y-122820000D01*
X243663569Y-122806977D01*
X243493919Y-122755514D01*
X243337568Y-122671943D01*
X243200525Y-122559475D01*
X243088057Y-122422432D01*
X243004486Y-122266081D01*
X242953023Y-122096431D01*
X242935646Y-121920000D01*
X242953023Y-121743569D01*
X243004486Y-121573919D01*
X243088057Y-121417568D01*
X243200525Y-121280525D01*
X243337568Y-121168057D01*
X243493919Y-121084486D01*
X243663569Y-121033023D01*
X243795793Y-121020000D01*
X243884207Y-121020000D01*
X244016431Y-121033023D01*
X244016431Y-121033023D01*
G37*
G36*
X70026431Y-121033023D02*
X70196081Y-121084486D01*
X70352432Y-121168057D01*
X70489475Y-121280525D01*
X70601943Y-121417568D01*
X70685514Y-121573919D01*
X70736977Y-121743569D01*
X70754354Y-121920000D01*
X70736977Y-122096431D01*
X70685514Y-122266081D01*
X70601943Y-122422432D01*
X70489475Y-122559475D01*
X70352432Y-122671943D01*
X70196081Y-122755514D01*
X70026431Y-122806977D01*
X69894207Y-122820000D01*
X69805793Y-122820000D01*
X69673569Y-122806977D01*
X69503919Y-122755514D01*
X69347568Y-122671943D01*
X69210525Y-122559475D01*
X69098057Y-122422432D01*
X69014486Y-122266081D01*
X68963023Y-122096431D01*
X68945646Y-121920000D01*
X68963023Y-121743569D01*
X69014486Y-121573919D01*
X69098057Y-121417568D01*
X69210525Y-121280525D01*
X69347568Y-121168057D01*
X69503919Y-121084486D01*
X69673569Y-121033023D01*
X69805793Y-121020000D01*
X69894207Y-121020000D01*
X70026431Y-121033023D01*
X70026431Y-121033023D01*
G37*
G36*
X207186431Y-121033023D02*
X207356081Y-121084486D01*
X207512432Y-121168057D01*
X207649475Y-121280525D01*
X207761943Y-121417568D01*
X207845514Y-121573919D01*
X207896977Y-121743569D01*
X207914354Y-121920000D01*
X207896977Y-122096431D01*
X207845514Y-122266081D01*
X207761943Y-122422432D01*
X207649475Y-122559475D01*
X207512432Y-122671943D01*
X207356081Y-122755514D01*
X207186431Y-122806977D01*
X207054207Y-122820000D01*
X206965793Y-122820000D01*
X206833569Y-122806977D01*
X206663919Y-122755514D01*
X206507568Y-122671943D01*
X206370525Y-122559475D01*
X206258057Y-122422432D01*
X206174486Y-122266081D01*
X206123023Y-122096431D01*
X206105646Y-121920000D01*
X206123023Y-121743569D01*
X206174486Y-121573919D01*
X206258057Y-121417568D01*
X206370525Y-121280525D01*
X206507568Y-121168057D01*
X206663919Y-121084486D01*
X206833569Y-121033023D01*
X206965793Y-121020000D01*
X207054207Y-121020000D01*
X207186431Y-121033023D01*
X207186431Y-121033023D01*
G37*
G36*
X244016431Y-118493023D02*
X244186081Y-118544486D01*
X244342432Y-118628057D01*
X244479475Y-118740525D01*
X244591943Y-118877568D01*
X244675514Y-119033919D01*
X244726977Y-119203569D01*
X244744354Y-119380000D01*
X244726977Y-119556431D01*
X244675514Y-119726081D01*
X244591943Y-119882432D01*
X244479475Y-120019475D01*
X244342432Y-120131943D01*
X244186081Y-120215514D01*
X244016431Y-120266977D01*
X243884207Y-120280000D01*
X243795793Y-120280000D01*
X243663569Y-120266977D01*
X243493919Y-120215514D01*
X243337568Y-120131943D01*
X243200525Y-120019475D01*
X243088057Y-119882432D01*
X243004486Y-119726081D01*
X242953023Y-119556431D01*
X242935646Y-119380000D01*
X242953023Y-119203569D01*
X243004486Y-119033919D01*
X243088057Y-118877568D01*
X243200525Y-118740525D01*
X243337568Y-118628057D01*
X243493919Y-118544486D01*
X243663569Y-118493023D01*
X243795793Y-118480000D01*
X243884207Y-118480000D01*
X244016431Y-118493023D01*
X244016431Y-118493023D01*
G37*
G36*
X161466431Y-118493023D02*
X161636081Y-118544486D01*
X161792432Y-118628057D01*
X161929475Y-118740525D01*
X162041943Y-118877568D01*
X162125514Y-119033919D01*
X162176977Y-119203569D01*
X162194354Y-119380000D01*
X162176977Y-119556431D01*
X162125514Y-119726081D01*
X162041943Y-119882432D01*
X161929475Y-120019475D01*
X161792432Y-120131943D01*
X161636081Y-120215514D01*
X161466431Y-120266977D01*
X161334207Y-120280000D01*
X161245793Y-120280000D01*
X161113569Y-120266977D01*
X160943919Y-120215514D01*
X160787568Y-120131943D01*
X160650525Y-120019475D01*
X160538057Y-119882432D01*
X160454486Y-119726081D01*
X160403023Y-119556431D01*
X160385646Y-119380000D01*
X160403023Y-119203569D01*
X160454486Y-119033919D01*
X160538057Y-118877568D01*
X160650525Y-118740525D01*
X160787568Y-118628057D01*
X160943919Y-118544486D01*
X161113569Y-118493023D01*
X161245793Y-118480000D01*
X161334207Y-118480000D01*
X161466431Y-118493023D01*
X161466431Y-118493023D01*
G37*
G36*
X207186431Y-118493023D02*
X207356081Y-118544486D01*
X207512432Y-118628057D01*
X207649475Y-118740525D01*
X207761943Y-118877568D01*
X207845514Y-119033919D01*
X207896977Y-119203569D01*
X207914354Y-119380000D01*
X207896977Y-119556431D01*
X207845514Y-119726081D01*
X207761943Y-119882432D01*
X207649475Y-120019475D01*
X207512432Y-120131943D01*
X207356081Y-120215514D01*
X207186431Y-120266977D01*
X207054207Y-120280000D01*
X206965793Y-120280000D01*
X206833569Y-120266977D01*
X206663919Y-120215514D01*
X206507568Y-120131943D01*
X206370525Y-120019475D01*
X206258057Y-119882432D01*
X206174486Y-119726081D01*
X206123023Y-119556431D01*
X206105646Y-119380000D01*
X206123023Y-119203569D01*
X206174486Y-119033919D01*
X206258057Y-118877568D01*
X206370525Y-118740525D01*
X206507568Y-118628057D01*
X206663919Y-118544486D01*
X206833569Y-118493023D01*
X206965793Y-118480000D01*
X207054207Y-118480000D01*
X207186431Y-118493023D01*
X207186431Y-118493023D01*
G37*
G36*
X115746431Y-118493023D02*
X115916081Y-118544486D01*
X116072432Y-118628057D01*
X116209475Y-118740525D01*
X116321943Y-118877568D01*
X116405514Y-119033919D01*
X116456977Y-119203569D01*
X116474354Y-119380000D01*
X116456977Y-119556431D01*
X116405514Y-119726081D01*
X116321943Y-119882432D01*
X116209475Y-120019475D01*
X116072432Y-120131943D01*
X115916081Y-120215514D01*
X115746431Y-120266977D01*
X115614207Y-120280000D01*
X115525793Y-120280000D01*
X115393569Y-120266977D01*
X115223919Y-120215514D01*
X115067568Y-120131943D01*
X114930525Y-120019475D01*
X114818057Y-119882432D01*
X114734486Y-119726081D01*
X114683023Y-119556431D01*
X114665646Y-119380000D01*
X114683023Y-119203569D01*
X114734486Y-119033919D01*
X114818057Y-118877568D01*
X114930525Y-118740525D01*
X115067568Y-118628057D01*
X115223919Y-118544486D01*
X115393569Y-118493023D01*
X115525793Y-118480000D01*
X115614207Y-118480000D01*
X115746431Y-118493023D01*
X115746431Y-118493023D01*
G37*
G36*
X24306431Y-118493023D02*
X24476081Y-118544486D01*
X24632432Y-118628057D01*
X24769475Y-118740525D01*
X24881943Y-118877568D01*
X24965514Y-119033919D01*
X25016977Y-119203569D01*
X25034354Y-119380000D01*
X25016977Y-119556431D01*
X24965514Y-119726081D01*
X24881943Y-119882432D01*
X24769475Y-120019475D01*
X24632432Y-120131943D01*
X24476081Y-120215514D01*
X24306431Y-120266977D01*
X24174207Y-120280000D01*
X24085793Y-120280000D01*
X23953569Y-120266977D01*
X23783919Y-120215514D01*
X23627568Y-120131943D01*
X23490525Y-120019475D01*
X23378057Y-119882432D01*
X23294486Y-119726081D01*
X23243023Y-119556431D01*
X23225646Y-119380000D01*
X23243023Y-119203569D01*
X23294486Y-119033919D01*
X23378057Y-118877568D01*
X23490525Y-118740525D01*
X23627568Y-118628057D01*
X23783919Y-118544486D01*
X23953569Y-118493023D01*
X24085793Y-118480000D01*
X24174207Y-118480000D01*
X24306431Y-118493023D01*
X24306431Y-118493023D01*
G37*
G36*
X70026431Y-118493023D02*
X70196081Y-118544486D01*
X70352432Y-118628057D01*
X70489475Y-118740525D01*
X70601943Y-118877568D01*
X70685514Y-119033919D01*
X70736977Y-119203569D01*
X70754354Y-119380000D01*
X70736977Y-119556431D01*
X70685514Y-119726081D01*
X70601943Y-119882432D01*
X70489475Y-120019475D01*
X70352432Y-120131943D01*
X70196081Y-120215514D01*
X70026431Y-120266977D01*
X69894207Y-120280000D01*
X69805793Y-120280000D01*
X69673569Y-120266977D01*
X69503919Y-120215514D01*
X69347568Y-120131943D01*
X69210525Y-120019475D01*
X69098057Y-119882432D01*
X69014486Y-119726081D01*
X68963023Y-119556431D01*
X68945646Y-119380000D01*
X68963023Y-119203569D01*
X69014486Y-119033919D01*
X69098057Y-118877568D01*
X69210525Y-118740525D01*
X69347568Y-118628057D01*
X69503919Y-118544486D01*
X69673569Y-118493023D01*
X69805793Y-118480000D01*
X69894207Y-118480000D01*
X70026431Y-118493023D01*
X70026431Y-118493023D01*
G37*
G36*
X241476431Y-118493023D02*
X241646081Y-118544486D01*
X241802432Y-118628057D01*
X241939475Y-118740525D01*
X242051943Y-118877568D01*
X242135514Y-119033919D01*
X242186977Y-119203569D01*
X242204354Y-119380000D01*
X242186977Y-119556431D01*
X242135514Y-119726081D01*
X242051943Y-119882432D01*
X241939475Y-120019475D01*
X241802432Y-120131943D01*
X241646081Y-120215514D01*
X241476431Y-120266977D01*
X241344207Y-120280000D01*
X241255793Y-120280000D01*
X241123569Y-120266977D01*
X240953919Y-120215514D01*
X240797568Y-120131943D01*
X240660525Y-120019475D01*
X240548057Y-119882432D01*
X240464486Y-119726081D01*
X240413023Y-119556431D01*
X240395646Y-119380000D01*
X240413023Y-119203569D01*
X240464486Y-119033919D01*
X240548057Y-118877568D01*
X240660525Y-118740525D01*
X240797568Y-118628057D01*
X240953919Y-118544486D01*
X241123569Y-118493023D01*
X241255793Y-118480000D01*
X241344207Y-118480000D01*
X241476431Y-118493023D01*
X241476431Y-118493023D01*
G37*
G36*
X162190000Y-117740000D02*
X160390000Y-117740000D01*
X160390000Y-115940000D01*
X162190000Y-115940000D01*
X162190000Y-117740000D01*
X162190000Y-117740000D01*
G37*
G36*
X244016431Y-115953023D02*
X244186081Y-116004486D01*
X244342432Y-116088057D01*
X244479475Y-116200525D01*
X244591943Y-116337568D01*
X244675514Y-116493919D01*
X244726977Y-116663569D01*
X244744354Y-116840000D01*
X244726977Y-117016431D01*
X244675514Y-117186081D01*
X244591943Y-117342432D01*
X244479475Y-117479475D01*
X244342432Y-117591943D01*
X244186081Y-117675514D01*
X244016431Y-117726977D01*
X243884207Y-117740000D01*
X243795793Y-117740000D01*
X243663569Y-117726977D01*
X243493919Y-117675514D01*
X243337568Y-117591943D01*
X243200525Y-117479475D01*
X243088057Y-117342432D01*
X243004486Y-117186081D01*
X242953023Y-117016431D01*
X242935646Y-116840000D01*
X242953023Y-116663569D01*
X243004486Y-116493919D01*
X243088057Y-116337568D01*
X243200525Y-116200525D01*
X243337568Y-116088057D01*
X243493919Y-116004486D01*
X243663569Y-115953023D01*
X243795793Y-115940000D01*
X243884207Y-115940000D01*
X244016431Y-115953023D01*
X244016431Y-115953023D01*
G37*
G36*
X241476431Y-115953023D02*
X241646081Y-116004486D01*
X241802432Y-116088057D01*
X241939475Y-116200525D01*
X242051943Y-116337568D01*
X242135514Y-116493919D01*
X242186977Y-116663569D01*
X242204354Y-116840000D01*
X242186977Y-117016431D01*
X242135514Y-117186081D01*
X242051943Y-117342432D01*
X241939475Y-117479475D01*
X241802432Y-117591943D01*
X241646081Y-117675514D01*
X241476431Y-117726977D01*
X241344207Y-117740000D01*
X241255793Y-117740000D01*
X241123569Y-117726977D01*
X240953919Y-117675514D01*
X240797568Y-117591943D01*
X240660525Y-117479475D01*
X240548057Y-117342432D01*
X240464486Y-117186081D01*
X240413023Y-117016431D01*
X240395646Y-116840000D01*
X240413023Y-116663569D01*
X240464486Y-116493919D01*
X240548057Y-116337568D01*
X240660525Y-116200525D01*
X240797568Y-116088057D01*
X240953919Y-116004486D01*
X241123569Y-115953023D01*
X241255793Y-115940000D01*
X241344207Y-115940000D01*
X241476431Y-115953023D01*
X241476431Y-115953023D01*
G37*
G36*
X116470000Y-117740000D02*
X114670000Y-117740000D01*
X114670000Y-115940000D01*
X116470000Y-115940000D01*
X116470000Y-117740000D01*
X116470000Y-117740000D01*
G37*
G36*
X207910000Y-117740000D02*
X206110000Y-117740000D01*
X206110000Y-115940000D01*
X207910000Y-115940000D01*
X207910000Y-117740000D01*
X207910000Y-117740000D01*
G37*
G36*
X70750000Y-117740000D02*
X68950000Y-117740000D01*
X68950000Y-115940000D01*
X70750000Y-115940000D01*
X70750000Y-117740000D01*
X70750000Y-117740000D01*
G37*
G36*
X25030000Y-117740000D02*
X23230000Y-117740000D01*
X23230000Y-115940000D01*
X25030000Y-115940000D01*
X25030000Y-117740000D01*
X25030000Y-117740000D01*
G37*
G36*
X244016431Y-113413023D02*
X244186081Y-113464486D01*
X244342432Y-113548057D01*
X244479475Y-113660525D01*
X244591943Y-113797568D01*
X244675514Y-113953919D01*
X244726977Y-114123569D01*
X244744354Y-114300000D01*
X244726977Y-114476431D01*
X244675514Y-114646081D01*
X244591943Y-114802432D01*
X244479475Y-114939475D01*
X244342432Y-115051943D01*
X244186081Y-115135514D01*
X244016431Y-115186977D01*
X243884207Y-115200000D01*
X243795793Y-115200000D01*
X243663569Y-115186977D01*
X243493919Y-115135514D01*
X243337568Y-115051943D01*
X243200525Y-114939475D01*
X243088057Y-114802432D01*
X243004486Y-114646081D01*
X242953023Y-114476431D01*
X242935646Y-114300000D01*
X242953023Y-114123569D01*
X243004486Y-113953919D01*
X243088057Y-113797568D01*
X243200525Y-113660525D01*
X243337568Y-113548057D01*
X243493919Y-113464486D01*
X243663569Y-113413023D01*
X243795793Y-113400000D01*
X243884207Y-113400000D01*
X244016431Y-113413023D01*
X244016431Y-113413023D01*
G37*
G36*
X241476431Y-113413023D02*
X241646081Y-113464486D01*
X241802432Y-113548057D01*
X241939475Y-113660525D01*
X242051943Y-113797568D01*
X242135514Y-113953919D01*
X242186977Y-114123569D01*
X242204354Y-114300000D01*
X242186977Y-114476431D01*
X242135514Y-114646081D01*
X242051943Y-114802432D01*
X241939475Y-114939475D01*
X241802432Y-115051943D01*
X241646081Y-115135514D01*
X241476431Y-115186977D01*
X241344207Y-115200000D01*
X241255793Y-115200000D01*
X241123569Y-115186977D01*
X240953919Y-115135514D01*
X240797568Y-115051943D01*
X240660525Y-114939475D01*
X240548057Y-114802432D01*
X240464486Y-114646081D01*
X240413023Y-114476431D01*
X240395646Y-114300000D01*
X240413023Y-114123569D01*
X240464486Y-113953919D01*
X240548057Y-113797568D01*
X240660525Y-113660525D01*
X240797568Y-113548057D01*
X240953919Y-113464486D01*
X241123569Y-113413023D01*
X241255793Y-113400000D01*
X241344207Y-113400000D01*
X241476431Y-113413023D01*
X241476431Y-113413023D01*
G37*
G36*
X165276431Y-113413023D02*
X165446081Y-113464486D01*
X165602432Y-113548057D01*
X165739475Y-113660525D01*
X165851943Y-113797568D01*
X165935514Y-113953919D01*
X165986977Y-114123569D01*
X166004354Y-114300000D01*
X165986977Y-114476431D01*
X165935514Y-114646081D01*
X165851943Y-114802432D01*
X165739475Y-114939475D01*
X165602432Y-115051943D01*
X165446081Y-115135514D01*
X165276431Y-115186977D01*
X165144207Y-115200000D01*
X165055793Y-115200000D01*
X164923569Y-115186977D01*
X164753919Y-115135514D01*
X164597568Y-115051943D01*
X164460525Y-114939475D01*
X164348057Y-114802432D01*
X164264486Y-114646081D01*
X164213023Y-114476431D01*
X164195646Y-114300000D01*
X164213023Y-114123569D01*
X164264486Y-113953919D01*
X164348057Y-113797568D01*
X164460525Y-113660525D01*
X164597568Y-113548057D01*
X164753919Y-113464486D01*
X164923569Y-113413023D01*
X165055793Y-113400000D01*
X165144207Y-113400000D01*
X165276431Y-113413023D01*
X165276431Y-113413023D01*
G37*
G36*
X165276431Y-110873023D02*
X165446081Y-110924486D01*
X165602432Y-111008057D01*
X165739475Y-111120525D01*
X165851943Y-111257568D01*
X165935514Y-111413919D01*
X165986977Y-111583569D01*
X166004354Y-111760000D01*
X165986977Y-111936431D01*
X165935514Y-112106081D01*
X165851943Y-112262432D01*
X165739475Y-112399475D01*
X165602432Y-112511943D01*
X165446081Y-112595514D01*
X165276431Y-112646977D01*
X165144207Y-112660000D01*
X165055793Y-112660000D01*
X164923569Y-112646977D01*
X164753919Y-112595514D01*
X164597568Y-112511943D01*
X164460525Y-112399475D01*
X164348057Y-112262432D01*
X164264486Y-112106081D01*
X164213023Y-111936431D01*
X164195646Y-111760000D01*
X164213023Y-111583569D01*
X164264486Y-111413919D01*
X164348057Y-111257568D01*
X164460525Y-111120525D01*
X164597568Y-111008057D01*
X164753919Y-110924486D01*
X164923569Y-110873023D01*
X165055793Y-110860000D01*
X165144207Y-110860000D01*
X165276431Y-110873023D01*
X165276431Y-110873023D01*
G37*
G36*
X244016431Y-110873023D02*
X244186081Y-110924486D01*
X244342432Y-111008057D01*
X244479475Y-111120525D01*
X244591943Y-111257568D01*
X244675514Y-111413919D01*
X244726977Y-111583569D01*
X244744354Y-111760000D01*
X244726977Y-111936431D01*
X244675514Y-112106081D01*
X244591943Y-112262432D01*
X244479475Y-112399475D01*
X244342432Y-112511943D01*
X244186081Y-112595514D01*
X244016431Y-112646977D01*
X243884207Y-112660000D01*
X243795793Y-112660000D01*
X243663569Y-112646977D01*
X243493919Y-112595514D01*
X243337568Y-112511943D01*
X243200525Y-112399475D01*
X243088057Y-112262432D01*
X243004486Y-112106081D01*
X242953023Y-111936431D01*
X242935646Y-111760000D01*
X242953023Y-111583569D01*
X243004486Y-111413919D01*
X243088057Y-111257568D01*
X243200525Y-111120525D01*
X243337568Y-111008057D01*
X243493919Y-110924486D01*
X243663569Y-110873023D01*
X243795793Y-110860000D01*
X243884207Y-110860000D01*
X244016431Y-110873023D01*
X244016431Y-110873023D01*
G37*
G36*
X241476431Y-110873023D02*
X241646081Y-110924486D01*
X241802432Y-111008057D01*
X241939475Y-111120525D01*
X242051943Y-111257568D01*
X242135514Y-111413919D01*
X242186977Y-111583569D01*
X242204354Y-111760000D01*
X242186977Y-111936431D01*
X242135514Y-112106081D01*
X242051943Y-112262432D01*
X241939475Y-112399475D01*
X241802432Y-112511943D01*
X241646081Y-112595514D01*
X241476431Y-112646977D01*
X241344207Y-112660000D01*
X241255793Y-112660000D01*
X241123569Y-112646977D01*
X240953919Y-112595514D01*
X240797568Y-112511943D01*
X240660525Y-112399475D01*
X240548057Y-112262432D01*
X240464486Y-112106081D01*
X240413023Y-111936431D01*
X240395646Y-111760000D01*
X240413023Y-111583569D01*
X240464486Y-111413919D01*
X240548057Y-111257568D01*
X240660525Y-111120525D01*
X240797568Y-111008057D01*
X240953919Y-110924486D01*
X241123569Y-110873023D01*
X241255793Y-110860000D01*
X241344207Y-110860000D01*
X241476431Y-110873023D01*
X241476431Y-110873023D01*
G37*
G36*
X244016431Y-108333023D02*
X244186081Y-108384486D01*
X244342432Y-108468057D01*
X244479475Y-108580525D01*
X244591943Y-108717568D01*
X244675514Y-108873919D01*
X244726977Y-109043569D01*
X244744354Y-109220000D01*
X244726977Y-109396431D01*
X244675514Y-109566081D01*
X244591943Y-109722432D01*
X244479475Y-109859475D01*
X244342432Y-109971943D01*
X244186081Y-110055514D01*
X244016431Y-110106977D01*
X243884207Y-110120000D01*
X243795793Y-110120000D01*
X243663569Y-110106977D01*
X243493919Y-110055514D01*
X243337568Y-109971943D01*
X243200525Y-109859475D01*
X243088057Y-109722432D01*
X243004486Y-109566081D01*
X242953023Y-109396431D01*
X242935646Y-109220000D01*
X242953023Y-109043569D01*
X243004486Y-108873919D01*
X243088057Y-108717568D01*
X243200525Y-108580525D01*
X243337568Y-108468057D01*
X243493919Y-108384486D01*
X243663569Y-108333023D01*
X243795793Y-108320000D01*
X243884207Y-108320000D01*
X244016431Y-108333023D01*
X244016431Y-108333023D01*
G37*
G36*
X241476431Y-108333023D02*
X241646081Y-108384486D01*
X241802432Y-108468057D01*
X241939475Y-108580525D01*
X242051943Y-108717568D01*
X242135514Y-108873919D01*
X242186977Y-109043569D01*
X242204354Y-109220000D01*
X242186977Y-109396431D01*
X242135514Y-109566081D01*
X242051943Y-109722432D01*
X241939475Y-109859475D01*
X241802432Y-109971943D01*
X241646081Y-110055514D01*
X241476431Y-110106977D01*
X241344207Y-110120000D01*
X241255793Y-110120000D01*
X241123569Y-110106977D01*
X240953919Y-110055514D01*
X240797568Y-109971943D01*
X240660525Y-109859475D01*
X240548057Y-109722432D01*
X240464486Y-109566081D01*
X240413023Y-109396431D01*
X240395646Y-109220000D01*
X240413023Y-109043569D01*
X240464486Y-108873919D01*
X240548057Y-108717568D01*
X240660525Y-108580525D01*
X240797568Y-108468057D01*
X240953919Y-108384486D01*
X241123569Y-108333023D01*
X241255793Y-108320000D01*
X241344207Y-108320000D01*
X241476431Y-108333023D01*
X241476431Y-108333023D01*
G37*
G36*
X165276431Y-108333023D02*
X165446081Y-108384486D01*
X165602432Y-108468057D01*
X165739475Y-108580525D01*
X165851943Y-108717568D01*
X165935514Y-108873919D01*
X165986977Y-109043569D01*
X166004354Y-109220000D01*
X165986977Y-109396431D01*
X165935514Y-109566081D01*
X165851943Y-109722432D01*
X165739475Y-109859475D01*
X165602432Y-109971943D01*
X165446081Y-110055514D01*
X165276431Y-110106977D01*
X165144207Y-110120000D01*
X165055793Y-110120000D01*
X164923569Y-110106977D01*
X164753919Y-110055514D01*
X164597568Y-109971943D01*
X164460525Y-109859475D01*
X164348057Y-109722432D01*
X164264486Y-109566081D01*
X164213023Y-109396431D01*
X164195646Y-109220000D01*
X164213023Y-109043569D01*
X164264486Y-108873919D01*
X164348057Y-108717568D01*
X164460525Y-108580525D01*
X164597568Y-108468057D01*
X164753919Y-108384486D01*
X164923569Y-108333023D01*
X165055793Y-108320000D01*
X165144207Y-108320000D01*
X165276431Y-108333023D01*
X165276431Y-108333023D01*
G37*
G36*
X244016431Y-105793023D02*
X244186081Y-105844486D01*
X244342432Y-105928057D01*
X244479475Y-106040525D01*
X244591943Y-106177568D01*
X244675514Y-106333919D01*
X244726977Y-106503569D01*
X244744354Y-106680000D01*
X244726977Y-106856431D01*
X244675514Y-107026081D01*
X244591943Y-107182432D01*
X244479475Y-107319475D01*
X244342432Y-107431943D01*
X244186081Y-107515514D01*
X244016431Y-107566977D01*
X243884207Y-107580000D01*
X243795793Y-107580000D01*
X243663569Y-107566977D01*
X243493919Y-107515514D01*
X243337568Y-107431943D01*
X243200525Y-107319475D01*
X243088057Y-107182432D01*
X243004486Y-107026081D01*
X242953023Y-106856431D01*
X242935646Y-106680000D01*
X242953023Y-106503569D01*
X243004486Y-106333919D01*
X243088057Y-106177568D01*
X243200525Y-106040525D01*
X243337568Y-105928057D01*
X243493919Y-105844486D01*
X243663569Y-105793023D01*
X243795793Y-105780000D01*
X243884207Y-105780000D01*
X244016431Y-105793023D01*
X244016431Y-105793023D01*
G37*
G36*
X241476431Y-105793023D02*
X241646081Y-105844486D01*
X241802432Y-105928057D01*
X241939475Y-106040525D01*
X242051943Y-106177568D01*
X242135514Y-106333919D01*
X242186977Y-106503569D01*
X242204354Y-106680000D01*
X242186977Y-106856431D01*
X242135514Y-107026081D01*
X242051943Y-107182432D01*
X241939475Y-107319475D01*
X241802432Y-107431943D01*
X241646081Y-107515514D01*
X241476431Y-107566977D01*
X241344207Y-107580000D01*
X241255793Y-107580000D01*
X241123569Y-107566977D01*
X240953919Y-107515514D01*
X240797568Y-107431943D01*
X240660525Y-107319475D01*
X240548057Y-107182432D01*
X240464486Y-107026081D01*
X240413023Y-106856431D01*
X240395646Y-106680000D01*
X240413023Y-106503569D01*
X240464486Y-106333919D01*
X240548057Y-106177568D01*
X240660525Y-106040525D01*
X240797568Y-105928057D01*
X240953919Y-105844486D01*
X241123569Y-105793023D01*
X241255793Y-105780000D01*
X241344207Y-105780000D01*
X241476431Y-105793023D01*
X241476431Y-105793023D01*
G37*
G36*
X165276431Y-105793023D02*
X165446081Y-105844486D01*
X165602432Y-105928057D01*
X165739475Y-106040525D01*
X165851943Y-106177568D01*
X165935514Y-106333919D01*
X165986977Y-106503569D01*
X166004354Y-106680000D01*
X165986977Y-106856431D01*
X165935514Y-107026081D01*
X165851943Y-107182432D01*
X165739475Y-107319475D01*
X165602432Y-107431943D01*
X165446081Y-107515514D01*
X165276431Y-107566977D01*
X165144207Y-107580000D01*
X165055793Y-107580000D01*
X164923569Y-107566977D01*
X164753919Y-107515514D01*
X164597568Y-107431943D01*
X164460525Y-107319475D01*
X164348057Y-107182432D01*
X164264486Y-107026081D01*
X164213023Y-106856431D01*
X164195646Y-106680000D01*
X164213023Y-106503569D01*
X164264486Y-106333919D01*
X164348057Y-106177568D01*
X164460525Y-106040525D01*
X164597568Y-105928057D01*
X164753919Y-105844486D01*
X164923569Y-105793023D01*
X165055793Y-105780000D01*
X165144207Y-105780000D01*
X165276431Y-105793023D01*
X165276431Y-105793023D01*
G37*
G36*
X165276431Y-103253023D02*
X165446081Y-103304486D01*
X165602432Y-103388057D01*
X165739475Y-103500525D01*
X165851943Y-103637568D01*
X165935514Y-103793919D01*
X165986977Y-103963569D01*
X166004354Y-104140000D01*
X165986977Y-104316431D01*
X165935514Y-104486081D01*
X165851943Y-104642432D01*
X165739475Y-104779475D01*
X165602432Y-104891943D01*
X165446081Y-104975514D01*
X165276431Y-105026977D01*
X165144207Y-105040000D01*
X165055793Y-105040000D01*
X164923569Y-105026977D01*
X164753919Y-104975514D01*
X164597568Y-104891943D01*
X164460525Y-104779475D01*
X164348057Y-104642432D01*
X164264486Y-104486081D01*
X164213023Y-104316431D01*
X164195646Y-104140000D01*
X164213023Y-103963569D01*
X164264486Y-103793919D01*
X164348057Y-103637568D01*
X164460525Y-103500525D01*
X164597568Y-103388057D01*
X164753919Y-103304486D01*
X164923569Y-103253023D01*
X165055793Y-103240000D01*
X165144207Y-103240000D01*
X165276431Y-103253023D01*
X165276431Y-103253023D01*
G37*
G36*
X241476431Y-103253023D02*
X241646081Y-103304486D01*
X241802432Y-103388057D01*
X241939475Y-103500525D01*
X242051943Y-103637568D01*
X242135514Y-103793919D01*
X242186977Y-103963569D01*
X242204354Y-104140000D01*
X242186977Y-104316431D01*
X242135514Y-104486081D01*
X242051943Y-104642432D01*
X241939475Y-104779475D01*
X241802432Y-104891943D01*
X241646081Y-104975514D01*
X241476431Y-105026977D01*
X241344207Y-105040000D01*
X241255793Y-105040000D01*
X241123569Y-105026977D01*
X240953919Y-104975514D01*
X240797568Y-104891943D01*
X240660525Y-104779475D01*
X240548057Y-104642432D01*
X240464486Y-104486081D01*
X240413023Y-104316431D01*
X240395646Y-104140000D01*
X240413023Y-103963569D01*
X240464486Y-103793919D01*
X240548057Y-103637568D01*
X240660525Y-103500525D01*
X240797568Y-103388057D01*
X240953919Y-103304486D01*
X241123569Y-103253023D01*
X241255793Y-103240000D01*
X241344207Y-103240000D01*
X241476431Y-103253023D01*
X241476431Y-103253023D01*
G37*
G36*
X244016431Y-103253023D02*
X244186081Y-103304486D01*
X244342432Y-103388057D01*
X244479475Y-103500525D01*
X244591943Y-103637568D01*
X244675514Y-103793919D01*
X244726977Y-103963569D01*
X244744354Y-104140000D01*
X244726977Y-104316431D01*
X244675514Y-104486081D01*
X244591943Y-104642432D01*
X244479475Y-104779475D01*
X244342432Y-104891943D01*
X244186081Y-104975514D01*
X244016431Y-105026977D01*
X243884207Y-105040000D01*
X243795793Y-105040000D01*
X243663569Y-105026977D01*
X243493919Y-104975514D01*
X243337568Y-104891943D01*
X243200525Y-104779475D01*
X243088057Y-104642432D01*
X243004486Y-104486081D01*
X242953023Y-104316431D01*
X242935646Y-104140000D01*
X242953023Y-103963569D01*
X243004486Y-103793919D01*
X243088057Y-103637568D01*
X243200525Y-103500525D01*
X243337568Y-103388057D01*
X243493919Y-103304486D01*
X243663569Y-103253023D01*
X243795793Y-103240000D01*
X243884207Y-103240000D01*
X244016431Y-103253023D01*
X244016431Y-103253023D01*
G37*
G36*
X165276431Y-100713023D02*
X165446081Y-100764486D01*
X165602432Y-100848057D01*
X165739475Y-100960525D01*
X165851943Y-101097568D01*
X165935514Y-101253919D01*
X165986977Y-101423569D01*
X166004354Y-101600000D01*
X165986977Y-101776431D01*
X165935514Y-101946081D01*
X165851943Y-102102432D01*
X165739475Y-102239475D01*
X165602432Y-102351943D01*
X165446081Y-102435514D01*
X165276431Y-102486977D01*
X165144207Y-102500000D01*
X165055793Y-102500000D01*
X164923569Y-102486977D01*
X164753919Y-102435514D01*
X164597568Y-102351943D01*
X164460525Y-102239475D01*
X164348057Y-102102432D01*
X164264486Y-101946081D01*
X164213023Y-101776431D01*
X164195646Y-101600000D01*
X164213023Y-101423569D01*
X164264486Y-101253919D01*
X164348057Y-101097568D01*
X164460525Y-100960525D01*
X164597568Y-100848057D01*
X164753919Y-100764486D01*
X164923569Y-100713023D01*
X165055793Y-100700000D01*
X165144207Y-100700000D01*
X165276431Y-100713023D01*
X165276431Y-100713023D01*
G37*
G36*
X241476431Y-100713023D02*
X241646081Y-100764486D01*
X241802432Y-100848057D01*
X241939475Y-100960525D01*
X242051943Y-101097568D01*
X242135514Y-101253919D01*
X242186977Y-101423569D01*
X242204354Y-101600000D01*
X242186977Y-101776431D01*
X242135514Y-101946081D01*
X242051943Y-102102432D01*
X241939475Y-102239475D01*
X241802432Y-102351943D01*
X241646081Y-102435514D01*
X241476431Y-102486977D01*
X241344207Y-102500000D01*
X241255793Y-102500000D01*
X241123569Y-102486977D01*
X240953919Y-102435514D01*
X240797568Y-102351943D01*
X240660525Y-102239475D01*
X240548057Y-102102432D01*
X240464486Y-101946081D01*
X240413023Y-101776431D01*
X240395646Y-101600000D01*
X240413023Y-101423569D01*
X240464486Y-101253919D01*
X240548057Y-101097568D01*
X240660525Y-100960525D01*
X240797568Y-100848057D01*
X240953919Y-100764486D01*
X241123569Y-100713023D01*
X241255793Y-100700000D01*
X241344207Y-100700000D01*
X241476431Y-100713023D01*
X241476431Y-100713023D01*
G37*
G36*
X244016431Y-100713023D02*
X244186081Y-100764486D01*
X244342432Y-100848057D01*
X244479475Y-100960525D01*
X244591943Y-101097568D01*
X244675514Y-101253919D01*
X244726977Y-101423569D01*
X244744354Y-101600000D01*
X244726977Y-101776431D01*
X244675514Y-101946081D01*
X244591943Y-102102432D01*
X244479475Y-102239475D01*
X244342432Y-102351943D01*
X244186081Y-102435514D01*
X244016431Y-102486977D01*
X243884207Y-102500000D01*
X243795793Y-102500000D01*
X243663569Y-102486977D01*
X243493919Y-102435514D01*
X243337568Y-102351943D01*
X243200525Y-102239475D01*
X243088057Y-102102432D01*
X243004486Y-101946081D01*
X242953023Y-101776431D01*
X242935646Y-101600000D01*
X242953023Y-101423569D01*
X243004486Y-101253919D01*
X243088057Y-101097568D01*
X243200525Y-100960525D01*
X243337568Y-100848057D01*
X243493919Y-100764486D01*
X243663569Y-100713023D01*
X243795793Y-100700000D01*
X243884207Y-100700000D01*
X244016431Y-100713023D01*
X244016431Y-100713023D01*
G37*
G36*
X166000000Y-99960000D02*
X164200000Y-99960000D01*
X164200000Y-98160000D01*
X166000000Y-98160000D01*
X166000000Y-99960000D01*
X166000000Y-99960000D01*
G37*
G36*
X241476431Y-98173023D02*
X241646081Y-98224486D01*
X241802432Y-98308057D01*
X241939475Y-98420525D01*
X242051943Y-98557568D01*
X242135514Y-98713919D01*
X242186977Y-98883569D01*
X242204354Y-99060000D01*
X242186977Y-99236431D01*
X242135514Y-99406081D01*
X242051943Y-99562432D01*
X241939475Y-99699475D01*
X241802432Y-99811943D01*
X241646081Y-99895514D01*
X241476431Y-99946977D01*
X241344207Y-99960000D01*
X241255793Y-99960000D01*
X241123569Y-99946977D01*
X240953919Y-99895514D01*
X240797568Y-99811943D01*
X240660525Y-99699475D01*
X240548057Y-99562432D01*
X240464486Y-99406081D01*
X240413023Y-99236431D01*
X240395646Y-99060000D01*
X240413023Y-98883569D01*
X240464486Y-98713919D01*
X240548057Y-98557568D01*
X240660525Y-98420525D01*
X240797568Y-98308057D01*
X240953919Y-98224486D01*
X241123569Y-98173023D01*
X241255793Y-98160000D01*
X241344207Y-98160000D01*
X241476431Y-98173023D01*
X241476431Y-98173023D01*
G37*
G36*
X244016431Y-98173023D02*
X244186081Y-98224486D01*
X244342432Y-98308057D01*
X244479475Y-98420525D01*
X244591943Y-98557568D01*
X244675514Y-98713919D01*
X244726977Y-98883569D01*
X244744354Y-99060000D01*
X244726977Y-99236431D01*
X244675514Y-99406081D01*
X244591943Y-99562432D01*
X244479475Y-99699475D01*
X244342432Y-99811943D01*
X244186081Y-99895514D01*
X244016431Y-99946977D01*
X243884207Y-99960000D01*
X243795793Y-99960000D01*
X243663569Y-99946977D01*
X243493919Y-99895514D01*
X243337568Y-99811943D01*
X243200525Y-99699475D01*
X243088057Y-99562432D01*
X243004486Y-99406081D01*
X242953023Y-99236431D01*
X242935646Y-99060000D01*
X242953023Y-98883569D01*
X243004486Y-98713919D01*
X243088057Y-98557568D01*
X243200525Y-98420525D01*
X243337568Y-98308057D01*
X243493919Y-98224486D01*
X243663569Y-98173023D01*
X243795793Y-98160000D01*
X243884207Y-98160000D01*
X244016431Y-98173023D01*
X244016431Y-98173023D01*
G37*
G36*
X241476431Y-95633023D02*
X241646081Y-95684486D01*
X241802432Y-95768057D01*
X241939475Y-95880525D01*
X242051943Y-96017568D01*
X242135514Y-96173919D01*
X242186977Y-96343569D01*
X242204354Y-96520000D01*
X242186977Y-96696431D01*
X242135514Y-96866081D01*
X242051943Y-97022432D01*
X241939475Y-97159475D01*
X241802432Y-97271943D01*
X241646081Y-97355514D01*
X241476431Y-97406977D01*
X241344207Y-97420000D01*
X241255793Y-97420000D01*
X241123569Y-97406977D01*
X240953919Y-97355514D01*
X240797568Y-97271943D01*
X240660525Y-97159475D01*
X240548057Y-97022432D01*
X240464486Y-96866081D01*
X240413023Y-96696431D01*
X240395646Y-96520000D01*
X240413023Y-96343569D01*
X240464486Y-96173919D01*
X240548057Y-96017568D01*
X240660525Y-95880525D01*
X240797568Y-95768057D01*
X240953919Y-95684486D01*
X241123569Y-95633023D01*
X241255793Y-95620000D01*
X241344207Y-95620000D01*
X241476431Y-95633023D01*
X241476431Y-95633023D01*
G37*
G36*
X244016431Y-95633023D02*
X244186081Y-95684486D01*
X244342432Y-95768057D01*
X244479475Y-95880525D01*
X244591943Y-96017568D01*
X244675514Y-96173919D01*
X244726977Y-96343569D01*
X244744354Y-96520000D01*
X244726977Y-96696431D01*
X244675514Y-96866081D01*
X244591943Y-97022432D01*
X244479475Y-97159475D01*
X244342432Y-97271943D01*
X244186081Y-97355514D01*
X244016431Y-97406977D01*
X243884207Y-97420000D01*
X243795793Y-97420000D01*
X243663569Y-97406977D01*
X243493919Y-97355514D01*
X243337568Y-97271943D01*
X243200525Y-97159475D01*
X243088057Y-97022432D01*
X243004486Y-96866081D01*
X242953023Y-96696431D01*
X242935646Y-96520000D01*
X242953023Y-96343569D01*
X243004486Y-96173919D01*
X243088057Y-96017568D01*
X243200525Y-95880525D01*
X243337568Y-95768057D01*
X243493919Y-95684486D01*
X243663569Y-95633023D01*
X243795793Y-95620000D01*
X243884207Y-95620000D01*
X244016431Y-95633023D01*
X244016431Y-95633023D01*
G37*
G36*
X150036431Y-70233023D02*
X150206081Y-70284486D01*
X150362432Y-70368057D01*
X150499475Y-70480525D01*
X150611943Y-70617568D01*
X150695514Y-70773919D01*
X150746977Y-70943569D01*
X150764354Y-71120000D01*
X150746977Y-71296431D01*
X150695514Y-71466081D01*
X150611943Y-71622432D01*
X150499475Y-71759475D01*
X150362432Y-71871943D01*
X150206081Y-71955514D01*
X150036431Y-72006977D01*
X149904207Y-72020000D01*
X149815793Y-72020000D01*
X149683569Y-72006977D01*
X149513919Y-71955514D01*
X149357568Y-71871943D01*
X149220525Y-71759475D01*
X149108057Y-71622432D01*
X149024486Y-71466081D01*
X148973023Y-71296431D01*
X148955646Y-71120000D01*
X148973023Y-70943569D01*
X149024486Y-70773919D01*
X149108057Y-70617568D01*
X149220525Y-70480525D01*
X149357568Y-70368057D01*
X149513919Y-70284486D01*
X149683569Y-70233023D01*
X149815793Y-70220000D01*
X149904207Y-70220000D01*
X150036431Y-70233023D01*
X150036431Y-70233023D01*
G37*
G36*
X147496431Y-70233023D02*
X147666081Y-70284486D01*
X147822432Y-70368057D01*
X147959475Y-70480525D01*
X148071943Y-70617568D01*
X148155514Y-70773919D01*
X148206977Y-70943569D01*
X148224354Y-71120000D01*
X148206977Y-71296431D01*
X148155514Y-71466081D01*
X148071943Y-71622432D01*
X147959475Y-71759475D01*
X147822432Y-71871943D01*
X147666081Y-71955514D01*
X147496431Y-72006977D01*
X147364207Y-72020000D01*
X147275793Y-72020000D01*
X147143569Y-72006977D01*
X146973919Y-71955514D01*
X146817568Y-71871943D01*
X146680525Y-71759475D01*
X146568057Y-71622432D01*
X146484486Y-71466081D01*
X146433023Y-71296431D01*
X146415646Y-71120000D01*
X146433023Y-70943569D01*
X146484486Y-70773919D01*
X146568057Y-70617568D01*
X146680525Y-70480525D01*
X146817568Y-70368057D01*
X146973919Y-70284486D01*
X147143569Y-70233023D01*
X147275793Y-70220000D01*
X147364207Y-70220000D01*
X147496431Y-70233023D01*
X147496431Y-70233023D01*
G37*
G36*
X147496431Y-67693023D02*
X147666081Y-67744486D01*
X147822432Y-67828057D01*
X147959475Y-67940525D01*
X148071943Y-68077568D01*
X148155514Y-68233919D01*
X148206977Y-68403569D01*
X148224354Y-68580000D01*
X148206977Y-68756431D01*
X148155514Y-68926081D01*
X148071943Y-69082432D01*
X147959475Y-69219475D01*
X147822432Y-69331943D01*
X147666081Y-69415514D01*
X147496431Y-69466977D01*
X147364207Y-69480000D01*
X147275793Y-69480000D01*
X147143569Y-69466977D01*
X146973919Y-69415514D01*
X146817568Y-69331943D01*
X146680525Y-69219475D01*
X146568057Y-69082432D01*
X146484486Y-68926081D01*
X146433023Y-68756431D01*
X146415646Y-68580000D01*
X146433023Y-68403569D01*
X146484486Y-68233919D01*
X146568057Y-68077568D01*
X146680525Y-67940525D01*
X146817568Y-67828057D01*
X146973919Y-67744486D01*
X147143569Y-67693023D01*
X147275793Y-67680000D01*
X147364207Y-67680000D01*
X147496431Y-67693023D01*
X147496431Y-67693023D01*
G37*
G36*
X150036431Y-67693023D02*
X150206081Y-67744486D01*
X150362432Y-67828057D01*
X150499475Y-67940525D01*
X150611943Y-68077568D01*
X150695514Y-68233919D01*
X150746977Y-68403569D01*
X150764354Y-68580000D01*
X150746977Y-68756431D01*
X150695514Y-68926081D01*
X150611943Y-69082432D01*
X150499475Y-69219475D01*
X150362432Y-69331943D01*
X150206081Y-69415514D01*
X150036431Y-69466977D01*
X149904207Y-69480000D01*
X149815793Y-69480000D01*
X149683569Y-69466977D01*
X149513919Y-69415514D01*
X149357568Y-69331943D01*
X149220525Y-69219475D01*
X149108057Y-69082432D01*
X149024486Y-68926081D01*
X148973023Y-68756431D01*
X148955646Y-68580000D01*
X148973023Y-68403569D01*
X149024486Y-68233919D01*
X149108057Y-68077568D01*
X149220525Y-67940525D01*
X149357568Y-67828057D01*
X149513919Y-67744486D01*
X149683569Y-67693023D01*
X149815793Y-67680000D01*
X149904207Y-67680000D01*
X150036431Y-67693023D01*
X150036431Y-67693023D01*
G37*
G36*
X147496431Y-65153023D02*
X147666081Y-65204486D01*
X147822432Y-65288057D01*
X147959475Y-65400525D01*
X148071943Y-65537568D01*
X148155514Y-65693919D01*
X148206977Y-65863569D01*
X148224354Y-66040000D01*
X148206977Y-66216431D01*
X148155514Y-66386081D01*
X148071943Y-66542432D01*
X147959475Y-66679475D01*
X147822432Y-66791943D01*
X147666081Y-66875514D01*
X147496431Y-66926977D01*
X147364207Y-66940000D01*
X147275793Y-66940000D01*
X147143569Y-66926977D01*
X146973919Y-66875514D01*
X146817568Y-66791943D01*
X146680525Y-66679475D01*
X146568057Y-66542432D01*
X146484486Y-66386081D01*
X146433023Y-66216431D01*
X146415646Y-66040000D01*
X146433023Y-65863569D01*
X146484486Y-65693919D01*
X146568057Y-65537568D01*
X146680525Y-65400525D01*
X146817568Y-65288057D01*
X146973919Y-65204486D01*
X147143569Y-65153023D01*
X147275793Y-65140000D01*
X147364207Y-65140000D01*
X147496431Y-65153023D01*
X147496431Y-65153023D01*
G37*
G36*
X150036431Y-65153023D02*
X150206081Y-65204486D01*
X150362432Y-65288057D01*
X150499475Y-65400525D01*
X150611943Y-65537568D01*
X150695514Y-65693919D01*
X150746977Y-65863569D01*
X150764354Y-66040000D01*
X150746977Y-66216431D01*
X150695514Y-66386081D01*
X150611943Y-66542432D01*
X150499475Y-66679475D01*
X150362432Y-66791943D01*
X150206081Y-66875514D01*
X150036431Y-66926977D01*
X149904207Y-66940000D01*
X149815793Y-66940000D01*
X149683569Y-66926977D01*
X149513919Y-66875514D01*
X149357568Y-66791943D01*
X149220525Y-66679475D01*
X149108057Y-66542432D01*
X149024486Y-66386081D01*
X148973023Y-66216431D01*
X148955646Y-66040000D01*
X148973023Y-65863569D01*
X149024486Y-65693919D01*
X149108057Y-65537568D01*
X149220525Y-65400525D01*
X149357568Y-65288057D01*
X149513919Y-65204486D01*
X149683569Y-65153023D01*
X149815793Y-65140000D01*
X149904207Y-65140000D01*
X150036431Y-65153023D01*
X150036431Y-65153023D01*
G37*
G36*
X70026431Y-62613023D02*
X70196081Y-62664486D01*
X70352432Y-62748057D01*
X70489475Y-62860525D01*
X70601943Y-62997568D01*
X70685514Y-63153919D01*
X70736977Y-63323569D01*
X70754354Y-63500000D01*
X70736977Y-63676431D01*
X70685514Y-63846081D01*
X70601943Y-64002432D01*
X70489475Y-64139475D01*
X70352432Y-64251943D01*
X70196081Y-64335514D01*
X70026431Y-64386977D01*
X69894207Y-64400000D01*
X69805793Y-64400000D01*
X69673569Y-64386977D01*
X69503919Y-64335514D01*
X69347568Y-64251943D01*
X69210525Y-64139475D01*
X69098057Y-64002432D01*
X69014486Y-63846081D01*
X68963023Y-63676431D01*
X68945646Y-63500000D01*
X68963023Y-63323569D01*
X69014486Y-63153919D01*
X69098057Y-62997568D01*
X69210525Y-62860525D01*
X69347568Y-62748057D01*
X69503919Y-62664486D01*
X69673569Y-62613023D01*
X69805793Y-62600000D01*
X69894207Y-62600000D01*
X70026431Y-62613023D01*
X70026431Y-62613023D01*
G37*
G36*
X24306431Y-62613023D02*
X24476081Y-62664486D01*
X24632432Y-62748057D01*
X24769475Y-62860525D01*
X24881943Y-62997568D01*
X24965514Y-63153919D01*
X25016977Y-63323569D01*
X25034354Y-63500000D01*
X25016977Y-63676431D01*
X24965514Y-63846081D01*
X24881943Y-64002432D01*
X24769475Y-64139475D01*
X24632432Y-64251943D01*
X24476081Y-64335514D01*
X24306431Y-64386977D01*
X24174207Y-64400000D01*
X24085793Y-64400000D01*
X23953569Y-64386977D01*
X23783919Y-64335514D01*
X23627568Y-64251943D01*
X23490525Y-64139475D01*
X23378057Y-64002432D01*
X23294486Y-63846081D01*
X23243023Y-63676431D01*
X23225646Y-63500000D01*
X23243023Y-63323569D01*
X23294486Y-63153919D01*
X23378057Y-62997568D01*
X23490525Y-62860525D01*
X23627568Y-62748057D01*
X23783919Y-62664486D01*
X23953569Y-62613023D01*
X24085793Y-62600000D01*
X24174207Y-62600000D01*
X24306431Y-62613023D01*
X24306431Y-62613023D01*
G37*
G36*
X147496431Y-62613023D02*
X147666081Y-62664486D01*
X147822432Y-62748057D01*
X147959475Y-62860525D01*
X148071943Y-62997568D01*
X148155514Y-63153919D01*
X148206977Y-63323569D01*
X148224354Y-63500000D01*
X148206977Y-63676431D01*
X148155514Y-63846081D01*
X148071943Y-64002432D01*
X147959475Y-64139475D01*
X147822432Y-64251943D01*
X147666081Y-64335514D01*
X147496431Y-64386977D01*
X147364207Y-64400000D01*
X147275793Y-64400000D01*
X147143569Y-64386977D01*
X146973919Y-64335514D01*
X146817568Y-64251943D01*
X146680525Y-64139475D01*
X146568057Y-64002432D01*
X146484486Y-63846081D01*
X146433023Y-63676431D01*
X146415646Y-63500000D01*
X146433023Y-63323569D01*
X146484486Y-63153919D01*
X146568057Y-62997568D01*
X146680525Y-62860525D01*
X146817568Y-62748057D01*
X146973919Y-62664486D01*
X147143569Y-62613023D01*
X147275793Y-62600000D01*
X147364207Y-62600000D01*
X147496431Y-62613023D01*
X147496431Y-62613023D01*
G37*
G36*
X150036431Y-62613023D02*
X150206081Y-62664486D01*
X150362432Y-62748057D01*
X150499475Y-62860525D01*
X150611943Y-62997568D01*
X150695514Y-63153919D01*
X150746977Y-63323569D01*
X150764354Y-63500000D01*
X150746977Y-63676431D01*
X150695514Y-63846081D01*
X150611943Y-64002432D01*
X150499475Y-64139475D01*
X150362432Y-64251943D01*
X150206081Y-64335514D01*
X150036431Y-64386977D01*
X149904207Y-64400000D01*
X149815793Y-64400000D01*
X149683569Y-64386977D01*
X149513919Y-64335514D01*
X149357568Y-64251943D01*
X149220525Y-64139475D01*
X149108057Y-64002432D01*
X149024486Y-63846081D01*
X148973023Y-63676431D01*
X148955646Y-63500000D01*
X148973023Y-63323569D01*
X149024486Y-63153919D01*
X149108057Y-62997568D01*
X149220525Y-62860525D01*
X149357568Y-62748057D01*
X149513919Y-62664486D01*
X149683569Y-62613023D01*
X149815793Y-62600000D01*
X149904207Y-62600000D01*
X150036431Y-62613023D01*
X150036431Y-62613023D01*
G37*
G36*
X105586431Y-62613023D02*
X105756081Y-62664486D01*
X105912432Y-62748057D01*
X106049475Y-62860525D01*
X106161943Y-62997568D01*
X106245514Y-63153919D01*
X106296977Y-63323569D01*
X106314354Y-63500000D01*
X106296977Y-63676431D01*
X106245514Y-63846081D01*
X106161943Y-64002432D01*
X106049475Y-64139475D01*
X105912432Y-64251943D01*
X105756081Y-64335514D01*
X105586431Y-64386977D01*
X105454207Y-64400000D01*
X105365793Y-64400000D01*
X105233569Y-64386977D01*
X105063919Y-64335514D01*
X104907568Y-64251943D01*
X104770525Y-64139475D01*
X104658057Y-64002432D01*
X104574486Y-63846081D01*
X104523023Y-63676431D01*
X104505646Y-63500000D01*
X104523023Y-63323569D01*
X104574486Y-63153919D01*
X104658057Y-62997568D01*
X104770525Y-62860525D01*
X104907568Y-62748057D01*
X105063919Y-62664486D01*
X105233569Y-62613023D01*
X105365793Y-62600000D01*
X105454207Y-62600000D01*
X105586431Y-62613023D01*
X105586431Y-62613023D01*
G37*
G36*
X105586431Y-60073023D02*
X105756081Y-60124486D01*
X105912432Y-60208057D01*
X106049475Y-60320525D01*
X106161943Y-60457568D01*
X106245514Y-60613919D01*
X106296977Y-60783569D01*
X106314354Y-60960000D01*
X106296977Y-61136431D01*
X106245514Y-61306081D01*
X106161943Y-61462432D01*
X106049475Y-61599475D01*
X105912432Y-61711943D01*
X105756081Y-61795514D01*
X105586431Y-61846977D01*
X105454207Y-61860000D01*
X105365793Y-61860000D01*
X105233569Y-61846977D01*
X105063919Y-61795514D01*
X104907568Y-61711943D01*
X104770525Y-61599475D01*
X104658057Y-61462432D01*
X104574486Y-61306081D01*
X104523023Y-61136431D01*
X104505646Y-60960000D01*
X104523023Y-60783569D01*
X104574486Y-60613919D01*
X104658057Y-60457568D01*
X104770525Y-60320525D01*
X104907568Y-60208057D01*
X105063919Y-60124486D01*
X105233569Y-60073023D01*
X105365793Y-60060000D01*
X105454207Y-60060000D01*
X105586431Y-60073023D01*
X105586431Y-60073023D01*
G37*
G36*
X150036431Y-60073023D02*
X150206081Y-60124486D01*
X150362432Y-60208057D01*
X150499475Y-60320525D01*
X150611943Y-60457568D01*
X150695514Y-60613919D01*
X150746977Y-60783569D01*
X150764354Y-60960000D01*
X150746977Y-61136431D01*
X150695514Y-61306081D01*
X150611943Y-61462432D01*
X150499475Y-61599475D01*
X150362432Y-61711943D01*
X150206081Y-61795514D01*
X150036431Y-61846977D01*
X149904207Y-61860000D01*
X149815793Y-61860000D01*
X149683569Y-61846977D01*
X149513919Y-61795514D01*
X149357568Y-61711943D01*
X149220525Y-61599475D01*
X149108057Y-61462432D01*
X149024486Y-61306081D01*
X148973023Y-61136431D01*
X148955646Y-60960000D01*
X148973023Y-60783569D01*
X149024486Y-60613919D01*
X149108057Y-60457568D01*
X149220525Y-60320525D01*
X149357568Y-60208057D01*
X149513919Y-60124486D01*
X149683569Y-60073023D01*
X149815793Y-60060000D01*
X149904207Y-60060000D01*
X150036431Y-60073023D01*
X150036431Y-60073023D01*
G37*
G36*
X24306431Y-60073023D02*
X24476081Y-60124486D01*
X24632432Y-60208057D01*
X24769475Y-60320525D01*
X24881943Y-60457568D01*
X24965514Y-60613919D01*
X25016977Y-60783569D01*
X25034354Y-60960000D01*
X25016977Y-61136431D01*
X24965514Y-61306081D01*
X24881943Y-61462432D01*
X24769475Y-61599475D01*
X24632432Y-61711943D01*
X24476081Y-61795514D01*
X24306431Y-61846977D01*
X24174207Y-61860000D01*
X24085793Y-61860000D01*
X23953569Y-61846977D01*
X23783919Y-61795514D01*
X23627568Y-61711943D01*
X23490525Y-61599475D01*
X23378057Y-61462432D01*
X23294486Y-61306081D01*
X23243023Y-61136431D01*
X23225646Y-60960000D01*
X23243023Y-60783569D01*
X23294486Y-60613919D01*
X23378057Y-60457568D01*
X23490525Y-60320525D01*
X23627568Y-60208057D01*
X23783919Y-60124486D01*
X23953569Y-60073023D01*
X24085793Y-60060000D01*
X24174207Y-60060000D01*
X24306431Y-60073023D01*
X24306431Y-60073023D01*
G37*
G36*
X147496431Y-60073023D02*
X147666081Y-60124486D01*
X147822432Y-60208057D01*
X147959475Y-60320525D01*
X148071943Y-60457568D01*
X148155514Y-60613919D01*
X148206977Y-60783569D01*
X148224354Y-60960000D01*
X148206977Y-61136431D01*
X148155514Y-61306081D01*
X148071943Y-61462432D01*
X147959475Y-61599475D01*
X147822432Y-61711943D01*
X147666081Y-61795514D01*
X147496431Y-61846977D01*
X147364207Y-61860000D01*
X147275793Y-61860000D01*
X147143569Y-61846977D01*
X146973919Y-61795514D01*
X146817568Y-61711943D01*
X146680525Y-61599475D01*
X146568057Y-61462432D01*
X146484486Y-61306081D01*
X146433023Y-61136431D01*
X146415646Y-60960000D01*
X146433023Y-60783569D01*
X146484486Y-60613919D01*
X146568057Y-60457568D01*
X146680525Y-60320525D01*
X146817568Y-60208057D01*
X146973919Y-60124486D01*
X147143569Y-60073023D01*
X147275793Y-60060000D01*
X147364207Y-60060000D01*
X147496431Y-60073023D01*
X147496431Y-60073023D01*
G37*
G36*
X70026431Y-60073023D02*
X70196081Y-60124486D01*
X70352432Y-60208057D01*
X70489475Y-60320525D01*
X70601943Y-60457568D01*
X70685514Y-60613919D01*
X70736977Y-60783569D01*
X70754354Y-60960000D01*
X70736977Y-61136431D01*
X70685514Y-61306081D01*
X70601943Y-61462432D01*
X70489475Y-61599475D01*
X70352432Y-61711943D01*
X70196081Y-61795514D01*
X70026431Y-61846977D01*
X69894207Y-61860000D01*
X69805793Y-61860000D01*
X69673569Y-61846977D01*
X69503919Y-61795514D01*
X69347568Y-61711943D01*
X69210525Y-61599475D01*
X69098057Y-61462432D01*
X69014486Y-61306081D01*
X68963023Y-61136431D01*
X68945646Y-60960000D01*
X68963023Y-60783569D01*
X69014486Y-60613919D01*
X69098057Y-60457568D01*
X69210525Y-60320525D01*
X69347568Y-60208057D01*
X69503919Y-60124486D01*
X69673569Y-60073023D01*
X69805793Y-60060000D01*
X69894207Y-60060000D01*
X70026431Y-60073023D01*
X70026431Y-60073023D01*
G37*
G36*
X24306431Y-57533023D02*
X24476081Y-57584486D01*
X24632432Y-57668057D01*
X24769475Y-57780525D01*
X24881943Y-57917568D01*
X24965514Y-58073919D01*
X25016977Y-58243569D01*
X25034354Y-58420000D01*
X25016977Y-58596431D01*
X24965514Y-58766081D01*
X24881943Y-58922432D01*
X24769475Y-59059475D01*
X24632432Y-59171943D01*
X24476081Y-59255514D01*
X24306431Y-59306977D01*
X24174207Y-59320000D01*
X24085793Y-59320000D01*
X23953569Y-59306977D01*
X23783919Y-59255514D01*
X23627568Y-59171943D01*
X23490525Y-59059475D01*
X23378057Y-58922432D01*
X23294486Y-58766081D01*
X23243023Y-58596431D01*
X23225646Y-58420000D01*
X23243023Y-58243569D01*
X23294486Y-58073919D01*
X23378057Y-57917568D01*
X23490525Y-57780525D01*
X23627568Y-57668057D01*
X23783919Y-57584486D01*
X23953569Y-57533023D01*
X24085793Y-57520000D01*
X24174207Y-57520000D01*
X24306431Y-57533023D01*
X24306431Y-57533023D01*
G37*
G36*
X150036431Y-57533023D02*
X150206081Y-57584486D01*
X150362432Y-57668057D01*
X150499475Y-57780525D01*
X150611943Y-57917568D01*
X150695514Y-58073919D01*
X150746977Y-58243569D01*
X150764354Y-58420000D01*
X150746977Y-58596431D01*
X150695514Y-58766081D01*
X150611943Y-58922432D01*
X150499475Y-59059475D01*
X150362432Y-59171943D01*
X150206081Y-59255514D01*
X150036431Y-59306977D01*
X149904207Y-59320000D01*
X149815793Y-59320000D01*
X149683569Y-59306977D01*
X149513919Y-59255514D01*
X149357568Y-59171943D01*
X149220525Y-59059475D01*
X149108057Y-58922432D01*
X149024486Y-58766081D01*
X148973023Y-58596431D01*
X148955646Y-58420000D01*
X148973023Y-58243569D01*
X149024486Y-58073919D01*
X149108057Y-57917568D01*
X149220525Y-57780525D01*
X149357568Y-57668057D01*
X149513919Y-57584486D01*
X149683569Y-57533023D01*
X149815793Y-57520000D01*
X149904207Y-57520000D01*
X150036431Y-57533023D01*
X150036431Y-57533023D01*
G37*
G36*
X147496431Y-57533023D02*
X147666081Y-57584486D01*
X147822432Y-57668057D01*
X147959475Y-57780525D01*
X148071943Y-57917568D01*
X148155514Y-58073919D01*
X148206977Y-58243569D01*
X148224354Y-58420000D01*
X148206977Y-58596431D01*
X148155514Y-58766081D01*
X148071943Y-58922432D01*
X147959475Y-59059475D01*
X147822432Y-59171943D01*
X147666081Y-59255514D01*
X147496431Y-59306977D01*
X147364207Y-59320000D01*
X147275793Y-59320000D01*
X147143569Y-59306977D01*
X146973919Y-59255514D01*
X146817568Y-59171943D01*
X146680525Y-59059475D01*
X146568057Y-58922432D01*
X146484486Y-58766081D01*
X146433023Y-58596431D01*
X146415646Y-58420000D01*
X146433023Y-58243569D01*
X146484486Y-58073919D01*
X146568057Y-57917568D01*
X146680525Y-57780525D01*
X146817568Y-57668057D01*
X146973919Y-57584486D01*
X147143569Y-57533023D01*
X147275793Y-57520000D01*
X147364207Y-57520000D01*
X147496431Y-57533023D01*
X147496431Y-57533023D01*
G37*
G36*
X105586431Y-57533023D02*
X105756081Y-57584486D01*
X105912432Y-57668057D01*
X106049475Y-57780525D01*
X106161943Y-57917568D01*
X106245514Y-58073919D01*
X106296977Y-58243569D01*
X106314354Y-58420000D01*
X106296977Y-58596431D01*
X106245514Y-58766081D01*
X106161943Y-58922432D01*
X106049475Y-59059475D01*
X105912432Y-59171943D01*
X105756081Y-59255514D01*
X105586431Y-59306977D01*
X105454207Y-59320000D01*
X105365793Y-59320000D01*
X105233569Y-59306977D01*
X105063919Y-59255514D01*
X104907568Y-59171943D01*
X104770525Y-59059475D01*
X104658057Y-58922432D01*
X104574486Y-58766081D01*
X104523023Y-58596431D01*
X104505646Y-58420000D01*
X104523023Y-58243569D01*
X104574486Y-58073919D01*
X104658057Y-57917568D01*
X104770525Y-57780525D01*
X104907568Y-57668057D01*
X105063919Y-57584486D01*
X105233569Y-57533023D01*
X105365793Y-57520000D01*
X105454207Y-57520000D01*
X105586431Y-57533023D01*
X105586431Y-57533023D01*
G37*
G36*
X70026431Y-57533023D02*
X70196081Y-57584486D01*
X70352432Y-57668057D01*
X70489475Y-57780525D01*
X70601943Y-57917568D01*
X70685514Y-58073919D01*
X70736977Y-58243569D01*
X70754354Y-58420000D01*
X70736977Y-58596431D01*
X70685514Y-58766081D01*
X70601943Y-58922432D01*
X70489475Y-59059475D01*
X70352432Y-59171943D01*
X70196081Y-59255514D01*
X70026431Y-59306977D01*
X69894207Y-59320000D01*
X69805793Y-59320000D01*
X69673569Y-59306977D01*
X69503919Y-59255514D01*
X69347568Y-59171943D01*
X69210525Y-59059475D01*
X69098057Y-58922432D01*
X69014486Y-58766081D01*
X68963023Y-58596431D01*
X68945646Y-58420000D01*
X68963023Y-58243569D01*
X69014486Y-58073919D01*
X69098057Y-57917568D01*
X69210525Y-57780525D01*
X69347568Y-57668057D01*
X69503919Y-57584486D01*
X69673569Y-57533023D01*
X69805793Y-57520000D01*
X69894207Y-57520000D01*
X70026431Y-57533023D01*
X70026431Y-57533023D01*
G37*
G36*
X70026431Y-54993023D02*
X70196081Y-55044486D01*
X70352432Y-55128057D01*
X70489475Y-55240525D01*
X70601943Y-55377568D01*
X70685514Y-55533919D01*
X70736977Y-55703569D01*
X70754354Y-55880000D01*
X70736977Y-56056431D01*
X70685514Y-56226081D01*
X70601943Y-56382432D01*
X70489475Y-56519475D01*
X70352432Y-56631943D01*
X70196081Y-56715514D01*
X70026431Y-56766977D01*
X69894207Y-56780000D01*
X69805793Y-56780000D01*
X69673569Y-56766977D01*
X69503919Y-56715514D01*
X69347568Y-56631943D01*
X69210525Y-56519475D01*
X69098057Y-56382432D01*
X69014486Y-56226081D01*
X68963023Y-56056431D01*
X68945646Y-55880000D01*
X68963023Y-55703569D01*
X69014486Y-55533919D01*
X69098057Y-55377568D01*
X69210525Y-55240525D01*
X69347568Y-55128057D01*
X69503919Y-55044486D01*
X69673569Y-54993023D01*
X69805793Y-54980000D01*
X69894207Y-54980000D01*
X70026431Y-54993023D01*
X70026431Y-54993023D01*
G37*
G36*
X24306431Y-54993023D02*
X24476081Y-55044486D01*
X24632432Y-55128057D01*
X24769475Y-55240525D01*
X24881943Y-55377568D01*
X24965514Y-55533919D01*
X25016977Y-55703569D01*
X25034354Y-55880000D01*
X25016977Y-56056431D01*
X24965514Y-56226081D01*
X24881943Y-56382432D01*
X24769475Y-56519475D01*
X24632432Y-56631943D01*
X24476081Y-56715514D01*
X24306431Y-56766977D01*
X24174207Y-56780000D01*
X24085793Y-56780000D01*
X23953569Y-56766977D01*
X23783919Y-56715514D01*
X23627568Y-56631943D01*
X23490525Y-56519475D01*
X23378057Y-56382432D01*
X23294486Y-56226081D01*
X23243023Y-56056431D01*
X23225646Y-55880000D01*
X23243023Y-55703569D01*
X23294486Y-55533919D01*
X23378057Y-55377568D01*
X23490525Y-55240525D01*
X23627568Y-55128057D01*
X23783919Y-55044486D01*
X23953569Y-54993023D01*
X24085793Y-54980000D01*
X24174207Y-54980000D01*
X24306431Y-54993023D01*
X24306431Y-54993023D01*
G37*
G36*
X150036431Y-54993023D02*
X150206081Y-55044486D01*
X150362432Y-55128057D01*
X150499475Y-55240525D01*
X150611943Y-55377568D01*
X150695514Y-55533919D01*
X150746977Y-55703569D01*
X150764354Y-55880000D01*
X150746977Y-56056431D01*
X150695514Y-56226081D01*
X150611943Y-56382432D01*
X150499475Y-56519475D01*
X150362432Y-56631943D01*
X150206081Y-56715514D01*
X150036431Y-56766977D01*
X149904207Y-56780000D01*
X149815793Y-56780000D01*
X149683569Y-56766977D01*
X149513919Y-56715514D01*
X149357568Y-56631943D01*
X149220525Y-56519475D01*
X149108057Y-56382432D01*
X149024486Y-56226081D01*
X148973023Y-56056431D01*
X148955646Y-55880000D01*
X148973023Y-55703569D01*
X149024486Y-55533919D01*
X149108057Y-55377568D01*
X149220525Y-55240525D01*
X149357568Y-55128057D01*
X149513919Y-55044486D01*
X149683569Y-54993023D01*
X149815793Y-54980000D01*
X149904207Y-54980000D01*
X150036431Y-54993023D01*
X150036431Y-54993023D01*
G37*
G36*
X147496431Y-54993023D02*
X147666081Y-55044486D01*
X147822432Y-55128057D01*
X147959475Y-55240525D01*
X148071943Y-55377568D01*
X148155514Y-55533919D01*
X148206977Y-55703569D01*
X148224354Y-55880000D01*
X148206977Y-56056431D01*
X148155514Y-56226081D01*
X148071943Y-56382432D01*
X147959475Y-56519475D01*
X147822432Y-56631943D01*
X147666081Y-56715514D01*
X147496431Y-56766977D01*
X147364207Y-56780000D01*
X147275793Y-56780000D01*
X147143569Y-56766977D01*
X146973919Y-56715514D01*
X146817568Y-56631943D01*
X146680525Y-56519475D01*
X146568057Y-56382432D01*
X146484486Y-56226081D01*
X146433023Y-56056431D01*
X146415646Y-55880000D01*
X146433023Y-55703569D01*
X146484486Y-55533919D01*
X146568057Y-55377568D01*
X146680525Y-55240525D01*
X146817568Y-55128057D01*
X146973919Y-55044486D01*
X147143569Y-54993023D01*
X147275793Y-54980000D01*
X147364207Y-54980000D01*
X147496431Y-54993023D01*
X147496431Y-54993023D01*
G37*
G36*
X105586431Y-54993023D02*
X105756081Y-55044486D01*
X105912432Y-55128057D01*
X106049475Y-55240525D01*
X106161943Y-55377568D01*
X106245514Y-55533919D01*
X106296977Y-55703569D01*
X106314354Y-55880000D01*
X106296977Y-56056431D01*
X106245514Y-56226081D01*
X106161943Y-56382432D01*
X106049475Y-56519475D01*
X105912432Y-56631943D01*
X105756081Y-56715514D01*
X105586431Y-56766977D01*
X105454207Y-56780000D01*
X105365793Y-56780000D01*
X105233569Y-56766977D01*
X105063919Y-56715514D01*
X104907568Y-56631943D01*
X104770525Y-56519475D01*
X104658057Y-56382432D01*
X104574486Y-56226081D01*
X104523023Y-56056431D01*
X104505646Y-55880000D01*
X104523023Y-55703569D01*
X104574486Y-55533919D01*
X104658057Y-55377568D01*
X104770525Y-55240525D01*
X104907568Y-55128057D01*
X105063919Y-55044486D01*
X105233569Y-54993023D01*
X105365793Y-54980000D01*
X105454207Y-54980000D01*
X105586431Y-54993023D01*
X105586431Y-54993023D01*
G37*
G36*
X25030000Y-54240000D02*
X23230000Y-54240000D01*
X23230000Y-52440000D01*
X25030000Y-52440000D01*
X25030000Y-54240000D01*
X25030000Y-54240000D01*
G37*
G36*
X150036431Y-52453023D02*
X150206081Y-52504486D01*
X150362432Y-52588057D01*
X150499475Y-52700525D01*
X150611943Y-52837568D01*
X150695514Y-52993919D01*
X150746977Y-53163569D01*
X150764354Y-53340000D01*
X150746977Y-53516431D01*
X150695514Y-53686081D01*
X150611943Y-53842432D01*
X150499475Y-53979475D01*
X150362432Y-54091943D01*
X150206081Y-54175514D01*
X150036431Y-54226977D01*
X149904207Y-54240000D01*
X149815793Y-54240000D01*
X149683569Y-54226977D01*
X149513919Y-54175514D01*
X149357568Y-54091943D01*
X149220525Y-53979475D01*
X149108057Y-53842432D01*
X149024486Y-53686081D01*
X148973023Y-53516431D01*
X148955646Y-53340000D01*
X148973023Y-53163569D01*
X149024486Y-52993919D01*
X149108057Y-52837568D01*
X149220525Y-52700525D01*
X149357568Y-52588057D01*
X149513919Y-52504486D01*
X149683569Y-52453023D01*
X149815793Y-52440000D01*
X149904207Y-52440000D01*
X150036431Y-52453023D01*
X150036431Y-52453023D01*
G37*
G36*
X147496431Y-52453023D02*
X147666081Y-52504486D01*
X147822432Y-52588057D01*
X147959475Y-52700525D01*
X148071943Y-52837568D01*
X148155514Y-52993919D01*
X148206977Y-53163569D01*
X148224354Y-53340000D01*
X148206977Y-53516431D01*
X148155514Y-53686081D01*
X148071943Y-53842432D01*
X147959475Y-53979475D01*
X147822432Y-54091943D01*
X147666081Y-54175514D01*
X147496431Y-54226977D01*
X147364207Y-54240000D01*
X147275793Y-54240000D01*
X147143569Y-54226977D01*
X146973919Y-54175514D01*
X146817568Y-54091943D01*
X146680525Y-53979475D01*
X146568057Y-53842432D01*
X146484486Y-53686081D01*
X146433023Y-53516431D01*
X146415646Y-53340000D01*
X146433023Y-53163569D01*
X146484486Y-52993919D01*
X146568057Y-52837568D01*
X146680525Y-52700525D01*
X146817568Y-52588057D01*
X146973919Y-52504486D01*
X147143569Y-52453023D01*
X147275793Y-52440000D01*
X147364207Y-52440000D01*
X147496431Y-52453023D01*
X147496431Y-52453023D01*
G37*
G36*
X70750000Y-54240000D02*
X68950000Y-54240000D01*
X68950000Y-52440000D01*
X70750000Y-52440000D01*
X70750000Y-54240000D01*
X70750000Y-54240000D01*
G37*
G36*
X106310000Y-54240000D02*
X104510000Y-54240000D01*
X104510000Y-52440000D01*
X106310000Y-52440000D01*
X106310000Y-54240000D01*
X106310000Y-54240000D01*
G37*
G36*
X150036431Y-49913023D02*
X150206081Y-49964486D01*
X150362432Y-50048057D01*
X150499475Y-50160525D01*
X150611943Y-50297568D01*
X150695514Y-50453919D01*
X150746977Y-50623569D01*
X150764354Y-50800000D01*
X150746977Y-50976431D01*
X150695514Y-51146081D01*
X150611943Y-51302432D01*
X150499475Y-51439475D01*
X150362432Y-51551943D01*
X150206081Y-51635514D01*
X150036431Y-51686977D01*
X149904207Y-51700000D01*
X149815793Y-51700000D01*
X149683569Y-51686977D01*
X149513919Y-51635514D01*
X149357568Y-51551943D01*
X149220525Y-51439475D01*
X149108057Y-51302432D01*
X149024486Y-51146081D01*
X148973023Y-50976431D01*
X148955646Y-50800000D01*
X148973023Y-50623569D01*
X149024486Y-50453919D01*
X149108057Y-50297568D01*
X149220525Y-50160525D01*
X149357568Y-50048057D01*
X149513919Y-49964486D01*
X149683569Y-49913023D01*
X149815793Y-49900000D01*
X149904207Y-49900000D01*
X150036431Y-49913023D01*
X150036431Y-49913023D01*
G37*
G36*
X147496431Y-49913023D02*
X147666081Y-49964486D01*
X147822432Y-50048057D01*
X147959475Y-50160525D01*
X148071943Y-50297568D01*
X148155514Y-50453919D01*
X148206977Y-50623569D01*
X148224354Y-50800000D01*
X148206977Y-50976431D01*
X148155514Y-51146081D01*
X148071943Y-51302432D01*
X147959475Y-51439475D01*
X147822432Y-51551943D01*
X147666081Y-51635514D01*
X147496431Y-51686977D01*
X147364207Y-51700000D01*
X147275793Y-51700000D01*
X147143569Y-51686977D01*
X146973919Y-51635514D01*
X146817568Y-51551943D01*
X146680525Y-51439475D01*
X146568057Y-51302432D01*
X146484486Y-51146081D01*
X146433023Y-50976431D01*
X146415646Y-50800000D01*
X146433023Y-50623569D01*
X146484486Y-50453919D01*
X146568057Y-50297568D01*
X146680525Y-50160525D01*
X146817568Y-50048057D01*
X146973919Y-49964486D01*
X147143569Y-49913023D01*
X147275793Y-49900000D01*
X147364207Y-49900000D01*
X147496431Y-49913023D01*
X147496431Y-49913023D01*
G37*
G36*
X150036431Y-47373023D02*
X150206081Y-47424486D01*
X150362432Y-47508057D01*
X150499475Y-47620525D01*
X150611943Y-47757568D01*
X150695514Y-47913919D01*
X150746977Y-48083569D01*
X150764354Y-48260000D01*
X150746977Y-48436431D01*
X150695514Y-48606081D01*
X150611943Y-48762432D01*
X150499475Y-48899475D01*
X150362432Y-49011943D01*
X150206081Y-49095514D01*
X150036431Y-49146977D01*
X149904207Y-49160000D01*
X149815793Y-49160000D01*
X149683569Y-49146977D01*
X149513919Y-49095514D01*
X149357568Y-49011943D01*
X149220525Y-48899475D01*
X149108057Y-48762432D01*
X149024486Y-48606081D01*
X148973023Y-48436431D01*
X148955646Y-48260000D01*
X148973023Y-48083569D01*
X149024486Y-47913919D01*
X149108057Y-47757568D01*
X149220525Y-47620525D01*
X149357568Y-47508057D01*
X149513919Y-47424486D01*
X149683569Y-47373023D01*
X149815793Y-47360000D01*
X149904207Y-47360000D01*
X150036431Y-47373023D01*
X150036431Y-47373023D01*
G37*
G36*
X147496431Y-47373023D02*
X147666081Y-47424486D01*
X147822432Y-47508057D01*
X147959475Y-47620525D01*
X148071943Y-47757568D01*
X148155514Y-47913919D01*
X148206977Y-48083569D01*
X148224354Y-48260000D01*
X148206977Y-48436431D01*
X148155514Y-48606081D01*
X148071943Y-48762432D01*
X147959475Y-48899475D01*
X147822432Y-49011943D01*
X147666081Y-49095514D01*
X147496431Y-49146977D01*
X147364207Y-49160000D01*
X147275793Y-49160000D01*
X147143569Y-49146977D01*
X146973919Y-49095514D01*
X146817568Y-49011943D01*
X146680525Y-48899475D01*
X146568057Y-48762432D01*
X146484486Y-48606081D01*
X146433023Y-48436431D01*
X146415646Y-48260000D01*
X146433023Y-48083569D01*
X146484486Y-47913919D01*
X146568057Y-47757568D01*
X146680525Y-47620525D01*
X146817568Y-47508057D01*
X146973919Y-47424486D01*
X147143569Y-47373023D01*
X147275793Y-47360000D01*
X147364207Y-47360000D01*
X147496431Y-47373023D01*
X147496431Y-47373023D01*
G37*
G36*
X150036431Y-44833023D02*
X150206081Y-44884486D01*
X150362432Y-44968057D01*
X150499475Y-45080525D01*
X150611943Y-45217568D01*
X150695514Y-45373919D01*
X150746977Y-45543569D01*
X150764354Y-45720000D01*
X150746977Y-45896431D01*
X150695514Y-46066081D01*
X150611943Y-46222432D01*
X150499475Y-46359475D01*
X150362432Y-46471943D01*
X150206081Y-46555514D01*
X150036431Y-46606977D01*
X149904207Y-46620000D01*
X149815793Y-46620000D01*
X149683569Y-46606977D01*
X149513919Y-46555514D01*
X149357568Y-46471943D01*
X149220525Y-46359475D01*
X149108057Y-46222432D01*
X149024486Y-46066081D01*
X148973023Y-45896431D01*
X148955646Y-45720000D01*
X148973023Y-45543569D01*
X149024486Y-45373919D01*
X149108057Y-45217568D01*
X149220525Y-45080525D01*
X149357568Y-44968057D01*
X149513919Y-44884486D01*
X149683569Y-44833023D01*
X149815793Y-44820000D01*
X149904207Y-44820000D01*
X150036431Y-44833023D01*
X150036431Y-44833023D01*
G37*
G36*
X147496431Y-44833023D02*
X147666081Y-44884486D01*
X147822432Y-44968057D01*
X147959475Y-45080525D01*
X148071943Y-45217568D01*
X148155514Y-45373919D01*
X148206977Y-45543569D01*
X148224354Y-45720000D01*
X148206977Y-45896431D01*
X148155514Y-46066081D01*
X148071943Y-46222432D01*
X147959475Y-46359475D01*
X147822432Y-46471943D01*
X147666081Y-46555514D01*
X147496431Y-46606977D01*
X147364207Y-46620000D01*
X147275793Y-46620000D01*
X147143569Y-46606977D01*
X146973919Y-46555514D01*
X146817568Y-46471943D01*
X146680525Y-46359475D01*
X146568057Y-46222432D01*
X146484486Y-46066081D01*
X146433023Y-45896431D01*
X146415646Y-45720000D01*
X146433023Y-45543569D01*
X146484486Y-45373919D01*
X146568057Y-45217568D01*
X146680525Y-45080525D01*
X146817568Y-44968057D01*
X146973919Y-44884486D01*
X147143569Y-44833023D01*
X147275793Y-44820000D01*
X147364207Y-44820000D01*
X147496431Y-44833023D01*
X147496431Y-44833023D01*
G37*
G36*
X147496431Y-42293023D02*
X147666081Y-42344486D01*
X147822432Y-42428057D01*
X147959475Y-42540525D01*
X148071943Y-42677568D01*
X148155514Y-42833919D01*
X148206977Y-43003569D01*
X148224354Y-43180000D01*
X148206977Y-43356431D01*
X148155514Y-43526081D01*
X148071943Y-43682432D01*
X147959475Y-43819475D01*
X147822432Y-43931943D01*
X147666081Y-44015514D01*
X147496431Y-44066977D01*
X147364207Y-44080000D01*
X147275793Y-44080000D01*
X147143569Y-44066977D01*
X146973919Y-44015514D01*
X146817568Y-43931943D01*
X146680525Y-43819475D01*
X146568057Y-43682432D01*
X146484486Y-43526081D01*
X146433023Y-43356431D01*
X146415646Y-43180000D01*
X146433023Y-43003569D01*
X146484486Y-42833919D01*
X146568057Y-42677568D01*
X146680525Y-42540525D01*
X146817568Y-42428057D01*
X146973919Y-42344486D01*
X147143569Y-42293023D01*
X147275793Y-42280000D01*
X147364207Y-42280000D01*
X147496431Y-42293023D01*
X147496431Y-42293023D01*
G37*
G36*
X150036431Y-42293023D02*
X150206081Y-42344486D01*
X150362432Y-42428057D01*
X150499475Y-42540525D01*
X150611943Y-42677568D01*
X150695514Y-42833919D01*
X150746977Y-43003569D01*
X150764354Y-43180000D01*
X150746977Y-43356431D01*
X150695514Y-43526081D01*
X150611943Y-43682432D01*
X150499475Y-43819475D01*
X150362432Y-43931943D01*
X150206081Y-44015514D01*
X150036431Y-44066977D01*
X149904207Y-44080000D01*
X149815793Y-44080000D01*
X149683569Y-44066977D01*
X149513919Y-44015514D01*
X149357568Y-43931943D01*
X149220525Y-43819475D01*
X149108057Y-43682432D01*
X149024486Y-43526081D01*
X148973023Y-43356431D01*
X148955646Y-43180000D01*
X148973023Y-43003569D01*
X149024486Y-42833919D01*
X149108057Y-42677568D01*
X149220525Y-42540525D01*
X149357568Y-42428057D01*
X149513919Y-42344486D01*
X149683569Y-42293023D01*
X149815793Y-42280000D01*
X149904207Y-42280000D01*
X150036431Y-42293023D01*
X150036431Y-42293023D01*
G37*
G36*
X147496431Y-39753023D02*
X147666081Y-39804486D01*
X147822432Y-39888057D01*
X147959475Y-40000525D01*
X148071943Y-40137568D01*
X148155514Y-40293919D01*
X148206977Y-40463569D01*
X148224354Y-40640000D01*
X148206977Y-40816431D01*
X148155514Y-40986081D01*
X148071943Y-41142432D01*
X147959475Y-41279475D01*
X147822432Y-41391943D01*
X147666081Y-41475514D01*
X147496431Y-41526977D01*
X147364207Y-41540000D01*
X147275793Y-41540000D01*
X147143569Y-41526977D01*
X146973919Y-41475514D01*
X146817568Y-41391943D01*
X146680525Y-41279475D01*
X146568057Y-41142432D01*
X146484486Y-40986081D01*
X146433023Y-40816431D01*
X146415646Y-40640000D01*
X146433023Y-40463569D01*
X146484486Y-40293919D01*
X146568057Y-40137568D01*
X146680525Y-40000525D01*
X146817568Y-39888057D01*
X146973919Y-39804486D01*
X147143569Y-39753023D01*
X147275793Y-39740000D01*
X147364207Y-39740000D01*
X147496431Y-39753023D01*
X147496431Y-39753023D01*
G37*
G36*
X150036431Y-39753023D02*
X150206081Y-39804486D01*
X150362432Y-39888057D01*
X150499475Y-40000525D01*
X150611943Y-40137568D01*
X150695514Y-40293919D01*
X150746977Y-40463569D01*
X150764354Y-40640000D01*
X150746977Y-40816431D01*
X150695514Y-40986081D01*
X150611943Y-41142432D01*
X150499475Y-41279475D01*
X150362432Y-41391943D01*
X150206081Y-41475514D01*
X150036431Y-41526977D01*
X149904207Y-41540000D01*
X149815793Y-41540000D01*
X149683569Y-41526977D01*
X149513919Y-41475514D01*
X149357568Y-41391943D01*
X149220525Y-41279475D01*
X149108057Y-41142432D01*
X149024486Y-40986081D01*
X148973023Y-40816431D01*
X148955646Y-40640000D01*
X148973023Y-40463569D01*
X149024486Y-40293919D01*
X149108057Y-40137568D01*
X149220525Y-40000525D01*
X149357568Y-39888057D01*
X149513919Y-39804486D01*
X149683569Y-39753023D01*
X149815793Y-39740000D01*
X149904207Y-39740000D01*
X150036431Y-39753023D01*
X150036431Y-39753023D01*
G37*
G36*
X147496431Y-37213023D02*
X147666081Y-37264486D01*
X147822432Y-37348057D01*
X147959475Y-37460525D01*
X148071943Y-37597568D01*
X148155514Y-37753919D01*
X148206977Y-37923569D01*
X148224354Y-38100000D01*
X148206977Y-38276431D01*
X148155514Y-38446081D01*
X148071943Y-38602432D01*
X147959475Y-38739475D01*
X147822432Y-38851943D01*
X147666081Y-38935514D01*
X147496431Y-38986977D01*
X147364207Y-39000000D01*
X147275793Y-39000000D01*
X147143569Y-38986977D01*
X146973919Y-38935514D01*
X146817568Y-38851943D01*
X146680525Y-38739475D01*
X146568057Y-38602432D01*
X146484486Y-38446081D01*
X146433023Y-38276431D01*
X146415646Y-38100000D01*
X146433023Y-37923569D01*
X146484486Y-37753919D01*
X146568057Y-37597568D01*
X146680525Y-37460525D01*
X146817568Y-37348057D01*
X146973919Y-37264486D01*
X147143569Y-37213023D01*
X147275793Y-37200000D01*
X147364207Y-37200000D01*
X147496431Y-37213023D01*
X147496431Y-37213023D01*
G37*
G36*
X150036431Y-37213023D02*
X150206081Y-37264486D01*
X150362432Y-37348057D01*
X150499475Y-37460525D01*
X150611943Y-37597568D01*
X150695514Y-37753919D01*
X150746977Y-37923569D01*
X150764354Y-38100000D01*
X150746977Y-38276431D01*
X150695514Y-38446081D01*
X150611943Y-38602432D01*
X150499475Y-38739475D01*
X150362432Y-38851943D01*
X150206081Y-38935514D01*
X150036431Y-38986977D01*
X149904207Y-39000000D01*
X149815793Y-39000000D01*
X149683569Y-38986977D01*
X149513919Y-38935514D01*
X149357568Y-38851943D01*
X149220525Y-38739475D01*
X149108057Y-38602432D01*
X149024486Y-38446081D01*
X148973023Y-38276431D01*
X148955646Y-38100000D01*
X148973023Y-37923569D01*
X149024486Y-37753919D01*
X149108057Y-37597568D01*
X149220525Y-37460525D01*
X149357568Y-37348057D01*
X149513919Y-37264486D01*
X149683569Y-37213023D01*
X149815793Y-37200000D01*
X149904207Y-37200000D01*
X150036431Y-37213023D01*
X150036431Y-37213023D01*
G37*
G36*
X147496431Y-34673023D02*
X147666081Y-34724486D01*
X147822432Y-34808057D01*
X147959475Y-34920525D01*
X148071943Y-35057568D01*
X148155514Y-35213919D01*
X148206977Y-35383569D01*
X148224354Y-35560000D01*
X148206977Y-35736431D01*
X148155514Y-35906081D01*
X148071943Y-36062432D01*
X147959475Y-36199475D01*
X147822432Y-36311943D01*
X147666081Y-36395514D01*
X147496431Y-36446977D01*
X147364207Y-36460000D01*
X147275793Y-36460000D01*
X147143569Y-36446977D01*
X146973919Y-36395514D01*
X146817568Y-36311943D01*
X146680525Y-36199475D01*
X146568057Y-36062432D01*
X146484486Y-35906081D01*
X146433023Y-35736431D01*
X146415646Y-35560000D01*
X146433023Y-35383569D01*
X146484486Y-35213919D01*
X146568057Y-35057568D01*
X146680525Y-34920525D01*
X146817568Y-34808057D01*
X146973919Y-34724486D01*
X147143569Y-34673023D01*
X147275793Y-34660000D01*
X147364207Y-34660000D01*
X147496431Y-34673023D01*
X147496431Y-34673023D01*
G37*
G36*
X150036431Y-34673023D02*
X150206081Y-34724486D01*
X150362432Y-34808057D01*
X150499475Y-34920525D01*
X150611943Y-35057568D01*
X150695514Y-35213919D01*
X150746977Y-35383569D01*
X150764354Y-35560000D01*
X150746977Y-35736431D01*
X150695514Y-35906081D01*
X150611943Y-36062432D01*
X150499475Y-36199475D01*
X150362432Y-36311943D01*
X150206081Y-36395514D01*
X150036431Y-36446977D01*
X149904207Y-36460000D01*
X149815793Y-36460000D01*
X149683569Y-36446977D01*
X149513919Y-36395514D01*
X149357568Y-36311943D01*
X149220525Y-36199475D01*
X149108057Y-36062432D01*
X149024486Y-35906081D01*
X148973023Y-35736431D01*
X148955646Y-35560000D01*
X148973023Y-35383569D01*
X149024486Y-35213919D01*
X149108057Y-35057568D01*
X149220525Y-34920525D01*
X149357568Y-34808057D01*
X149513919Y-34724486D01*
X149683569Y-34673023D01*
X149815793Y-34660000D01*
X149904207Y-34660000D01*
X150036431Y-34673023D01*
X150036431Y-34673023D01*
G37*
G36*
X147496431Y-32133023D02*
X147666081Y-32184486D01*
X147822432Y-32268057D01*
X147959475Y-32380525D01*
X148071943Y-32517568D01*
X148155514Y-32673919D01*
X148206977Y-32843569D01*
X148224354Y-33020000D01*
X148206977Y-33196431D01*
X148155514Y-33366081D01*
X148071943Y-33522432D01*
X147959475Y-33659475D01*
X147822432Y-33771943D01*
X147666081Y-33855514D01*
X147496431Y-33906977D01*
X147364207Y-33920000D01*
X147275793Y-33920000D01*
X147143569Y-33906977D01*
X146973919Y-33855514D01*
X146817568Y-33771943D01*
X146680525Y-33659475D01*
X146568057Y-33522432D01*
X146484486Y-33366081D01*
X146433023Y-33196431D01*
X146415646Y-33020000D01*
X146433023Y-32843569D01*
X146484486Y-32673919D01*
X146568057Y-32517568D01*
X146680525Y-32380525D01*
X146817568Y-32268057D01*
X146973919Y-32184486D01*
X147143569Y-32133023D01*
X147275793Y-32120000D01*
X147364207Y-32120000D01*
X147496431Y-32133023D01*
X147496431Y-32133023D01*
G37*
G36*
X150036431Y-32133023D02*
X150206081Y-32184486D01*
X150362432Y-32268057D01*
X150499475Y-32380525D01*
X150611943Y-32517568D01*
X150695514Y-32673919D01*
X150746977Y-32843569D01*
X150764354Y-33020000D01*
X150746977Y-33196431D01*
X150695514Y-33366081D01*
X150611943Y-33522432D01*
X150499475Y-33659475D01*
X150362432Y-33771943D01*
X150206081Y-33855514D01*
X150036431Y-33906977D01*
X149904207Y-33920000D01*
X149815793Y-33920000D01*
X149683569Y-33906977D01*
X149513919Y-33855514D01*
X149357568Y-33771943D01*
X149220525Y-33659475D01*
X149108057Y-33522432D01*
X149024486Y-33366081D01*
X148973023Y-33196431D01*
X148955646Y-33020000D01*
X148973023Y-32843569D01*
X149024486Y-32673919D01*
X149108057Y-32517568D01*
X149220525Y-32380525D01*
X149357568Y-32268057D01*
X149513919Y-32184486D01*
X149683569Y-32133023D01*
X149815793Y-32120000D01*
X149904207Y-32120000D01*
X150036431Y-32133023D01*
X150036431Y-32133023D01*
G37*
G36*
X150036431Y-29593023D02*
X150206081Y-29644486D01*
X150362432Y-29728057D01*
X150499475Y-29840525D01*
X150611943Y-29977568D01*
X150695514Y-30133919D01*
X150746977Y-30303569D01*
X150764354Y-30480000D01*
X150746977Y-30656431D01*
X150695514Y-30826081D01*
X150611943Y-30982432D01*
X150499475Y-31119475D01*
X150362432Y-31231943D01*
X150206081Y-31315514D01*
X150036431Y-31366977D01*
X149904207Y-31380000D01*
X149815793Y-31380000D01*
X149683569Y-31366977D01*
X149513919Y-31315514D01*
X149357568Y-31231943D01*
X149220525Y-31119475D01*
X149108057Y-30982432D01*
X149024486Y-30826081D01*
X148973023Y-30656431D01*
X148955646Y-30480000D01*
X148973023Y-30303569D01*
X149024486Y-30133919D01*
X149108057Y-29977568D01*
X149220525Y-29840525D01*
X149357568Y-29728057D01*
X149513919Y-29644486D01*
X149683569Y-29593023D01*
X149815793Y-29580000D01*
X149904207Y-29580000D01*
X150036431Y-29593023D01*
X150036431Y-29593023D01*
G37*
G36*
X148220000Y-31380000D02*
X146420000Y-31380000D01*
X146420000Y-29580000D01*
X148220000Y-29580000D01*
X148220000Y-31380000D01*
X148220000Y-31380000D01*
G37*
G36*
X264801719Y-13124545D02*
X265202089Y-13290384D01*
X265202091Y-13290385D01*
X265562418Y-13531148D01*
X265868852Y-13837582D01*
X265868854Y-13837585D01*
X266109616Y-14197911D01*
X266275455Y-14598281D01*
X266360000Y-15023318D01*
X266360000Y-15456682D01*
X266275455Y-15881719D01*
X266109616Y-16282089D01*
X266109615Y-16282091D01*
X265868852Y-16642418D01*
X265562418Y-16948852D01*
X265202091Y-17189615D01*
X265202090Y-17189616D01*
X265202089Y-17189616D01*
X264801719Y-17355455D01*
X264376682Y-17440000D01*
X263943318Y-17440000D01*
X263518281Y-17355455D01*
X263117911Y-17189616D01*
X263117910Y-17189616D01*
X263117909Y-17189615D01*
X262757582Y-16948852D01*
X262451148Y-16642418D01*
X262210385Y-16282091D01*
X262210384Y-16282089D01*
X262044545Y-15881719D01*
X261960000Y-15456682D01*
X261960000Y-15023318D01*
X262044545Y-14598281D01*
X262210384Y-14197911D01*
X262451146Y-13837585D01*
X262451148Y-13837582D01*
X262757582Y-13531148D01*
X263117909Y-13290385D01*
X263117911Y-13290384D01*
X263518281Y-13124545D01*
X263943318Y-13040000D01*
X264376682Y-13040000D01*
X264801719Y-13124545D01*
X264801719Y-13124545D01*
G37*
G36*
X15881719Y-13124545D02*
X16282089Y-13290384D01*
X16282091Y-13290385D01*
X16642418Y-13531148D01*
X16948852Y-13837582D01*
X16948854Y-13837585D01*
X17189616Y-14197911D01*
X17355455Y-14598281D01*
X17440000Y-15023318D01*
X17440000Y-15456682D01*
X17355455Y-15881719D01*
X17189616Y-16282089D01*
X17189615Y-16282091D01*
X16948852Y-16642418D01*
X16642418Y-16948852D01*
X16282091Y-17189615D01*
X16282090Y-17189616D01*
X16282089Y-17189616D01*
X15881719Y-17355455D01*
X15456682Y-17440000D01*
X15023318Y-17440000D01*
X14598281Y-17355455D01*
X14197911Y-17189616D01*
X14197910Y-17189616D01*
X14197909Y-17189615D01*
X13837582Y-16948852D01*
X13531148Y-16642418D01*
X13290385Y-16282091D01*
X13290384Y-16282089D01*
X13124545Y-15881719D01*
X13040000Y-15456682D01*
X13040000Y-15023318D01*
X13124545Y-14598281D01*
X13290384Y-14197911D01*
X13531146Y-13837585D01*
X13531148Y-13837582D01*
X13837582Y-13531148D01*
X14197909Y-13290385D01*
X14197911Y-13290384D01*
X14598281Y-13124545D01*
X15023318Y-13040000D01*
X15456682Y-13040000D01*
X15881719Y-13124545D01*
X15881719Y-13124545D01*
G37*
M02*
