G04 #@! TF.GenerationSoftware,KiCad,Pcbnew,5.0.1*
G04 #@! TF.CreationDate,2018-12-21T00:14:18+11:00*
G04 #@! TF.ProjectId,cpld-cpu,63706C642D6370752E6B696361645F70,rev?*
G04 #@! TF.SameCoordinates,Original*
G04 #@! TF.FileFunction,Paste,Top*
G04 #@! TF.FilePolarity,Positive*
%FSLAX46Y46*%
G04 Gerber Fmt 4.6, Leading zero omitted, Abs format (unit mm)*
G04 Created by KiCad (PCBNEW 5.0.1) date Fri 21 Dec 2018 00:14:18 AEDT*
%MOMM*%
%LPD*%
G01*
G04 APERTURE LIST*
%ADD10R,1.500000X1.300000*%
%ADD11R,1.550000X1.300000*%
%ADD12R,1.500000X1.250000*%
%ADD13R,1.250000X1.500000*%
%ADD14R,0.550000X1.500000*%
%ADD15R,1.500000X0.550000*%
%ADD16R,1.600000X0.600000*%
%ADD17R,1.300000X1.500000*%
G04 APERTURE END LIST*
D10*
G04 #@! TO.C,D131*
X51990000Y-68580000D03*
X54690000Y-68580000D03*
G04 #@! TD*
G04 #@! TO.C,R209*
X49610000Y-68580000D03*
X46910000Y-68580000D03*
G04 #@! TD*
D11*
G04 #@! TO.C,SW4*
X230035000Y-157190000D03*
X222085000Y-157190000D03*
X230035000Y-152690000D03*
X222085000Y-152690000D03*
G04 #@! TD*
G04 #@! TO.C,SW12*
X252565000Y-183170000D03*
X260515000Y-183170000D03*
X252565000Y-187670000D03*
X260515000Y-187670000D03*
G04 #@! TD*
G04 #@! TO.C,SW11*
X260515000Y-167350000D03*
X252565000Y-167350000D03*
X260515000Y-162850000D03*
X252565000Y-162850000D03*
G04 #@! TD*
G04 #@! TO.C,SW10*
X237325000Y-162850000D03*
X245275000Y-162850000D03*
X237325000Y-167350000D03*
X245275000Y-167350000D03*
G04 #@! TD*
G04 #@! TO.C,SW9*
X260515000Y-197830000D03*
X252565000Y-197830000D03*
X260515000Y-193330000D03*
X252565000Y-193330000D03*
G04 #@! TD*
G04 #@! TO.C,SW8*
X252565000Y-173010000D03*
X260515000Y-173010000D03*
X252565000Y-177510000D03*
X260515000Y-177510000D03*
G04 #@! TD*
G04 #@! TO.C,SW7*
X260515000Y-157190000D03*
X252565000Y-157190000D03*
X260515000Y-152690000D03*
X252565000Y-152690000D03*
G04 #@! TD*
G04 #@! TO.C,SW6*
X237325000Y-152690000D03*
X245275000Y-152690000D03*
X237325000Y-157190000D03*
X245275000Y-157190000D03*
G04 #@! TD*
G04 #@! TO.C,SW5*
X245275000Y-197830000D03*
X237325000Y-197830000D03*
X245275000Y-193330000D03*
X237325000Y-193330000D03*
G04 #@! TD*
D12*
G04 #@! TO.C,C53*
X255250000Y-190500000D03*
X252750000Y-190500000D03*
G04 #@! TD*
G04 #@! TO.C,C51*
X237510000Y-170180000D03*
X240010000Y-170180000D03*
G04 #@! TD*
G04 #@! TO.C,C52*
X255250000Y-170180000D03*
X252750000Y-170180000D03*
G04 #@! TD*
G04 #@! TO.C,C50*
X252750000Y-200660000D03*
X255250000Y-200660000D03*
G04 #@! TD*
G04 #@! TO.C,C49*
X255250000Y-180340000D03*
X252750000Y-180340000D03*
G04 #@! TD*
G04 #@! TO.C,C48*
X252750000Y-160020000D03*
X255250000Y-160020000D03*
G04 #@! TD*
G04 #@! TO.C,C47*
X240010000Y-160020000D03*
X237510000Y-160020000D03*
G04 #@! TD*
G04 #@! TO.C,C46*
X234930000Y-187960000D03*
X232430000Y-187960000D03*
G04 #@! TD*
D13*
G04 #@! TO.C,C45*
X223520000Y-175260000D03*
X223520000Y-172760000D03*
G04 #@! TD*
G04 #@! TO.C,C44*
X218440000Y-199330000D03*
X218440000Y-196830000D03*
G04 #@! TD*
D12*
G04 #@! TO.C,C43*
X240010000Y-200660000D03*
X237510000Y-200660000D03*
G04 #@! TD*
G04 #@! TO.C,C42*
X222270000Y-160020000D03*
X224770000Y-160020000D03*
G04 #@! TD*
D14*
G04 #@! TO.C,U14*
X216980000Y-179720000D03*
X217780000Y-179720000D03*
X218580000Y-179720000D03*
X219380000Y-179720000D03*
X220180000Y-179720000D03*
X220980000Y-179720000D03*
X221780000Y-179720000D03*
X222580000Y-179720000D03*
X223380000Y-179720000D03*
X224180000Y-179720000D03*
X224980000Y-179720000D03*
D15*
X226680000Y-181420000D03*
X226680000Y-182220000D03*
X226680000Y-183020000D03*
X226680000Y-183820000D03*
X226680000Y-184620000D03*
X226680000Y-185420000D03*
X226680000Y-186220000D03*
X226680000Y-187020000D03*
X226680000Y-187820000D03*
X226680000Y-188620000D03*
X226680000Y-189420000D03*
D14*
X224980000Y-191120000D03*
X224180000Y-191120000D03*
X223380000Y-191120000D03*
X222580000Y-191120000D03*
X221780000Y-191120000D03*
X220980000Y-191120000D03*
X220180000Y-191120000D03*
X219380000Y-191120000D03*
X218580000Y-191120000D03*
X217780000Y-191120000D03*
X216980000Y-191120000D03*
D15*
X215280000Y-189420000D03*
X215280000Y-188620000D03*
X215280000Y-187820000D03*
X215280000Y-187020000D03*
X215280000Y-186220000D03*
X215280000Y-185420000D03*
X215280000Y-184620000D03*
X215280000Y-183820000D03*
X215280000Y-183020000D03*
X215280000Y-182220000D03*
X215280000Y-181420000D03*
G04 #@! TD*
D10*
G04 #@! TO.C,D130*
X212170000Y-170180000D03*
X209470000Y-170180000D03*
G04 #@! TD*
G04 #@! TO.C,D128*
X209470000Y-160020000D03*
X212170000Y-160020000D03*
G04 #@! TD*
G04 #@! TO.C,D127*
X212170000Y-154940000D03*
X209470000Y-154940000D03*
G04 #@! TD*
G04 #@! TO.C,D129*
X209470000Y-165100000D03*
X212170000Y-165100000D03*
G04 #@! TD*
G04 #@! TO.C,R196*
X229950000Y-160020000D03*
X227250000Y-160020000D03*
G04 #@! TD*
G04 #@! TO.C,R197*
X242490000Y-200660000D03*
X245190000Y-200660000D03*
G04 #@! TD*
G04 #@! TO.C,R198*
X207090000Y-154940000D03*
X204390000Y-154940000D03*
G04 #@! TD*
G04 #@! TO.C,R199*
X204390000Y-160020000D03*
X207090000Y-160020000D03*
G04 #@! TD*
G04 #@! TO.C,R200*
X207090000Y-165100000D03*
X204390000Y-165100000D03*
G04 #@! TD*
G04 #@! TO.C,R201*
X204390000Y-170180000D03*
X207090000Y-170180000D03*
G04 #@! TD*
G04 #@! TO.C,R202*
X245190000Y-160020000D03*
X242490000Y-160020000D03*
G04 #@! TD*
G04 #@! TO.C,R203*
X257730000Y-160020000D03*
X260430000Y-160020000D03*
G04 #@! TD*
G04 #@! TO.C,R204*
X260430000Y-180340000D03*
X257730000Y-180340000D03*
G04 #@! TD*
G04 #@! TO.C,R205*
X257730000Y-200660000D03*
X260430000Y-200660000D03*
G04 #@! TD*
G04 #@! TO.C,R206*
X245190000Y-170180000D03*
X242490000Y-170180000D03*
G04 #@! TD*
G04 #@! TO.C,R207*
X257730000Y-170180000D03*
X260430000Y-170180000D03*
G04 #@! TD*
G04 #@! TO.C,R208*
X260430000Y-190500000D03*
X257730000Y-190500000D03*
G04 #@! TD*
G04 #@! TO.C,D126*
X217250000Y-71120000D03*
X214550000Y-71120000D03*
G04 #@! TD*
G04 #@! TO.C,D125*
X214550000Y-68580000D03*
X217250000Y-68580000D03*
G04 #@! TD*
G04 #@! TO.C,R194*
X209470000Y-68580000D03*
X212170000Y-68580000D03*
G04 #@! TD*
G04 #@! TO.C,R195*
X212170000Y-71120000D03*
X209470000Y-71120000D03*
G04 #@! TD*
G04 #@! TO.C,R192*
X191850000Y-109220000D03*
X189150000Y-109220000D03*
G04 #@! TD*
G04 #@! TO.C,R193*
X189150000Y-111760000D03*
X191850000Y-111760000D03*
G04 #@! TD*
D15*
G04 #@! TO.C,U1*
X32400000Y-54420000D03*
X32400000Y-55220000D03*
X32400000Y-56020000D03*
X32400000Y-56820000D03*
X32400000Y-57620000D03*
X32400000Y-58420000D03*
X32400000Y-59220000D03*
X32400000Y-60020000D03*
X32400000Y-60820000D03*
X32400000Y-61620000D03*
X32400000Y-62420000D03*
D14*
X34100000Y-64120000D03*
X34900000Y-64120000D03*
X35700000Y-64120000D03*
X36500000Y-64120000D03*
X37300000Y-64120000D03*
X38100000Y-64120000D03*
X38900000Y-64120000D03*
X39700000Y-64120000D03*
X40500000Y-64120000D03*
X41300000Y-64120000D03*
X42100000Y-64120000D03*
D15*
X43800000Y-62420000D03*
X43800000Y-61620000D03*
X43800000Y-60820000D03*
X43800000Y-60020000D03*
X43800000Y-59220000D03*
X43800000Y-58420000D03*
X43800000Y-57620000D03*
X43800000Y-56820000D03*
X43800000Y-56020000D03*
X43800000Y-55220000D03*
X43800000Y-54420000D03*
D14*
X42100000Y-52720000D03*
X41300000Y-52720000D03*
X40500000Y-52720000D03*
X39700000Y-52720000D03*
X38900000Y-52720000D03*
X38100000Y-52720000D03*
X37300000Y-52720000D03*
X36500000Y-52720000D03*
X35700000Y-52720000D03*
X34900000Y-52720000D03*
X34100000Y-52720000D03*
G04 #@! TD*
D15*
G04 #@! TO.C,U2*
X32400000Y-117920000D03*
X32400000Y-118720000D03*
X32400000Y-119520000D03*
X32400000Y-120320000D03*
X32400000Y-121120000D03*
X32400000Y-121920000D03*
X32400000Y-122720000D03*
X32400000Y-123520000D03*
X32400000Y-124320000D03*
X32400000Y-125120000D03*
X32400000Y-125920000D03*
D14*
X34100000Y-127620000D03*
X34900000Y-127620000D03*
X35700000Y-127620000D03*
X36500000Y-127620000D03*
X37300000Y-127620000D03*
X38100000Y-127620000D03*
X38900000Y-127620000D03*
X39700000Y-127620000D03*
X40500000Y-127620000D03*
X41300000Y-127620000D03*
X42100000Y-127620000D03*
D15*
X43800000Y-125920000D03*
X43800000Y-125120000D03*
X43800000Y-124320000D03*
X43800000Y-123520000D03*
X43800000Y-122720000D03*
X43800000Y-121920000D03*
X43800000Y-121120000D03*
X43800000Y-120320000D03*
X43800000Y-119520000D03*
X43800000Y-118720000D03*
X43800000Y-117920000D03*
D14*
X42100000Y-116220000D03*
X41300000Y-116220000D03*
X40500000Y-116220000D03*
X39700000Y-116220000D03*
X38900000Y-116220000D03*
X38100000Y-116220000D03*
X37300000Y-116220000D03*
X36500000Y-116220000D03*
X35700000Y-116220000D03*
X34900000Y-116220000D03*
X34100000Y-116220000D03*
G04 #@! TD*
D15*
G04 #@! TO.C,U3*
X32400000Y-181420000D03*
X32400000Y-182220000D03*
X32400000Y-183020000D03*
X32400000Y-183820000D03*
X32400000Y-184620000D03*
X32400000Y-185420000D03*
X32400000Y-186220000D03*
X32400000Y-187020000D03*
X32400000Y-187820000D03*
X32400000Y-188620000D03*
X32400000Y-189420000D03*
D14*
X34100000Y-191120000D03*
X34900000Y-191120000D03*
X35700000Y-191120000D03*
X36500000Y-191120000D03*
X37300000Y-191120000D03*
X38100000Y-191120000D03*
X38900000Y-191120000D03*
X39700000Y-191120000D03*
X40500000Y-191120000D03*
X41300000Y-191120000D03*
X42100000Y-191120000D03*
D15*
X43800000Y-189420000D03*
X43800000Y-188620000D03*
X43800000Y-187820000D03*
X43800000Y-187020000D03*
X43800000Y-186220000D03*
X43800000Y-185420000D03*
X43800000Y-184620000D03*
X43800000Y-183820000D03*
X43800000Y-183020000D03*
X43800000Y-182220000D03*
X43800000Y-181420000D03*
D14*
X42100000Y-179720000D03*
X41300000Y-179720000D03*
X40500000Y-179720000D03*
X39700000Y-179720000D03*
X38900000Y-179720000D03*
X38100000Y-179720000D03*
X37300000Y-179720000D03*
X36500000Y-179720000D03*
X35700000Y-179720000D03*
X34900000Y-179720000D03*
X34100000Y-179720000D03*
G04 #@! TD*
G04 #@! TO.C,U4*
X79820000Y-52720000D03*
X80620000Y-52720000D03*
X81420000Y-52720000D03*
X82220000Y-52720000D03*
X83020000Y-52720000D03*
X83820000Y-52720000D03*
X84620000Y-52720000D03*
X85420000Y-52720000D03*
X86220000Y-52720000D03*
X87020000Y-52720000D03*
X87820000Y-52720000D03*
D15*
X89520000Y-54420000D03*
X89520000Y-55220000D03*
X89520000Y-56020000D03*
X89520000Y-56820000D03*
X89520000Y-57620000D03*
X89520000Y-58420000D03*
X89520000Y-59220000D03*
X89520000Y-60020000D03*
X89520000Y-60820000D03*
X89520000Y-61620000D03*
X89520000Y-62420000D03*
D14*
X87820000Y-64120000D03*
X87020000Y-64120000D03*
X86220000Y-64120000D03*
X85420000Y-64120000D03*
X84620000Y-64120000D03*
X83820000Y-64120000D03*
X83020000Y-64120000D03*
X82220000Y-64120000D03*
X81420000Y-64120000D03*
X80620000Y-64120000D03*
X79820000Y-64120000D03*
D15*
X78120000Y-62420000D03*
X78120000Y-61620000D03*
X78120000Y-60820000D03*
X78120000Y-60020000D03*
X78120000Y-59220000D03*
X78120000Y-58420000D03*
X78120000Y-57620000D03*
X78120000Y-56820000D03*
X78120000Y-56020000D03*
X78120000Y-55220000D03*
X78120000Y-54420000D03*
G04 #@! TD*
D14*
G04 #@! TO.C,U5*
X79820000Y-116220000D03*
X80620000Y-116220000D03*
X81420000Y-116220000D03*
X82220000Y-116220000D03*
X83020000Y-116220000D03*
X83820000Y-116220000D03*
X84620000Y-116220000D03*
X85420000Y-116220000D03*
X86220000Y-116220000D03*
X87020000Y-116220000D03*
X87820000Y-116220000D03*
D15*
X89520000Y-117920000D03*
X89520000Y-118720000D03*
X89520000Y-119520000D03*
X89520000Y-120320000D03*
X89520000Y-121120000D03*
X89520000Y-121920000D03*
X89520000Y-122720000D03*
X89520000Y-123520000D03*
X89520000Y-124320000D03*
X89520000Y-125120000D03*
X89520000Y-125920000D03*
D14*
X87820000Y-127620000D03*
X87020000Y-127620000D03*
X86220000Y-127620000D03*
X85420000Y-127620000D03*
X84620000Y-127620000D03*
X83820000Y-127620000D03*
X83020000Y-127620000D03*
X82220000Y-127620000D03*
X81420000Y-127620000D03*
X80620000Y-127620000D03*
X79820000Y-127620000D03*
D15*
X78120000Y-125920000D03*
X78120000Y-125120000D03*
X78120000Y-124320000D03*
X78120000Y-123520000D03*
X78120000Y-122720000D03*
X78120000Y-121920000D03*
X78120000Y-121120000D03*
X78120000Y-120320000D03*
X78120000Y-119520000D03*
X78120000Y-118720000D03*
X78120000Y-117920000D03*
G04 #@! TD*
D14*
G04 #@! TO.C,U6*
X79820000Y-179720000D03*
X80620000Y-179720000D03*
X81420000Y-179720000D03*
X82220000Y-179720000D03*
X83020000Y-179720000D03*
X83820000Y-179720000D03*
X84620000Y-179720000D03*
X85420000Y-179720000D03*
X86220000Y-179720000D03*
X87020000Y-179720000D03*
X87820000Y-179720000D03*
D15*
X89520000Y-181420000D03*
X89520000Y-182220000D03*
X89520000Y-183020000D03*
X89520000Y-183820000D03*
X89520000Y-184620000D03*
X89520000Y-185420000D03*
X89520000Y-186220000D03*
X89520000Y-187020000D03*
X89520000Y-187820000D03*
X89520000Y-188620000D03*
X89520000Y-189420000D03*
D14*
X87820000Y-191120000D03*
X87020000Y-191120000D03*
X86220000Y-191120000D03*
X85420000Y-191120000D03*
X84620000Y-191120000D03*
X83820000Y-191120000D03*
X83020000Y-191120000D03*
X82220000Y-191120000D03*
X81420000Y-191120000D03*
X80620000Y-191120000D03*
X79820000Y-191120000D03*
D15*
X78120000Y-189420000D03*
X78120000Y-188620000D03*
X78120000Y-187820000D03*
X78120000Y-187020000D03*
X78120000Y-186220000D03*
X78120000Y-185420000D03*
X78120000Y-184620000D03*
X78120000Y-183820000D03*
X78120000Y-183020000D03*
X78120000Y-182220000D03*
X78120000Y-181420000D03*
G04 #@! TD*
G04 #@! TO.C,U7*
X113680000Y-54420000D03*
X113680000Y-55220000D03*
X113680000Y-56020000D03*
X113680000Y-56820000D03*
X113680000Y-57620000D03*
X113680000Y-58420000D03*
X113680000Y-59220000D03*
X113680000Y-60020000D03*
X113680000Y-60820000D03*
X113680000Y-61620000D03*
X113680000Y-62420000D03*
D14*
X115380000Y-64120000D03*
X116180000Y-64120000D03*
X116980000Y-64120000D03*
X117780000Y-64120000D03*
X118580000Y-64120000D03*
X119380000Y-64120000D03*
X120180000Y-64120000D03*
X120980000Y-64120000D03*
X121780000Y-64120000D03*
X122580000Y-64120000D03*
X123380000Y-64120000D03*
D15*
X125080000Y-62420000D03*
X125080000Y-61620000D03*
X125080000Y-60820000D03*
X125080000Y-60020000D03*
X125080000Y-59220000D03*
X125080000Y-58420000D03*
X125080000Y-57620000D03*
X125080000Y-56820000D03*
X125080000Y-56020000D03*
X125080000Y-55220000D03*
X125080000Y-54420000D03*
D14*
X123380000Y-52720000D03*
X122580000Y-52720000D03*
X121780000Y-52720000D03*
X120980000Y-52720000D03*
X120180000Y-52720000D03*
X119380000Y-52720000D03*
X118580000Y-52720000D03*
X117780000Y-52720000D03*
X116980000Y-52720000D03*
X116180000Y-52720000D03*
X115380000Y-52720000D03*
G04 #@! TD*
D15*
G04 #@! TO.C,U8*
X123840000Y-117920000D03*
X123840000Y-118720000D03*
X123840000Y-119520000D03*
X123840000Y-120320000D03*
X123840000Y-121120000D03*
X123840000Y-121920000D03*
X123840000Y-122720000D03*
X123840000Y-123520000D03*
X123840000Y-124320000D03*
X123840000Y-125120000D03*
X123840000Y-125920000D03*
D14*
X125540000Y-127620000D03*
X126340000Y-127620000D03*
X127140000Y-127620000D03*
X127940000Y-127620000D03*
X128740000Y-127620000D03*
X129540000Y-127620000D03*
X130340000Y-127620000D03*
X131140000Y-127620000D03*
X131940000Y-127620000D03*
X132740000Y-127620000D03*
X133540000Y-127620000D03*
D15*
X135240000Y-125920000D03*
X135240000Y-125120000D03*
X135240000Y-124320000D03*
X135240000Y-123520000D03*
X135240000Y-122720000D03*
X135240000Y-121920000D03*
X135240000Y-121120000D03*
X135240000Y-120320000D03*
X135240000Y-119520000D03*
X135240000Y-118720000D03*
X135240000Y-117920000D03*
D14*
X133540000Y-116220000D03*
X132740000Y-116220000D03*
X131940000Y-116220000D03*
X131140000Y-116220000D03*
X130340000Y-116220000D03*
X129540000Y-116220000D03*
X128740000Y-116220000D03*
X127940000Y-116220000D03*
X127140000Y-116220000D03*
X126340000Y-116220000D03*
X125540000Y-116220000D03*
G04 #@! TD*
G04 #@! TO.C,U9*
X125540000Y-179720000D03*
X126340000Y-179720000D03*
X127140000Y-179720000D03*
X127940000Y-179720000D03*
X128740000Y-179720000D03*
X129540000Y-179720000D03*
X130340000Y-179720000D03*
X131140000Y-179720000D03*
X131940000Y-179720000D03*
X132740000Y-179720000D03*
X133540000Y-179720000D03*
D15*
X135240000Y-181420000D03*
X135240000Y-182220000D03*
X135240000Y-183020000D03*
X135240000Y-183820000D03*
X135240000Y-184620000D03*
X135240000Y-185420000D03*
X135240000Y-186220000D03*
X135240000Y-187020000D03*
X135240000Y-187820000D03*
X135240000Y-188620000D03*
X135240000Y-189420000D03*
D14*
X133540000Y-191120000D03*
X132740000Y-191120000D03*
X131940000Y-191120000D03*
X131140000Y-191120000D03*
X130340000Y-191120000D03*
X129540000Y-191120000D03*
X128740000Y-191120000D03*
X127940000Y-191120000D03*
X127140000Y-191120000D03*
X126340000Y-191120000D03*
X125540000Y-191120000D03*
D15*
X123840000Y-189420000D03*
X123840000Y-188620000D03*
X123840000Y-187820000D03*
X123840000Y-187020000D03*
X123840000Y-186220000D03*
X123840000Y-185420000D03*
X123840000Y-184620000D03*
X123840000Y-183820000D03*
X123840000Y-183020000D03*
X123840000Y-182220000D03*
X123840000Y-181420000D03*
G04 #@! TD*
D14*
G04 #@! TO.C,U10*
X171260000Y-116220000D03*
X172060000Y-116220000D03*
X172860000Y-116220000D03*
X173660000Y-116220000D03*
X174460000Y-116220000D03*
X175260000Y-116220000D03*
X176060000Y-116220000D03*
X176860000Y-116220000D03*
X177660000Y-116220000D03*
X178460000Y-116220000D03*
X179260000Y-116220000D03*
D15*
X180960000Y-117920000D03*
X180960000Y-118720000D03*
X180960000Y-119520000D03*
X180960000Y-120320000D03*
X180960000Y-121120000D03*
X180960000Y-121920000D03*
X180960000Y-122720000D03*
X180960000Y-123520000D03*
X180960000Y-124320000D03*
X180960000Y-125120000D03*
X180960000Y-125920000D03*
D14*
X179260000Y-127620000D03*
X178460000Y-127620000D03*
X177660000Y-127620000D03*
X176860000Y-127620000D03*
X176060000Y-127620000D03*
X175260000Y-127620000D03*
X174460000Y-127620000D03*
X173660000Y-127620000D03*
X172860000Y-127620000D03*
X172060000Y-127620000D03*
X171260000Y-127620000D03*
D15*
X169560000Y-125920000D03*
X169560000Y-125120000D03*
X169560000Y-124320000D03*
X169560000Y-123520000D03*
X169560000Y-122720000D03*
X169560000Y-121920000D03*
X169560000Y-121120000D03*
X169560000Y-120320000D03*
X169560000Y-119520000D03*
X169560000Y-118720000D03*
X169560000Y-117920000D03*
G04 #@! TD*
G04 #@! TO.C,U11*
X164480000Y-181420000D03*
X164480000Y-182220000D03*
X164480000Y-183020000D03*
X164480000Y-183820000D03*
X164480000Y-184620000D03*
X164480000Y-185420000D03*
X164480000Y-186220000D03*
X164480000Y-187020000D03*
X164480000Y-187820000D03*
X164480000Y-188620000D03*
X164480000Y-189420000D03*
D14*
X166180000Y-191120000D03*
X166980000Y-191120000D03*
X167780000Y-191120000D03*
X168580000Y-191120000D03*
X169380000Y-191120000D03*
X170180000Y-191120000D03*
X170980000Y-191120000D03*
X171780000Y-191120000D03*
X172580000Y-191120000D03*
X173380000Y-191120000D03*
X174180000Y-191120000D03*
D15*
X175880000Y-189420000D03*
X175880000Y-188620000D03*
X175880000Y-187820000D03*
X175880000Y-187020000D03*
X175880000Y-186220000D03*
X175880000Y-185420000D03*
X175880000Y-184620000D03*
X175880000Y-183820000D03*
X175880000Y-183020000D03*
X175880000Y-182220000D03*
X175880000Y-181420000D03*
D14*
X174180000Y-179720000D03*
X173380000Y-179720000D03*
X172580000Y-179720000D03*
X171780000Y-179720000D03*
X170980000Y-179720000D03*
X170180000Y-179720000D03*
X169380000Y-179720000D03*
X168580000Y-179720000D03*
X167780000Y-179720000D03*
X166980000Y-179720000D03*
X166180000Y-179720000D03*
G04 #@! TD*
D11*
G04 #@! TO.C,SW1*
X260515000Y-103850000D03*
X252565000Y-103850000D03*
X260515000Y-99350000D03*
X252565000Y-99350000D03*
G04 #@! TD*
G04 #@! TO.C,SW2*
X252565000Y-114590000D03*
X260515000Y-114590000D03*
X252565000Y-119090000D03*
X260515000Y-119090000D03*
G04 #@! TD*
G04 #@! TO.C,SW3*
X260515000Y-134330000D03*
X252565000Y-134330000D03*
X260515000Y-129830000D03*
X252565000Y-129830000D03*
G04 #@! TD*
D16*
G04 #@! TO.C,U12*
X196100000Y-53975000D03*
X196100000Y-55245000D03*
X196100000Y-56515000D03*
X196100000Y-57785000D03*
X196100000Y-59055000D03*
X196100000Y-60325000D03*
X196100000Y-61595000D03*
X196100000Y-62875000D03*
X196100000Y-64125000D03*
X196100000Y-65405000D03*
X196100000Y-66675000D03*
X196100000Y-67945000D03*
X196100000Y-69215000D03*
X196100000Y-70485000D03*
X196100000Y-71755000D03*
X196100000Y-73025000D03*
X184900000Y-73025000D03*
X184900000Y-71755000D03*
X184900000Y-70485000D03*
X184900000Y-69215000D03*
X184900000Y-67945000D03*
X184900000Y-66675000D03*
X184900000Y-65405000D03*
X184900000Y-64125000D03*
X184900000Y-62875000D03*
X184900000Y-61595000D03*
X184900000Y-60325000D03*
X184900000Y-59055000D03*
X184900000Y-57785000D03*
X184900000Y-56515000D03*
X184900000Y-55245000D03*
X184900000Y-53975000D03*
G04 #@! TD*
D14*
G04 #@! TO.C,U13*
X216980000Y-116220000D03*
X217780000Y-116220000D03*
X218580000Y-116220000D03*
X219380000Y-116220000D03*
X220180000Y-116220000D03*
X220980000Y-116220000D03*
X221780000Y-116220000D03*
X222580000Y-116220000D03*
X223380000Y-116220000D03*
X224180000Y-116220000D03*
X224980000Y-116220000D03*
D15*
X226680000Y-117920000D03*
X226680000Y-118720000D03*
X226680000Y-119520000D03*
X226680000Y-120320000D03*
X226680000Y-121120000D03*
X226680000Y-121920000D03*
X226680000Y-122720000D03*
X226680000Y-123520000D03*
X226680000Y-124320000D03*
X226680000Y-125120000D03*
X226680000Y-125920000D03*
D14*
X224980000Y-127620000D03*
X224180000Y-127620000D03*
X223380000Y-127620000D03*
X222580000Y-127620000D03*
X221780000Y-127620000D03*
X220980000Y-127620000D03*
X220180000Y-127620000D03*
X219380000Y-127620000D03*
X218580000Y-127620000D03*
X217780000Y-127620000D03*
X216980000Y-127620000D03*
D15*
X215280000Y-125920000D03*
X215280000Y-125120000D03*
X215280000Y-124320000D03*
X215280000Y-123520000D03*
X215280000Y-122720000D03*
X215280000Y-121920000D03*
X215280000Y-121120000D03*
X215280000Y-120320000D03*
X215280000Y-119520000D03*
X215280000Y-118720000D03*
X215280000Y-117920000D03*
G04 #@! TD*
D13*
G04 #@! TO.C,C1*
X35560000Y-72370000D03*
X35560000Y-69870000D03*
G04 #@! TD*
D12*
G04 #@! TO.C,C2*
X52050000Y-60960000D03*
X49550000Y-60960000D03*
G04 #@! TD*
D13*
G04 #@! TO.C,C3*
X40640000Y-44470000D03*
X40640000Y-46970000D03*
G04 #@! TD*
G04 #@! TO.C,C4*
X35560000Y-135870000D03*
X35560000Y-133370000D03*
G04 #@! TD*
D12*
G04 #@! TO.C,C5*
X52050000Y-124460000D03*
X49550000Y-124460000D03*
G04 #@! TD*
D13*
G04 #@! TO.C,C6*
X40640000Y-107950000D03*
X40640000Y-110450000D03*
G04 #@! TD*
G04 #@! TO.C,C7*
X40640000Y-171470000D03*
X40640000Y-173970000D03*
G04 #@! TD*
G04 #@! TO.C,C8*
X35560000Y-196870000D03*
X35560000Y-199370000D03*
G04 #@! TD*
D12*
G04 #@! TO.C,C9*
X52050000Y-187920000D03*
X49550000Y-187920000D03*
G04 #@! TD*
D13*
G04 #@! TO.C,C10*
X81280000Y-72370000D03*
X81280000Y-69870000D03*
G04 #@! TD*
D12*
G04 #@! TO.C,C11*
X97770000Y-60960000D03*
X95270000Y-60960000D03*
G04 #@! TD*
D13*
G04 #@! TO.C,C12*
X86360000Y-44470000D03*
X86360000Y-46970000D03*
G04 #@! TD*
G04 #@! TO.C,C13*
X81280000Y-133370000D03*
X81280000Y-135870000D03*
G04 #@! TD*
D12*
G04 #@! TO.C,C14*
X95270000Y-124460000D03*
X97770000Y-124460000D03*
G04 #@! TD*
D13*
G04 #@! TO.C,C15*
X86360000Y-110470000D03*
X86360000Y-107970000D03*
G04 #@! TD*
G04 #@! TO.C,C16*
X81280000Y-196870000D03*
X81280000Y-199370000D03*
G04 #@! TD*
D12*
G04 #@! TO.C,C17*
X97770000Y-187960000D03*
X95270000Y-187960000D03*
G04 #@! TD*
D13*
G04 #@! TO.C,C18*
X86360000Y-173970000D03*
X86360000Y-171470000D03*
G04 #@! TD*
G04 #@! TO.C,C19*
X116840000Y-72370000D03*
X116840000Y-69870000D03*
G04 #@! TD*
D12*
G04 #@! TO.C,C20*
X133330000Y-60960000D03*
X130830000Y-60960000D03*
G04 #@! TD*
D13*
G04 #@! TO.C,C21*
X121920000Y-44470000D03*
X121920000Y-46970000D03*
G04 #@! TD*
G04 #@! TO.C,C22*
X127000000Y-135870000D03*
X127000000Y-133370000D03*
G04 #@! TD*
D12*
G04 #@! TO.C,C23*
X143490000Y-124460000D03*
X140990000Y-124460000D03*
G04 #@! TD*
D13*
G04 #@! TO.C,C24*
X132080000Y-110470000D03*
X132080000Y-107970000D03*
G04 #@! TD*
G04 #@! TO.C,C25*
X127000000Y-199370000D03*
X127000000Y-196870000D03*
G04 #@! TD*
D12*
G04 #@! TO.C,C26*
X140990000Y-187960000D03*
X143490000Y-187960000D03*
G04 #@! TD*
D13*
G04 #@! TO.C,C27*
X132080000Y-173970000D03*
X132080000Y-171470000D03*
G04 #@! TD*
D12*
G04 #@! TO.C,C28*
X201910000Y-55880000D03*
X199410000Y-55880000D03*
G04 #@! TD*
G04 #@! TO.C,C29*
X201910000Y-53340000D03*
X199410000Y-53340000D03*
G04 #@! TD*
D13*
G04 #@! TO.C,C30*
X172720000Y-133370000D03*
X172720000Y-135870000D03*
G04 #@! TD*
D12*
G04 #@! TO.C,C31*
X189210000Y-124460000D03*
X186710000Y-124460000D03*
G04 #@! TD*
D13*
G04 #@! TO.C,C32*
X177800000Y-110470000D03*
X177800000Y-107970000D03*
G04 #@! TD*
G04 #@! TO.C,C33*
X167640000Y-196870000D03*
X167640000Y-199370000D03*
G04 #@! TD*
D12*
G04 #@! TO.C,C34*
X184130000Y-187960000D03*
X181630000Y-187960000D03*
G04 #@! TD*
D13*
G04 #@! TO.C,C35*
X172720000Y-173970000D03*
X172720000Y-171470000D03*
G04 #@! TD*
G04 #@! TO.C,C36*
X218440000Y-133370000D03*
X218440000Y-135870000D03*
G04 #@! TD*
D12*
G04 #@! TO.C,C37*
X232430000Y-124460000D03*
X234930000Y-124460000D03*
G04 #@! TD*
D13*
G04 #@! TO.C,C38*
X225552000Y-110470000D03*
X225552000Y-107970000D03*
G04 #@! TD*
D12*
G04 #@! TO.C,C39*
X255250000Y-93980000D03*
X252750000Y-93980000D03*
G04 #@! TD*
G04 #@! TO.C,C40*
X255250000Y-109220000D03*
X252750000Y-109220000D03*
G04 #@! TD*
G04 #@! TO.C,C41*
X255250000Y-124460000D03*
X252750000Y-124460000D03*
G04 #@! TD*
D10*
G04 #@! TO.C,D1*
X214550000Y-73660000D03*
X217250000Y-73660000D03*
G04 #@! TD*
G04 #@! TO.C,D2*
X214550000Y-66040000D03*
X217250000Y-66040000D03*
G04 #@! TD*
G04 #@! TO.C,D3*
X186610000Y-200660000D03*
X189310000Y-200660000D03*
G04 #@! TD*
G04 #@! TO.C,D4*
X133430000Y-73660000D03*
X130730000Y-73660000D03*
G04 #@! TD*
G04 #@! TO.C,D5*
X133430000Y-71120000D03*
X130730000Y-71120000D03*
G04 #@! TD*
G04 #@! TO.C,D6*
X51990000Y-73660000D03*
X54690000Y-73660000D03*
G04 #@! TD*
G04 #@! TO.C,D7*
X51990000Y-71120000D03*
X54690000Y-71120000D03*
G04 #@! TD*
G04 #@! TO.C,D8*
X54690000Y-137160000D03*
X51990000Y-137160000D03*
G04 #@! TD*
G04 #@! TO.C,D9*
X54690000Y-134620000D03*
X51990000Y-134620000D03*
G04 #@! TD*
G04 #@! TO.C,D10*
X49450000Y-200660000D03*
X52150000Y-200660000D03*
G04 #@! TD*
G04 #@! TO.C,D11*
X52150000Y-198120000D03*
X49450000Y-198120000D03*
G04 #@! TD*
G04 #@! TO.C,D12*
X95170000Y-200660000D03*
X97870000Y-200660000D03*
G04 #@! TD*
G04 #@! TO.C,D13*
X97870000Y-198120000D03*
X95170000Y-198120000D03*
G04 #@! TD*
G04 #@! TO.C,D14*
X186610000Y-198120000D03*
X189310000Y-198120000D03*
G04 #@! TD*
G04 #@! TO.C,D15*
X140890000Y-137160000D03*
X143590000Y-137160000D03*
G04 #@! TD*
D17*
G04 #@! TO.C,D16*
X20320000Y-29130000D03*
X20320000Y-31830000D03*
G04 #@! TD*
G04 #@! TO.C,D17*
X48260000Y-156130000D03*
X48260000Y-158830000D03*
G04 #@! TD*
G04 #@! TO.C,D18*
X45720000Y-158830000D03*
X45720000Y-156130000D03*
G04 #@! TD*
G04 #@! TO.C,D19*
X43180000Y-156130000D03*
X43180000Y-158830000D03*
G04 #@! TD*
G04 #@! TO.C,D20*
X40640000Y-156130000D03*
X40640000Y-158830000D03*
G04 #@! TD*
G04 #@! TO.C,D21*
X38100000Y-158830000D03*
X38100000Y-156130000D03*
G04 #@! TD*
G04 #@! TO.C,D22*
X35560000Y-156130000D03*
X35560000Y-158830000D03*
G04 #@! TD*
G04 #@! TO.C,D23*
X33020000Y-156130000D03*
X33020000Y-158830000D03*
G04 #@! TD*
G04 #@! TO.C,D24*
X30480000Y-158830000D03*
X30480000Y-156130000D03*
G04 #@! TD*
D10*
G04 #@! TO.C,D25*
X214550000Y-43180000D03*
X217250000Y-43180000D03*
G04 #@! TD*
G04 #@! TO.C,D26*
X217250000Y-45720000D03*
X214550000Y-45720000D03*
G04 #@! TD*
G04 #@! TO.C,D27*
X214550000Y-48260000D03*
X217250000Y-48260000D03*
G04 #@! TD*
G04 #@! TO.C,D28*
X217250000Y-50800000D03*
X214550000Y-50800000D03*
G04 #@! TD*
G04 #@! TO.C,D29*
X217250000Y-53340000D03*
X214550000Y-53340000D03*
G04 #@! TD*
G04 #@! TO.C,D30*
X214550000Y-55880000D03*
X217250000Y-55880000D03*
G04 #@! TD*
G04 #@! TO.C,D31*
X214550000Y-58420000D03*
X217250000Y-58420000D03*
G04 #@! TD*
G04 #@! TO.C,D32*
X214550000Y-60960000D03*
X217250000Y-60960000D03*
G04 #@! TD*
D17*
G04 #@! TO.C,D33*
X48260000Y-31830000D03*
X48260000Y-29130000D03*
G04 #@! TD*
G04 #@! TO.C,D34*
X45720000Y-31830000D03*
X45720000Y-29130000D03*
G04 #@! TD*
G04 #@! TO.C,D35*
X43180000Y-29130000D03*
X43180000Y-31830000D03*
G04 #@! TD*
G04 #@! TO.C,D36*
X40640000Y-31830000D03*
X40640000Y-29130000D03*
G04 #@! TD*
G04 #@! TO.C,D37*
X38100000Y-31830000D03*
X38100000Y-29130000D03*
G04 #@! TD*
G04 #@! TO.C,D38*
X35560000Y-29130000D03*
X35560000Y-31830000D03*
G04 #@! TD*
G04 #@! TO.C,D39*
X33020000Y-29130000D03*
X33020000Y-31830000D03*
G04 #@! TD*
G04 #@! TO.C,D40*
X30480000Y-31830000D03*
X30480000Y-29130000D03*
G04 #@! TD*
G04 #@! TO.C,D41*
X25400000Y-29130000D03*
X25400000Y-31830000D03*
G04 #@! TD*
G04 #@! TO.C,D42*
X48260000Y-92630000D03*
X48260000Y-95330000D03*
G04 #@! TD*
G04 #@! TO.C,D43*
X45720000Y-95330000D03*
X45720000Y-92630000D03*
G04 #@! TD*
G04 #@! TO.C,D44*
X43180000Y-92630000D03*
X43180000Y-95330000D03*
G04 #@! TD*
G04 #@! TO.C,D45*
X40640000Y-95330000D03*
X40640000Y-92630000D03*
G04 #@! TD*
G04 #@! TO.C,D46*
X38100000Y-92630000D03*
X38100000Y-95330000D03*
G04 #@! TD*
G04 #@! TO.C,D47*
X35560000Y-95330000D03*
X35560000Y-92630000D03*
G04 #@! TD*
G04 #@! TO.C,D48*
X33020000Y-92630000D03*
X33020000Y-95330000D03*
G04 #@! TD*
G04 #@! TO.C,D49*
X30480000Y-92630000D03*
X30480000Y-95330000D03*
G04 #@! TD*
G04 #@! TO.C,D50*
X93980000Y-156130000D03*
X93980000Y-158830000D03*
G04 #@! TD*
G04 #@! TO.C,D51*
X91440000Y-158830000D03*
X91440000Y-156130000D03*
G04 #@! TD*
G04 #@! TO.C,D52*
X88900000Y-156130000D03*
X88900000Y-158830000D03*
G04 #@! TD*
G04 #@! TO.C,D53*
X86360000Y-156130000D03*
X86360000Y-158830000D03*
G04 #@! TD*
G04 #@! TO.C,D54*
X83820000Y-158830000D03*
X83820000Y-156130000D03*
G04 #@! TD*
G04 #@! TO.C,D55*
X81280000Y-156130000D03*
X81280000Y-158830000D03*
G04 #@! TD*
G04 #@! TO.C,D56*
X78740000Y-158830000D03*
X78740000Y-156130000D03*
G04 #@! TD*
G04 #@! TO.C,D57*
X76200000Y-158830000D03*
X76200000Y-156130000D03*
G04 #@! TD*
G04 #@! TO.C,D58*
X86360000Y-92630000D03*
X86360000Y-95330000D03*
G04 #@! TD*
G04 #@! TO.C,D59*
X83820000Y-92630000D03*
X83820000Y-95330000D03*
G04 #@! TD*
G04 #@! TO.C,D60*
X81280000Y-92630000D03*
X81280000Y-95330000D03*
G04 #@! TD*
G04 #@! TO.C,D61*
X129540000Y-29130000D03*
X129540000Y-31830000D03*
G04 #@! TD*
G04 #@! TO.C,D62*
X127000000Y-31830000D03*
X127000000Y-29130000D03*
G04 #@! TD*
G04 #@! TO.C,D63*
X124460000Y-29130000D03*
X124460000Y-31830000D03*
G04 #@! TD*
G04 #@! TO.C,D64*
X121920000Y-31830000D03*
X121920000Y-29130000D03*
G04 #@! TD*
G04 #@! TO.C,D65*
X119380000Y-29130000D03*
X119380000Y-31830000D03*
G04 #@! TD*
G04 #@! TO.C,D66*
X116840000Y-29130000D03*
X116840000Y-31830000D03*
G04 #@! TD*
G04 #@! TO.C,D67*
X114300000Y-31830000D03*
X114300000Y-29130000D03*
G04 #@! TD*
G04 #@! TO.C,D68*
X111760000Y-31830000D03*
X111760000Y-29130000D03*
G04 #@! TD*
G04 #@! TO.C,D69*
X106680000Y-31830000D03*
X106680000Y-29130000D03*
G04 #@! TD*
G04 #@! TO.C,D70*
X139700000Y-156130000D03*
X139700000Y-158830000D03*
G04 #@! TD*
G04 #@! TO.C,D71*
X137160000Y-158830000D03*
X137160000Y-156130000D03*
G04 #@! TD*
G04 #@! TO.C,D72*
X134620000Y-156130000D03*
X134620000Y-158830000D03*
G04 #@! TD*
G04 #@! TO.C,D73*
X132080000Y-156130000D03*
X132080000Y-158830000D03*
G04 #@! TD*
G04 #@! TO.C,D74*
X129540000Y-156130000D03*
X129540000Y-158830000D03*
G04 #@! TD*
G04 #@! TO.C,D75*
X127000000Y-158830000D03*
X127000000Y-156130000D03*
G04 #@! TD*
G04 #@! TO.C,D76*
X124460000Y-156130000D03*
X124460000Y-158830000D03*
G04 #@! TD*
G04 #@! TO.C,D77*
X121920000Y-156130000D03*
X121920000Y-158830000D03*
G04 #@! TD*
G04 #@! TO.C,D78*
X180340000Y-158830000D03*
X180340000Y-156130000D03*
G04 #@! TD*
G04 #@! TO.C,D79*
X177800000Y-158830000D03*
X177800000Y-156130000D03*
G04 #@! TD*
G04 #@! TO.C,D80*
X175260000Y-156130000D03*
X175260000Y-158830000D03*
G04 #@! TD*
G04 #@! TO.C,D81*
X172720000Y-158830000D03*
X172720000Y-156130000D03*
G04 #@! TD*
G04 #@! TO.C,D82*
X170180000Y-156130000D03*
X170180000Y-158830000D03*
G04 #@! TD*
G04 #@! TO.C,D83*
X167640000Y-156130000D03*
X167640000Y-158830000D03*
G04 #@! TD*
G04 #@! TO.C,D84*
X165100000Y-158830000D03*
X165100000Y-156130000D03*
G04 #@! TD*
G04 #@! TO.C,D85*
X162560000Y-156130000D03*
X162560000Y-158830000D03*
G04 #@! TD*
G04 #@! TO.C,D86*
X215900000Y-29130000D03*
X215900000Y-31830000D03*
G04 #@! TD*
G04 #@! TO.C,D87*
X213360000Y-31830000D03*
X213360000Y-29130000D03*
G04 #@! TD*
G04 #@! TO.C,D88*
X210820000Y-31830000D03*
X210820000Y-29130000D03*
G04 #@! TD*
G04 #@! TO.C,D89*
X208280000Y-31830000D03*
X208280000Y-29130000D03*
G04 #@! TD*
G04 #@! TO.C,D90*
X205740000Y-29130000D03*
X205740000Y-31830000D03*
G04 #@! TD*
G04 #@! TO.C,D91*
X203200000Y-31830000D03*
X203200000Y-29130000D03*
G04 #@! TD*
G04 #@! TO.C,D92*
X200660000Y-31830000D03*
X200660000Y-29130000D03*
G04 #@! TD*
G04 #@! TO.C,D93*
X198120000Y-29130000D03*
X198120000Y-31830000D03*
G04 #@! TD*
G04 #@! TO.C,D94*
X195580000Y-31830000D03*
X195580000Y-29130000D03*
G04 #@! TD*
G04 #@! TO.C,D95*
X193040000Y-29130000D03*
X193040000Y-31830000D03*
G04 #@! TD*
G04 #@! TO.C,D96*
X190500000Y-29130000D03*
X190500000Y-31830000D03*
G04 #@! TD*
G04 #@! TO.C,D97*
X187960000Y-29130000D03*
X187960000Y-31830000D03*
G04 #@! TD*
G04 #@! TO.C,D98*
X185420000Y-29130000D03*
X185420000Y-31830000D03*
G04 #@! TD*
G04 #@! TO.C,D99*
X182880000Y-31830000D03*
X182880000Y-29130000D03*
G04 #@! TD*
G04 #@! TO.C,D100*
X180340000Y-29130000D03*
X180340000Y-31830000D03*
G04 #@! TD*
G04 #@! TO.C,D101*
X177800000Y-31830000D03*
X177800000Y-29130000D03*
G04 #@! TD*
G04 #@! TO.C,D102*
X175260000Y-31830000D03*
X175260000Y-29130000D03*
G04 #@! TD*
G04 #@! TO.C,D103*
X172720000Y-29130000D03*
X172720000Y-31830000D03*
G04 #@! TD*
G04 #@! TO.C,D104*
X144780000Y-92630000D03*
X144780000Y-95330000D03*
G04 #@! TD*
G04 #@! TO.C,D105*
X142240000Y-92630000D03*
X142240000Y-95330000D03*
G04 #@! TD*
G04 #@! TO.C,D106*
X139700000Y-95330000D03*
X139700000Y-92630000D03*
G04 #@! TD*
G04 #@! TO.C,D107*
X137160000Y-95330000D03*
X137160000Y-92630000D03*
G04 #@! TD*
G04 #@! TO.C,D108*
X134620000Y-92630000D03*
X134620000Y-95330000D03*
G04 #@! TD*
G04 #@! TO.C,D109*
X132080000Y-92630000D03*
X132080000Y-95330000D03*
G04 #@! TD*
G04 #@! TO.C,D110*
X129540000Y-95330000D03*
X129540000Y-92630000D03*
G04 #@! TD*
G04 #@! TO.C,D111*
X127000000Y-95330000D03*
X127000000Y-92630000D03*
G04 #@! TD*
G04 #@! TO.C,D112*
X124460000Y-95330000D03*
X124460000Y-92630000D03*
G04 #@! TD*
G04 #@! TO.C,D113*
X121920000Y-95330000D03*
X121920000Y-92630000D03*
G04 #@! TD*
G04 #@! TO.C,D114*
X119380000Y-92630000D03*
X119380000Y-95330000D03*
G04 #@! TD*
G04 #@! TO.C,D115*
X116840000Y-95330000D03*
X116840000Y-92630000D03*
G04 #@! TD*
G04 #@! TO.C,D116*
X114300000Y-92630000D03*
X114300000Y-95330000D03*
G04 #@! TD*
G04 #@! TO.C,D117*
X231140000Y-95330000D03*
X231140000Y-92630000D03*
G04 #@! TD*
G04 #@! TO.C,D118*
X228600000Y-95330000D03*
X228600000Y-92630000D03*
G04 #@! TD*
G04 #@! TO.C,D119*
X226060000Y-92630000D03*
X226060000Y-95330000D03*
G04 #@! TD*
G04 #@! TO.C,D120*
X223520000Y-92630000D03*
X223520000Y-95330000D03*
G04 #@! TD*
G04 #@! TO.C,D121*
X220980000Y-92630000D03*
X220980000Y-95330000D03*
G04 #@! TD*
G04 #@! TO.C,D122*
X218440000Y-95330000D03*
X218440000Y-92630000D03*
G04 #@! TD*
G04 #@! TO.C,D123*
X215900000Y-92630000D03*
X215900000Y-95330000D03*
G04 #@! TD*
G04 #@! TO.C,D124*
X213360000Y-95330000D03*
X213360000Y-92630000D03*
G04 #@! TD*
D10*
G04 #@! TO.C,R1*
X212170000Y-43180000D03*
X209470000Y-43180000D03*
G04 #@! TD*
G04 #@! TO.C,R2*
X209470000Y-45720000D03*
X212170000Y-45720000D03*
G04 #@! TD*
G04 #@! TO.C,R3*
X212170000Y-48260000D03*
X209470000Y-48260000D03*
G04 #@! TD*
G04 #@! TO.C,R4*
X209470000Y-50800000D03*
X212170000Y-50800000D03*
G04 #@! TD*
G04 #@! TO.C,R5*
X212170000Y-53340000D03*
X209470000Y-53340000D03*
G04 #@! TD*
G04 #@! TO.C,R6*
X209470000Y-55880000D03*
X212170000Y-55880000D03*
G04 #@! TD*
G04 #@! TO.C,R7*
X209470000Y-58420000D03*
X212170000Y-58420000D03*
G04 #@! TD*
G04 #@! TO.C,R8*
X212170000Y-60960000D03*
X209470000Y-60960000D03*
G04 #@! TD*
G04 #@! TO.C,R9*
X209470000Y-73660000D03*
X212170000Y-73660000D03*
G04 #@! TD*
G04 #@! TO.C,R10*
X212170000Y-66040000D03*
X209470000Y-66040000D03*
G04 #@! TD*
G04 #@! TO.C,R11*
X181530000Y-200660000D03*
X184230000Y-200660000D03*
G04 #@! TD*
G04 #@! TO.C,R12*
X128350000Y-73660000D03*
X125650000Y-73660000D03*
G04 #@! TD*
G04 #@! TO.C,R13*
X125650000Y-71120000D03*
X128350000Y-71120000D03*
G04 #@! TD*
G04 #@! TO.C,R14*
X46910000Y-73660000D03*
X49610000Y-73660000D03*
G04 #@! TD*
G04 #@! TO.C,R15*
X49610000Y-71120000D03*
X46910000Y-71120000D03*
G04 #@! TD*
G04 #@! TO.C,R16*
X46910000Y-137160000D03*
X49610000Y-137160000D03*
G04 #@! TD*
G04 #@! TO.C,R17*
X49610000Y-134620000D03*
X46910000Y-134620000D03*
G04 #@! TD*
G04 #@! TO.C,R18*
X44370000Y-200660000D03*
X47070000Y-200660000D03*
G04 #@! TD*
G04 #@! TO.C,R19*
X47070000Y-198120000D03*
X44370000Y-198120000D03*
G04 #@! TD*
G04 #@! TO.C,R20*
X90090000Y-200660000D03*
X92790000Y-200660000D03*
G04 #@! TD*
G04 #@! TO.C,R21*
X92790000Y-198120000D03*
X90090000Y-198120000D03*
G04 #@! TD*
G04 #@! TO.C,R22*
X184230000Y-198120000D03*
X181530000Y-198120000D03*
G04 #@! TD*
G04 #@! TO.C,R23*
X138510000Y-137160000D03*
X135810000Y-137160000D03*
G04 #@! TD*
D17*
G04 #@! TO.C,R24*
X20320000Y-36910000D03*
X20320000Y-34210000D03*
G04 #@! TD*
G04 #@! TO.C,R25*
X48260000Y-161210000D03*
X48260000Y-163910000D03*
G04 #@! TD*
G04 #@! TO.C,R26*
X45720000Y-161210000D03*
X45720000Y-163910000D03*
G04 #@! TD*
G04 #@! TO.C,R27*
X43180000Y-161210000D03*
X43180000Y-163910000D03*
G04 #@! TD*
G04 #@! TO.C,R28*
X40640000Y-163910000D03*
X40640000Y-161210000D03*
G04 #@! TD*
G04 #@! TO.C,R29*
X38100000Y-161210000D03*
X38100000Y-163910000D03*
G04 #@! TD*
G04 #@! TO.C,R30*
X35560000Y-163910000D03*
X35560000Y-161210000D03*
G04 #@! TD*
G04 #@! TO.C,R31*
X33020000Y-161210000D03*
X33020000Y-163910000D03*
G04 #@! TD*
G04 #@! TO.C,R32*
X30480000Y-163910000D03*
X30480000Y-161210000D03*
G04 #@! TD*
G04 #@! TO.C,R33*
X48260000Y-36910000D03*
X48260000Y-34210000D03*
G04 #@! TD*
G04 #@! TO.C,R34*
X45722916Y-34210000D03*
X45722916Y-36910000D03*
G04 #@! TD*
G04 #@! TO.C,R35*
X43182916Y-36910000D03*
X43182916Y-34210000D03*
G04 #@! TD*
G04 #@! TO.C,R36*
X40642916Y-34210000D03*
X40642916Y-36910000D03*
G04 #@! TD*
G04 #@! TO.C,R37*
X38102916Y-36910000D03*
X38102916Y-34210000D03*
G04 #@! TD*
G04 #@! TO.C,R38*
X35562916Y-34210000D03*
X35562916Y-36910000D03*
G04 #@! TD*
G04 #@! TO.C,R39*
X33022916Y-36910000D03*
X33022916Y-34210000D03*
G04 #@! TD*
G04 #@! TO.C,R40*
X30482916Y-34210000D03*
X30482916Y-36910000D03*
G04 #@! TD*
G04 #@! TO.C,R41*
X25400000Y-34210000D03*
X25400000Y-36910000D03*
G04 #@! TD*
G04 #@! TO.C,R42*
X48260000Y-100410000D03*
X48260000Y-97710000D03*
G04 #@! TD*
G04 #@! TO.C,R43*
X45720000Y-97710000D03*
X45720000Y-100410000D03*
G04 #@! TD*
G04 #@! TO.C,R44*
X43180000Y-100410000D03*
X43180000Y-97710000D03*
G04 #@! TD*
G04 #@! TO.C,R45*
X40640000Y-97710000D03*
X40640000Y-100410000D03*
G04 #@! TD*
G04 #@! TO.C,R46*
X38100000Y-100410000D03*
X38100000Y-97710000D03*
G04 #@! TD*
G04 #@! TO.C,R47*
X35560000Y-97710000D03*
X35560000Y-100410000D03*
G04 #@! TD*
G04 #@! TO.C,R48*
X33020000Y-100410000D03*
X33020000Y-97710000D03*
G04 #@! TD*
G04 #@! TO.C,R49*
X30480000Y-100410000D03*
X30480000Y-97710000D03*
G04 #@! TD*
D10*
G04 #@! TO.C,R50*
X54530000Y-63500000D03*
X57230000Y-63500000D03*
G04 #@! TD*
G04 #@! TO.C,R51*
X57230000Y-66040000D03*
X54530000Y-66040000D03*
G04 #@! TD*
G04 #@! TO.C,R52*
X54530000Y-60960000D03*
X57230000Y-60960000D03*
G04 #@! TD*
G04 #@! TO.C,R53*
X57230000Y-58420000D03*
X54530000Y-58420000D03*
G04 #@! TD*
G04 #@! TO.C,R54*
X54530000Y-55880000D03*
X57230000Y-55880000D03*
G04 #@! TD*
G04 #@! TO.C,R55*
X57230000Y-53340000D03*
X54530000Y-53340000D03*
G04 #@! TD*
G04 #@! TO.C,R56*
X54530000Y-50800000D03*
X57230000Y-50800000D03*
G04 #@! TD*
G04 #@! TO.C,R57*
X57230000Y-48260000D03*
X54530000Y-48260000D03*
G04 #@! TD*
G04 #@! TO.C,R58*
X54530000Y-127000000D03*
X57230000Y-127000000D03*
G04 #@! TD*
G04 #@! TO.C,R59*
X57230000Y-129540000D03*
X54530000Y-129540000D03*
G04 #@! TD*
G04 #@! TO.C,R60*
X57230000Y-124460000D03*
X54530000Y-124460000D03*
G04 #@! TD*
G04 #@! TO.C,R61*
X54530000Y-121920000D03*
X57230000Y-121920000D03*
G04 #@! TD*
G04 #@! TO.C,R62*
X57230000Y-119380000D03*
X54530000Y-119380000D03*
G04 #@! TD*
G04 #@! TO.C,R63*
X54530000Y-116840000D03*
X57230000Y-116840000D03*
G04 #@! TD*
G04 #@! TO.C,R64*
X57230000Y-114300000D03*
X54530000Y-114300000D03*
G04 #@! TD*
G04 #@! TO.C,R65*
X54530000Y-111760000D03*
X57230000Y-111760000D03*
G04 #@! TD*
D17*
G04 #@! TO.C,R66*
X53340000Y-148670000D03*
X53340000Y-145970000D03*
G04 #@! TD*
G04 #@! TO.C,R67*
X55880000Y-145970000D03*
X55880000Y-148670000D03*
G04 #@! TD*
G04 #@! TO.C,R68*
X50800000Y-145970000D03*
X50800000Y-148670000D03*
G04 #@! TD*
G04 #@! TO.C,R69*
X48260000Y-145970000D03*
X48260000Y-148670000D03*
G04 #@! TD*
G04 #@! TO.C,R70*
X45720000Y-145970000D03*
X45720000Y-148670000D03*
G04 #@! TD*
G04 #@! TO.C,R71*
X93980000Y-163656000D03*
X93980000Y-160956000D03*
G04 #@! TD*
G04 #@! TO.C,R72*
X91440000Y-163656000D03*
X91440000Y-160956000D03*
G04 #@! TD*
G04 #@! TO.C,R73*
X88900000Y-163656000D03*
X88900000Y-160956000D03*
G04 #@! TD*
G04 #@! TO.C,R74*
X86360000Y-160956000D03*
X86360000Y-163656000D03*
G04 #@! TD*
G04 #@! TO.C,R75*
X83820000Y-163910000D03*
X83820000Y-161210000D03*
G04 #@! TD*
G04 #@! TO.C,R76*
X81280000Y-163910000D03*
X81280000Y-161210000D03*
G04 #@! TD*
G04 #@! TO.C,R77*
X78740000Y-161210000D03*
X78740000Y-163910000D03*
G04 #@! TD*
G04 #@! TO.C,R78*
X76200000Y-163910000D03*
X76200000Y-161210000D03*
G04 #@! TD*
G04 #@! TO.C,R79*
X86360000Y-97710000D03*
X86360000Y-100410000D03*
G04 #@! TD*
G04 #@! TO.C,R80*
X83820000Y-100410000D03*
X83820000Y-97710000D03*
G04 #@! TD*
G04 #@! TO.C,R81*
X81280000Y-100410000D03*
X81280000Y-97710000D03*
G04 #@! TD*
G04 #@! TO.C,R82*
X99060000Y-148670000D03*
X99060000Y-145970000D03*
G04 #@! TD*
G04 #@! TO.C,R83*
X101600000Y-145970000D03*
X101600000Y-148670000D03*
G04 #@! TD*
G04 #@! TO.C,R84*
X96520000Y-148670000D03*
X96520000Y-145970000D03*
G04 #@! TD*
G04 #@! TO.C,R85*
X93980000Y-145970000D03*
X93980000Y-148670000D03*
G04 #@! TD*
G04 #@! TO.C,R86*
X91440000Y-145970000D03*
X91440000Y-148670000D03*
G04 #@! TD*
G04 #@! TO.C,R87*
X88900000Y-145970000D03*
X88900000Y-148670000D03*
G04 #@! TD*
G04 #@! TO.C,R88*
X86360000Y-148670000D03*
X86360000Y-145970000D03*
G04 #@! TD*
G04 #@! TO.C,R89*
X83820000Y-148670000D03*
X83820000Y-145970000D03*
G04 #@! TD*
G04 #@! TO.C,R90*
X129540000Y-36910000D03*
X129540000Y-34210000D03*
G04 #@! TD*
G04 #@! TO.C,R91*
X127000000Y-34210000D03*
X127000000Y-36910000D03*
G04 #@! TD*
G04 #@! TO.C,R92*
X124460000Y-36910000D03*
X124460000Y-34210000D03*
G04 #@! TD*
G04 #@! TO.C,R93*
X121920000Y-34210000D03*
X121920000Y-36910000D03*
G04 #@! TD*
G04 #@! TO.C,R94*
X119380000Y-36910000D03*
X119380000Y-34210000D03*
G04 #@! TD*
G04 #@! TO.C,R95*
X116840000Y-34210000D03*
X116840000Y-36910000D03*
G04 #@! TD*
G04 #@! TO.C,R96*
X114300000Y-34210000D03*
X114300000Y-36910000D03*
G04 #@! TD*
G04 #@! TO.C,R97*
X111760000Y-34210000D03*
X111760000Y-36910000D03*
G04 #@! TD*
G04 #@! TO.C,R98*
X106680000Y-36910000D03*
X106680000Y-34210000D03*
G04 #@! TD*
G04 #@! TO.C,R99*
X139700000Y-161210000D03*
X139700000Y-163910000D03*
G04 #@! TD*
G04 #@! TO.C,R100*
X137160000Y-161210000D03*
X137160000Y-163910000D03*
G04 #@! TD*
G04 #@! TO.C,R101*
X134620000Y-163910000D03*
X134620000Y-161210000D03*
G04 #@! TD*
G04 #@! TO.C,R102*
X132080000Y-161210000D03*
X132080000Y-163910000D03*
G04 #@! TD*
G04 #@! TO.C,R103*
X129540000Y-161210000D03*
X129540000Y-163910000D03*
G04 #@! TD*
G04 #@! TO.C,R104*
X127000000Y-163910000D03*
X127000000Y-161210000D03*
G04 #@! TD*
G04 #@! TO.C,R105*
X124460000Y-161210000D03*
X124460000Y-163910000D03*
G04 #@! TD*
G04 #@! TO.C,R106*
X121920000Y-163910000D03*
X121920000Y-161210000D03*
G04 #@! TD*
G04 #@! TO.C,R107*
X187960000Y-148670000D03*
X187960000Y-145970000D03*
G04 #@! TD*
G04 #@! TO.C,R108*
X190500000Y-148670000D03*
X190500000Y-145970000D03*
G04 #@! TD*
G04 #@! TO.C,R109*
X185420000Y-148670000D03*
X185420000Y-145970000D03*
G04 #@! TD*
G04 #@! TO.C,R110*
X182880000Y-148670000D03*
X182880000Y-145970000D03*
G04 #@! TD*
G04 #@! TO.C,R111*
X180340000Y-145970000D03*
X180340000Y-148670000D03*
G04 #@! TD*
G04 #@! TO.C,R112*
X177800000Y-148670000D03*
X177800000Y-145970000D03*
G04 #@! TD*
G04 #@! TO.C,R113*
X175260000Y-148670000D03*
X175260000Y-145970000D03*
G04 #@! TD*
G04 #@! TO.C,R114*
X172720000Y-148670000D03*
X172720000Y-145970000D03*
G04 #@! TD*
G04 #@! TO.C,R115*
X180340000Y-161210000D03*
X180340000Y-163910000D03*
G04 #@! TD*
G04 #@! TO.C,R116*
X177800000Y-163910000D03*
X177800000Y-161210000D03*
G04 #@! TD*
G04 #@! TO.C,R117*
X175260000Y-163910000D03*
X175260000Y-161210000D03*
G04 #@! TD*
G04 #@! TO.C,R118*
X172720000Y-163910000D03*
X172720000Y-161210000D03*
G04 #@! TD*
G04 #@! TO.C,R119*
X170180000Y-161210000D03*
X170180000Y-163910000D03*
G04 #@! TD*
G04 #@! TO.C,R120*
X167640000Y-161210000D03*
X167640000Y-163910000D03*
G04 #@! TD*
G04 #@! TO.C,R121*
X165100000Y-163910000D03*
X165100000Y-161210000D03*
G04 #@! TD*
G04 #@! TO.C,R122*
X162560000Y-163910000D03*
X162560000Y-161210000D03*
G04 #@! TD*
D10*
G04 #@! TO.C,R123*
X189150000Y-93980000D03*
X191850000Y-93980000D03*
G04 #@! TD*
G04 #@! TO.C,R124*
X191850000Y-96520000D03*
X189150000Y-96520000D03*
G04 #@! TD*
D17*
G04 #@! TO.C,R125*
X172720000Y-72310000D03*
X172720000Y-75010000D03*
G04 #@! TD*
G04 #@! TO.C,R126*
X175260000Y-75010000D03*
X175260000Y-72310000D03*
G04 #@! TD*
G04 #@! TO.C,R127*
X177800000Y-72310000D03*
X177800000Y-75010000D03*
G04 #@! TD*
G04 #@! TO.C,R128*
X182880000Y-79930000D03*
X182880000Y-82630000D03*
G04 #@! TD*
G04 #@! TO.C,R129*
X185420000Y-82630000D03*
X185420000Y-79930000D03*
G04 #@! TD*
G04 #@! TO.C,R130*
X187960000Y-79930000D03*
X187960000Y-82630000D03*
G04 #@! TD*
G04 #@! TO.C,R131*
X190500000Y-82630000D03*
X190500000Y-79930000D03*
G04 #@! TD*
G04 #@! TO.C,R132*
X193040000Y-79930000D03*
X193040000Y-82630000D03*
G04 #@! TD*
D10*
G04 #@! TO.C,R133*
X191850000Y-99060000D03*
X189150000Y-99060000D03*
G04 #@! TD*
G04 #@! TO.C,R134*
X191850000Y-101600000D03*
X189150000Y-101600000D03*
G04 #@! TD*
G04 #@! TO.C,R135*
X191850000Y-104140000D03*
X189150000Y-104140000D03*
G04 #@! TD*
G04 #@! TO.C,R136*
X189150000Y-106680000D03*
X191850000Y-106680000D03*
G04 #@! TD*
D17*
G04 #@! TO.C,R137*
X165100000Y-145970000D03*
X165100000Y-148670000D03*
G04 #@! TD*
G04 #@! TO.C,R138*
X167640000Y-148670000D03*
X167640000Y-145970000D03*
G04 #@! TD*
G04 #@! TO.C,R139*
X162560000Y-145970000D03*
X162560000Y-148670000D03*
G04 #@! TD*
G04 #@! TO.C,R140*
X160020000Y-148670000D03*
X160020000Y-145970000D03*
G04 #@! TD*
G04 #@! TO.C,R141*
X157480000Y-145970000D03*
X157480000Y-148670000D03*
G04 #@! TD*
G04 #@! TO.C,R142*
X215900000Y-36910000D03*
X215900000Y-34210000D03*
G04 #@! TD*
G04 #@! TO.C,R143*
X213360000Y-36910000D03*
X213360000Y-34210000D03*
G04 #@! TD*
G04 #@! TO.C,R144*
X210820000Y-36910000D03*
X210820000Y-34210000D03*
G04 #@! TD*
G04 #@! TO.C,R145*
X208280000Y-34210000D03*
X208280000Y-36910000D03*
G04 #@! TD*
G04 #@! TO.C,R146*
X205740000Y-36910000D03*
X205740000Y-34210000D03*
G04 #@! TD*
G04 #@! TO.C,R147*
X203200000Y-34210000D03*
X203200000Y-36910000D03*
G04 #@! TD*
G04 #@! TO.C,R148*
X200660000Y-36910000D03*
X200660000Y-34210000D03*
G04 #@! TD*
G04 #@! TO.C,R149*
X198120000Y-34210000D03*
X198120000Y-36910000D03*
G04 #@! TD*
G04 #@! TO.C,R150*
X195580000Y-36910000D03*
X195580000Y-34210000D03*
G04 #@! TD*
G04 #@! TO.C,R151*
X193040000Y-34210000D03*
X193040000Y-36910000D03*
G04 #@! TD*
G04 #@! TO.C,R152*
X190500000Y-34210000D03*
X190500000Y-36910000D03*
G04 #@! TD*
G04 #@! TO.C,R153*
X187960000Y-34210000D03*
X187960000Y-36910000D03*
G04 #@! TD*
G04 #@! TO.C,R154*
X185420000Y-36910000D03*
X185420000Y-34210000D03*
G04 #@! TD*
G04 #@! TO.C,R155*
X182880000Y-34210000D03*
X182880000Y-36910000D03*
G04 #@! TD*
G04 #@! TO.C,R156*
X180340000Y-36910000D03*
X180340000Y-34210000D03*
G04 #@! TD*
G04 #@! TO.C,R157*
X177800000Y-34210000D03*
X177800000Y-36910000D03*
G04 #@! TD*
G04 #@! TO.C,R158*
X175260000Y-36910000D03*
X175260000Y-34210000D03*
G04 #@! TD*
G04 #@! TO.C,R159*
X172720000Y-34210000D03*
X172720000Y-36910000D03*
G04 #@! TD*
G04 #@! TO.C,R160*
X144780000Y-97710000D03*
X144780000Y-100410000D03*
G04 #@! TD*
G04 #@! TO.C,R161*
X142240000Y-100410000D03*
X142240000Y-97710000D03*
G04 #@! TD*
G04 #@! TO.C,R162*
X139700000Y-97710000D03*
X139700000Y-100410000D03*
G04 #@! TD*
G04 #@! TO.C,R163*
X137160000Y-100410000D03*
X137160000Y-97710000D03*
G04 #@! TD*
G04 #@! TO.C,R164*
X134620000Y-97710000D03*
X134620000Y-100410000D03*
G04 #@! TD*
G04 #@! TO.C,R165*
X132080000Y-100410000D03*
X132080000Y-97710000D03*
G04 #@! TD*
G04 #@! TO.C,R166*
X129540000Y-100410000D03*
X129540000Y-97710000D03*
G04 #@! TD*
G04 #@! TO.C,R167*
X127000000Y-100410000D03*
X127000000Y-97710000D03*
G04 #@! TD*
G04 #@! TO.C,R168*
X124460000Y-97710000D03*
X124460000Y-100410000D03*
G04 #@! TD*
G04 #@! TO.C,R169*
X121920000Y-100410000D03*
X121920000Y-97710000D03*
G04 #@! TD*
G04 #@! TO.C,R170*
X119380000Y-97710000D03*
X119380000Y-100410000D03*
G04 #@! TD*
G04 #@! TO.C,R171*
X116840000Y-100410000D03*
X116840000Y-97710000D03*
G04 #@! TD*
G04 #@! TO.C,R172*
X114300000Y-97710000D03*
X114300000Y-100410000D03*
G04 #@! TD*
G04 #@! TO.C,R173*
X231140000Y-100410000D03*
X231140000Y-97710000D03*
G04 #@! TD*
G04 #@! TO.C,R174*
X228600000Y-100410000D03*
X228600000Y-97710000D03*
G04 #@! TD*
G04 #@! TO.C,R175*
X226060000Y-100410000D03*
X226060000Y-97710000D03*
G04 #@! TD*
G04 #@! TO.C,R176*
X223520000Y-97710000D03*
X223520000Y-100410000D03*
G04 #@! TD*
G04 #@! TO.C,R177*
X220980000Y-100410000D03*
X220980000Y-97710000D03*
G04 #@! TD*
G04 #@! TO.C,R178*
X218440000Y-97710000D03*
X218440000Y-100410000D03*
G04 #@! TD*
G04 #@! TO.C,R179*
X215900000Y-100410000D03*
X215900000Y-97710000D03*
G04 #@! TD*
G04 #@! TO.C,R180*
X213360000Y-97710000D03*
X213360000Y-100410000D03*
G04 #@! TD*
D10*
G04 #@! TO.C,R181*
X201850000Y-93980000D03*
X204550000Y-93980000D03*
G04 #@! TD*
G04 #@! TO.C,R182*
X204550000Y-96520000D03*
X201850000Y-96520000D03*
G04 #@! TD*
G04 #@! TO.C,R183*
X201850000Y-99060000D03*
X204550000Y-99060000D03*
G04 #@! TD*
G04 #@! TO.C,R184*
X204550000Y-101600000D03*
X201850000Y-101600000D03*
G04 #@! TD*
G04 #@! TO.C,R185*
X204550000Y-104140000D03*
X201850000Y-104140000D03*
G04 #@! TD*
G04 #@! TO.C,R186*
X201850000Y-106680000D03*
X204550000Y-106680000D03*
G04 #@! TD*
G04 #@! TO.C,R187*
X204550000Y-109220000D03*
X201850000Y-109220000D03*
G04 #@! TD*
G04 #@! TO.C,R188*
X201850000Y-111760000D03*
X204550000Y-111760000D03*
G04 #@! TD*
G04 #@! TO.C,R189*
X260430000Y-93980000D03*
X257730000Y-93980000D03*
G04 #@! TD*
G04 #@! TO.C,R190*
X257730000Y-109220000D03*
X260430000Y-109220000D03*
G04 #@! TD*
G04 #@! TO.C,R191*
X257730000Y-124460000D03*
X260430000Y-124460000D03*
G04 #@! TD*
M02*
