G04 #@! TF.GenerationSoftware,KiCad,Pcbnew,5.0.1*
G04 #@! TF.CreationDate,2018-12-21T00:26:38+11:00*
G04 #@! TF.ProjectId,cpld-cpu,63706C642D6370752E6B696361645F70,rev?*
G04 #@! TF.SameCoordinates,Original*
G04 #@! TF.FileFunction,Soldermask,Top*
G04 #@! TF.FilePolarity,Negative*
%FSLAX46Y46*%
G04 Gerber Fmt 4.6, Leading zero omitted, Abs format (unit mm)*
G04 Created by KiCad (PCBNEW 5.0.1) date Fri 21 Dec 2018 00:26:38 AEDT*
%MOMM*%
%LPD*%
G01*
G04 APERTURE LIST*
%ADD10C,0.300000*%
%ADD11C,0.500000*%
%ADD12C,0.700000*%
%ADD13C,0.010000*%
%ADD14C,4.400000*%
%ADD15R,1.600000X1.400000*%
%ADD16R,1.650000X1.400000*%
%ADD17R,1.600000X1.350000*%
%ADD18R,1.350000X1.600000*%
%ADD19R,0.650000X1.600000*%
%ADD20R,1.600000X0.650000*%
%ADD21O,1.800000X1.800000*%
%ADD22R,1.800000X1.800000*%
%ADD23R,1.700000X0.700000*%
%ADD24R,1.400000X1.600000*%
G04 APERTURE END LIST*
D10*
X226180000Y-32428571D02*
X226180000Y-30928571D01*
X226780000Y-32428571D02*
X226780000Y-31642857D01*
X226713333Y-31500000D01*
X226580000Y-31428571D01*
X226380000Y-31428571D01*
X226246666Y-31500000D01*
X226180000Y-31571428D01*
X227246666Y-31428571D02*
X227780000Y-31428571D01*
X227446666Y-30928571D02*
X227446666Y-32214285D01*
X227513333Y-32357142D01*
X227646666Y-32428571D01*
X227780000Y-32428571D01*
X228046666Y-31428571D02*
X228580000Y-31428571D01*
X228246666Y-30928571D02*
X228246666Y-32214285D01*
X228313333Y-32357142D01*
X228446666Y-32428571D01*
X228580000Y-32428571D01*
X229046666Y-31428571D02*
X229046666Y-32928571D01*
X229046666Y-31500000D02*
X229180000Y-31428571D01*
X229446666Y-31428571D01*
X229580000Y-31500000D01*
X229646666Y-31571428D01*
X229713333Y-31714285D01*
X229713333Y-32142857D01*
X229646666Y-32285714D01*
X229580000Y-32357142D01*
X229446666Y-32428571D01*
X229180000Y-32428571D01*
X229046666Y-32357142D01*
X230246666Y-32357142D02*
X230380000Y-32428571D01*
X230646666Y-32428571D01*
X230780000Y-32357142D01*
X230846666Y-32214285D01*
X230846666Y-32142857D01*
X230780000Y-32000000D01*
X230646666Y-31928571D01*
X230446666Y-31928571D01*
X230313333Y-31857142D01*
X230246666Y-31714285D01*
X230246666Y-31642857D01*
X230313333Y-31500000D01*
X230446666Y-31428571D01*
X230646666Y-31428571D01*
X230780000Y-31500000D01*
X231446666Y-32285714D02*
X231513333Y-32357142D01*
X231446666Y-32428571D01*
X231380000Y-32357142D01*
X231446666Y-32285714D01*
X231446666Y-32428571D01*
X231446666Y-31500000D02*
X231513333Y-31571428D01*
X231446666Y-31642857D01*
X231380000Y-31571428D01*
X231446666Y-31500000D01*
X231446666Y-31642857D01*
X233113333Y-30857142D02*
X231913333Y-32785714D01*
X234580000Y-30857142D02*
X233380000Y-32785714D01*
X235646666Y-31428571D02*
X235646666Y-32642857D01*
X235580000Y-32785714D01*
X235513333Y-32857142D01*
X235380000Y-32928571D01*
X235180000Y-32928571D01*
X235046666Y-32857142D01*
X235646666Y-32357142D02*
X235513333Y-32428571D01*
X235246666Y-32428571D01*
X235113333Y-32357142D01*
X235046666Y-32285714D01*
X234980000Y-32142857D01*
X234980000Y-31714285D01*
X235046666Y-31571428D01*
X235113333Y-31500000D01*
X235246666Y-31428571D01*
X235513333Y-31428571D01*
X235646666Y-31500000D01*
X236313333Y-32428571D02*
X236313333Y-31428571D01*
X236313333Y-30928571D02*
X236246666Y-31000000D01*
X236313333Y-31071428D01*
X236380000Y-31000000D01*
X236313333Y-30928571D01*
X236313333Y-31071428D01*
X236780000Y-31428571D02*
X237313333Y-31428571D01*
X236980000Y-30928571D02*
X236980000Y-32214285D01*
X237046666Y-32357142D01*
X237180000Y-32428571D01*
X237313333Y-32428571D01*
X237780000Y-32428571D02*
X237780000Y-30928571D01*
X238380000Y-32428571D02*
X238380000Y-31642857D01*
X238313333Y-31500000D01*
X238180000Y-31428571D01*
X237980000Y-31428571D01*
X237846666Y-31500000D01*
X237780000Y-31571428D01*
X239646666Y-31428571D02*
X239646666Y-32428571D01*
X239046666Y-31428571D02*
X239046666Y-32214285D01*
X239113333Y-32357142D01*
X239246666Y-32428571D01*
X239446666Y-32428571D01*
X239580000Y-32357142D01*
X239646666Y-32285714D01*
X240313333Y-32428571D02*
X240313333Y-30928571D01*
X240313333Y-31500000D02*
X240446666Y-31428571D01*
X240713333Y-31428571D01*
X240846666Y-31500000D01*
X240913333Y-31571428D01*
X240980000Y-31714285D01*
X240980000Y-32142857D01*
X240913333Y-32285714D01*
X240846666Y-32357142D01*
X240713333Y-32428571D01*
X240446666Y-32428571D01*
X240313333Y-32357142D01*
X241580000Y-32285714D02*
X241646666Y-32357142D01*
X241580000Y-32428571D01*
X241513333Y-32357142D01*
X241580000Y-32285714D01*
X241580000Y-32428571D01*
X242846666Y-32357142D02*
X242713333Y-32428571D01*
X242446666Y-32428571D01*
X242313333Y-32357142D01*
X242246666Y-32285714D01*
X242180000Y-32142857D01*
X242180000Y-31714285D01*
X242246666Y-31571428D01*
X242313333Y-31500000D01*
X242446666Y-31428571D01*
X242713333Y-31428571D01*
X242846666Y-31500000D01*
X243646666Y-32428571D02*
X243513333Y-32357142D01*
X243446666Y-32285714D01*
X243380000Y-32142857D01*
X243380000Y-31714285D01*
X243446666Y-31571428D01*
X243513333Y-31500000D01*
X243646666Y-31428571D01*
X243846666Y-31428571D01*
X243980000Y-31500000D01*
X244046666Y-31571428D01*
X244113333Y-31714285D01*
X244113333Y-32142857D01*
X244046666Y-32285714D01*
X243980000Y-32357142D01*
X243846666Y-32428571D01*
X243646666Y-32428571D01*
X244713333Y-32428571D02*
X244713333Y-31428571D01*
X244713333Y-31571428D02*
X244780000Y-31500000D01*
X244913333Y-31428571D01*
X245113333Y-31428571D01*
X245246666Y-31500000D01*
X245313333Y-31642857D01*
X245313333Y-32428571D01*
X245313333Y-31642857D02*
X245380000Y-31500000D01*
X245513333Y-31428571D01*
X245713333Y-31428571D01*
X245846666Y-31500000D01*
X245913333Y-31642857D01*
X245913333Y-32428571D01*
X247580000Y-30857142D02*
X246380000Y-32785714D01*
X248046666Y-31428571D02*
X248046666Y-32714285D01*
X247980000Y-32857142D01*
X247846666Y-32928571D01*
X247780000Y-32928571D01*
X248046666Y-30928571D02*
X247980000Y-31000000D01*
X248046666Y-31071428D01*
X248113333Y-31000000D01*
X248046666Y-30928571D01*
X248046666Y-31071428D01*
X248713333Y-32428571D02*
X248713333Y-31428571D01*
X248713333Y-30928571D02*
X248646666Y-31000000D01*
X248713333Y-31071428D01*
X248780000Y-31000000D01*
X248713333Y-30928571D01*
X248713333Y-31071428D01*
X249380000Y-32428571D02*
X249380000Y-31428571D01*
X249380000Y-31571428D02*
X249446666Y-31500000D01*
X249580000Y-31428571D01*
X249780000Y-31428571D01*
X249913333Y-31500000D01*
X249980000Y-31642857D01*
X249980000Y-32428571D01*
X249980000Y-31642857D02*
X250046666Y-31500000D01*
X250180000Y-31428571D01*
X250380000Y-31428571D01*
X250513333Y-31500000D01*
X250580000Y-31642857D01*
X250580000Y-32428571D01*
X251246666Y-32428571D02*
X251246666Y-31428571D01*
X251246666Y-31571428D02*
X251313333Y-31500000D01*
X251446666Y-31428571D01*
X251646666Y-31428571D01*
X251780000Y-31500000D01*
X251846666Y-31642857D01*
X251846666Y-32428571D01*
X251846666Y-31642857D02*
X251913333Y-31500000D01*
X252046666Y-31428571D01*
X252246666Y-31428571D01*
X252380000Y-31500000D01*
X252446666Y-31642857D01*
X252446666Y-32428571D01*
X253313333Y-32428571D02*
X253180000Y-32357142D01*
X253113333Y-32285714D01*
X253046666Y-32142857D01*
X253046666Y-31714285D01*
X253113333Y-31571428D01*
X253180000Y-31500000D01*
X253313333Y-31428571D01*
X253513333Y-31428571D01*
X253646666Y-31500000D01*
X253713333Y-31571428D01*
X253780000Y-31714285D01*
X253780000Y-32142857D01*
X253713333Y-32285714D01*
X253646666Y-32357142D01*
X253513333Y-32428571D01*
X253313333Y-32428571D01*
X255380000Y-30857142D02*
X254180000Y-32785714D01*
X256446666Y-32357142D02*
X256313333Y-32428571D01*
X256046666Y-32428571D01*
X255913333Y-32357142D01*
X255846666Y-32285714D01*
X255780000Y-32142857D01*
X255780000Y-31714285D01*
X255846666Y-31571428D01*
X255913333Y-31500000D01*
X256046666Y-31428571D01*
X256313333Y-31428571D01*
X256446666Y-31500000D01*
X257046666Y-31428571D02*
X257046666Y-32928571D01*
X257046666Y-31500000D02*
X257180000Y-31428571D01*
X257446666Y-31428571D01*
X257580000Y-31500000D01*
X257646666Y-31571428D01*
X257713333Y-31714285D01*
X257713333Y-32142857D01*
X257646666Y-32285714D01*
X257580000Y-32357142D01*
X257446666Y-32428571D01*
X257180000Y-32428571D01*
X257046666Y-32357142D01*
X258513333Y-32428571D02*
X258380000Y-32357142D01*
X258313333Y-32214285D01*
X258313333Y-30928571D01*
X259646666Y-32428571D02*
X259646666Y-30928571D01*
X259646666Y-32357142D02*
X259513333Y-32428571D01*
X259246666Y-32428571D01*
X259113333Y-32357142D01*
X259046666Y-32285714D01*
X258980000Y-32142857D01*
X258980000Y-31714285D01*
X259046666Y-31571428D01*
X259113333Y-31500000D01*
X259246666Y-31428571D01*
X259513333Y-31428571D01*
X259646666Y-31500000D01*
X260313333Y-31857142D02*
X261380000Y-31857142D01*
X262646666Y-32357142D02*
X262513333Y-32428571D01*
X262246666Y-32428571D01*
X262113333Y-32357142D01*
X262046666Y-32285714D01*
X261980000Y-32142857D01*
X261980000Y-31714285D01*
X262046666Y-31571428D01*
X262113333Y-31500000D01*
X262246666Y-31428571D01*
X262513333Y-31428571D01*
X262646666Y-31500000D01*
X263246666Y-31428571D02*
X263246666Y-32928571D01*
X263246666Y-31500000D02*
X263380000Y-31428571D01*
X263646666Y-31428571D01*
X263780000Y-31500000D01*
X263846666Y-31571428D01*
X263913333Y-31714285D01*
X263913333Y-32142857D01*
X263846666Y-32285714D01*
X263780000Y-32357142D01*
X263646666Y-32428571D01*
X263380000Y-32428571D01*
X263246666Y-32357142D01*
X265113333Y-31428571D02*
X265113333Y-32428571D01*
X264513333Y-31428571D02*
X264513333Y-32214285D01*
X264580000Y-32357142D01*
X264713333Y-32428571D01*
X264913333Y-32428571D01*
X265046666Y-32357142D01*
X265113333Y-32285714D01*
X266780000Y-30857142D02*
X265580000Y-32785714D01*
D11*
X243522857Y-41307142D02*
X243999047Y-43307142D01*
X244475238Y-41307142D01*
X246284761Y-43307142D02*
X245141904Y-43307142D01*
X245713333Y-43307142D02*
X245713333Y-40307142D01*
X245522857Y-40735714D01*
X245332380Y-41021428D01*
X245141904Y-41164285D01*
X247141904Y-43021428D02*
X247237142Y-43164285D01*
X247141904Y-43307142D01*
X247046666Y-43164285D01*
X247141904Y-43021428D01*
X247141904Y-43307142D01*
X248475238Y-40307142D02*
X248665714Y-40307142D01*
X248856190Y-40450000D01*
X248951428Y-40592857D01*
X249046666Y-40878571D01*
X249141904Y-41450000D01*
X249141904Y-42164285D01*
X249046666Y-42735714D01*
X248951428Y-43021428D01*
X248856190Y-43164285D01*
X248665714Y-43307142D01*
X248475238Y-43307142D01*
X248284761Y-43164285D01*
X248189523Y-43021428D01*
X248094285Y-42735714D01*
X247999047Y-42164285D01*
X247999047Y-41450000D01*
X248094285Y-40878571D01*
X248189523Y-40592857D01*
X248284761Y-40450000D01*
X248475238Y-40307142D01*
X236665714Y-45592857D02*
X236760952Y-45450000D01*
X236951428Y-45307142D01*
X237427619Y-45307142D01*
X237618095Y-45450000D01*
X237713333Y-45592857D01*
X237808571Y-45878571D01*
X237808571Y-46164285D01*
X237713333Y-46592857D01*
X236570476Y-48307142D01*
X237808571Y-48307142D01*
X239046666Y-45307142D02*
X239237142Y-45307142D01*
X239427619Y-45450000D01*
X239522857Y-45592857D01*
X239618095Y-45878571D01*
X239713333Y-46450000D01*
X239713333Y-47164285D01*
X239618095Y-47735714D01*
X239522857Y-48021428D01*
X239427619Y-48164285D01*
X239237142Y-48307142D01*
X239046666Y-48307142D01*
X238856190Y-48164285D01*
X238760952Y-48021428D01*
X238665714Y-47735714D01*
X238570476Y-47164285D01*
X238570476Y-46450000D01*
X238665714Y-45878571D01*
X238760952Y-45592857D01*
X238856190Y-45450000D01*
X239046666Y-45307142D01*
X241618095Y-48307142D02*
X240475238Y-48307142D01*
X241046666Y-48307142D02*
X241046666Y-45307142D01*
X240856190Y-45735714D01*
X240665714Y-46021428D01*
X240475238Y-46164285D01*
X242760952Y-46592857D02*
X242570476Y-46450000D01*
X242475238Y-46307142D01*
X242380000Y-46021428D01*
X242380000Y-45878571D01*
X242475238Y-45592857D01*
X242570476Y-45450000D01*
X242760952Y-45307142D01*
X243141904Y-45307142D01*
X243332380Y-45450000D01*
X243427619Y-45592857D01*
X243522857Y-45878571D01*
X243522857Y-46021428D01*
X243427619Y-46307142D01*
X243332380Y-46450000D01*
X243141904Y-46592857D01*
X242760952Y-46592857D01*
X242570476Y-46735714D01*
X242475238Y-46878571D01*
X242380000Y-47164285D01*
X242380000Y-47735714D01*
X242475238Y-48021428D01*
X242570476Y-48164285D01*
X242760952Y-48307142D01*
X243141904Y-48307142D01*
X243332380Y-48164285D01*
X243427619Y-48021428D01*
X243522857Y-47735714D01*
X243522857Y-47164285D01*
X243427619Y-46878571D01*
X243332380Y-46735714D01*
X243141904Y-46592857D01*
X244380000Y-47164285D02*
X245903809Y-47164285D01*
X247903809Y-48307142D02*
X246760952Y-48307142D01*
X247332380Y-48307142D02*
X247332380Y-45307142D01*
X247141904Y-45735714D01*
X246951428Y-46021428D01*
X246760952Y-46164285D01*
X248665714Y-45592857D02*
X248760952Y-45450000D01*
X248951428Y-45307142D01*
X249427619Y-45307142D01*
X249618095Y-45450000D01*
X249713333Y-45592857D01*
X249808571Y-45878571D01*
X249808571Y-46164285D01*
X249713333Y-46592857D01*
X248570476Y-48307142D01*
X249808571Y-48307142D01*
X250665714Y-47164285D02*
X252189523Y-47164285D01*
X253046666Y-45592857D02*
X253141904Y-45450000D01*
X253332380Y-45307142D01*
X253808571Y-45307142D01*
X253999047Y-45450000D01*
X254094285Y-45592857D01*
X254189523Y-45878571D01*
X254189523Y-46164285D01*
X254094285Y-46592857D01*
X252951428Y-48307142D01*
X254189523Y-48307142D01*
X255427619Y-45307142D02*
X255618095Y-45307142D01*
X255808571Y-45450000D01*
X255903809Y-45592857D01*
X255999047Y-45878571D01*
X256094285Y-46450000D01*
X256094285Y-47164285D01*
X255999047Y-47735714D01*
X255903809Y-48021428D01*
X255808571Y-48164285D01*
X255618095Y-48307142D01*
X255427619Y-48307142D01*
X255237142Y-48164285D01*
X255141904Y-48021428D01*
X255046666Y-47735714D01*
X254951428Y-47164285D01*
X254951428Y-46450000D01*
X255046666Y-45878571D01*
X255141904Y-45592857D01*
X255237142Y-45450000D01*
X255427619Y-45307142D01*
D12*
X237380000Y-27185714D02*
X237237142Y-27423809D01*
X236808571Y-27661904D01*
X236522857Y-27661904D01*
X236094285Y-27423809D01*
X235808571Y-26947619D01*
X235665714Y-26471428D01*
X235522857Y-25519047D01*
X235522857Y-24804761D01*
X235665714Y-23852380D01*
X235808571Y-23376190D01*
X236094285Y-22900000D01*
X236522857Y-22661904D01*
X236808571Y-22661904D01*
X237237142Y-22900000D01*
X237380000Y-23138095D01*
X238665714Y-27661904D02*
X238665714Y-22661904D01*
X239808571Y-22661904D01*
X240094285Y-22900000D01*
X240237142Y-23138095D01*
X240380000Y-23614285D01*
X240380000Y-24328571D01*
X240237142Y-24804761D01*
X240094285Y-25042857D01*
X239808571Y-25280952D01*
X238665714Y-25280952D01*
X243094285Y-27661904D02*
X241665714Y-27661904D01*
X241665714Y-22661904D01*
X244094285Y-27661904D02*
X244094285Y-22661904D01*
X244808571Y-22661904D01*
X245237142Y-22900000D01*
X245522857Y-23376190D01*
X245665714Y-23852380D01*
X245808571Y-24804761D01*
X245808571Y-25519047D01*
X245665714Y-26471428D01*
X245522857Y-26947619D01*
X245237142Y-27423809D01*
X244808571Y-27661904D01*
X244094285Y-27661904D01*
X251094285Y-27185714D02*
X250951428Y-27423809D01*
X250522857Y-27661904D01*
X250237142Y-27661904D01*
X249808571Y-27423809D01*
X249522857Y-26947619D01*
X249380000Y-26471428D01*
X249237142Y-25519047D01*
X249237142Y-24804761D01*
X249380000Y-23852380D01*
X249522857Y-23376190D01*
X249808571Y-22900000D01*
X250237142Y-22661904D01*
X250522857Y-22661904D01*
X250951428Y-22900000D01*
X251094285Y-23138095D01*
X252380000Y-27661904D02*
X252380000Y-22661904D01*
X253522857Y-22661904D01*
X253808571Y-22900000D01*
X253951428Y-23138095D01*
X254094285Y-23614285D01*
X254094285Y-24328571D01*
X253951428Y-24804761D01*
X253808571Y-25042857D01*
X253522857Y-25280952D01*
X252380000Y-25280952D01*
X255380000Y-22661904D02*
X255380000Y-26709523D01*
X255522857Y-27185714D01*
X255665714Y-27423809D01*
X255951428Y-27661904D01*
X256522857Y-27661904D01*
X256808571Y-27423809D01*
X256951428Y-27185714D01*
X257094285Y-26709523D01*
X257094285Y-22661904D01*
D13*
G04 #@! TO.C,S2*
G36*
X232661900Y-66091903D02*
X232773450Y-66147522D01*
X232871908Y-66249931D01*
X232899023Y-66287864D01*
X232928562Y-66337500D01*
X232947728Y-66391412D01*
X232958693Y-66463364D01*
X232963629Y-66567122D01*
X232964713Y-66704101D01*
X232959818Y-66891815D01*
X232942804Y-67032758D01*
X232910177Y-67137908D01*
X232858442Y-67218243D01*
X232784104Y-67284741D01*
X232778642Y-67288678D01*
X232705380Y-67328953D01*
X232617160Y-67348880D01*
X232504962Y-67353793D01*
X232322567Y-67353793D01*
X232322491Y-67530857D01*
X232320793Y-67629470D01*
X232310450Y-67687314D01*
X232283422Y-67722006D01*
X232231668Y-67751164D01*
X232219239Y-67757121D01*
X232161077Y-67785039D01*
X232116044Y-67802672D01*
X232082559Y-67804194D01*
X232059038Y-67783781D01*
X232043900Y-67735607D01*
X232035563Y-67653846D01*
X232032444Y-67532672D01*
X232032960Y-67366260D01*
X232035529Y-67148785D01*
X232036332Y-67083736D01*
X232039222Y-66859502D01*
X232041812Y-66712821D01*
X232322414Y-66712821D01*
X232323991Y-66837326D01*
X232331000Y-66918787D01*
X232346858Y-66972515D01*
X232374981Y-67013823D01*
X232394075Y-67033971D01*
X232472135Y-67092921D01*
X232541247Y-67097720D01*
X232612560Y-67049038D01*
X232614368Y-67047241D01*
X232643383Y-67009618D01*
X232661033Y-66958484D01*
X232669936Y-66879738D01*
X232672709Y-66759276D01*
X232672759Y-66732588D01*
X232666058Y-66566583D01*
X232644248Y-66451505D01*
X232604765Y-66381254D01*
X232545044Y-66349729D01*
X232510528Y-66346552D01*
X232428611Y-66361460D01*
X232372421Y-66410548D01*
X232338598Y-66500362D01*
X232323780Y-66637445D01*
X232322414Y-66712821D01*
X232041812Y-66712821D01*
X232042287Y-66685952D01*
X232046247Y-66555382D01*
X232051826Y-66460087D01*
X232059746Y-66392364D01*
X232070731Y-66344507D01*
X232085501Y-66308813D01*
X232104782Y-66277578D01*
X232113049Y-66265824D01*
X232222712Y-66154797D01*
X232361365Y-66091847D01*
X232521754Y-66074297D01*
X232661900Y-66091903D01*
X232661900Y-66091903D01*
G37*
X232661900Y-66091903D02*
X232773450Y-66147522D01*
X232871908Y-66249931D01*
X232899023Y-66287864D01*
X232928562Y-66337500D01*
X232947728Y-66391412D01*
X232958693Y-66463364D01*
X232963629Y-66567122D01*
X232964713Y-66704101D01*
X232959818Y-66891815D01*
X232942804Y-67032758D01*
X232910177Y-67137908D01*
X232858442Y-67218243D01*
X232784104Y-67284741D01*
X232778642Y-67288678D01*
X232705380Y-67328953D01*
X232617160Y-67348880D01*
X232504962Y-67353793D01*
X232322567Y-67353793D01*
X232322491Y-67530857D01*
X232320793Y-67629470D01*
X232310450Y-67687314D01*
X232283422Y-67722006D01*
X232231668Y-67751164D01*
X232219239Y-67757121D01*
X232161077Y-67785039D01*
X232116044Y-67802672D01*
X232082559Y-67804194D01*
X232059038Y-67783781D01*
X232043900Y-67735607D01*
X232035563Y-67653846D01*
X232032444Y-67532672D01*
X232032960Y-67366260D01*
X232035529Y-67148785D01*
X232036332Y-67083736D01*
X232039222Y-66859502D01*
X232041812Y-66712821D01*
X232322414Y-66712821D01*
X232323991Y-66837326D01*
X232331000Y-66918787D01*
X232346858Y-66972515D01*
X232374981Y-67013823D01*
X232394075Y-67033971D01*
X232472135Y-67092921D01*
X232541247Y-67097720D01*
X232612560Y-67049038D01*
X232614368Y-67047241D01*
X232643383Y-67009618D01*
X232661033Y-66958484D01*
X232669936Y-66879738D01*
X232672709Y-66759276D01*
X232672759Y-66732588D01*
X232666058Y-66566583D01*
X232644248Y-66451505D01*
X232604765Y-66381254D01*
X232545044Y-66349729D01*
X232510528Y-66346552D01*
X232428611Y-66361460D01*
X232372421Y-66410548D01*
X232338598Y-66500362D01*
X232323780Y-66637445D01*
X232322414Y-66712821D01*
X232041812Y-66712821D01*
X232042287Y-66685952D01*
X232046247Y-66555382D01*
X232051826Y-66460087D01*
X232059746Y-66392364D01*
X232070731Y-66344507D01*
X232085501Y-66308813D01*
X232104782Y-66277578D01*
X232113049Y-66265824D01*
X232222712Y-66154797D01*
X232361365Y-66091847D01*
X232521754Y-66074297D01*
X232661900Y-66091903D01*
G36*
X234907429Y-66107719D02*
X235001123Y-66161914D01*
X235066264Y-66215707D01*
X235113907Y-66272066D01*
X235146728Y-66340987D01*
X235167406Y-66432468D01*
X235178620Y-66556506D01*
X235183049Y-66723098D01*
X235183563Y-66842851D01*
X235183563Y-67283659D01*
X235059483Y-67339283D01*
X234935402Y-67394907D01*
X234920805Y-66912095D01*
X234914773Y-66731779D01*
X234908445Y-66600901D01*
X234900606Y-66510511D01*
X234890037Y-66451664D01*
X234875523Y-66415413D01*
X234855848Y-66392810D01*
X234849535Y-66387917D01*
X234753888Y-66349706D01*
X234657207Y-66364827D01*
X234599655Y-66404943D01*
X234576245Y-66433370D01*
X234560039Y-66470672D01*
X234549741Y-66527223D01*
X234544049Y-66613394D01*
X234541664Y-66739558D01*
X234541264Y-66871042D01*
X234541186Y-67035999D01*
X234538361Y-67152761D01*
X234528907Y-67231510D01*
X234508940Y-67282431D01*
X234474576Y-67315706D01*
X234421932Y-67341520D01*
X234351617Y-67368344D01*
X234274820Y-67397542D01*
X234283962Y-66879346D01*
X234287643Y-66692539D01*
X234291950Y-66554490D01*
X234298123Y-66455568D01*
X234307402Y-66386145D01*
X234321027Y-66336590D01*
X234340239Y-66297273D01*
X234363402Y-66262584D01*
X234475152Y-66151770D01*
X234611513Y-66087689D01*
X234759825Y-66072339D01*
X234907429Y-66107719D01*
X234907429Y-66107719D01*
G37*
X234907429Y-66107719D02*
X235001123Y-66161914D01*
X235066264Y-66215707D01*
X235113907Y-66272066D01*
X235146728Y-66340987D01*
X235167406Y-66432468D01*
X235178620Y-66556506D01*
X235183049Y-66723098D01*
X235183563Y-66842851D01*
X235183563Y-67283659D01*
X235059483Y-67339283D01*
X234935402Y-67394907D01*
X234920805Y-66912095D01*
X234914773Y-66731779D01*
X234908445Y-66600901D01*
X234900606Y-66510511D01*
X234890037Y-66451664D01*
X234875523Y-66415413D01*
X234855848Y-66392810D01*
X234849535Y-66387917D01*
X234753888Y-66349706D01*
X234657207Y-66364827D01*
X234599655Y-66404943D01*
X234576245Y-66433370D01*
X234560039Y-66470672D01*
X234549741Y-66527223D01*
X234544049Y-66613394D01*
X234541664Y-66739558D01*
X234541264Y-66871042D01*
X234541186Y-67035999D01*
X234538361Y-67152761D01*
X234528907Y-67231510D01*
X234508940Y-67282431D01*
X234474576Y-67315706D01*
X234421932Y-67341520D01*
X234351617Y-67368344D01*
X234274820Y-67397542D01*
X234283962Y-66879346D01*
X234287643Y-66692539D01*
X234291950Y-66554490D01*
X234298123Y-66455568D01*
X234307402Y-66386145D01*
X234321027Y-66336590D01*
X234340239Y-66297273D01*
X234363402Y-66262584D01*
X234475152Y-66151770D01*
X234611513Y-66087689D01*
X234759825Y-66072339D01*
X234907429Y-66107719D01*
G36*
X231538221Y-66096015D02*
X231675061Y-66167968D01*
X231776051Y-66283766D01*
X231811925Y-66358213D01*
X231839839Y-66469992D01*
X231854129Y-66611227D01*
X231855484Y-66765371D01*
X231844595Y-66915879D01*
X231822153Y-67046205D01*
X231788850Y-67139803D01*
X231778615Y-67155922D01*
X231657382Y-67276249D01*
X231513387Y-67348317D01*
X231357139Y-67369408D01*
X231199148Y-67336802D01*
X231155180Y-67317253D01*
X231069556Y-67257012D01*
X230994408Y-67177135D01*
X230987306Y-67167004D01*
X230958439Y-67118181D01*
X230939357Y-67065990D01*
X230928084Y-66997285D01*
X230922645Y-66898918D01*
X230921062Y-66757744D01*
X230921035Y-66726092D01*
X230921107Y-66716019D01*
X231212989Y-66716019D01*
X231214687Y-66849256D01*
X231221372Y-66937674D01*
X231235425Y-66994785D01*
X231259229Y-67034102D01*
X231271379Y-67047241D01*
X231341236Y-67097172D01*
X231409059Y-67094895D01*
X231477635Y-67051584D01*
X231518535Y-67005346D01*
X231542758Y-66937857D01*
X231556361Y-66831433D01*
X231557294Y-66819020D01*
X231559616Y-66626147D01*
X231535350Y-66482900D01*
X231484824Y-66390160D01*
X231408368Y-66348807D01*
X231381076Y-66346552D01*
X231309411Y-66357893D01*
X231260390Y-66397184D01*
X231230418Y-66472326D01*
X231215899Y-66591222D01*
X231212989Y-66716019D01*
X230921107Y-66716019D01*
X230922122Y-66575659D01*
X230926688Y-66470549D01*
X230936688Y-66397714D01*
X230954079Y-66344108D01*
X230980816Y-66296681D01*
X230986724Y-66287864D01*
X231086032Y-66169007D01*
X231194242Y-66100008D01*
X231325981Y-66072619D01*
X231370717Y-66071281D01*
X231538221Y-66096015D01*
X231538221Y-66096015D01*
G37*
X231538221Y-66096015D02*
X231675061Y-66167968D01*
X231776051Y-66283766D01*
X231811925Y-66358213D01*
X231839839Y-66469992D01*
X231854129Y-66611227D01*
X231855484Y-66765371D01*
X231844595Y-66915879D01*
X231822153Y-67046205D01*
X231788850Y-67139803D01*
X231778615Y-67155922D01*
X231657382Y-67276249D01*
X231513387Y-67348317D01*
X231357139Y-67369408D01*
X231199148Y-67336802D01*
X231155180Y-67317253D01*
X231069556Y-67257012D01*
X230994408Y-67177135D01*
X230987306Y-67167004D01*
X230958439Y-67118181D01*
X230939357Y-67065990D01*
X230928084Y-66997285D01*
X230922645Y-66898918D01*
X230921062Y-66757744D01*
X230921035Y-66726092D01*
X230921107Y-66716019D01*
X231212989Y-66716019D01*
X231214687Y-66849256D01*
X231221372Y-66937674D01*
X231235425Y-66994785D01*
X231259229Y-67034102D01*
X231271379Y-67047241D01*
X231341236Y-67097172D01*
X231409059Y-67094895D01*
X231477635Y-67051584D01*
X231518535Y-67005346D01*
X231542758Y-66937857D01*
X231556361Y-66831433D01*
X231557294Y-66819020D01*
X231559616Y-66626147D01*
X231535350Y-66482900D01*
X231484824Y-66390160D01*
X231408368Y-66348807D01*
X231381076Y-66346552D01*
X231309411Y-66357893D01*
X231260390Y-66397184D01*
X231230418Y-66472326D01*
X231215899Y-66591222D01*
X231212989Y-66716019D01*
X230921107Y-66716019D01*
X230922122Y-66575659D01*
X230926688Y-66470549D01*
X230936688Y-66397714D01*
X230954079Y-66344108D01*
X230980816Y-66296681D01*
X230986724Y-66287864D01*
X231086032Y-66169007D01*
X231194242Y-66100008D01*
X231325981Y-66072619D01*
X231370717Y-66071281D01*
X231538221Y-66096015D01*
G36*
X233805552Y-66114676D02*
X233920658Y-66192111D01*
X234009611Y-66303949D01*
X234062749Y-66446265D01*
X234073497Y-66551015D01*
X234072276Y-66594726D01*
X234062056Y-66628194D01*
X234033961Y-66658179D01*
X233979116Y-66691440D01*
X233888645Y-66734738D01*
X233753672Y-66794833D01*
X233752989Y-66795134D01*
X233628751Y-66852037D01*
X233526873Y-66902565D01*
X233457767Y-66941280D01*
X233431846Y-66962740D01*
X233431839Y-66962913D01*
X233454685Y-67009644D01*
X233508109Y-67061154D01*
X233569442Y-67098261D01*
X233600515Y-67105632D01*
X233685289Y-67080138D01*
X233758293Y-67016291D01*
X233793913Y-66946094D01*
X233828180Y-66894343D01*
X233895303Y-66835409D01*
X233974208Y-66784496D01*
X234043821Y-66756809D01*
X234058377Y-66755287D01*
X234074763Y-66780321D01*
X234075750Y-66844311D01*
X234063708Y-66930593D01*
X234041007Y-67022501D01*
X234010014Y-67103369D01*
X234008448Y-67106509D01*
X233915181Y-67236734D01*
X233794304Y-67325311D01*
X233657027Y-67368786D01*
X233514560Y-67363706D01*
X233378112Y-67306616D01*
X233372045Y-67302602D01*
X233264710Y-67205326D01*
X233194132Y-67078409D01*
X233155074Y-66911526D01*
X233149832Y-66864639D01*
X233140548Y-66643329D01*
X233151678Y-66540124D01*
X233431839Y-66540124D01*
X233435479Y-66604503D01*
X233455389Y-66623291D01*
X233505026Y-66609235D01*
X233583267Y-66576009D01*
X233670726Y-66534359D01*
X233672899Y-66533256D01*
X233747030Y-66494265D01*
X233776781Y-66468244D01*
X233769445Y-66440965D01*
X233738553Y-66405121D01*
X233659960Y-66353251D01*
X233575323Y-66349439D01*
X233499403Y-66387189D01*
X233446965Y-66460001D01*
X233431839Y-66540124D01*
X233151678Y-66540124D01*
X233159644Y-66466261D01*
X233208634Y-66325829D01*
X233276836Y-66227447D01*
X233399935Y-66128030D01*
X233535528Y-66078711D01*
X233673955Y-66075568D01*
X233805552Y-66114676D01*
X233805552Y-66114676D01*
G37*
X233805552Y-66114676D02*
X233920658Y-66192111D01*
X234009611Y-66303949D01*
X234062749Y-66446265D01*
X234073497Y-66551015D01*
X234072276Y-66594726D01*
X234062056Y-66628194D01*
X234033961Y-66658179D01*
X233979116Y-66691440D01*
X233888645Y-66734738D01*
X233753672Y-66794833D01*
X233752989Y-66795134D01*
X233628751Y-66852037D01*
X233526873Y-66902565D01*
X233457767Y-66941280D01*
X233431846Y-66962740D01*
X233431839Y-66962913D01*
X233454685Y-67009644D01*
X233508109Y-67061154D01*
X233569442Y-67098261D01*
X233600515Y-67105632D01*
X233685289Y-67080138D01*
X233758293Y-67016291D01*
X233793913Y-66946094D01*
X233828180Y-66894343D01*
X233895303Y-66835409D01*
X233974208Y-66784496D01*
X234043821Y-66756809D01*
X234058377Y-66755287D01*
X234074763Y-66780321D01*
X234075750Y-66844311D01*
X234063708Y-66930593D01*
X234041007Y-67022501D01*
X234010014Y-67103369D01*
X234008448Y-67106509D01*
X233915181Y-67236734D01*
X233794304Y-67325311D01*
X233657027Y-67368786D01*
X233514560Y-67363706D01*
X233378112Y-67306616D01*
X233372045Y-67302602D01*
X233264710Y-67205326D01*
X233194132Y-67078409D01*
X233155074Y-66911526D01*
X233149832Y-66864639D01*
X233140548Y-66643329D01*
X233151678Y-66540124D01*
X233431839Y-66540124D01*
X233435479Y-66604503D01*
X233455389Y-66623291D01*
X233505026Y-66609235D01*
X233583267Y-66576009D01*
X233670726Y-66534359D01*
X233672899Y-66533256D01*
X233747030Y-66494265D01*
X233776781Y-66468244D01*
X233769445Y-66440965D01*
X233738553Y-66405121D01*
X233659960Y-66353251D01*
X233575323Y-66349439D01*
X233499403Y-66387189D01*
X233446965Y-66460001D01*
X233431839Y-66540124D01*
X233151678Y-66540124D01*
X233159644Y-66466261D01*
X233208634Y-66325829D01*
X233276836Y-66227447D01*
X233399935Y-66128030D01*
X233535528Y-66078711D01*
X233673955Y-66075568D01*
X233805552Y-66114676D01*
G36*
X236234598Y-65953857D02*
X236243154Y-66073188D01*
X236252981Y-66143506D01*
X236266599Y-66174179D01*
X236286527Y-66174571D01*
X236292989Y-66170910D01*
X236378940Y-66144398D01*
X236490745Y-66145946D01*
X236604414Y-66173199D01*
X236675510Y-66208455D01*
X236748405Y-66264778D01*
X236801693Y-66328519D01*
X236838275Y-66409510D01*
X236861050Y-66517586D01*
X236872919Y-66662580D01*
X236876782Y-66854326D01*
X236876851Y-66891109D01*
X236876897Y-67304288D01*
X236784954Y-67336339D01*
X236719652Y-67358144D01*
X236683824Y-67368297D01*
X236682770Y-67368391D01*
X236679242Y-67340860D01*
X236676239Y-67264923D01*
X236673990Y-67150565D01*
X236672724Y-67007769D01*
X236672529Y-66920951D01*
X236672123Y-66749773D01*
X236670032Y-66627088D01*
X236664947Y-66543000D01*
X236655560Y-66487614D01*
X236640561Y-66451032D01*
X236618642Y-66423359D01*
X236604957Y-66410032D01*
X236510949Y-66356328D01*
X236408364Y-66352307D01*
X236315290Y-66397725D01*
X236298078Y-66414123D01*
X236272832Y-66444957D01*
X236255320Y-66481531D01*
X236244142Y-66534415D01*
X236237896Y-66614177D01*
X236235182Y-66731385D01*
X236234598Y-66892991D01*
X236234598Y-67304288D01*
X236142655Y-67336339D01*
X236077353Y-67358144D01*
X236041525Y-67368297D01*
X236040471Y-67368391D01*
X236037775Y-67340448D01*
X236035345Y-67261630D01*
X236033278Y-67139453D01*
X236031671Y-66981432D01*
X236030623Y-66795083D01*
X236030231Y-66587920D01*
X236030230Y-66578706D01*
X236030230Y-65789020D01*
X236125115Y-65748997D01*
X236220000Y-65708973D01*
X236234598Y-65953857D01*
X236234598Y-65953857D01*
G37*
X236234598Y-65953857D02*
X236243154Y-66073188D01*
X236252981Y-66143506D01*
X236266599Y-66174179D01*
X236286527Y-66174571D01*
X236292989Y-66170910D01*
X236378940Y-66144398D01*
X236490745Y-66145946D01*
X236604414Y-66173199D01*
X236675510Y-66208455D01*
X236748405Y-66264778D01*
X236801693Y-66328519D01*
X236838275Y-66409510D01*
X236861050Y-66517586D01*
X236872919Y-66662580D01*
X236876782Y-66854326D01*
X236876851Y-66891109D01*
X236876897Y-67304288D01*
X236784954Y-67336339D01*
X236719652Y-67358144D01*
X236683824Y-67368297D01*
X236682770Y-67368391D01*
X236679242Y-67340860D01*
X236676239Y-67264923D01*
X236673990Y-67150565D01*
X236672724Y-67007769D01*
X236672529Y-66920951D01*
X236672123Y-66749773D01*
X236670032Y-66627088D01*
X236664947Y-66543000D01*
X236655560Y-66487614D01*
X236640561Y-66451032D01*
X236618642Y-66423359D01*
X236604957Y-66410032D01*
X236510949Y-66356328D01*
X236408364Y-66352307D01*
X236315290Y-66397725D01*
X236298078Y-66414123D01*
X236272832Y-66444957D01*
X236255320Y-66481531D01*
X236244142Y-66534415D01*
X236237896Y-66614177D01*
X236235182Y-66731385D01*
X236234598Y-66892991D01*
X236234598Y-67304288D01*
X236142655Y-67336339D01*
X236077353Y-67358144D01*
X236041525Y-67368297D01*
X236040471Y-67368391D01*
X236037775Y-67340448D01*
X236035345Y-67261630D01*
X236033278Y-67139453D01*
X236031671Y-66981432D01*
X236030623Y-66795083D01*
X236030231Y-66587920D01*
X236030230Y-66578706D01*
X236030230Y-65789020D01*
X236125115Y-65748997D01*
X236220000Y-65708973D01*
X236234598Y-65953857D01*
G36*
X237569944Y-66154360D02*
X237684343Y-66196842D01*
X237685652Y-66197658D01*
X237756403Y-66249730D01*
X237808636Y-66310584D01*
X237845371Y-66389887D01*
X237869634Y-66497309D01*
X237884445Y-66642517D01*
X237892829Y-66835179D01*
X237893564Y-66862628D01*
X237904120Y-67276521D01*
X237815291Y-67322456D01*
X237751018Y-67353498D01*
X237712210Y-67368206D01*
X237710415Y-67368391D01*
X237703700Y-67341250D01*
X237698365Y-67268041D01*
X237695083Y-67161081D01*
X237694368Y-67074469D01*
X237694351Y-66934162D01*
X237687937Y-66846051D01*
X237665580Y-66804025D01*
X237617732Y-66801975D01*
X237534849Y-66833790D01*
X237409713Y-66892272D01*
X237317697Y-66940845D01*
X237270371Y-66982986D01*
X237256458Y-67028916D01*
X237256437Y-67031189D01*
X237279395Y-67110311D01*
X237347370Y-67153055D01*
X237451398Y-67159246D01*
X237526330Y-67158172D01*
X237565839Y-67179753D01*
X237590478Y-67231591D01*
X237604659Y-67297632D01*
X237584223Y-67335104D01*
X237576528Y-67340467D01*
X237504083Y-67362006D01*
X237402633Y-67365055D01*
X237298157Y-67350778D01*
X237224125Y-67324688D01*
X237121772Y-67237785D01*
X237063591Y-67116816D01*
X237052069Y-67022308D01*
X237060862Y-66937062D01*
X237092680Y-66867476D01*
X237155684Y-66805672D01*
X237258031Y-66743772D01*
X237407882Y-66673897D01*
X237417012Y-66669948D01*
X237551997Y-66607588D01*
X237635294Y-66556446D01*
X237670997Y-66510488D01*
X237663203Y-66463683D01*
X237616007Y-66409998D01*
X237601894Y-66397644D01*
X237507359Y-66349741D01*
X237409406Y-66351758D01*
X237324097Y-66398724D01*
X237267496Y-66485669D01*
X237262237Y-66502734D01*
X237211023Y-66585504D01*
X237146037Y-66625372D01*
X237052069Y-66664882D01*
X237052069Y-66562658D01*
X237080653Y-66414072D01*
X237165495Y-66277784D01*
X237209645Y-66232191D01*
X237310005Y-66173674D01*
X237437635Y-66147184D01*
X237569944Y-66154360D01*
X237569944Y-66154360D01*
G37*
X237569944Y-66154360D02*
X237684343Y-66196842D01*
X237685652Y-66197658D01*
X237756403Y-66249730D01*
X237808636Y-66310584D01*
X237845371Y-66389887D01*
X237869634Y-66497309D01*
X237884445Y-66642517D01*
X237892829Y-66835179D01*
X237893564Y-66862628D01*
X237904120Y-67276521D01*
X237815291Y-67322456D01*
X237751018Y-67353498D01*
X237712210Y-67368206D01*
X237710415Y-67368391D01*
X237703700Y-67341250D01*
X237698365Y-67268041D01*
X237695083Y-67161081D01*
X237694368Y-67074469D01*
X237694351Y-66934162D01*
X237687937Y-66846051D01*
X237665580Y-66804025D01*
X237617732Y-66801975D01*
X237534849Y-66833790D01*
X237409713Y-66892272D01*
X237317697Y-66940845D01*
X237270371Y-66982986D01*
X237256458Y-67028916D01*
X237256437Y-67031189D01*
X237279395Y-67110311D01*
X237347370Y-67153055D01*
X237451398Y-67159246D01*
X237526330Y-67158172D01*
X237565839Y-67179753D01*
X237590478Y-67231591D01*
X237604659Y-67297632D01*
X237584223Y-67335104D01*
X237576528Y-67340467D01*
X237504083Y-67362006D01*
X237402633Y-67365055D01*
X237298157Y-67350778D01*
X237224125Y-67324688D01*
X237121772Y-67237785D01*
X237063591Y-67116816D01*
X237052069Y-67022308D01*
X237060862Y-66937062D01*
X237092680Y-66867476D01*
X237155684Y-66805672D01*
X237258031Y-66743772D01*
X237407882Y-66673897D01*
X237417012Y-66669948D01*
X237551997Y-66607588D01*
X237635294Y-66556446D01*
X237670997Y-66510488D01*
X237663203Y-66463683D01*
X237616007Y-66409998D01*
X237601894Y-66397644D01*
X237507359Y-66349741D01*
X237409406Y-66351758D01*
X237324097Y-66398724D01*
X237267496Y-66485669D01*
X237262237Y-66502734D01*
X237211023Y-66585504D01*
X237146037Y-66625372D01*
X237052069Y-66664882D01*
X237052069Y-66562658D01*
X237080653Y-66414072D01*
X237165495Y-66277784D01*
X237209645Y-66232191D01*
X237310005Y-66173674D01*
X237437635Y-66147184D01*
X237569944Y-66154360D01*
G36*
X238555943Y-66151920D02*
X238688565Y-66200859D01*
X238796010Y-66287419D01*
X238838032Y-66348352D01*
X238883843Y-66460161D01*
X238882891Y-66541006D01*
X238834808Y-66595378D01*
X238817017Y-66604624D01*
X238740204Y-66633450D01*
X238700976Y-66626065D01*
X238687689Y-66577658D01*
X238687012Y-66550920D01*
X238662686Y-66452548D01*
X238599281Y-66383734D01*
X238511154Y-66350498D01*
X238412663Y-66358861D01*
X238332602Y-66402296D01*
X238305561Y-66427072D01*
X238286394Y-66457129D01*
X238273446Y-66502565D01*
X238265064Y-66573476D01*
X238259593Y-66679960D01*
X238255378Y-66832112D01*
X238254287Y-66880287D01*
X238250307Y-67045095D01*
X238245781Y-67161088D01*
X238238995Y-67237833D01*
X238228231Y-67284893D01*
X238211773Y-67311835D01*
X238187906Y-67328223D01*
X238172626Y-67335463D01*
X238107733Y-67360220D01*
X238069534Y-67368391D01*
X238056912Y-67341103D01*
X238049208Y-67258603D01*
X238046380Y-67119941D01*
X238048386Y-66924162D01*
X238049011Y-66893965D01*
X238053421Y-66715349D01*
X238058635Y-66584923D01*
X238066055Y-66492492D01*
X238077082Y-66427858D01*
X238093117Y-66380825D01*
X238115561Y-66341196D01*
X238127302Y-66324215D01*
X238194619Y-66249080D01*
X238269910Y-66190638D01*
X238279128Y-66185536D01*
X238414133Y-66145260D01*
X238555943Y-66151920D01*
X238555943Y-66151920D01*
G37*
X238555943Y-66151920D02*
X238688565Y-66200859D01*
X238796010Y-66287419D01*
X238838032Y-66348352D01*
X238883843Y-66460161D01*
X238882891Y-66541006D01*
X238834808Y-66595378D01*
X238817017Y-66604624D01*
X238740204Y-66633450D01*
X238700976Y-66626065D01*
X238687689Y-66577658D01*
X238687012Y-66550920D01*
X238662686Y-66452548D01*
X238599281Y-66383734D01*
X238511154Y-66350498D01*
X238412663Y-66358861D01*
X238332602Y-66402296D01*
X238305561Y-66427072D01*
X238286394Y-66457129D01*
X238273446Y-66502565D01*
X238265064Y-66573476D01*
X238259593Y-66679960D01*
X238255378Y-66832112D01*
X238254287Y-66880287D01*
X238250307Y-67045095D01*
X238245781Y-67161088D01*
X238238995Y-67237833D01*
X238228231Y-67284893D01*
X238211773Y-67311835D01*
X238187906Y-67328223D01*
X238172626Y-67335463D01*
X238107733Y-67360220D01*
X238069534Y-67368391D01*
X238056912Y-67341103D01*
X238049208Y-67258603D01*
X238046380Y-67119941D01*
X238048386Y-66924162D01*
X238049011Y-66893965D01*
X238053421Y-66715349D01*
X238058635Y-66584923D01*
X238066055Y-66492492D01*
X238077082Y-66427858D01*
X238093117Y-66380825D01*
X238115561Y-66341196D01*
X238127302Y-66324215D01*
X238194619Y-66249080D01*
X238269910Y-66190638D01*
X238279128Y-66185536D01*
X238414133Y-66145260D01*
X238555943Y-66151920D01*
G36*
X239883914Y-66384455D02*
X239883543Y-66602661D01*
X239882108Y-66770519D01*
X239879002Y-66896070D01*
X239873622Y-66987355D01*
X239865362Y-67052415D01*
X239853616Y-67099291D01*
X239837781Y-67136024D01*
X239825790Y-67156991D01*
X239726490Y-67270694D01*
X239600588Y-67341965D01*
X239461291Y-67367538D01*
X239321805Y-67344150D01*
X239238743Y-67302119D01*
X239151545Y-67229411D01*
X239092117Y-67140612D01*
X239056261Y-67024320D01*
X239039781Y-66869135D01*
X239037447Y-66755287D01*
X239037761Y-66747106D01*
X239241724Y-66747106D01*
X239242970Y-66877657D01*
X239248678Y-66964080D01*
X239261804Y-67020618D01*
X239285306Y-67061514D01*
X239313386Y-67092362D01*
X239407688Y-67151905D01*
X239508940Y-67156992D01*
X239604636Y-67107279D01*
X239612084Y-67100543D01*
X239643874Y-67065502D01*
X239663808Y-67023811D01*
X239674600Y-66961762D01*
X239678965Y-66865644D01*
X239679655Y-66759379D01*
X239678159Y-66625880D01*
X239671964Y-66536822D01*
X239658514Y-66478293D01*
X239635251Y-66436382D01*
X239616175Y-66414123D01*
X239527563Y-66357985D01*
X239425508Y-66351235D01*
X239328095Y-66394114D01*
X239309296Y-66410032D01*
X239277293Y-66445382D01*
X239257318Y-66487502D01*
X239246593Y-66550251D01*
X239242339Y-66647487D01*
X239241724Y-66747106D01*
X239037761Y-66747106D01*
X239044504Y-66571947D01*
X239068472Y-66434195D01*
X239113548Y-66330632D01*
X239183928Y-66249856D01*
X239238743Y-66208455D01*
X239338376Y-66163728D01*
X239453855Y-66142967D01*
X239561199Y-66148525D01*
X239621264Y-66170943D01*
X239644835Y-66177323D01*
X239660477Y-66153535D01*
X239671395Y-66089788D01*
X239679655Y-65992687D01*
X239688699Y-65884541D01*
X239701261Y-65819475D01*
X239724119Y-65782268D01*
X239764051Y-65757699D01*
X239789138Y-65746819D01*
X239884023Y-65707072D01*
X239883914Y-66384455D01*
X239883914Y-66384455D01*
G37*
X239883914Y-66384455D02*
X239883543Y-66602661D01*
X239882108Y-66770519D01*
X239879002Y-66896070D01*
X239873622Y-66987355D01*
X239865362Y-67052415D01*
X239853616Y-67099291D01*
X239837781Y-67136024D01*
X239825790Y-67156991D01*
X239726490Y-67270694D01*
X239600588Y-67341965D01*
X239461291Y-67367538D01*
X239321805Y-67344150D01*
X239238743Y-67302119D01*
X239151545Y-67229411D01*
X239092117Y-67140612D01*
X239056261Y-67024320D01*
X239039781Y-66869135D01*
X239037447Y-66755287D01*
X239037761Y-66747106D01*
X239241724Y-66747106D01*
X239242970Y-66877657D01*
X239248678Y-66964080D01*
X239261804Y-67020618D01*
X239285306Y-67061514D01*
X239313386Y-67092362D01*
X239407688Y-67151905D01*
X239508940Y-67156992D01*
X239604636Y-67107279D01*
X239612084Y-67100543D01*
X239643874Y-67065502D01*
X239663808Y-67023811D01*
X239674600Y-66961762D01*
X239678965Y-66865644D01*
X239679655Y-66759379D01*
X239678159Y-66625880D01*
X239671964Y-66536822D01*
X239658514Y-66478293D01*
X239635251Y-66436382D01*
X239616175Y-66414123D01*
X239527563Y-66357985D01*
X239425508Y-66351235D01*
X239328095Y-66394114D01*
X239309296Y-66410032D01*
X239277293Y-66445382D01*
X239257318Y-66487502D01*
X239246593Y-66550251D01*
X239242339Y-66647487D01*
X239241724Y-66747106D01*
X239037761Y-66747106D01*
X239044504Y-66571947D01*
X239068472Y-66434195D01*
X239113548Y-66330632D01*
X239183928Y-66249856D01*
X239238743Y-66208455D01*
X239338376Y-66163728D01*
X239453855Y-66142967D01*
X239561199Y-66148525D01*
X239621264Y-66170943D01*
X239644835Y-66177323D01*
X239660477Y-66153535D01*
X239671395Y-66089788D01*
X239679655Y-65992687D01*
X239688699Y-65884541D01*
X239701261Y-65819475D01*
X239724119Y-65782268D01*
X239764051Y-65757699D01*
X239789138Y-65746819D01*
X239884023Y-65707072D01*
X239883914Y-66384455D01*
G36*
X241070124Y-66169840D02*
X241074579Y-66246653D01*
X241078071Y-66363391D01*
X241080315Y-66510821D01*
X241081035Y-66665455D01*
X241081035Y-67188727D01*
X240988645Y-67281117D01*
X240924978Y-67338047D01*
X240869089Y-67361107D01*
X240792702Y-67359647D01*
X240762380Y-67355934D01*
X240667610Y-67345126D01*
X240589222Y-67338933D01*
X240570115Y-67338361D01*
X240505699Y-67342102D01*
X240413571Y-67351494D01*
X240377850Y-67355934D01*
X240290114Y-67362801D01*
X240231153Y-67347885D01*
X240172690Y-67301835D01*
X240151585Y-67281117D01*
X240059195Y-67188727D01*
X240059195Y-66209947D01*
X240133558Y-66176066D01*
X240197590Y-66150970D01*
X240235052Y-66142184D01*
X240244657Y-66169950D01*
X240253635Y-66247530D01*
X240261386Y-66366348D01*
X240267314Y-66517828D01*
X240270173Y-66645805D01*
X240278161Y-67149425D01*
X240347848Y-67159278D01*
X240411229Y-67152389D01*
X240442286Y-67130083D01*
X240450967Y-67088379D01*
X240458378Y-66999544D01*
X240463931Y-66874834D01*
X240467036Y-66725507D01*
X240467484Y-66648661D01*
X240467931Y-66206287D01*
X240559874Y-66174235D01*
X240624949Y-66152443D01*
X240660347Y-66142281D01*
X240661368Y-66142184D01*
X240664920Y-66169809D01*
X240668823Y-66246411D01*
X240672751Y-66362579D01*
X240676376Y-66508904D01*
X240678908Y-66645805D01*
X240686897Y-67149425D01*
X240862069Y-67149425D01*
X240870107Y-66689965D01*
X240878146Y-66230505D01*
X240963543Y-66186344D01*
X241026593Y-66156019D01*
X241063910Y-66142258D01*
X241064987Y-66142184D01*
X241070124Y-66169840D01*
X241070124Y-66169840D01*
G37*
X241070124Y-66169840D02*
X241074579Y-66246653D01*
X241078071Y-66363391D01*
X241080315Y-66510821D01*
X241081035Y-66665455D01*
X241081035Y-67188727D01*
X240988645Y-67281117D01*
X240924978Y-67338047D01*
X240869089Y-67361107D01*
X240792702Y-67359647D01*
X240762380Y-67355934D01*
X240667610Y-67345126D01*
X240589222Y-67338933D01*
X240570115Y-67338361D01*
X240505699Y-67342102D01*
X240413571Y-67351494D01*
X240377850Y-67355934D01*
X240290114Y-67362801D01*
X240231153Y-67347885D01*
X240172690Y-67301835D01*
X240151585Y-67281117D01*
X240059195Y-67188727D01*
X240059195Y-66209947D01*
X240133558Y-66176066D01*
X240197590Y-66150970D01*
X240235052Y-66142184D01*
X240244657Y-66169950D01*
X240253635Y-66247530D01*
X240261386Y-66366348D01*
X240267314Y-66517828D01*
X240270173Y-66645805D01*
X240278161Y-67149425D01*
X240347848Y-67159278D01*
X240411229Y-67152389D01*
X240442286Y-67130083D01*
X240450967Y-67088379D01*
X240458378Y-66999544D01*
X240463931Y-66874834D01*
X240467036Y-66725507D01*
X240467484Y-66648661D01*
X240467931Y-66206287D01*
X240559874Y-66174235D01*
X240624949Y-66152443D01*
X240660347Y-66142281D01*
X240661368Y-66142184D01*
X240664920Y-66169809D01*
X240668823Y-66246411D01*
X240672751Y-66362579D01*
X240676376Y-66508904D01*
X240678908Y-66645805D01*
X240686897Y-67149425D01*
X240862069Y-67149425D01*
X240870107Y-66689965D01*
X240878146Y-66230505D01*
X240963543Y-66186344D01*
X241026593Y-66156019D01*
X241063910Y-66142258D01*
X241064987Y-66142184D01*
X241070124Y-66169840D01*
G36*
X241804406Y-66165156D02*
X241888469Y-66203393D01*
X241954450Y-66249726D01*
X242002794Y-66301532D01*
X242036172Y-66368363D01*
X242057253Y-66459769D01*
X242068707Y-66585301D01*
X242073203Y-66754508D01*
X242073678Y-66865933D01*
X242073678Y-67300627D01*
X241999316Y-67334509D01*
X241940746Y-67359272D01*
X241911730Y-67368391D01*
X241906179Y-67341257D01*
X241901775Y-67268094D01*
X241899078Y-67161263D01*
X241898506Y-67076437D01*
X241896046Y-66953887D01*
X241889412Y-66856668D01*
X241879726Y-66797134D01*
X241872032Y-66784483D01*
X241820311Y-66797402D01*
X241739117Y-66830539D01*
X241645102Y-66875461D01*
X241554917Y-66923735D01*
X241485215Y-66966928D01*
X241452648Y-66996608D01*
X241452519Y-66996929D01*
X241455320Y-67051857D01*
X241480439Y-67104292D01*
X241524541Y-67146881D01*
X241588909Y-67161126D01*
X241643921Y-67159466D01*
X241721835Y-67158245D01*
X241762732Y-67176498D01*
X241787295Y-67224726D01*
X241790392Y-67233820D01*
X241801040Y-67302598D01*
X241772565Y-67344360D01*
X241698344Y-67364263D01*
X241618168Y-67367944D01*
X241473890Y-67340658D01*
X241399203Y-67301690D01*
X241306963Y-67210148D01*
X241258043Y-67097782D01*
X241253654Y-66979051D01*
X241295001Y-66868411D01*
X241357197Y-66799080D01*
X241419294Y-66760265D01*
X241516895Y-66711125D01*
X241630632Y-66661292D01*
X241649590Y-66653677D01*
X241774521Y-66598545D01*
X241846539Y-66549954D01*
X241869700Y-66501647D01*
X241848064Y-66447370D01*
X241810920Y-66404943D01*
X241723127Y-66352702D01*
X241626530Y-66348784D01*
X241537944Y-66389041D01*
X241474186Y-66469326D01*
X241465817Y-66490040D01*
X241417096Y-66566225D01*
X241345965Y-66622785D01*
X241256207Y-66669201D01*
X241256207Y-66537584D01*
X241261490Y-66457168D01*
X241284142Y-66393786D01*
X241334367Y-66326163D01*
X241382582Y-66274076D01*
X241457554Y-66200322D01*
X241515806Y-66160702D01*
X241578372Y-66144810D01*
X241649193Y-66142184D01*
X241804406Y-66165156D01*
X241804406Y-66165156D01*
G37*
X241804406Y-66165156D02*
X241888469Y-66203393D01*
X241954450Y-66249726D01*
X242002794Y-66301532D01*
X242036172Y-66368363D01*
X242057253Y-66459769D01*
X242068707Y-66585301D01*
X242073203Y-66754508D01*
X242073678Y-66865933D01*
X242073678Y-67300627D01*
X241999316Y-67334509D01*
X241940746Y-67359272D01*
X241911730Y-67368391D01*
X241906179Y-67341257D01*
X241901775Y-67268094D01*
X241899078Y-67161263D01*
X241898506Y-67076437D01*
X241896046Y-66953887D01*
X241889412Y-66856668D01*
X241879726Y-66797134D01*
X241872032Y-66784483D01*
X241820311Y-66797402D01*
X241739117Y-66830539D01*
X241645102Y-66875461D01*
X241554917Y-66923735D01*
X241485215Y-66966928D01*
X241452648Y-66996608D01*
X241452519Y-66996929D01*
X241455320Y-67051857D01*
X241480439Y-67104292D01*
X241524541Y-67146881D01*
X241588909Y-67161126D01*
X241643921Y-67159466D01*
X241721835Y-67158245D01*
X241762732Y-67176498D01*
X241787295Y-67224726D01*
X241790392Y-67233820D01*
X241801040Y-67302598D01*
X241772565Y-67344360D01*
X241698344Y-67364263D01*
X241618168Y-67367944D01*
X241473890Y-67340658D01*
X241399203Y-67301690D01*
X241306963Y-67210148D01*
X241258043Y-67097782D01*
X241253654Y-66979051D01*
X241295001Y-66868411D01*
X241357197Y-66799080D01*
X241419294Y-66760265D01*
X241516895Y-66711125D01*
X241630632Y-66661292D01*
X241649590Y-66653677D01*
X241774521Y-66598545D01*
X241846539Y-66549954D01*
X241869700Y-66501647D01*
X241848064Y-66447370D01*
X241810920Y-66404943D01*
X241723127Y-66352702D01*
X241626530Y-66348784D01*
X241537944Y-66389041D01*
X241474186Y-66469326D01*
X241465817Y-66490040D01*
X241417096Y-66566225D01*
X241345965Y-66622785D01*
X241256207Y-66669201D01*
X241256207Y-66537584D01*
X241261490Y-66457168D01*
X241284142Y-66393786D01*
X241334367Y-66326163D01*
X241382582Y-66274076D01*
X241457554Y-66200322D01*
X241515806Y-66160702D01*
X241578372Y-66144810D01*
X241649193Y-66142184D01*
X241804406Y-66165156D01*
G36*
X242825690Y-66170018D02*
X242860585Y-66185269D01*
X242943877Y-66251235D01*
X243015103Y-66346618D01*
X243059153Y-66448406D01*
X243066322Y-66498587D01*
X243042285Y-66568647D01*
X242989561Y-66605717D01*
X242933031Y-66628164D01*
X242907146Y-66632300D01*
X242894542Y-66602283D01*
X242869654Y-66536961D01*
X242858735Y-66507445D01*
X242797508Y-66405348D01*
X242708861Y-66354423D01*
X242595193Y-66355989D01*
X242586774Y-66357994D01*
X242526088Y-66386767D01*
X242481474Y-66442859D01*
X242451002Y-66533163D01*
X242432744Y-66664571D01*
X242424771Y-66843974D01*
X242424023Y-66939433D01*
X242423652Y-67089913D01*
X242421223Y-67192495D01*
X242414760Y-67257672D01*
X242402288Y-67295938D01*
X242381833Y-67317785D01*
X242351419Y-67333707D01*
X242349661Y-67334509D01*
X242291091Y-67359272D01*
X242262075Y-67368391D01*
X242257616Y-67340822D01*
X242253799Y-67264620D01*
X242250899Y-67149541D01*
X242249191Y-67005341D01*
X242248851Y-66899814D01*
X242250588Y-66695613D01*
X242257382Y-66540697D01*
X242271607Y-66426024D01*
X242295638Y-66342551D01*
X242331848Y-66281236D01*
X242382612Y-66233034D01*
X242432739Y-66199393D01*
X242553275Y-66154619D01*
X242693557Y-66144521D01*
X242825690Y-66170018D01*
X242825690Y-66170018D01*
G37*
X242825690Y-66170018D02*
X242860585Y-66185269D01*
X242943877Y-66251235D01*
X243015103Y-66346618D01*
X243059153Y-66448406D01*
X243066322Y-66498587D01*
X243042285Y-66568647D01*
X242989561Y-66605717D01*
X242933031Y-66628164D01*
X242907146Y-66632300D01*
X242894542Y-66602283D01*
X242869654Y-66536961D01*
X242858735Y-66507445D01*
X242797508Y-66405348D01*
X242708861Y-66354423D01*
X242595193Y-66355989D01*
X242586774Y-66357994D01*
X242526088Y-66386767D01*
X242481474Y-66442859D01*
X242451002Y-66533163D01*
X242432744Y-66664571D01*
X242424771Y-66843974D01*
X242424023Y-66939433D01*
X242423652Y-67089913D01*
X242421223Y-67192495D01*
X242414760Y-67257672D01*
X242402288Y-67295938D01*
X242381833Y-67317785D01*
X242351419Y-67333707D01*
X242349661Y-67334509D01*
X242291091Y-67359272D01*
X242262075Y-67368391D01*
X242257616Y-67340822D01*
X242253799Y-67264620D01*
X242250899Y-67149541D01*
X242249191Y-67005341D01*
X242248851Y-66899814D01*
X242250588Y-66695613D01*
X242257382Y-66540697D01*
X242271607Y-66426024D01*
X242295638Y-66342551D01*
X242331848Y-66281236D01*
X242382612Y-66233034D01*
X242432739Y-66199393D01*
X242553275Y-66154619D01*
X242693557Y-66144521D01*
X242825690Y-66170018D01*
G36*
X243833439Y-66186540D02*
X243948950Y-66262034D01*
X244004664Y-66329617D01*
X244048804Y-66452255D01*
X244052309Y-66549298D01*
X244044368Y-66679056D01*
X243745115Y-66810039D01*
X243599611Y-66876958D01*
X243504537Y-66930790D01*
X243455101Y-66977416D01*
X243446511Y-67022720D01*
X243473972Y-67072582D01*
X243504253Y-67105632D01*
X243592363Y-67158633D01*
X243688196Y-67162347D01*
X243776212Y-67121041D01*
X243840869Y-67038983D01*
X243852433Y-67010008D01*
X243907825Y-66919509D01*
X243971553Y-66880940D01*
X244058966Y-66847946D01*
X244058966Y-66973034D01*
X244051238Y-67058156D01*
X244020966Y-67129938D01*
X243957518Y-67212356D01*
X243948088Y-67223066D01*
X243877513Y-67296391D01*
X243816847Y-67335742D01*
X243740950Y-67353845D01*
X243678030Y-67359774D01*
X243565487Y-67361251D01*
X243485370Y-67342535D01*
X243435390Y-67314747D01*
X243356838Y-67253641D01*
X243302463Y-67187554D01*
X243268052Y-67104441D01*
X243249388Y-66992254D01*
X243242256Y-66838946D01*
X243241687Y-66761136D01*
X243243622Y-66667853D01*
X243419899Y-66667853D01*
X243421944Y-66717896D01*
X243427039Y-66726092D01*
X243460666Y-66714958D01*
X243533030Y-66685493D01*
X243629747Y-66643601D01*
X243649973Y-66634597D01*
X243772203Y-66572442D01*
X243839547Y-66517815D01*
X243854348Y-66466649D01*
X243818947Y-66414876D01*
X243789711Y-66392000D01*
X243684216Y-66346250D01*
X243585476Y-66353808D01*
X243502812Y-66409651D01*
X243445548Y-66508753D01*
X243427188Y-66587414D01*
X243419899Y-66667853D01*
X243243622Y-66667853D01*
X243245459Y-66579351D01*
X243259359Y-66444853D01*
X243286894Y-66346916D01*
X243331572Y-66274811D01*
X243396901Y-66217813D01*
X243425383Y-66199393D01*
X243554763Y-66151422D01*
X243696412Y-66148403D01*
X243833439Y-66186540D01*
X243833439Y-66186540D01*
G37*
X243833439Y-66186540D02*
X243948950Y-66262034D01*
X244004664Y-66329617D01*
X244048804Y-66452255D01*
X244052309Y-66549298D01*
X244044368Y-66679056D01*
X243745115Y-66810039D01*
X243599611Y-66876958D01*
X243504537Y-66930790D01*
X243455101Y-66977416D01*
X243446511Y-67022720D01*
X243473972Y-67072582D01*
X243504253Y-67105632D01*
X243592363Y-67158633D01*
X243688196Y-67162347D01*
X243776212Y-67121041D01*
X243840869Y-67038983D01*
X243852433Y-67010008D01*
X243907825Y-66919509D01*
X243971553Y-66880940D01*
X244058966Y-66847946D01*
X244058966Y-66973034D01*
X244051238Y-67058156D01*
X244020966Y-67129938D01*
X243957518Y-67212356D01*
X243948088Y-67223066D01*
X243877513Y-67296391D01*
X243816847Y-67335742D01*
X243740950Y-67353845D01*
X243678030Y-67359774D01*
X243565487Y-67361251D01*
X243485370Y-67342535D01*
X243435390Y-67314747D01*
X243356838Y-67253641D01*
X243302463Y-67187554D01*
X243268052Y-67104441D01*
X243249388Y-66992254D01*
X243242256Y-66838946D01*
X243241687Y-66761136D01*
X243243622Y-66667853D01*
X243419899Y-66667853D01*
X243421944Y-66717896D01*
X243427039Y-66726092D01*
X243460666Y-66714958D01*
X243533030Y-66685493D01*
X243629747Y-66643601D01*
X243649973Y-66634597D01*
X243772203Y-66572442D01*
X243839547Y-66517815D01*
X243854348Y-66466649D01*
X243818947Y-66414876D01*
X243789711Y-66392000D01*
X243684216Y-66346250D01*
X243585476Y-66353808D01*
X243502812Y-66409651D01*
X243445548Y-66508753D01*
X243427188Y-66587414D01*
X243419899Y-66667853D01*
X243243622Y-66667853D01*
X243245459Y-66579351D01*
X243259359Y-66444853D01*
X243286894Y-66346916D01*
X243331572Y-66274811D01*
X243396901Y-66217813D01*
X243425383Y-66199393D01*
X243554763Y-66151422D01*
X243696412Y-66148403D01*
X243833439Y-66186540D01*
G36*
X237699014Y-56682998D02*
X237857006Y-56683863D01*
X237971347Y-56686205D01*
X238049407Y-56690762D01*
X238098554Y-56698270D01*
X238126159Y-56709466D01*
X238139592Y-56725088D01*
X238146221Y-56745873D01*
X238146865Y-56748563D01*
X238156935Y-56797113D01*
X238175575Y-56892905D01*
X238200845Y-57025743D01*
X238230807Y-57185431D01*
X238263522Y-57361774D01*
X238264664Y-57367967D01*
X238297433Y-57540782D01*
X238328093Y-57693469D01*
X238354664Y-57816871D01*
X238375167Y-57901831D01*
X238387626Y-57939190D01*
X238388220Y-57939852D01*
X238424919Y-57958095D01*
X238500586Y-57988497D01*
X238598878Y-58024493D01*
X238599425Y-58024685D01*
X238723233Y-58071222D01*
X238869196Y-58130504D01*
X239006781Y-58190109D01*
X239013293Y-58193056D01*
X239237390Y-58294765D01*
X239733619Y-57955897D01*
X239885846Y-57852592D01*
X240023741Y-57760237D01*
X240139315Y-57684084D01*
X240224579Y-57629385D01*
X240271544Y-57601393D01*
X240276004Y-57599317D01*
X240310134Y-57608560D01*
X240373881Y-57653156D01*
X240469731Y-57735209D01*
X240600169Y-57856821D01*
X240733328Y-57986205D01*
X240861694Y-58113702D01*
X240976581Y-58230046D01*
X241071073Y-58328052D01*
X241138253Y-58400536D01*
X241171206Y-58440313D01*
X241172432Y-58442361D01*
X241176074Y-58469656D01*
X241162350Y-58514234D01*
X241127869Y-58582112D01*
X241069239Y-58679311D01*
X240983070Y-58811851D01*
X240868200Y-58982476D01*
X240766254Y-59132655D01*
X240675123Y-59267350D01*
X240600073Y-59378740D01*
X240546369Y-59459005D01*
X240519280Y-59500325D01*
X240517574Y-59503130D01*
X240520882Y-59542721D01*
X240545953Y-59619669D01*
X240587798Y-59719432D01*
X240602712Y-59751291D01*
X240667786Y-59893226D01*
X240737212Y-60054273D01*
X240793609Y-60193621D01*
X240834247Y-60297044D01*
X240866526Y-60375642D01*
X240885178Y-60416720D01*
X240887497Y-60419885D01*
X240921803Y-60425128D01*
X241002669Y-60439494D01*
X241119343Y-60460937D01*
X241261075Y-60487413D01*
X241417110Y-60516877D01*
X241576698Y-60547283D01*
X241729085Y-60576588D01*
X241863521Y-60602745D01*
X241969252Y-60623710D01*
X242035526Y-60637439D01*
X242051782Y-60641320D01*
X242068573Y-60650900D01*
X242081249Y-60672536D01*
X242090378Y-60713531D01*
X242096531Y-60781189D01*
X242100280Y-60882812D01*
X242102192Y-61025703D01*
X242102840Y-61217165D01*
X242102874Y-61295645D01*
X242102874Y-61933906D01*
X241949598Y-61964160D01*
X241864322Y-61980564D01*
X241737070Y-62004509D01*
X241583315Y-62033107D01*
X241418534Y-62063467D01*
X241372989Y-62071806D01*
X241220932Y-62101370D01*
X241088468Y-62130442D01*
X240986714Y-62156329D01*
X240926788Y-62176337D01*
X240916805Y-62182301D01*
X240892293Y-62224534D01*
X240857148Y-62306370D01*
X240818173Y-62411683D01*
X240810442Y-62434368D01*
X240759360Y-62575018D01*
X240695954Y-62733714D01*
X240633904Y-62876225D01*
X240633598Y-62876886D01*
X240530267Y-63100440D01*
X241209961Y-64100232D01*
X240773621Y-64537300D01*
X240641649Y-64667381D01*
X240521279Y-64782048D01*
X240419273Y-64875181D01*
X240342391Y-64940658D01*
X240297393Y-64972357D01*
X240290938Y-64974368D01*
X240253040Y-64958529D01*
X240175708Y-64914496D01*
X240067389Y-64847490D01*
X239936532Y-64762734D01*
X239795052Y-64667816D01*
X239651461Y-64570998D01*
X239523435Y-64486751D01*
X239419105Y-64420258D01*
X239346600Y-64376702D01*
X239314158Y-64361264D01*
X239274576Y-64374328D01*
X239199519Y-64408750D01*
X239104468Y-64457380D01*
X239094392Y-64462785D01*
X238966391Y-64526980D01*
X238878618Y-64558463D01*
X238824028Y-64558798D01*
X238795575Y-64529548D01*
X238795410Y-64529138D01*
X238781188Y-64494498D01*
X238747269Y-64412269D01*
X238696284Y-64288814D01*
X238630862Y-64130498D01*
X238553634Y-63943686D01*
X238467229Y-63734742D01*
X238383551Y-63532446D01*
X238291588Y-63309200D01*
X238207150Y-63102392D01*
X238132769Y-62918362D01*
X238070974Y-62763451D01*
X238024297Y-62643996D01*
X237995268Y-62566339D01*
X237986322Y-62537356D01*
X238008756Y-62504110D01*
X238067439Y-62451123D01*
X238145689Y-62392704D01*
X238368534Y-62207952D01*
X238542718Y-61996182D01*
X238666154Y-61761856D01*
X238736754Y-61509434D01*
X238752431Y-61243377D01*
X238741036Y-61120575D01*
X238678950Y-60865793D01*
X238572023Y-60640801D01*
X238426889Y-60447817D01*
X238250178Y-60289061D01*
X238048522Y-60166750D01*
X237828554Y-60083105D01*
X237596906Y-60040344D01*
X237360209Y-60040687D01*
X237125095Y-60086352D01*
X236898196Y-60179559D01*
X236686144Y-60322527D01*
X236597636Y-60403383D01*
X236427889Y-60611007D01*
X236309699Y-60837895D01*
X236242278Y-61077433D01*
X236224840Y-61323007D01*
X236256598Y-61568003D01*
X236336765Y-61805808D01*
X236464555Y-62029807D01*
X236639180Y-62233387D01*
X236834312Y-62392704D01*
X236915591Y-62453602D01*
X236973009Y-62506015D01*
X236993678Y-62537406D01*
X236982856Y-62571639D01*
X236952077Y-62653419D01*
X236903874Y-62776407D01*
X236840778Y-62934263D01*
X236765322Y-63120649D01*
X236680038Y-63329226D01*
X236596219Y-63532496D01*
X236503745Y-63755933D01*
X236418089Y-63962984D01*
X236341882Y-64147286D01*
X236277753Y-64302475D01*
X236228332Y-64422188D01*
X236196248Y-64500061D01*
X236184359Y-64529138D01*
X236156274Y-64558677D01*
X236101949Y-64558591D01*
X236014395Y-64527326D01*
X235886619Y-64463329D01*
X235885608Y-64462785D01*
X235789402Y-64413121D01*
X235711631Y-64376945D01*
X235667777Y-64361408D01*
X235665842Y-64361264D01*
X235632829Y-64377024D01*
X235559946Y-64420850D01*
X235455322Y-64487557D01*
X235327090Y-64571964D01*
X235184948Y-64667816D01*
X235040233Y-64764867D01*
X234909804Y-64849270D01*
X234802110Y-64915801D01*
X234725598Y-64959238D01*
X234689062Y-64974368D01*
X234655418Y-64954482D01*
X234587776Y-64898903D01*
X234492893Y-64813754D01*
X234377530Y-64705153D01*
X234248445Y-64579221D01*
X234206229Y-64537149D01*
X233769739Y-64099931D01*
X234101977Y-63612340D01*
X234202946Y-63462605D01*
X234291562Y-63328220D01*
X234362854Y-63216969D01*
X234411850Y-63136639D01*
X234433578Y-63095014D01*
X234434215Y-63092053D01*
X234422760Y-63052818D01*
X234391949Y-62973895D01*
X234347116Y-62868509D01*
X234315647Y-62797954D01*
X234256808Y-62662876D01*
X234201396Y-62526409D01*
X234158436Y-62411103D01*
X234146766Y-62375977D01*
X234113611Y-62282174D01*
X234081201Y-62209694D01*
X234063399Y-62182301D01*
X234024114Y-62165536D01*
X233938374Y-62141770D01*
X233817303Y-62113697D01*
X233672027Y-62084009D01*
X233607012Y-62071806D01*
X233441913Y-62041468D01*
X233283552Y-62012093D01*
X233147404Y-61986569D01*
X233048943Y-61967785D01*
X233030402Y-61964160D01*
X232877127Y-61933906D01*
X232877127Y-61295645D01*
X232877471Y-61085770D01*
X232878884Y-60926980D01*
X232881936Y-60811973D01*
X232887197Y-60733446D01*
X232895237Y-60684096D01*
X232906627Y-60656619D01*
X232921937Y-60643713D01*
X232928218Y-60641320D01*
X232966104Y-60632833D01*
X233049805Y-60615900D01*
X233168567Y-60592566D01*
X233311639Y-60564875D01*
X233468268Y-60534873D01*
X233627703Y-60504604D01*
X233779191Y-60476115D01*
X233911981Y-60451449D01*
X234015319Y-60432651D01*
X234078455Y-60421767D01*
X234092503Y-60419885D01*
X234105230Y-60394704D01*
X234133400Y-60327622D01*
X234171748Y-60231333D01*
X234186391Y-60193621D01*
X234245452Y-60047921D01*
X234315000Y-59886951D01*
X234377288Y-59751291D01*
X234423121Y-59647561D01*
X234453613Y-59562326D01*
X234463792Y-59510126D01*
X234462169Y-59503130D01*
X234440657Y-59470102D01*
X234391535Y-59396643D01*
X234320077Y-59290577D01*
X234231555Y-59159726D01*
X234131241Y-59011912D01*
X234111406Y-58982734D01*
X233995012Y-58809863D01*
X233909452Y-58678226D01*
X233851316Y-58581761D01*
X233817192Y-58514408D01*
X233803669Y-58470106D01*
X233807336Y-58442794D01*
X233807430Y-58442620D01*
X233836293Y-58406746D01*
X233900133Y-58337391D01*
X233992031Y-58241745D01*
X234105067Y-58126999D01*
X234232321Y-58000341D01*
X234246672Y-57986205D01*
X234407043Y-57830903D01*
X234530805Y-57716870D01*
X234620445Y-57642002D01*
X234678448Y-57604196D01*
X234703996Y-57599317D01*
X234741282Y-57620603D01*
X234818657Y-57669773D01*
X234928133Y-57741575D01*
X235061720Y-57830755D01*
X235211430Y-57932063D01*
X235246382Y-57955897D01*
X235742610Y-58294765D01*
X235966707Y-58193056D01*
X236102989Y-58133783D01*
X236249276Y-58074170D01*
X236375035Y-58026640D01*
X236380575Y-58024685D01*
X236478943Y-57988677D01*
X236554771Y-57958229D01*
X236591718Y-57939905D01*
X236591780Y-57939852D01*
X236603504Y-57906729D01*
X236623432Y-57825267D01*
X236649587Y-57704625D01*
X236679990Y-57553959D01*
X236712663Y-57382428D01*
X236715336Y-57367967D01*
X236748110Y-57191235D01*
X236778198Y-57030810D01*
X236803661Y-56896888D01*
X236822559Y-56799663D01*
X236832953Y-56749332D01*
X236833135Y-56748563D01*
X236839461Y-56727153D01*
X236851761Y-56710988D01*
X236877406Y-56699331D01*
X236923765Y-56691445D01*
X236998208Y-56686593D01*
X237108105Y-56684039D01*
X237260825Y-56683045D01*
X237463738Y-56682874D01*
X237490000Y-56682874D01*
X237699014Y-56682998D01*
X237699014Y-56682998D01*
G37*
X237699014Y-56682998D02*
X237857006Y-56683863D01*
X237971347Y-56686205D01*
X238049407Y-56690762D01*
X238098554Y-56698270D01*
X238126159Y-56709466D01*
X238139592Y-56725088D01*
X238146221Y-56745873D01*
X238146865Y-56748563D01*
X238156935Y-56797113D01*
X238175575Y-56892905D01*
X238200845Y-57025743D01*
X238230807Y-57185431D01*
X238263522Y-57361774D01*
X238264664Y-57367967D01*
X238297433Y-57540782D01*
X238328093Y-57693469D01*
X238354664Y-57816871D01*
X238375167Y-57901831D01*
X238387626Y-57939190D01*
X238388220Y-57939852D01*
X238424919Y-57958095D01*
X238500586Y-57988497D01*
X238598878Y-58024493D01*
X238599425Y-58024685D01*
X238723233Y-58071222D01*
X238869196Y-58130504D01*
X239006781Y-58190109D01*
X239013293Y-58193056D01*
X239237390Y-58294765D01*
X239733619Y-57955897D01*
X239885846Y-57852592D01*
X240023741Y-57760237D01*
X240139315Y-57684084D01*
X240224579Y-57629385D01*
X240271544Y-57601393D01*
X240276004Y-57599317D01*
X240310134Y-57608560D01*
X240373881Y-57653156D01*
X240469731Y-57735209D01*
X240600169Y-57856821D01*
X240733328Y-57986205D01*
X240861694Y-58113702D01*
X240976581Y-58230046D01*
X241071073Y-58328052D01*
X241138253Y-58400536D01*
X241171206Y-58440313D01*
X241172432Y-58442361D01*
X241176074Y-58469656D01*
X241162350Y-58514234D01*
X241127869Y-58582112D01*
X241069239Y-58679311D01*
X240983070Y-58811851D01*
X240868200Y-58982476D01*
X240766254Y-59132655D01*
X240675123Y-59267350D01*
X240600073Y-59378740D01*
X240546369Y-59459005D01*
X240519280Y-59500325D01*
X240517574Y-59503130D01*
X240520882Y-59542721D01*
X240545953Y-59619669D01*
X240587798Y-59719432D01*
X240602712Y-59751291D01*
X240667786Y-59893226D01*
X240737212Y-60054273D01*
X240793609Y-60193621D01*
X240834247Y-60297044D01*
X240866526Y-60375642D01*
X240885178Y-60416720D01*
X240887497Y-60419885D01*
X240921803Y-60425128D01*
X241002669Y-60439494D01*
X241119343Y-60460937D01*
X241261075Y-60487413D01*
X241417110Y-60516877D01*
X241576698Y-60547283D01*
X241729085Y-60576588D01*
X241863521Y-60602745D01*
X241969252Y-60623710D01*
X242035526Y-60637439D01*
X242051782Y-60641320D01*
X242068573Y-60650900D01*
X242081249Y-60672536D01*
X242090378Y-60713531D01*
X242096531Y-60781189D01*
X242100280Y-60882812D01*
X242102192Y-61025703D01*
X242102840Y-61217165D01*
X242102874Y-61295645D01*
X242102874Y-61933906D01*
X241949598Y-61964160D01*
X241864322Y-61980564D01*
X241737070Y-62004509D01*
X241583315Y-62033107D01*
X241418534Y-62063467D01*
X241372989Y-62071806D01*
X241220932Y-62101370D01*
X241088468Y-62130442D01*
X240986714Y-62156329D01*
X240926788Y-62176337D01*
X240916805Y-62182301D01*
X240892293Y-62224534D01*
X240857148Y-62306370D01*
X240818173Y-62411683D01*
X240810442Y-62434368D01*
X240759360Y-62575018D01*
X240695954Y-62733714D01*
X240633904Y-62876225D01*
X240633598Y-62876886D01*
X240530267Y-63100440D01*
X241209961Y-64100232D01*
X240773621Y-64537300D01*
X240641649Y-64667381D01*
X240521279Y-64782048D01*
X240419273Y-64875181D01*
X240342391Y-64940658D01*
X240297393Y-64972357D01*
X240290938Y-64974368D01*
X240253040Y-64958529D01*
X240175708Y-64914496D01*
X240067389Y-64847490D01*
X239936532Y-64762734D01*
X239795052Y-64667816D01*
X239651461Y-64570998D01*
X239523435Y-64486751D01*
X239419105Y-64420258D01*
X239346600Y-64376702D01*
X239314158Y-64361264D01*
X239274576Y-64374328D01*
X239199519Y-64408750D01*
X239104468Y-64457380D01*
X239094392Y-64462785D01*
X238966391Y-64526980D01*
X238878618Y-64558463D01*
X238824028Y-64558798D01*
X238795575Y-64529548D01*
X238795410Y-64529138D01*
X238781188Y-64494498D01*
X238747269Y-64412269D01*
X238696284Y-64288814D01*
X238630862Y-64130498D01*
X238553634Y-63943686D01*
X238467229Y-63734742D01*
X238383551Y-63532446D01*
X238291588Y-63309200D01*
X238207150Y-63102392D01*
X238132769Y-62918362D01*
X238070974Y-62763451D01*
X238024297Y-62643996D01*
X237995268Y-62566339D01*
X237986322Y-62537356D01*
X238008756Y-62504110D01*
X238067439Y-62451123D01*
X238145689Y-62392704D01*
X238368534Y-62207952D01*
X238542718Y-61996182D01*
X238666154Y-61761856D01*
X238736754Y-61509434D01*
X238752431Y-61243377D01*
X238741036Y-61120575D01*
X238678950Y-60865793D01*
X238572023Y-60640801D01*
X238426889Y-60447817D01*
X238250178Y-60289061D01*
X238048522Y-60166750D01*
X237828554Y-60083105D01*
X237596906Y-60040344D01*
X237360209Y-60040687D01*
X237125095Y-60086352D01*
X236898196Y-60179559D01*
X236686144Y-60322527D01*
X236597636Y-60403383D01*
X236427889Y-60611007D01*
X236309699Y-60837895D01*
X236242278Y-61077433D01*
X236224840Y-61323007D01*
X236256598Y-61568003D01*
X236336765Y-61805808D01*
X236464555Y-62029807D01*
X236639180Y-62233387D01*
X236834312Y-62392704D01*
X236915591Y-62453602D01*
X236973009Y-62506015D01*
X236993678Y-62537406D01*
X236982856Y-62571639D01*
X236952077Y-62653419D01*
X236903874Y-62776407D01*
X236840778Y-62934263D01*
X236765322Y-63120649D01*
X236680038Y-63329226D01*
X236596219Y-63532496D01*
X236503745Y-63755933D01*
X236418089Y-63962984D01*
X236341882Y-64147286D01*
X236277753Y-64302475D01*
X236228332Y-64422188D01*
X236196248Y-64500061D01*
X236184359Y-64529138D01*
X236156274Y-64558677D01*
X236101949Y-64558591D01*
X236014395Y-64527326D01*
X235886619Y-64463329D01*
X235885608Y-64462785D01*
X235789402Y-64413121D01*
X235711631Y-64376945D01*
X235667777Y-64361408D01*
X235665842Y-64361264D01*
X235632829Y-64377024D01*
X235559946Y-64420850D01*
X235455322Y-64487557D01*
X235327090Y-64571964D01*
X235184948Y-64667816D01*
X235040233Y-64764867D01*
X234909804Y-64849270D01*
X234802110Y-64915801D01*
X234725598Y-64959238D01*
X234689062Y-64974368D01*
X234655418Y-64954482D01*
X234587776Y-64898903D01*
X234492893Y-64813754D01*
X234377530Y-64705153D01*
X234248445Y-64579221D01*
X234206229Y-64537149D01*
X233769739Y-64099931D01*
X234101977Y-63612340D01*
X234202946Y-63462605D01*
X234291562Y-63328220D01*
X234362854Y-63216969D01*
X234411850Y-63136639D01*
X234433578Y-63095014D01*
X234434215Y-63092053D01*
X234422760Y-63052818D01*
X234391949Y-62973895D01*
X234347116Y-62868509D01*
X234315647Y-62797954D01*
X234256808Y-62662876D01*
X234201396Y-62526409D01*
X234158436Y-62411103D01*
X234146766Y-62375977D01*
X234113611Y-62282174D01*
X234081201Y-62209694D01*
X234063399Y-62182301D01*
X234024114Y-62165536D01*
X233938374Y-62141770D01*
X233817303Y-62113697D01*
X233672027Y-62084009D01*
X233607012Y-62071806D01*
X233441913Y-62041468D01*
X233283552Y-62012093D01*
X233147404Y-61986569D01*
X233048943Y-61967785D01*
X233030402Y-61964160D01*
X232877127Y-61933906D01*
X232877127Y-61295645D01*
X232877471Y-61085770D01*
X232878884Y-60926980D01*
X232881936Y-60811973D01*
X232887197Y-60733446D01*
X232895237Y-60684096D01*
X232906627Y-60656619D01*
X232921937Y-60643713D01*
X232928218Y-60641320D01*
X232966104Y-60632833D01*
X233049805Y-60615900D01*
X233168567Y-60592566D01*
X233311639Y-60564875D01*
X233468268Y-60534873D01*
X233627703Y-60504604D01*
X233779191Y-60476115D01*
X233911981Y-60451449D01*
X234015319Y-60432651D01*
X234078455Y-60421767D01*
X234092503Y-60419885D01*
X234105230Y-60394704D01*
X234133400Y-60327622D01*
X234171748Y-60231333D01*
X234186391Y-60193621D01*
X234245452Y-60047921D01*
X234315000Y-59886951D01*
X234377288Y-59751291D01*
X234423121Y-59647561D01*
X234453613Y-59562326D01*
X234463792Y-59510126D01*
X234462169Y-59503130D01*
X234440657Y-59470102D01*
X234391535Y-59396643D01*
X234320077Y-59290577D01*
X234231555Y-59159726D01*
X234131241Y-59011912D01*
X234111406Y-58982734D01*
X233995012Y-58809863D01*
X233909452Y-58678226D01*
X233851316Y-58581761D01*
X233817192Y-58514408D01*
X233803669Y-58470106D01*
X233807336Y-58442794D01*
X233807430Y-58442620D01*
X233836293Y-58406746D01*
X233900133Y-58337391D01*
X233992031Y-58241745D01*
X234105067Y-58126999D01*
X234232321Y-58000341D01*
X234246672Y-57986205D01*
X234407043Y-57830903D01*
X234530805Y-57716870D01*
X234620445Y-57642002D01*
X234678448Y-57604196D01*
X234703996Y-57599317D01*
X234741282Y-57620603D01*
X234818657Y-57669773D01*
X234928133Y-57741575D01*
X235061720Y-57830755D01*
X235211430Y-57932063D01*
X235246382Y-57955897D01*
X235742610Y-58294765D01*
X235966707Y-58193056D01*
X236102989Y-58133783D01*
X236249276Y-58074170D01*
X236375035Y-58026640D01*
X236380575Y-58024685D01*
X236478943Y-57988677D01*
X236554771Y-57958229D01*
X236591718Y-57939905D01*
X236591780Y-57939852D01*
X236603504Y-57906729D01*
X236623432Y-57825267D01*
X236649587Y-57704625D01*
X236679990Y-57553959D01*
X236712663Y-57382428D01*
X236715336Y-57367967D01*
X236748110Y-57191235D01*
X236778198Y-57030810D01*
X236803661Y-56896888D01*
X236822559Y-56799663D01*
X236832953Y-56749332D01*
X236833135Y-56748563D01*
X236839461Y-56727153D01*
X236851761Y-56710988D01*
X236877406Y-56699331D01*
X236923765Y-56691445D01*
X236998208Y-56686593D01*
X237108105Y-56684039D01*
X237260825Y-56683045D01*
X237463738Y-56682874D01*
X237490000Y-56682874D01*
X237699014Y-56682998D01*
G04 #@! TO.C,S1*
G36*
X253225941Y-58685960D02*
X253343545Y-58752395D01*
X253437023Y-58855045D01*
X253480812Y-58941124D01*
X253511422Y-59079614D01*
X253502321Y-59217591D01*
X253454973Y-59339084D01*
X253442588Y-59357850D01*
X253352149Y-59445408D01*
X253233271Y-59505553D01*
X253100333Y-59535418D01*
X252967713Y-59532134D01*
X252849790Y-59492832D01*
X252829006Y-59480244D01*
X252746737Y-59401394D01*
X252678914Y-59292770D01*
X252636747Y-59175295D01*
X252628400Y-59105799D01*
X252647674Y-58996575D01*
X252698190Y-58882110D01*
X252768982Y-58783158D01*
X252824642Y-58734295D01*
X252956861Y-58673876D01*
X253093837Y-58658776D01*
X253225941Y-58685960D01*
X253225941Y-58685960D01*
G37*
X253225941Y-58685960D02*
X253343545Y-58752395D01*
X253437023Y-58855045D01*
X253480812Y-58941124D01*
X253511422Y-59079614D01*
X253502321Y-59217591D01*
X253454973Y-59339084D01*
X253442588Y-59357850D01*
X253352149Y-59445408D01*
X253233271Y-59505553D01*
X253100333Y-59535418D01*
X252967713Y-59532134D01*
X252849790Y-59492832D01*
X252829006Y-59480244D01*
X252746737Y-59401394D01*
X252678914Y-59292770D01*
X252636747Y-59175295D01*
X252628400Y-59105799D01*
X252647674Y-58996575D01*
X252698190Y-58882110D01*
X252768982Y-58783158D01*
X252824642Y-58734295D01*
X252956861Y-58673876D01*
X253093837Y-58658776D01*
X253225941Y-58685960D01*
G36*
X253466600Y-61552045D02*
X253466821Y-61823528D01*
X253467583Y-62048618D01*
X253469026Y-62231721D01*
X253471294Y-62377240D01*
X253474531Y-62489583D01*
X253478878Y-62573155D01*
X253484480Y-62632359D01*
X253491478Y-62671603D01*
X253500016Y-62695292D01*
X253503892Y-62701395D01*
X253530178Y-62738943D01*
X253540891Y-62767085D01*
X253530710Y-62787174D01*
X253494312Y-62800563D01*
X253426376Y-62808605D01*
X253321578Y-62812653D01*
X253174598Y-62814060D01*
X253060200Y-62814200D01*
X252909918Y-62813515D01*
X252778727Y-62811608D01*
X252674427Y-62808702D01*
X252604819Y-62805017D01*
X252577705Y-62800776D01*
X252577600Y-62800488D01*
X252588155Y-62771454D01*
X252614726Y-62714509D01*
X252628400Y-62687200D01*
X252641266Y-62659760D01*
X252651759Y-62629394D01*
X252660120Y-62590920D01*
X252666591Y-62539155D01*
X252671411Y-62468918D01*
X252674822Y-62375027D01*
X252677065Y-62252301D01*
X252678381Y-62095559D01*
X252679010Y-61899617D01*
X252679195Y-61659296D01*
X252679200Y-61594750D01*
X252678947Y-61337269D01*
X252678071Y-61125749D01*
X252676396Y-60955351D01*
X252673748Y-60821238D01*
X252669950Y-60718571D01*
X252664827Y-60642513D01*
X252658203Y-60588226D01*
X252649903Y-60550872D01*
X252640447Y-60526938D01*
X252601695Y-60452000D01*
X253466600Y-60452000D01*
X253466600Y-61552045D01*
X253466600Y-61552045D01*
G37*
X253466600Y-61552045D02*
X253466821Y-61823528D01*
X253467583Y-62048618D01*
X253469026Y-62231721D01*
X253471294Y-62377240D01*
X253474531Y-62489583D01*
X253478878Y-62573155D01*
X253484480Y-62632359D01*
X253491478Y-62671603D01*
X253500016Y-62695292D01*
X253503892Y-62701395D01*
X253530178Y-62738943D01*
X253540891Y-62767085D01*
X253530710Y-62787174D01*
X253494312Y-62800563D01*
X253426376Y-62808605D01*
X253321578Y-62812653D01*
X253174598Y-62814060D01*
X253060200Y-62814200D01*
X252909918Y-62813515D01*
X252778727Y-62811608D01*
X252674427Y-62808702D01*
X252604819Y-62805017D01*
X252577705Y-62800776D01*
X252577600Y-62800488D01*
X252588155Y-62771454D01*
X252614726Y-62714509D01*
X252628400Y-62687200D01*
X252641266Y-62659760D01*
X252651759Y-62629394D01*
X252660120Y-62590920D01*
X252666591Y-62539155D01*
X252671411Y-62468918D01*
X252674822Y-62375027D01*
X252677065Y-62252301D01*
X252678381Y-62095559D01*
X252679010Y-61899617D01*
X252679195Y-61659296D01*
X252679200Y-61594750D01*
X252678947Y-61337269D01*
X252678071Y-61125749D01*
X252676396Y-60955351D01*
X252673748Y-60821238D01*
X252669950Y-60718571D01*
X252664827Y-60642513D01*
X252658203Y-60588226D01*
X252649903Y-60550872D01*
X252640447Y-60526938D01*
X252601695Y-60452000D01*
X253466600Y-60452000D01*
X253466600Y-61552045D01*
G36*
X251883747Y-59588400D02*
X252429059Y-59588400D01*
X252230279Y-59789787D01*
X251900571Y-60152691D01*
X251686151Y-60426815D01*
X251607703Y-60530400D01*
X251513144Y-60650529D01*
X251413050Y-60774202D01*
X251317998Y-60888419D01*
X251238566Y-60980181D01*
X251213468Y-61007760D01*
X251132036Y-61095212D01*
X251201994Y-61186356D01*
X251337436Y-61375604D01*
X251424978Y-61515050D01*
X251479848Y-61597286D01*
X251541124Y-61676612D01*
X251546273Y-61682607D01*
X251615222Y-61765581D01*
X251695747Y-61868137D01*
X251778942Y-61978288D01*
X251855902Y-62084047D01*
X251917719Y-62173425D01*
X251953376Y-62230547D01*
X251988457Y-62283596D01*
X252046986Y-62362062D01*
X252118820Y-62453252D01*
X252193815Y-62544472D01*
X252261828Y-62623032D01*
X252298200Y-62662020D01*
X252322089Y-62688081D01*
X252364363Y-62735406D01*
X252372477Y-62744570D01*
X252434055Y-62814200D01*
X251307600Y-62814200D01*
X251307600Y-62735923D01*
X251290837Y-62659395D01*
X251243607Y-62554149D01*
X251170493Y-62428239D01*
X251076081Y-62289716D01*
X250988542Y-62175533D01*
X250917268Y-62083313D01*
X250851947Y-61992269D01*
X250804777Y-61919535D01*
X250798671Y-61908833D01*
X250758629Y-61842434D01*
X250723342Y-61794284D01*
X250714699Y-61785500D01*
X250680138Y-61746816D01*
X250639915Y-61690250D01*
X250602226Y-61642093D01*
X250571715Y-61620487D01*
X250570414Y-61620400D01*
X250561538Y-61645091D01*
X250554418Y-61716381D01*
X250549264Y-61830092D01*
X250546283Y-61982044D01*
X250545600Y-62116961D01*
X250546284Y-62296263D01*
X250548695Y-62432270D01*
X250553375Y-62532475D01*
X250560863Y-62604369D01*
X250571698Y-62655443D01*
X250586421Y-62693188D01*
X250587244Y-62694811D01*
X250622717Y-62754491D01*
X250654223Y-62792618D01*
X250657094Y-62794761D01*
X250641597Y-62800323D01*
X250582247Y-62805262D01*
X250485986Y-62809312D01*
X250359759Y-62812207D01*
X250210511Y-62813682D01*
X250158794Y-62813811D01*
X249632289Y-62814200D01*
X249661968Y-62744350D01*
X249690141Y-62685758D01*
X249712224Y-62650370D01*
X249716057Y-62621142D01*
X249719657Y-62545781D01*
X249722959Y-62428951D01*
X249725896Y-62275317D01*
X249728399Y-62089546D01*
X249730404Y-61876302D01*
X249731842Y-61640251D01*
X249732647Y-61386059D01*
X249732799Y-61214290D01*
X249732741Y-60910311D01*
X249732470Y-60652912D01*
X249731846Y-60437874D01*
X249730726Y-60260978D01*
X249728969Y-60118004D01*
X249726433Y-60004733D01*
X249722976Y-59916945D01*
X249718457Y-59850421D01*
X249712733Y-59800941D01*
X249705662Y-59764286D01*
X249697104Y-59736237D01*
X249686916Y-59712574D01*
X249681999Y-59702699D01*
X249651244Y-59640869D01*
X249633190Y-59601660D01*
X249631199Y-59595729D01*
X249655335Y-59593507D01*
X249722688Y-59591556D01*
X249825672Y-59589984D01*
X249956706Y-59588901D01*
X250108205Y-59588415D01*
X250141917Y-59588400D01*
X250315060Y-59588664D01*
X250443629Y-59589831D01*
X250533846Y-59592464D01*
X250591937Y-59597123D01*
X250624124Y-59604372D01*
X250636632Y-59614772D01*
X250635686Y-59628885D01*
X250634164Y-59632850D01*
X250600805Y-59721673D01*
X250576739Y-59810181D01*
X250560580Y-59909141D01*
X250550942Y-60029321D01*
X250546440Y-60181488D01*
X250545600Y-60321088D01*
X250545599Y-60740904D01*
X250621799Y-60667900D01*
X250669413Y-60617557D01*
X250695994Y-60580278D01*
X250698000Y-60573483D01*
X250713137Y-60547550D01*
X250752628Y-60494128D01*
X250807588Y-60424145D01*
X250869132Y-60348529D01*
X250928377Y-60278209D01*
X250976439Y-60224114D01*
X251003239Y-60198000D01*
X251025561Y-60170734D01*
X251063936Y-60114630D01*
X251091802Y-60071000D01*
X251150005Y-59983298D01*
X251212951Y-59896698D01*
X251235299Y-59868362D01*
X251280013Y-59801736D01*
X251305408Y-59740643D01*
X251307600Y-59724390D01*
X251308122Y-59680677D01*
X251313791Y-59647502D01*
X251330762Y-59623412D01*
X251365189Y-59606955D01*
X251423226Y-59596677D01*
X251511028Y-59591127D01*
X251634750Y-59588851D01*
X251800545Y-59588396D01*
X251883747Y-59588400D01*
X251883747Y-59588400D01*
G37*
X251883747Y-59588400D02*
X252429059Y-59588400D01*
X252230279Y-59789787D01*
X251900571Y-60152691D01*
X251686151Y-60426815D01*
X251607703Y-60530400D01*
X251513144Y-60650529D01*
X251413050Y-60774202D01*
X251317998Y-60888419D01*
X251238566Y-60980181D01*
X251213468Y-61007760D01*
X251132036Y-61095212D01*
X251201994Y-61186356D01*
X251337436Y-61375604D01*
X251424978Y-61515050D01*
X251479848Y-61597286D01*
X251541124Y-61676612D01*
X251546273Y-61682607D01*
X251615222Y-61765581D01*
X251695747Y-61868137D01*
X251778942Y-61978288D01*
X251855902Y-62084047D01*
X251917719Y-62173425D01*
X251953376Y-62230547D01*
X251988457Y-62283596D01*
X252046986Y-62362062D01*
X252118820Y-62453252D01*
X252193815Y-62544472D01*
X252261828Y-62623032D01*
X252298200Y-62662020D01*
X252322089Y-62688081D01*
X252364363Y-62735406D01*
X252372477Y-62744570D01*
X252434055Y-62814200D01*
X251307600Y-62814200D01*
X251307600Y-62735923D01*
X251290837Y-62659395D01*
X251243607Y-62554149D01*
X251170493Y-62428239D01*
X251076081Y-62289716D01*
X250988542Y-62175533D01*
X250917268Y-62083313D01*
X250851947Y-61992269D01*
X250804777Y-61919535D01*
X250798671Y-61908833D01*
X250758629Y-61842434D01*
X250723342Y-61794284D01*
X250714699Y-61785500D01*
X250680138Y-61746816D01*
X250639915Y-61690250D01*
X250602226Y-61642093D01*
X250571715Y-61620487D01*
X250570414Y-61620400D01*
X250561538Y-61645091D01*
X250554418Y-61716381D01*
X250549264Y-61830092D01*
X250546283Y-61982044D01*
X250545600Y-62116961D01*
X250546284Y-62296263D01*
X250548695Y-62432270D01*
X250553375Y-62532475D01*
X250560863Y-62604369D01*
X250571698Y-62655443D01*
X250586421Y-62693188D01*
X250587244Y-62694811D01*
X250622717Y-62754491D01*
X250654223Y-62792618D01*
X250657094Y-62794761D01*
X250641597Y-62800323D01*
X250582247Y-62805262D01*
X250485986Y-62809312D01*
X250359759Y-62812207D01*
X250210511Y-62813682D01*
X250158794Y-62813811D01*
X249632289Y-62814200D01*
X249661968Y-62744350D01*
X249690141Y-62685758D01*
X249712224Y-62650370D01*
X249716057Y-62621142D01*
X249719657Y-62545781D01*
X249722959Y-62428951D01*
X249725896Y-62275317D01*
X249728399Y-62089546D01*
X249730404Y-61876302D01*
X249731842Y-61640251D01*
X249732647Y-61386059D01*
X249732799Y-61214290D01*
X249732741Y-60910311D01*
X249732470Y-60652912D01*
X249731846Y-60437874D01*
X249730726Y-60260978D01*
X249728969Y-60118004D01*
X249726433Y-60004733D01*
X249722976Y-59916945D01*
X249718457Y-59850421D01*
X249712733Y-59800941D01*
X249705662Y-59764286D01*
X249697104Y-59736237D01*
X249686916Y-59712574D01*
X249681999Y-59702699D01*
X249651244Y-59640869D01*
X249633190Y-59601660D01*
X249631199Y-59595729D01*
X249655335Y-59593507D01*
X249722688Y-59591556D01*
X249825672Y-59589984D01*
X249956706Y-59588901D01*
X250108205Y-59588415D01*
X250141917Y-59588400D01*
X250315060Y-59588664D01*
X250443629Y-59589831D01*
X250533846Y-59592464D01*
X250591937Y-59597123D01*
X250624124Y-59604372D01*
X250636632Y-59614772D01*
X250635686Y-59628885D01*
X250634164Y-59632850D01*
X250600805Y-59721673D01*
X250576739Y-59810181D01*
X250560580Y-59909141D01*
X250550942Y-60029321D01*
X250546440Y-60181488D01*
X250545600Y-60321088D01*
X250545599Y-60740904D01*
X250621799Y-60667900D01*
X250669413Y-60617557D01*
X250695994Y-60580278D01*
X250698000Y-60573483D01*
X250713137Y-60547550D01*
X250752628Y-60494128D01*
X250807588Y-60424145D01*
X250869132Y-60348529D01*
X250928377Y-60278209D01*
X250976439Y-60224114D01*
X251003239Y-60198000D01*
X251025561Y-60170734D01*
X251063936Y-60114630D01*
X251091802Y-60071000D01*
X251150005Y-59983298D01*
X251212951Y-59896698D01*
X251235299Y-59868362D01*
X251280013Y-59801736D01*
X251305408Y-59740643D01*
X251307600Y-59724390D01*
X251308122Y-59680677D01*
X251313791Y-59647502D01*
X251330762Y-59623412D01*
X251365189Y-59606955D01*
X251423226Y-59596677D01*
X251511028Y-59591127D01*
X251634750Y-59588851D01*
X251800545Y-59588396D01*
X251883747Y-59588400D01*
G04 #@! TD*
D14*
G04 #@! TO.C,H4*
X264160000Y-203200000D03*
G04 #@! TD*
G04 #@! TO.C,H3*
X264160000Y-15240000D03*
G04 #@! TD*
G04 #@! TO.C,H1*
X15240000Y-203200000D03*
G04 #@! TD*
G04 #@! TO.C,H2*
X15240000Y-15240000D03*
G04 #@! TD*
D15*
G04 #@! TO.C,D131*
X51990000Y-68580000D03*
X54690000Y-68580000D03*
G04 #@! TD*
G04 #@! TO.C,R209*
X49610000Y-68580000D03*
X46910000Y-68580000D03*
G04 #@! TD*
D16*
G04 #@! TO.C,SW4*
X230035000Y-157190000D03*
X222085000Y-157190000D03*
X230035000Y-152690000D03*
X222085000Y-152690000D03*
G04 #@! TD*
G04 #@! TO.C,SW12*
X252565000Y-183170000D03*
X260515000Y-183170000D03*
X252565000Y-187670000D03*
X260515000Y-187670000D03*
G04 #@! TD*
G04 #@! TO.C,SW11*
X260515000Y-167350000D03*
X252565000Y-167350000D03*
X260515000Y-162850000D03*
X252565000Y-162850000D03*
G04 #@! TD*
G04 #@! TO.C,SW10*
X237325000Y-162850000D03*
X245275000Y-162850000D03*
X237325000Y-167350000D03*
X245275000Y-167350000D03*
G04 #@! TD*
G04 #@! TO.C,SW9*
X260515000Y-197830000D03*
X252565000Y-197830000D03*
X260515000Y-193330000D03*
X252565000Y-193330000D03*
G04 #@! TD*
G04 #@! TO.C,SW8*
X252565000Y-173010000D03*
X260515000Y-173010000D03*
X252565000Y-177510000D03*
X260515000Y-177510000D03*
G04 #@! TD*
G04 #@! TO.C,SW7*
X260515000Y-157190000D03*
X252565000Y-157190000D03*
X260515000Y-152690000D03*
X252565000Y-152690000D03*
G04 #@! TD*
G04 #@! TO.C,SW6*
X237325000Y-152690000D03*
X245275000Y-152690000D03*
X237325000Y-157190000D03*
X245275000Y-157190000D03*
G04 #@! TD*
G04 #@! TO.C,SW5*
X245275000Y-197830000D03*
X237325000Y-197830000D03*
X245275000Y-193330000D03*
X237325000Y-193330000D03*
G04 #@! TD*
D17*
G04 #@! TO.C,C53*
X255250000Y-190500000D03*
X252750000Y-190500000D03*
G04 #@! TD*
G04 #@! TO.C,C51*
X237510000Y-170180000D03*
X240010000Y-170180000D03*
G04 #@! TD*
G04 #@! TO.C,C52*
X255250000Y-170180000D03*
X252750000Y-170180000D03*
G04 #@! TD*
G04 #@! TO.C,C50*
X252750000Y-200660000D03*
X255250000Y-200660000D03*
G04 #@! TD*
G04 #@! TO.C,C49*
X255250000Y-180340000D03*
X252750000Y-180340000D03*
G04 #@! TD*
G04 #@! TO.C,C48*
X252750000Y-160020000D03*
X255250000Y-160020000D03*
G04 #@! TD*
G04 #@! TO.C,C47*
X240010000Y-160020000D03*
X237510000Y-160020000D03*
G04 #@! TD*
G04 #@! TO.C,C46*
X234930000Y-187960000D03*
X232430000Y-187960000D03*
G04 #@! TD*
D18*
G04 #@! TO.C,C45*
X223520000Y-175260000D03*
X223520000Y-172760000D03*
G04 #@! TD*
G04 #@! TO.C,C44*
X218440000Y-199330000D03*
X218440000Y-196830000D03*
G04 #@! TD*
D17*
G04 #@! TO.C,C43*
X240010000Y-200660000D03*
X237510000Y-200660000D03*
G04 #@! TD*
G04 #@! TO.C,C42*
X222270000Y-160020000D03*
X224770000Y-160020000D03*
G04 #@! TD*
D19*
G04 #@! TO.C,U14*
X216980000Y-179720000D03*
X217780000Y-179720000D03*
X218580000Y-179720000D03*
X219380000Y-179720000D03*
X220180000Y-179720000D03*
X220980000Y-179720000D03*
X221780000Y-179720000D03*
X222580000Y-179720000D03*
X223380000Y-179720000D03*
X224180000Y-179720000D03*
X224980000Y-179720000D03*
D20*
X226680000Y-181420000D03*
X226680000Y-182220000D03*
X226680000Y-183020000D03*
X226680000Y-183820000D03*
X226680000Y-184620000D03*
X226680000Y-185420000D03*
X226680000Y-186220000D03*
X226680000Y-187020000D03*
X226680000Y-187820000D03*
X226680000Y-188620000D03*
X226680000Y-189420000D03*
D19*
X224980000Y-191120000D03*
X224180000Y-191120000D03*
X223380000Y-191120000D03*
X222580000Y-191120000D03*
X221780000Y-191120000D03*
X220980000Y-191120000D03*
X220180000Y-191120000D03*
X219380000Y-191120000D03*
X218580000Y-191120000D03*
X217780000Y-191120000D03*
X216980000Y-191120000D03*
D20*
X215280000Y-189420000D03*
X215280000Y-188620000D03*
X215280000Y-187820000D03*
X215280000Y-187020000D03*
X215280000Y-186220000D03*
X215280000Y-185420000D03*
X215280000Y-184620000D03*
X215280000Y-183820000D03*
X215280000Y-183020000D03*
X215280000Y-182220000D03*
X215280000Y-181420000D03*
G04 #@! TD*
D15*
G04 #@! TO.C,D130*
X212170000Y-170180000D03*
X209470000Y-170180000D03*
G04 #@! TD*
G04 #@! TO.C,D128*
X209470000Y-160020000D03*
X212170000Y-160020000D03*
G04 #@! TD*
G04 #@! TO.C,D127*
X212170000Y-154940000D03*
X209470000Y-154940000D03*
G04 #@! TD*
G04 #@! TO.C,D129*
X209470000Y-165100000D03*
X212170000Y-165100000D03*
G04 #@! TD*
D21*
G04 #@! TO.C,J16*
X208280000Y-190500000D03*
X208280000Y-187960000D03*
X208280000Y-185420000D03*
X208280000Y-182880000D03*
D22*
X208280000Y-180340000D03*
G04 #@! TD*
D21*
G04 #@! TO.C,J15*
X165100000Y-114300000D03*
X165100000Y-111760000D03*
X165100000Y-109220000D03*
X165100000Y-106680000D03*
X165100000Y-104140000D03*
X165100000Y-101600000D03*
D22*
X165100000Y-99060000D03*
G04 #@! TD*
D15*
G04 #@! TO.C,R196*
X229950000Y-160020000D03*
X227250000Y-160020000D03*
G04 #@! TD*
G04 #@! TO.C,R197*
X242490000Y-200660000D03*
X245190000Y-200660000D03*
G04 #@! TD*
G04 #@! TO.C,R198*
X207090000Y-154940000D03*
X204390000Y-154940000D03*
G04 #@! TD*
G04 #@! TO.C,R199*
X204390000Y-160020000D03*
X207090000Y-160020000D03*
G04 #@! TD*
G04 #@! TO.C,R200*
X207090000Y-165100000D03*
X204390000Y-165100000D03*
G04 #@! TD*
G04 #@! TO.C,R201*
X204390000Y-170180000D03*
X207090000Y-170180000D03*
G04 #@! TD*
G04 #@! TO.C,R202*
X245190000Y-160020000D03*
X242490000Y-160020000D03*
G04 #@! TD*
G04 #@! TO.C,R203*
X257730000Y-160020000D03*
X260430000Y-160020000D03*
G04 #@! TD*
G04 #@! TO.C,R204*
X260430000Y-180340000D03*
X257730000Y-180340000D03*
G04 #@! TD*
G04 #@! TO.C,R205*
X257730000Y-200660000D03*
X260430000Y-200660000D03*
G04 #@! TD*
G04 #@! TO.C,R206*
X245190000Y-170180000D03*
X242490000Y-170180000D03*
G04 #@! TD*
G04 #@! TO.C,R207*
X257730000Y-170180000D03*
X260430000Y-170180000D03*
G04 #@! TD*
G04 #@! TO.C,R208*
X260430000Y-190500000D03*
X257730000Y-190500000D03*
G04 #@! TD*
D21*
G04 #@! TO.C,J12*
X241300000Y-96520000D03*
X243840000Y-96520000D03*
X241300000Y-99060000D03*
X243840000Y-99060000D03*
X241300000Y-101600000D03*
X243840000Y-101600000D03*
X241300000Y-104140000D03*
X243840000Y-104140000D03*
X241300000Y-106680000D03*
X243840000Y-106680000D03*
X241300000Y-109220000D03*
X243840000Y-109220000D03*
X241300000Y-111760000D03*
X243840000Y-111760000D03*
X241300000Y-114300000D03*
X243840000Y-114300000D03*
X241300000Y-116840000D03*
X243840000Y-116840000D03*
X241300000Y-119380000D03*
X243840000Y-119380000D03*
X241300000Y-121920000D03*
X243840000Y-121920000D03*
X241300000Y-124460000D03*
X243840000Y-124460000D03*
X241300000Y-127000000D03*
X243840000Y-127000000D03*
X241300000Y-129540000D03*
D22*
X243840000Y-129540000D03*
G04 #@! TD*
D21*
G04 #@! TO.C,J14*
X149860000Y-71120000D03*
X147320000Y-71120000D03*
X149860000Y-68580000D03*
X147320000Y-68580000D03*
X149860000Y-66040000D03*
X147320000Y-66040000D03*
X149860000Y-63500000D03*
X147320000Y-63500000D03*
X149860000Y-60960000D03*
X147320000Y-60960000D03*
X149860000Y-58420000D03*
X147320000Y-58420000D03*
X149860000Y-55880000D03*
X147320000Y-55880000D03*
X149860000Y-53340000D03*
X147320000Y-53340000D03*
X149860000Y-50800000D03*
X147320000Y-50800000D03*
X149860000Y-48260000D03*
X147320000Y-48260000D03*
X149860000Y-45720000D03*
X147320000Y-45720000D03*
X149860000Y-43180000D03*
X147320000Y-43180000D03*
X149860000Y-40640000D03*
X147320000Y-40640000D03*
X149860000Y-38100000D03*
X147320000Y-38100000D03*
X149860000Y-35560000D03*
X147320000Y-35560000D03*
X149860000Y-33020000D03*
X147320000Y-33020000D03*
X149860000Y-30480000D03*
D22*
X147320000Y-30480000D03*
G04 #@! TD*
D15*
G04 #@! TO.C,D126*
X217250000Y-71120000D03*
X214550000Y-71120000D03*
G04 #@! TD*
G04 #@! TO.C,D125*
X214550000Y-68580000D03*
X217250000Y-68580000D03*
G04 #@! TD*
G04 #@! TO.C,R194*
X209470000Y-68580000D03*
X212170000Y-68580000D03*
G04 #@! TD*
G04 #@! TO.C,R195*
X212170000Y-71120000D03*
X209470000Y-71120000D03*
G04 #@! TD*
G04 #@! TO.C,R192*
X191850000Y-109220000D03*
X189150000Y-109220000D03*
G04 #@! TD*
G04 #@! TO.C,R193*
X189150000Y-111760000D03*
X191850000Y-111760000D03*
G04 #@! TD*
D22*
G04 #@! TO.C,J1*
X24130000Y-53340000D03*
D21*
X24130000Y-55880000D03*
X24130000Y-58420000D03*
X24130000Y-60960000D03*
X24130000Y-63500000D03*
G04 #@! TD*
D22*
G04 #@! TO.C,J2*
X24130000Y-116840000D03*
D21*
X24130000Y-119380000D03*
X24130000Y-121920000D03*
X24130000Y-124460000D03*
X24130000Y-127000000D03*
G04 #@! TD*
D22*
G04 #@! TO.C,J3*
X24130000Y-180340000D03*
D21*
X24130000Y-182880000D03*
X24130000Y-185420000D03*
X24130000Y-187960000D03*
X24130000Y-190500000D03*
G04 #@! TD*
D22*
G04 #@! TO.C,J4*
X69850000Y-53340000D03*
D21*
X69850000Y-55880000D03*
X69850000Y-58420000D03*
X69850000Y-60960000D03*
X69850000Y-63500000D03*
G04 #@! TD*
G04 #@! TO.C,J5*
X69850000Y-127000000D03*
X69850000Y-124460000D03*
X69850000Y-121920000D03*
X69850000Y-119380000D03*
D22*
X69850000Y-116840000D03*
G04 #@! TD*
D21*
G04 #@! TO.C,J6*
X69850000Y-190500000D03*
X69850000Y-187960000D03*
X69850000Y-185420000D03*
X69850000Y-182880000D03*
D22*
X69850000Y-180340000D03*
G04 #@! TD*
D21*
G04 #@! TO.C,J7*
X105410000Y-63500000D03*
X105410000Y-60960000D03*
X105410000Y-58420000D03*
X105410000Y-55880000D03*
D22*
X105410000Y-53340000D03*
G04 #@! TD*
D21*
G04 #@! TO.C,J8*
X115570000Y-127000000D03*
X115570000Y-124460000D03*
X115570000Y-121920000D03*
X115570000Y-119380000D03*
D22*
X115570000Y-116840000D03*
G04 #@! TD*
D21*
G04 #@! TO.C,J9*
X115570000Y-190500000D03*
X115570000Y-187960000D03*
X115570000Y-185420000D03*
X115570000Y-182880000D03*
D22*
X115570000Y-180340000D03*
G04 #@! TD*
G04 #@! TO.C,J10*
X161290000Y-116840000D03*
D21*
X161290000Y-119380000D03*
X161290000Y-121920000D03*
X161290000Y-124460000D03*
X161290000Y-127000000D03*
G04 #@! TD*
D22*
G04 #@! TO.C,J11*
X156210000Y-180340000D03*
D21*
X156210000Y-182880000D03*
X156210000Y-185420000D03*
X156210000Y-187960000D03*
X156210000Y-190500000D03*
G04 #@! TD*
D20*
G04 #@! TO.C,U1*
X32400000Y-54420000D03*
X32400000Y-55220000D03*
X32400000Y-56020000D03*
X32400000Y-56820000D03*
X32400000Y-57620000D03*
X32400000Y-58420000D03*
X32400000Y-59220000D03*
X32400000Y-60020000D03*
X32400000Y-60820000D03*
X32400000Y-61620000D03*
X32400000Y-62420000D03*
D19*
X34100000Y-64120000D03*
X34900000Y-64120000D03*
X35700000Y-64120000D03*
X36500000Y-64120000D03*
X37300000Y-64120000D03*
X38100000Y-64120000D03*
X38900000Y-64120000D03*
X39700000Y-64120000D03*
X40500000Y-64120000D03*
X41300000Y-64120000D03*
X42100000Y-64120000D03*
D20*
X43800000Y-62420000D03*
X43800000Y-61620000D03*
X43800000Y-60820000D03*
X43800000Y-60020000D03*
X43800000Y-59220000D03*
X43800000Y-58420000D03*
X43800000Y-57620000D03*
X43800000Y-56820000D03*
X43800000Y-56020000D03*
X43800000Y-55220000D03*
X43800000Y-54420000D03*
D19*
X42100000Y-52720000D03*
X41300000Y-52720000D03*
X40500000Y-52720000D03*
X39700000Y-52720000D03*
X38900000Y-52720000D03*
X38100000Y-52720000D03*
X37300000Y-52720000D03*
X36500000Y-52720000D03*
X35700000Y-52720000D03*
X34900000Y-52720000D03*
X34100000Y-52720000D03*
G04 #@! TD*
D20*
G04 #@! TO.C,U2*
X32400000Y-117920000D03*
X32400000Y-118720000D03*
X32400000Y-119520000D03*
X32400000Y-120320000D03*
X32400000Y-121120000D03*
X32400000Y-121920000D03*
X32400000Y-122720000D03*
X32400000Y-123520000D03*
X32400000Y-124320000D03*
X32400000Y-125120000D03*
X32400000Y-125920000D03*
D19*
X34100000Y-127620000D03*
X34900000Y-127620000D03*
X35700000Y-127620000D03*
X36500000Y-127620000D03*
X37300000Y-127620000D03*
X38100000Y-127620000D03*
X38900000Y-127620000D03*
X39700000Y-127620000D03*
X40500000Y-127620000D03*
X41300000Y-127620000D03*
X42100000Y-127620000D03*
D20*
X43800000Y-125920000D03*
X43800000Y-125120000D03*
X43800000Y-124320000D03*
X43800000Y-123520000D03*
X43800000Y-122720000D03*
X43800000Y-121920000D03*
X43800000Y-121120000D03*
X43800000Y-120320000D03*
X43800000Y-119520000D03*
X43800000Y-118720000D03*
X43800000Y-117920000D03*
D19*
X42100000Y-116220000D03*
X41300000Y-116220000D03*
X40500000Y-116220000D03*
X39700000Y-116220000D03*
X38900000Y-116220000D03*
X38100000Y-116220000D03*
X37300000Y-116220000D03*
X36500000Y-116220000D03*
X35700000Y-116220000D03*
X34900000Y-116220000D03*
X34100000Y-116220000D03*
G04 #@! TD*
D20*
G04 #@! TO.C,U3*
X32400000Y-181420000D03*
X32400000Y-182220000D03*
X32400000Y-183020000D03*
X32400000Y-183820000D03*
X32400000Y-184620000D03*
X32400000Y-185420000D03*
X32400000Y-186220000D03*
X32400000Y-187020000D03*
X32400000Y-187820000D03*
X32400000Y-188620000D03*
X32400000Y-189420000D03*
D19*
X34100000Y-191120000D03*
X34900000Y-191120000D03*
X35700000Y-191120000D03*
X36500000Y-191120000D03*
X37300000Y-191120000D03*
X38100000Y-191120000D03*
X38900000Y-191120000D03*
X39700000Y-191120000D03*
X40500000Y-191120000D03*
X41300000Y-191120000D03*
X42100000Y-191120000D03*
D20*
X43800000Y-189420000D03*
X43800000Y-188620000D03*
X43800000Y-187820000D03*
X43800000Y-187020000D03*
X43800000Y-186220000D03*
X43800000Y-185420000D03*
X43800000Y-184620000D03*
X43800000Y-183820000D03*
X43800000Y-183020000D03*
X43800000Y-182220000D03*
X43800000Y-181420000D03*
D19*
X42100000Y-179720000D03*
X41300000Y-179720000D03*
X40500000Y-179720000D03*
X39700000Y-179720000D03*
X38900000Y-179720000D03*
X38100000Y-179720000D03*
X37300000Y-179720000D03*
X36500000Y-179720000D03*
X35700000Y-179720000D03*
X34900000Y-179720000D03*
X34100000Y-179720000D03*
G04 #@! TD*
G04 #@! TO.C,U4*
X79820000Y-52720000D03*
X80620000Y-52720000D03*
X81420000Y-52720000D03*
X82220000Y-52720000D03*
X83020000Y-52720000D03*
X83820000Y-52720000D03*
X84620000Y-52720000D03*
X85420000Y-52720000D03*
X86220000Y-52720000D03*
X87020000Y-52720000D03*
X87820000Y-52720000D03*
D20*
X89520000Y-54420000D03*
X89520000Y-55220000D03*
X89520000Y-56020000D03*
X89520000Y-56820000D03*
X89520000Y-57620000D03*
X89520000Y-58420000D03*
X89520000Y-59220000D03*
X89520000Y-60020000D03*
X89520000Y-60820000D03*
X89520000Y-61620000D03*
X89520000Y-62420000D03*
D19*
X87820000Y-64120000D03*
X87020000Y-64120000D03*
X86220000Y-64120000D03*
X85420000Y-64120000D03*
X84620000Y-64120000D03*
X83820000Y-64120000D03*
X83020000Y-64120000D03*
X82220000Y-64120000D03*
X81420000Y-64120000D03*
X80620000Y-64120000D03*
X79820000Y-64120000D03*
D20*
X78120000Y-62420000D03*
X78120000Y-61620000D03*
X78120000Y-60820000D03*
X78120000Y-60020000D03*
X78120000Y-59220000D03*
X78120000Y-58420000D03*
X78120000Y-57620000D03*
X78120000Y-56820000D03*
X78120000Y-56020000D03*
X78120000Y-55220000D03*
X78120000Y-54420000D03*
G04 #@! TD*
D19*
G04 #@! TO.C,U5*
X79820000Y-116220000D03*
X80620000Y-116220000D03*
X81420000Y-116220000D03*
X82220000Y-116220000D03*
X83020000Y-116220000D03*
X83820000Y-116220000D03*
X84620000Y-116220000D03*
X85420000Y-116220000D03*
X86220000Y-116220000D03*
X87020000Y-116220000D03*
X87820000Y-116220000D03*
D20*
X89520000Y-117920000D03*
X89520000Y-118720000D03*
X89520000Y-119520000D03*
X89520000Y-120320000D03*
X89520000Y-121120000D03*
X89520000Y-121920000D03*
X89520000Y-122720000D03*
X89520000Y-123520000D03*
X89520000Y-124320000D03*
X89520000Y-125120000D03*
X89520000Y-125920000D03*
D19*
X87820000Y-127620000D03*
X87020000Y-127620000D03*
X86220000Y-127620000D03*
X85420000Y-127620000D03*
X84620000Y-127620000D03*
X83820000Y-127620000D03*
X83020000Y-127620000D03*
X82220000Y-127620000D03*
X81420000Y-127620000D03*
X80620000Y-127620000D03*
X79820000Y-127620000D03*
D20*
X78120000Y-125920000D03*
X78120000Y-125120000D03*
X78120000Y-124320000D03*
X78120000Y-123520000D03*
X78120000Y-122720000D03*
X78120000Y-121920000D03*
X78120000Y-121120000D03*
X78120000Y-120320000D03*
X78120000Y-119520000D03*
X78120000Y-118720000D03*
X78120000Y-117920000D03*
G04 #@! TD*
D19*
G04 #@! TO.C,U6*
X79820000Y-179720000D03*
X80620000Y-179720000D03*
X81420000Y-179720000D03*
X82220000Y-179720000D03*
X83020000Y-179720000D03*
X83820000Y-179720000D03*
X84620000Y-179720000D03*
X85420000Y-179720000D03*
X86220000Y-179720000D03*
X87020000Y-179720000D03*
X87820000Y-179720000D03*
D20*
X89520000Y-181420000D03*
X89520000Y-182220000D03*
X89520000Y-183020000D03*
X89520000Y-183820000D03*
X89520000Y-184620000D03*
X89520000Y-185420000D03*
X89520000Y-186220000D03*
X89520000Y-187020000D03*
X89520000Y-187820000D03*
X89520000Y-188620000D03*
X89520000Y-189420000D03*
D19*
X87820000Y-191120000D03*
X87020000Y-191120000D03*
X86220000Y-191120000D03*
X85420000Y-191120000D03*
X84620000Y-191120000D03*
X83820000Y-191120000D03*
X83020000Y-191120000D03*
X82220000Y-191120000D03*
X81420000Y-191120000D03*
X80620000Y-191120000D03*
X79820000Y-191120000D03*
D20*
X78120000Y-189420000D03*
X78120000Y-188620000D03*
X78120000Y-187820000D03*
X78120000Y-187020000D03*
X78120000Y-186220000D03*
X78120000Y-185420000D03*
X78120000Y-184620000D03*
X78120000Y-183820000D03*
X78120000Y-183020000D03*
X78120000Y-182220000D03*
X78120000Y-181420000D03*
G04 #@! TD*
G04 #@! TO.C,U7*
X113680000Y-54420000D03*
X113680000Y-55220000D03*
X113680000Y-56020000D03*
X113680000Y-56820000D03*
X113680000Y-57620000D03*
X113680000Y-58420000D03*
X113680000Y-59220000D03*
X113680000Y-60020000D03*
X113680000Y-60820000D03*
X113680000Y-61620000D03*
X113680000Y-62420000D03*
D19*
X115380000Y-64120000D03*
X116180000Y-64120000D03*
X116980000Y-64120000D03*
X117780000Y-64120000D03*
X118580000Y-64120000D03*
X119380000Y-64120000D03*
X120180000Y-64120000D03*
X120980000Y-64120000D03*
X121780000Y-64120000D03*
X122580000Y-64120000D03*
X123380000Y-64120000D03*
D20*
X125080000Y-62420000D03*
X125080000Y-61620000D03*
X125080000Y-60820000D03*
X125080000Y-60020000D03*
X125080000Y-59220000D03*
X125080000Y-58420000D03*
X125080000Y-57620000D03*
X125080000Y-56820000D03*
X125080000Y-56020000D03*
X125080000Y-55220000D03*
X125080000Y-54420000D03*
D19*
X123380000Y-52720000D03*
X122580000Y-52720000D03*
X121780000Y-52720000D03*
X120980000Y-52720000D03*
X120180000Y-52720000D03*
X119380000Y-52720000D03*
X118580000Y-52720000D03*
X117780000Y-52720000D03*
X116980000Y-52720000D03*
X116180000Y-52720000D03*
X115380000Y-52720000D03*
G04 #@! TD*
D20*
G04 #@! TO.C,U8*
X123840000Y-117920000D03*
X123840000Y-118720000D03*
X123840000Y-119520000D03*
X123840000Y-120320000D03*
X123840000Y-121120000D03*
X123840000Y-121920000D03*
X123840000Y-122720000D03*
X123840000Y-123520000D03*
X123840000Y-124320000D03*
X123840000Y-125120000D03*
X123840000Y-125920000D03*
D19*
X125540000Y-127620000D03*
X126340000Y-127620000D03*
X127140000Y-127620000D03*
X127940000Y-127620000D03*
X128740000Y-127620000D03*
X129540000Y-127620000D03*
X130340000Y-127620000D03*
X131140000Y-127620000D03*
X131940000Y-127620000D03*
X132740000Y-127620000D03*
X133540000Y-127620000D03*
D20*
X135240000Y-125920000D03*
X135240000Y-125120000D03*
X135240000Y-124320000D03*
X135240000Y-123520000D03*
X135240000Y-122720000D03*
X135240000Y-121920000D03*
X135240000Y-121120000D03*
X135240000Y-120320000D03*
X135240000Y-119520000D03*
X135240000Y-118720000D03*
X135240000Y-117920000D03*
D19*
X133540000Y-116220000D03*
X132740000Y-116220000D03*
X131940000Y-116220000D03*
X131140000Y-116220000D03*
X130340000Y-116220000D03*
X129540000Y-116220000D03*
X128740000Y-116220000D03*
X127940000Y-116220000D03*
X127140000Y-116220000D03*
X126340000Y-116220000D03*
X125540000Y-116220000D03*
G04 #@! TD*
G04 #@! TO.C,U9*
X125540000Y-179720000D03*
X126340000Y-179720000D03*
X127140000Y-179720000D03*
X127940000Y-179720000D03*
X128740000Y-179720000D03*
X129540000Y-179720000D03*
X130340000Y-179720000D03*
X131140000Y-179720000D03*
X131940000Y-179720000D03*
X132740000Y-179720000D03*
X133540000Y-179720000D03*
D20*
X135240000Y-181420000D03*
X135240000Y-182220000D03*
X135240000Y-183020000D03*
X135240000Y-183820000D03*
X135240000Y-184620000D03*
X135240000Y-185420000D03*
X135240000Y-186220000D03*
X135240000Y-187020000D03*
X135240000Y-187820000D03*
X135240000Y-188620000D03*
X135240000Y-189420000D03*
D19*
X133540000Y-191120000D03*
X132740000Y-191120000D03*
X131940000Y-191120000D03*
X131140000Y-191120000D03*
X130340000Y-191120000D03*
X129540000Y-191120000D03*
X128740000Y-191120000D03*
X127940000Y-191120000D03*
X127140000Y-191120000D03*
X126340000Y-191120000D03*
X125540000Y-191120000D03*
D20*
X123840000Y-189420000D03*
X123840000Y-188620000D03*
X123840000Y-187820000D03*
X123840000Y-187020000D03*
X123840000Y-186220000D03*
X123840000Y-185420000D03*
X123840000Y-184620000D03*
X123840000Y-183820000D03*
X123840000Y-183020000D03*
X123840000Y-182220000D03*
X123840000Y-181420000D03*
G04 #@! TD*
D19*
G04 #@! TO.C,U10*
X171260000Y-116220000D03*
X172060000Y-116220000D03*
X172860000Y-116220000D03*
X173660000Y-116220000D03*
X174460000Y-116220000D03*
X175260000Y-116220000D03*
X176060000Y-116220000D03*
X176860000Y-116220000D03*
X177660000Y-116220000D03*
X178460000Y-116220000D03*
X179260000Y-116220000D03*
D20*
X180960000Y-117920000D03*
X180960000Y-118720000D03*
X180960000Y-119520000D03*
X180960000Y-120320000D03*
X180960000Y-121120000D03*
X180960000Y-121920000D03*
X180960000Y-122720000D03*
X180960000Y-123520000D03*
X180960000Y-124320000D03*
X180960000Y-125120000D03*
X180960000Y-125920000D03*
D19*
X179260000Y-127620000D03*
X178460000Y-127620000D03*
X177660000Y-127620000D03*
X176860000Y-127620000D03*
X176060000Y-127620000D03*
X175260000Y-127620000D03*
X174460000Y-127620000D03*
X173660000Y-127620000D03*
X172860000Y-127620000D03*
X172060000Y-127620000D03*
X171260000Y-127620000D03*
D20*
X169560000Y-125920000D03*
X169560000Y-125120000D03*
X169560000Y-124320000D03*
X169560000Y-123520000D03*
X169560000Y-122720000D03*
X169560000Y-121920000D03*
X169560000Y-121120000D03*
X169560000Y-120320000D03*
X169560000Y-119520000D03*
X169560000Y-118720000D03*
X169560000Y-117920000D03*
G04 #@! TD*
G04 #@! TO.C,U11*
X164480000Y-181420000D03*
X164480000Y-182220000D03*
X164480000Y-183020000D03*
X164480000Y-183820000D03*
X164480000Y-184620000D03*
X164480000Y-185420000D03*
X164480000Y-186220000D03*
X164480000Y-187020000D03*
X164480000Y-187820000D03*
X164480000Y-188620000D03*
X164480000Y-189420000D03*
D19*
X166180000Y-191120000D03*
X166980000Y-191120000D03*
X167780000Y-191120000D03*
X168580000Y-191120000D03*
X169380000Y-191120000D03*
X170180000Y-191120000D03*
X170980000Y-191120000D03*
X171780000Y-191120000D03*
X172580000Y-191120000D03*
X173380000Y-191120000D03*
X174180000Y-191120000D03*
D20*
X175880000Y-189420000D03*
X175880000Y-188620000D03*
X175880000Y-187820000D03*
X175880000Y-187020000D03*
X175880000Y-186220000D03*
X175880000Y-185420000D03*
X175880000Y-184620000D03*
X175880000Y-183820000D03*
X175880000Y-183020000D03*
X175880000Y-182220000D03*
X175880000Y-181420000D03*
D19*
X174180000Y-179720000D03*
X173380000Y-179720000D03*
X172580000Y-179720000D03*
X171780000Y-179720000D03*
X170980000Y-179720000D03*
X170180000Y-179720000D03*
X169380000Y-179720000D03*
X168580000Y-179720000D03*
X167780000Y-179720000D03*
X166980000Y-179720000D03*
X166180000Y-179720000D03*
G04 #@! TD*
D21*
G04 #@! TO.C,J13*
X207010000Y-127000000D03*
X207010000Y-124460000D03*
X207010000Y-121920000D03*
X207010000Y-119380000D03*
D22*
X207010000Y-116840000D03*
G04 #@! TD*
D16*
G04 #@! TO.C,SW1*
X260515000Y-103850000D03*
X252565000Y-103850000D03*
X260515000Y-99350000D03*
X252565000Y-99350000D03*
G04 #@! TD*
G04 #@! TO.C,SW2*
X252565000Y-114590000D03*
X260515000Y-114590000D03*
X252565000Y-119090000D03*
X260515000Y-119090000D03*
G04 #@! TD*
G04 #@! TO.C,SW3*
X260515000Y-134330000D03*
X252565000Y-134330000D03*
X260515000Y-129830000D03*
X252565000Y-129830000D03*
G04 #@! TD*
D23*
G04 #@! TO.C,U12*
X196100000Y-53975000D03*
X196100000Y-55245000D03*
X196100000Y-56515000D03*
X196100000Y-57785000D03*
X196100000Y-59055000D03*
X196100000Y-60325000D03*
X196100000Y-61595000D03*
X196100000Y-62875000D03*
X196100000Y-64125000D03*
X196100000Y-65405000D03*
X196100000Y-66675000D03*
X196100000Y-67945000D03*
X196100000Y-69215000D03*
X196100000Y-70485000D03*
X196100000Y-71755000D03*
X196100000Y-73025000D03*
X184900000Y-73025000D03*
X184900000Y-71755000D03*
X184900000Y-70485000D03*
X184900000Y-69215000D03*
X184900000Y-67945000D03*
X184900000Y-66675000D03*
X184900000Y-65405000D03*
X184900000Y-64125000D03*
X184900000Y-62875000D03*
X184900000Y-61595000D03*
X184900000Y-60325000D03*
X184900000Y-59055000D03*
X184900000Y-57785000D03*
X184900000Y-56515000D03*
X184900000Y-55245000D03*
X184900000Y-53975000D03*
G04 #@! TD*
D19*
G04 #@! TO.C,U13*
X216980000Y-116220000D03*
X217780000Y-116220000D03*
X218580000Y-116220000D03*
X219380000Y-116220000D03*
X220180000Y-116220000D03*
X220980000Y-116220000D03*
X221780000Y-116220000D03*
X222580000Y-116220000D03*
X223380000Y-116220000D03*
X224180000Y-116220000D03*
X224980000Y-116220000D03*
D20*
X226680000Y-117920000D03*
X226680000Y-118720000D03*
X226680000Y-119520000D03*
X226680000Y-120320000D03*
X226680000Y-121120000D03*
X226680000Y-121920000D03*
X226680000Y-122720000D03*
X226680000Y-123520000D03*
X226680000Y-124320000D03*
X226680000Y-125120000D03*
X226680000Y-125920000D03*
D19*
X224980000Y-127620000D03*
X224180000Y-127620000D03*
X223380000Y-127620000D03*
X222580000Y-127620000D03*
X221780000Y-127620000D03*
X220980000Y-127620000D03*
X220180000Y-127620000D03*
X219380000Y-127620000D03*
X218580000Y-127620000D03*
X217780000Y-127620000D03*
X216980000Y-127620000D03*
D20*
X215280000Y-125920000D03*
X215280000Y-125120000D03*
X215280000Y-124320000D03*
X215280000Y-123520000D03*
X215280000Y-122720000D03*
X215280000Y-121920000D03*
X215280000Y-121120000D03*
X215280000Y-120320000D03*
X215280000Y-119520000D03*
X215280000Y-118720000D03*
X215280000Y-117920000D03*
G04 #@! TD*
D18*
G04 #@! TO.C,C1*
X35560000Y-72370000D03*
X35560000Y-69870000D03*
G04 #@! TD*
D17*
G04 #@! TO.C,C2*
X52050000Y-60960000D03*
X49550000Y-60960000D03*
G04 #@! TD*
D18*
G04 #@! TO.C,C3*
X40640000Y-44470000D03*
X40640000Y-46970000D03*
G04 #@! TD*
G04 #@! TO.C,C4*
X35560000Y-135870000D03*
X35560000Y-133370000D03*
G04 #@! TD*
D17*
G04 #@! TO.C,C5*
X52050000Y-124460000D03*
X49550000Y-124460000D03*
G04 #@! TD*
D18*
G04 #@! TO.C,C6*
X40640000Y-107950000D03*
X40640000Y-110450000D03*
G04 #@! TD*
G04 #@! TO.C,C7*
X40640000Y-171470000D03*
X40640000Y-173970000D03*
G04 #@! TD*
G04 #@! TO.C,C8*
X35560000Y-196870000D03*
X35560000Y-199370000D03*
G04 #@! TD*
D17*
G04 #@! TO.C,C9*
X52050000Y-187920000D03*
X49550000Y-187920000D03*
G04 #@! TD*
D18*
G04 #@! TO.C,C10*
X81280000Y-72370000D03*
X81280000Y-69870000D03*
G04 #@! TD*
D17*
G04 #@! TO.C,C11*
X97770000Y-60960000D03*
X95270000Y-60960000D03*
G04 #@! TD*
D18*
G04 #@! TO.C,C12*
X86360000Y-44470000D03*
X86360000Y-46970000D03*
G04 #@! TD*
G04 #@! TO.C,C13*
X81280000Y-133370000D03*
X81280000Y-135870000D03*
G04 #@! TD*
D17*
G04 #@! TO.C,C14*
X95270000Y-124460000D03*
X97770000Y-124460000D03*
G04 #@! TD*
D18*
G04 #@! TO.C,C15*
X86360000Y-110470000D03*
X86360000Y-107970000D03*
G04 #@! TD*
G04 #@! TO.C,C16*
X81280000Y-196870000D03*
X81280000Y-199370000D03*
G04 #@! TD*
D17*
G04 #@! TO.C,C17*
X97770000Y-187960000D03*
X95270000Y-187960000D03*
G04 #@! TD*
D18*
G04 #@! TO.C,C18*
X86360000Y-173970000D03*
X86360000Y-171470000D03*
G04 #@! TD*
G04 #@! TO.C,C19*
X116840000Y-72370000D03*
X116840000Y-69870000D03*
G04 #@! TD*
D17*
G04 #@! TO.C,C20*
X133330000Y-60960000D03*
X130830000Y-60960000D03*
G04 #@! TD*
D18*
G04 #@! TO.C,C21*
X121920000Y-44470000D03*
X121920000Y-46970000D03*
G04 #@! TD*
G04 #@! TO.C,C22*
X127000000Y-135870000D03*
X127000000Y-133370000D03*
G04 #@! TD*
D17*
G04 #@! TO.C,C23*
X143490000Y-124460000D03*
X140990000Y-124460000D03*
G04 #@! TD*
D18*
G04 #@! TO.C,C24*
X132080000Y-110470000D03*
X132080000Y-107970000D03*
G04 #@! TD*
G04 #@! TO.C,C25*
X127000000Y-199370000D03*
X127000000Y-196870000D03*
G04 #@! TD*
D17*
G04 #@! TO.C,C26*
X140990000Y-187960000D03*
X143490000Y-187960000D03*
G04 #@! TD*
D18*
G04 #@! TO.C,C27*
X132080000Y-173970000D03*
X132080000Y-171470000D03*
G04 #@! TD*
D17*
G04 #@! TO.C,C28*
X201910000Y-55880000D03*
X199410000Y-55880000D03*
G04 #@! TD*
G04 #@! TO.C,C29*
X201910000Y-53340000D03*
X199410000Y-53340000D03*
G04 #@! TD*
D18*
G04 #@! TO.C,C30*
X172720000Y-133370000D03*
X172720000Y-135870000D03*
G04 #@! TD*
D17*
G04 #@! TO.C,C31*
X189210000Y-124460000D03*
X186710000Y-124460000D03*
G04 #@! TD*
D18*
G04 #@! TO.C,C32*
X177800000Y-110470000D03*
X177800000Y-107970000D03*
G04 #@! TD*
G04 #@! TO.C,C33*
X167640000Y-196870000D03*
X167640000Y-199370000D03*
G04 #@! TD*
D17*
G04 #@! TO.C,C34*
X184130000Y-187960000D03*
X181630000Y-187960000D03*
G04 #@! TD*
D18*
G04 #@! TO.C,C35*
X172720000Y-173970000D03*
X172720000Y-171470000D03*
G04 #@! TD*
G04 #@! TO.C,C36*
X218440000Y-133370000D03*
X218440000Y-135870000D03*
G04 #@! TD*
D17*
G04 #@! TO.C,C37*
X232430000Y-124460000D03*
X234930000Y-124460000D03*
G04 #@! TD*
D18*
G04 #@! TO.C,C38*
X225552000Y-110470000D03*
X225552000Y-107970000D03*
G04 #@! TD*
D17*
G04 #@! TO.C,C39*
X255250000Y-93980000D03*
X252750000Y-93980000D03*
G04 #@! TD*
G04 #@! TO.C,C40*
X255250000Y-109220000D03*
X252750000Y-109220000D03*
G04 #@! TD*
G04 #@! TO.C,C41*
X255250000Y-124460000D03*
X252750000Y-124460000D03*
G04 #@! TD*
D15*
G04 #@! TO.C,D1*
X214550000Y-73660000D03*
X217250000Y-73660000D03*
G04 #@! TD*
G04 #@! TO.C,D2*
X214550000Y-66040000D03*
X217250000Y-66040000D03*
G04 #@! TD*
G04 #@! TO.C,D3*
X186610000Y-200660000D03*
X189310000Y-200660000D03*
G04 #@! TD*
G04 #@! TO.C,D4*
X133430000Y-73660000D03*
X130730000Y-73660000D03*
G04 #@! TD*
G04 #@! TO.C,D5*
X133430000Y-71120000D03*
X130730000Y-71120000D03*
G04 #@! TD*
G04 #@! TO.C,D6*
X51990000Y-73660000D03*
X54690000Y-73660000D03*
G04 #@! TD*
G04 #@! TO.C,D7*
X51990000Y-71120000D03*
X54690000Y-71120000D03*
G04 #@! TD*
G04 #@! TO.C,D8*
X54690000Y-137160000D03*
X51990000Y-137160000D03*
G04 #@! TD*
G04 #@! TO.C,D9*
X54690000Y-134620000D03*
X51990000Y-134620000D03*
G04 #@! TD*
G04 #@! TO.C,D10*
X49450000Y-200660000D03*
X52150000Y-200660000D03*
G04 #@! TD*
G04 #@! TO.C,D11*
X52150000Y-198120000D03*
X49450000Y-198120000D03*
G04 #@! TD*
G04 #@! TO.C,D12*
X95170000Y-200660000D03*
X97870000Y-200660000D03*
G04 #@! TD*
G04 #@! TO.C,D13*
X97870000Y-198120000D03*
X95170000Y-198120000D03*
G04 #@! TD*
G04 #@! TO.C,D14*
X186610000Y-198120000D03*
X189310000Y-198120000D03*
G04 #@! TD*
G04 #@! TO.C,D15*
X140890000Y-137160000D03*
X143590000Y-137160000D03*
G04 #@! TD*
D24*
G04 #@! TO.C,D16*
X20320000Y-29130000D03*
X20320000Y-31830000D03*
G04 #@! TD*
G04 #@! TO.C,D17*
X48260000Y-156130000D03*
X48260000Y-158830000D03*
G04 #@! TD*
G04 #@! TO.C,D18*
X45720000Y-158830000D03*
X45720000Y-156130000D03*
G04 #@! TD*
G04 #@! TO.C,D19*
X43180000Y-156130000D03*
X43180000Y-158830000D03*
G04 #@! TD*
G04 #@! TO.C,D20*
X40640000Y-156130000D03*
X40640000Y-158830000D03*
G04 #@! TD*
G04 #@! TO.C,D21*
X38100000Y-158830000D03*
X38100000Y-156130000D03*
G04 #@! TD*
G04 #@! TO.C,D22*
X35560000Y-156130000D03*
X35560000Y-158830000D03*
G04 #@! TD*
G04 #@! TO.C,D23*
X33020000Y-156130000D03*
X33020000Y-158830000D03*
G04 #@! TD*
G04 #@! TO.C,D24*
X30480000Y-158830000D03*
X30480000Y-156130000D03*
G04 #@! TD*
D15*
G04 #@! TO.C,D25*
X214550000Y-43180000D03*
X217250000Y-43180000D03*
G04 #@! TD*
G04 #@! TO.C,D26*
X217250000Y-45720000D03*
X214550000Y-45720000D03*
G04 #@! TD*
G04 #@! TO.C,D27*
X214550000Y-48260000D03*
X217250000Y-48260000D03*
G04 #@! TD*
G04 #@! TO.C,D28*
X217250000Y-50800000D03*
X214550000Y-50800000D03*
G04 #@! TD*
G04 #@! TO.C,D29*
X217250000Y-53340000D03*
X214550000Y-53340000D03*
G04 #@! TD*
G04 #@! TO.C,D30*
X214550000Y-55880000D03*
X217250000Y-55880000D03*
G04 #@! TD*
G04 #@! TO.C,D31*
X214550000Y-58420000D03*
X217250000Y-58420000D03*
G04 #@! TD*
G04 #@! TO.C,D32*
X214550000Y-60960000D03*
X217250000Y-60960000D03*
G04 #@! TD*
D24*
G04 #@! TO.C,D33*
X48260000Y-31830000D03*
X48260000Y-29130000D03*
G04 #@! TD*
G04 #@! TO.C,D34*
X45720000Y-31830000D03*
X45720000Y-29130000D03*
G04 #@! TD*
G04 #@! TO.C,D35*
X43180000Y-29130000D03*
X43180000Y-31830000D03*
G04 #@! TD*
G04 #@! TO.C,D36*
X40640000Y-31830000D03*
X40640000Y-29130000D03*
G04 #@! TD*
G04 #@! TO.C,D37*
X38100000Y-31830000D03*
X38100000Y-29130000D03*
G04 #@! TD*
G04 #@! TO.C,D38*
X35560000Y-29130000D03*
X35560000Y-31830000D03*
G04 #@! TD*
G04 #@! TO.C,D39*
X33020000Y-29130000D03*
X33020000Y-31830000D03*
G04 #@! TD*
G04 #@! TO.C,D40*
X30480000Y-31830000D03*
X30480000Y-29130000D03*
G04 #@! TD*
G04 #@! TO.C,D41*
X25400000Y-29130000D03*
X25400000Y-31830000D03*
G04 #@! TD*
G04 #@! TO.C,D42*
X48260000Y-92630000D03*
X48260000Y-95330000D03*
G04 #@! TD*
G04 #@! TO.C,D43*
X45720000Y-95330000D03*
X45720000Y-92630000D03*
G04 #@! TD*
G04 #@! TO.C,D44*
X43180000Y-92630000D03*
X43180000Y-95330000D03*
G04 #@! TD*
G04 #@! TO.C,D45*
X40640000Y-95330000D03*
X40640000Y-92630000D03*
G04 #@! TD*
G04 #@! TO.C,D46*
X38100000Y-92630000D03*
X38100000Y-95330000D03*
G04 #@! TD*
G04 #@! TO.C,D47*
X35560000Y-95330000D03*
X35560000Y-92630000D03*
G04 #@! TD*
G04 #@! TO.C,D48*
X33020000Y-92630000D03*
X33020000Y-95330000D03*
G04 #@! TD*
G04 #@! TO.C,D49*
X30480000Y-92630000D03*
X30480000Y-95330000D03*
G04 #@! TD*
G04 #@! TO.C,D50*
X93980000Y-156130000D03*
X93980000Y-158830000D03*
G04 #@! TD*
G04 #@! TO.C,D51*
X91440000Y-158830000D03*
X91440000Y-156130000D03*
G04 #@! TD*
G04 #@! TO.C,D52*
X88900000Y-156130000D03*
X88900000Y-158830000D03*
G04 #@! TD*
G04 #@! TO.C,D53*
X86360000Y-156130000D03*
X86360000Y-158830000D03*
G04 #@! TD*
G04 #@! TO.C,D54*
X83820000Y-158830000D03*
X83820000Y-156130000D03*
G04 #@! TD*
G04 #@! TO.C,D55*
X81280000Y-156130000D03*
X81280000Y-158830000D03*
G04 #@! TD*
G04 #@! TO.C,D56*
X78740000Y-158830000D03*
X78740000Y-156130000D03*
G04 #@! TD*
G04 #@! TO.C,D57*
X76200000Y-158830000D03*
X76200000Y-156130000D03*
G04 #@! TD*
G04 #@! TO.C,D58*
X86360000Y-92630000D03*
X86360000Y-95330000D03*
G04 #@! TD*
G04 #@! TO.C,D59*
X83820000Y-92630000D03*
X83820000Y-95330000D03*
G04 #@! TD*
G04 #@! TO.C,D60*
X81280000Y-92630000D03*
X81280000Y-95330000D03*
G04 #@! TD*
G04 #@! TO.C,D61*
X129540000Y-29130000D03*
X129540000Y-31830000D03*
G04 #@! TD*
G04 #@! TO.C,D62*
X127000000Y-31830000D03*
X127000000Y-29130000D03*
G04 #@! TD*
G04 #@! TO.C,D63*
X124460000Y-29130000D03*
X124460000Y-31830000D03*
G04 #@! TD*
G04 #@! TO.C,D64*
X121920000Y-31830000D03*
X121920000Y-29130000D03*
G04 #@! TD*
G04 #@! TO.C,D65*
X119380000Y-29130000D03*
X119380000Y-31830000D03*
G04 #@! TD*
G04 #@! TO.C,D66*
X116840000Y-29130000D03*
X116840000Y-31830000D03*
G04 #@! TD*
G04 #@! TO.C,D67*
X114300000Y-31830000D03*
X114300000Y-29130000D03*
G04 #@! TD*
G04 #@! TO.C,D68*
X111760000Y-31830000D03*
X111760000Y-29130000D03*
G04 #@! TD*
G04 #@! TO.C,D69*
X106680000Y-31830000D03*
X106680000Y-29130000D03*
G04 #@! TD*
G04 #@! TO.C,D70*
X139700000Y-156130000D03*
X139700000Y-158830000D03*
G04 #@! TD*
G04 #@! TO.C,D71*
X137160000Y-158830000D03*
X137160000Y-156130000D03*
G04 #@! TD*
G04 #@! TO.C,D72*
X134620000Y-156130000D03*
X134620000Y-158830000D03*
G04 #@! TD*
G04 #@! TO.C,D73*
X132080000Y-156130000D03*
X132080000Y-158830000D03*
G04 #@! TD*
G04 #@! TO.C,D74*
X129540000Y-156130000D03*
X129540000Y-158830000D03*
G04 #@! TD*
G04 #@! TO.C,D75*
X127000000Y-158830000D03*
X127000000Y-156130000D03*
G04 #@! TD*
G04 #@! TO.C,D76*
X124460000Y-156130000D03*
X124460000Y-158830000D03*
G04 #@! TD*
G04 #@! TO.C,D77*
X121920000Y-156130000D03*
X121920000Y-158830000D03*
G04 #@! TD*
G04 #@! TO.C,D78*
X180340000Y-158830000D03*
X180340000Y-156130000D03*
G04 #@! TD*
G04 #@! TO.C,D79*
X177800000Y-158830000D03*
X177800000Y-156130000D03*
G04 #@! TD*
G04 #@! TO.C,D80*
X175260000Y-156130000D03*
X175260000Y-158830000D03*
G04 #@! TD*
G04 #@! TO.C,D81*
X172720000Y-158830000D03*
X172720000Y-156130000D03*
G04 #@! TD*
G04 #@! TO.C,D82*
X170180000Y-156130000D03*
X170180000Y-158830000D03*
G04 #@! TD*
G04 #@! TO.C,D83*
X167640000Y-156130000D03*
X167640000Y-158830000D03*
G04 #@! TD*
G04 #@! TO.C,D84*
X165100000Y-158830000D03*
X165100000Y-156130000D03*
G04 #@! TD*
G04 #@! TO.C,D85*
X162560000Y-156130000D03*
X162560000Y-158830000D03*
G04 #@! TD*
G04 #@! TO.C,D86*
X215900000Y-29130000D03*
X215900000Y-31830000D03*
G04 #@! TD*
G04 #@! TO.C,D87*
X213360000Y-31830000D03*
X213360000Y-29130000D03*
G04 #@! TD*
G04 #@! TO.C,D88*
X210820000Y-31830000D03*
X210820000Y-29130000D03*
G04 #@! TD*
G04 #@! TO.C,D89*
X208280000Y-31830000D03*
X208280000Y-29130000D03*
G04 #@! TD*
G04 #@! TO.C,D90*
X205740000Y-29130000D03*
X205740000Y-31830000D03*
G04 #@! TD*
G04 #@! TO.C,D91*
X203200000Y-31830000D03*
X203200000Y-29130000D03*
G04 #@! TD*
G04 #@! TO.C,D92*
X200660000Y-31830000D03*
X200660000Y-29130000D03*
G04 #@! TD*
G04 #@! TO.C,D93*
X198120000Y-29130000D03*
X198120000Y-31830000D03*
G04 #@! TD*
G04 #@! TO.C,D94*
X195580000Y-31830000D03*
X195580000Y-29130000D03*
G04 #@! TD*
G04 #@! TO.C,D95*
X193040000Y-29130000D03*
X193040000Y-31830000D03*
G04 #@! TD*
G04 #@! TO.C,D96*
X190500000Y-29130000D03*
X190500000Y-31830000D03*
G04 #@! TD*
G04 #@! TO.C,D97*
X187960000Y-29130000D03*
X187960000Y-31830000D03*
G04 #@! TD*
G04 #@! TO.C,D98*
X185420000Y-29130000D03*
X185420000Y-31830000D03*
G04 #@! TD*
G04 #@! TO.C,D99*
X182880000Y-31830000D03*
X182880000Y-29130000D03*
G04 #@! TD*
G04 #@! TO.C,D100*
X180340000Y-29130000D03*
X180340000Y-31830000D03*
G04 #@! TD*
G04 #@! TO.C,D101*
X177800000Y-31830000D03*
X177800000Y-29130000D03*
G04 #@! TD*
G04 #@! TO.C,D102*
X175260000Y-31830000D03*
X175260000Y-29130000D03*
G04 #@! TD*
G04 #@! TO.C,D103*
X172720000Y-29130000D03*
X172720000Y-31830000D03*
G04 #@! TD*
G04 #@! TO.C,D104*
X144780000Y-92630000D03*
X144780000Y-95330000D03*
G04 #@! TD*
G04 #@! TO.C,D105*
X142240000Y-92630000D03*
X142240000Y-95330000D03*
G04 #@! TD*
G04 #@! TO.C,D106*
X139700000Y-95330000D03*
X139700000Y-92630000D03*
G04 #@! TD*
G04 #@! TO.C,D107*
X137160000Y-95330000D03*
X137160000Y-92630000D03*
G04 #@! TD*
G04 #@! TO.C,D108*
X134620000Y-92630000D03*
X134620000Y-95330000D03*
G04 #@! TD*
G04 #@! TO.C,D109*
X132080000Y-92630000D03*
X132080000Y-95330000D03*
G04 #@! TD*
G04 #@! TO.C,D110*
X129540000Y-95330000D03*
X129540000Y-92630000D03*
G04 #@! TD*
G04 #@! TO.C,D111*
X127000000Y-95330000D03*
X127000000Y-92630000D03*
G04 #@! TD*
G04 #@! TO.C,D112*
X124460000Y-95330000D03*
X124460000Y-92630000D03*
G04 #@! TD*
G04 #@! TO.C,D113*
X121920000Y-95330000D03*
X121920000Y-92630000D03*
G04 #@! TD*
G04 #@! TO.C,D114*
X119380000Y-92630000D03*
X119380000Y-95330000D03*
G04 #@! TD*
G04 #@! TO.C,D115*
X116840000Y-95330000D03*
X116840000Y-92630000D03*
G04 #@! TD*
G04 #@! TO.C,D116*
X114300000Y-92630000D03*
X114300000Y-95330000D03*
G04 #@! TD*
G04 #@! TO.C,D117*
X231140000Y-95330000D03*
X231140000Y-92630000D03*
G04 #@! TD*
G04 #@! TO.C,D118*
X228600000Y-95330000D03*
X228600000Y-92630000D03*
G04 #@! TD*
G04 #@! TO.C,D119*
X226060000Y-92630000D03*
X226060000Y-95330000D03*
G04 #@! TD*
G04 #@! TO.C,D120*
X223520000Y-92630000D03*
X223520000Y-95330000D03*
G04 #@! TD*
G04 #@! TO.C,D121*
X220980000Y-92630000D03*
X220980000Y-95330000D03*
G04 #@! TD*
G04 #@! TO.C,D122*
X218440000Y-95330000D03*
X218440000Y-92630000D03*
G04 #@! TD*
G04 #@! TO.C,D123*
X215900000Y-92630000D03*
X215900000Y-95330000D03*
G04 #@! TD*
G04 #@! TO.C,D124*
X213360000Y-95330000D03*
X213360000Y-92630000D03*
G04 #@! TD*
D15*
G04 #@! TO.C,R1*
X212170000Y-43180000D03*
X209470000Y-43180000D03*
G04 #@! TD*
G04 #@! TO.C,R2*
X209470000Y-45720000D03*
X212170000Y-45720000D03*
G04 #@! TD*
G04 #@! TO.C,R3*
X212170000Y-48260000D03*
X209470000Y-48260000D03*
G04 #@! TD*
G04 #@! TO.C,R4*
X209470000Y-50800000D03*
X212170000Y-50800000D03*
G04 #@! TD*
G04 #@! TO.C,R5*
X212170000Y-53340000D03*
X209470000Y-53340000D03*
G04 #@! TD*
G04 #@! TO.C,R6*
X209470000Y-55880000D03*
X212170000Y-55880000D03*
G04 #@! TD*
G04 #@! TO.C,R7*
X209470000Y-58420000D03*
X212170000Y-58420000D03*
G04 #@! TD*
G04 #@! TO.C,R8*
X212170000Y-60960000D03*
X209470000Y-60960000D03*
G04 #@! TD*
G04 #@! TO.C,R9*
X209470000Y-73660000D03*
X212170000Y-73660000D03*
G04 #@! TD*
G04 #@! TO.C,R10*
X212170000Y-66040000D03*
X209470000Y-66040000D03*
G04 #@! TD*
G04 #@! TO.C,R11*
X181530000Y-200660000D03*
X184230000Y-200660000D03*
G04 #@! TD*
G04 #@! TO.C,R12*
X128350000Y-73660000D03*
X125650000Y-73660000D03*
G04 #@! TD*
G04 #@! TO.C,R13*
X125650000Y-71120000D03*
X128350000Y-71120000D03*
G04 #@! TD*
G04 #@! TO.C,R14*
X46910000Y-73660000D03*
X49610000Y-73660000D03*
G04 #@! TD*
G04 #@! TO.C,R15*
X49610000Y-71120000D03*
X46910000Y-71120000D03*
G04 #@! TD*
G04 #@! TO.C,R16*
X46910000Y-137160000D03*
X49610000Y-137160000D03*
G04 #@! TD*
G04 #@! TO.C,R17*
X49610000Y-134620000D03*
X46910000Y-134620000D03*
G04 #@! TD*
G04 #@! TO.C,R18*
X44370000Y-200660000D03*
X47070000Y-200660000D03*
G04 #@! TD*
G04 #@! TO.C,R19*
X47070000Y-198120000D03*
X44370000Y-198120000D03*
G04 #@! TD*
G04 #@! TO.C,R20*
X90090000Y-200660000D03*
X92790000Y-200660000D03*
G04 #@! TD*
G04 #@! TO.C,R21*
X92790000Y-198120000D03*
X90090000Y-198120000D03*
G04 #@! TD*
G04 #@! TO.C,R22*
X184230000Y-198120000D03*
X181530000Y-198120000D03*
G04 #@! TD*
G04 #@! TO.C,R23*
X138510000Y-137160000D03*
X135810000Y-137160000D03*
G04 #@! TD*
D24*
G04 #@! TO.C,R24*
X20320000Y-36910000D03*
X20320000Y-34210000D03*
G04 #@! TD*
G04 #@! TO.C,R25*
X48260000Y-161210000D03*
X48260000Y-163910000D03*
G04 #@! TD*
G04 #@! TO.C,R26*
X45720000Y-161210000D03*
X45720000Y-163910000D03*
G04 #@! TD*
G04 #@! TO.C,R27*
X43180000Y-161210000D03*
X43180000Y-163910000D03*
G04 #@! TD*
G04 #@! TO.C,R28*
X40640000Y-163910000D03*
X40640000Y-161210000D03*
G04 #@! TD*
G04 #@! TO.C,R29*
X38100000Y-161210000D03*
X38100000Y-163910000D03*
G04 #@! TD*
G04 #@! TO.C,R30*
X35560000Y-163910000D03*
X35560000Y-161210000D03*
G04 #@! TD*
G04 #@! TO.C,R31*
X33020000Y-161210000D03*
X33020000Y-163910000D03*
G04 #@! TD*
G04 #@! TO.C,R32*
X30480000Y-163910000D03*
X30480000Y-161210000D03*
G04 #@! TD*
G04 #@! TO.C,R33*
X48260000Y-36910000D03*
X48260000Y-34210000D03*
G04 #@! TD*
G04 #@! TO.C,R34*
X45722916Y-34210000D03*
X45722916Y-36910000D03*
G04 #@! TD*
G04 #@! TO.C,R35*
X43182916Y-36910000D03*
X43182916Y-34210000D03*
G04 #@! TD*
G04 #@! TO.C,R36*
X40642916Y-34210000D03*
X40642916Y-36910000D03*
G04 #@! TD*
G04 #@! TO.C,R37*
X38102916Y-36910000D03*
X38102916Y-34210000D03*
G04 #@! TD*
G04 #@! TO.C,R38*
X35562916Y-34210000D03*
X35562916Y-36910000D03*
G04 #@! TD*
G04 #@! TO.C,R39*
X33022916Y-36910000D03*
X33022916Y-34210000D03*
G04 #@! TD*
G04 #@! TO.C,R40*
X30482916Y-34210000D03*
X30482916Y-36910000D03*
G04 #@! TD*
G04 #@! TO.C,R41*
X25400000Y-34210000D03*
X25400000Y-36910000D03*
G04 #@! TD*
G04 #@! TO.C,R42*
X48260000Y-100410000D03*
X48260000Y-97710000D03*
G04 #@! TD*
G04 #@! TO.C,R43*
X45720000Y-97710000D03*
X45720000Y-100410000D03*
G04 #@! TD*
G04 #@! TO.C,R44*
X43180000Y-100410000D03*
X43180000Y-97710000D03*
G04 #@! TD*
G04 #@! TO.C,R45*
X40640000Y-97710000D03*
X40640000Y-100410000D03*
G04 #@! TD*
G04 #@! TO.C,R46*
X38100000Y-100410000D03*
X38100000Y-97710000D03*
G04 #@! TD*
G04 #@! TO.C,R47*
X35560000Y-97710000D03*
X35560000Y-100410000D03*
G04 #@! TD*
G04 #@! TO.C,R48*
X33020000Y-100410000D03*
X33020000Y-97710000D03*
G04 #@! TD*
G04 #@! TO.C,R49*
X30480000Y-100410000D03*
X30480000Y-97710000D03*
G04 #@! TD*
D15*
G04 #@! TO.C,R50*
X54530000Y-63500000D03*
X57230000Y-63500000D03*
G04 #@! TD*
G04 #@! TO.C,R51*
X57230000Y-66040000D03*
X54530000Y-66040000D03*
G04 #@! TD*
G04 #@! TO.C,R52*
X54530000Y-60960000D03*
X57230000Y-60960000D03*
G04 #@! TD*
G04 #@! TO.C,R53*
X57230000Y-58420000D03*
X54530000Y-58420000D03*
G04 #@! TD*
G04 #@! TO.C,R54*
X54530000Y-55880000D03*
X57230000Y-55880000D03*
G04 #@! TD*
G04 #@! TO.C,R55*
X57230000Y-53340000D03*
X54530000Y-53340000D03*
G04 #@! TD*
G04 #@! TO.C,R56*
X54530000Y-50800000D03*
X57230000Y-50800000D03*
G04 #@! TD*
G04 #@! TO.C,R57*
X57230000Y-48260000D03*
X54530000Y-48260000D03*
G04 #@! TD*
G04 #@! TO.C,R58*
X54530000Y-127000000D03*
X57230000Y-127000000D03*
G04 #@! TD*
G04 #@! TO.C,R59*
X57230000Y-129540000D03*
X54530000Y-129540000D03*
G04 #@! TD*
G04 #@! TO.C,R60*
X57230000Y-124460000D03*
X54530000Y-124460000D03*
G04 #@! TD*
G04 #@! TO.C,R61*
X54530000Y-121920000D03*
X57230000Y-121920000D03*
G04 #@! TD*
G04 #@! TO.C,R62*
X57230000Y-119380000D03*
X54530000Y-119380000D03*
G04 #@! TD*
G04 #@! TO.C,R63*
X54530000Y-116840000D03*
X57230000Y-116840000D03*
G04 #@! TD*
G04 #@! TO.C,R64*
X57230000Y-114300000D03*
X54530000Y-114300000D03*
G04 #@! TD*
G04 #@! TO.C,R65*
X54530000Y-111760000D03*
X57230000Y-111760000D03*
G04 #@! TD*
D24*
G04 #@! TO.C,R66*
X53340000Y-148670000D03*
X53340000Y-145970000D03*
G04 #@! TD*
G04 #@! TO.C,R67*
X55880000Y-145970000D03*
X55880000Y-148670000D03*
G04 #@! TD*
G04 #@! TO.C,R68*
X50800000Y-145970000D03*
X50800000Y-148670000D03*
G04 #@! TD*
G04 #@! TO.C,R69*
X48260000Y-145970000D03*
X48260000Y-148670000D03*
G04 #@! TD*
G04 #@! TO.C,R70*
X45720000Y-145970000D03*
X45720000Y-148670000D03*
G04 #@! TD*
G04 #@! TO.C,R71*
X93980000Y-163656000D03*
X93980000Y-160956000D03*
G04 #@! TD*
G04 #@! TO.C,R72*
X91440000Y-163656000D03*
X91440000Y-160956000D03*
G04 #@! TD*
G04 #@! TO.C,R73*
X88900000Y-163656000D03*
X88900000Y-160956000D03*
G04 #@! TD*
G04 #@! TO.C,R74*
X86360000Y-160956000D03*
X86360000Y-163656000D03*
G04 #@! TD*
G04 #@! TO.C,R75*
X83820000Y-163910000D03*
X83820000Y-161210000D03*
G04 #@! TD*
G04 #@! TO.C,R76*
X81280000Y-163910000D03*
X81280000Y-161210000D03*
G04 #@! TD*
G04 #@! TO.C,R77*
X78740000Y-161210000D03*
X78740000Y-163910000D03*
G04 #@! TD*
G04 #@! TO.C,R78*
X76200000Y-163910000D03*
X76200000Y-161210000D03*
G04 #@! TD*
G04 #@! TO.C,R79*
X86360000Y-97710000D03*
X86360000Y-100410000D03*
G04 #@! TD*
G04 #@! TO.C,R80*
X83820000Y-100410000D03*
X83820000Y-97710000D03*
G04 #@! TD*
G04 #@! TO.C,R81*
X81280000Y-100410000D03*
X81280000Y-97710000D03*
G04 #@! TD*
G04 #@! TO.C,R82*
X99060000Y-148670000D03*
X99060000Y-145970000D03*
G04 #@! TD*
G04 #@! TO.C,R83*
X101600000Y-145970000D03*
X101600000Y-148670000D03*
G04 #@! TD*
G04 #@! TO.C,R84*
X96520000Y-148670000D03*
X96520000Y-145970000D03*
G04 #@! TD*
G04 #@! TO.C,R85*
X93980000Y-145970000D03*
X93980000Y-148670000D03*
G04 #@! TD*
G04 #@! TO.C,R86*
X91440000Y-145970000D03*
X91440000Y-148670000D03*
G04 #@! TD*
G04 #@! TO.C,R87*
X88900000Y-145970000D03*
X88900000Y-148670000D03*
G04 #@! TD*
G04 #@! TO.C,R88*
X86360000Y-148670000D03*
X86360000Y-145970000D03*
G04 #@! TD*
G04 #@! TO.C,R89*
X83820000Y-148670000D03*
X83820000Y-145970000D03*
G04 #@! TD*
G04 #@! TO.C,R90*
X129540000Y-36910000D03*
X129540000Y-34210000D03*
G04 #@! TD*
G04 #@! TO.C,R91*
X127000000Y-34210000D03*
X127000000Y-36910000D03*
G04 #@! TD*
G04 #@! TO.C,R92*
X124460000Y-36910000D03*
X124460000Y-34210000D03*
G04 #@! TD*
G04 #@! TO.C,R93*
X121920000Y-34210000D03*
X121920000Y-36910000D03*
G04 #@! TD*
G04 #@! TO.C,R94*
X119380000Y-36910000D03*
X119380000Y-34210000D03*
G04 #@! TD*
G04 #@! TO.C,R95*
X116840000Y-34210000D03*
X116840000Y-36910000D03*
G04 #@! TD*
G04 #@! TO.C,R96*
X114300000Y-34210000D03*
X114300000Y-36910000D03*
G04 #@! TD*
G04 #@! TO.C,R97*
X111760000Y-34210000D03*
X111760000Y-36910000D03*
G04 #@! TD*
G04 #@! TO.C,R98*
X106680000Y-36910000D03*
X106680000Y-34210000D03*
G04 #@! TD*
G04 #@! TO.C,R99*
X139700000Y-161210000D03*
X139700000Y-163910000D03*
G04 #@! TD*
G04 #@! TO.C,R100*
X137160000Y-161210000D03*
X137160000Y-163910000D03*
G04 #@! TD*
G04 #@! TO.C,R101*
X134620000Y-163910000D03*
X134620000Y-161210000D03*
G04 #@! TD*
G04 #@! TO.C,R102*
X132080000Y-161210000D03*
X132080000Y-163910000D03*
G04 #@! TD*
G04 #@! TO.C,R103*
X129540000Y-161210000D03*
X129540000Y-163910000D03*
G04 #@! TD*
G04 #@! TO.C,R104*
X127000000Y-163910000D03*
X127000000Y-161210000D03*
G04 #@! TD*
G04 #@! TO.C,R105*
X124460000Y-161210000D03*
X124460000Y-163910000D03*
G04 #@! TD*
G04 #@! TO.C,R106*
X121920000Y-163910000D03*
X121920000Y-161210000D03*
G04 #@! TD*
G04 #@! TO.C,R107*
X187960000Y-148670000D03*
X187960000Y-145970000D03*
G04 #@! TD*
G04 #@! TO.C,R108*
X190500000Y-148670000D03*
X190500000Y-145970000D03*
G04 #@! TD*
G04 #@! TO.C,R109*
X185420000Y-148670000D03*
X185420000Y-145970000D03*
G04 #@! TD*
G04 #@! TO.C,R110*
X182880000Y-148670000D03*
X182880000Y-145970000D03*
G04 #@! TD*
G04 #@! TO.C,R111*
X180340000Y-145970000D03*
X180340000Y-148670000D03*
G04 #@! TD*
G04 #@! TO.C,R112*
X177800000Y-148670000D03*
X177800000Y-145970000D03*
G04 #@! TD*
G04 #@! TO.C,R113*
X175260000Y-148670000D03*
X175260000Y-145970000D03*
G04 #@! TD*
G04 #@! TO.C,R114*
X172720000Y-148670000D03*
X172720000Y-145970000D03*
G04 #@! TD*
G04 #@! TO.C,R115*
X180340000Y-161210000D03*
X180340000Y-163910000D03*
G04 #@! TD*
G04 #@! TO.C,R116*
X177800000Y-163910000D03*
X177800000Y-161210000D03*
G04 #@! TD*
G04 #@! TO.C,R117*
X175260000Y-163910000D03*
X175260000Y-161210000D03*
G04 #@! TD*
G04 #@! TO.C,R118*
X172720000Y-163910000D03*
X172720000Y-161210000D03*
G04 #@! TD*
G04 #@! TO.C,R119*
X170180000Y-161210000D03*
X170180000Y-163910000D03*
G04 #@! TD*
G04 #@! TO.C,R120*
X167640000Y-161210000D03*
X167640000Y-163910000D03*
G04 #@! TD*
G04 #@! TO.C,R121*
X165100000Y-163910000D03*
X165100000Y-161210000D03*
G04 #@! TD*
G04 #@! TO.C,R122*
X162560000Y-163910000D03*
X162560000Y-161210000D03*
G04 #@! TD*
D15*
G04 #@! TO.C,R123*
X189150000Y-93980000D03*
X191850000Y-93980000D03*
G04 #@! TD*
G04 #@! TO.C,R124*
X191850000Y-96520000D03*
X189150000Y-96520000D03*
G04 #@! TD*
D24*
G04 #@! TO.C,R125*
X172720000Y-72310000D03*
X172720000Y-75010000D03*
G04 #@! TD*
G04 #@! TO.C,R126*
X175260000Y-75010000D03*
X175260000Y-72310000D03*
G04 #@! TD*
G04 #@! TO.C,R127*
X177800000Y-72310000D03*
X177800000Y-75010000D03*
G04 #@! TD*
G04 #@! TO.C,R128*
X182880000Y-79930000D03*
X182880000Y-82630000D03*
G04 #@! TD*
G04 #@! TO.C,R129*
X185420000Y-82630000D03*
X185420000Y-79930000D03*
G04 #@! TD*
G04 #@! TO.C,R130*
X187960000Y-79930000D03*
X187960000Y-82630000D03*
G04 #@! TD*
G04 #@! TO.C,R131*
X190500000Y-82630000D03*
X190500000Y-79930000D03*
G04 #@! TD*
G04 #@! TO.C,R132*
X193040000Y-79930000D03*
X193040000Y-82630000D03*
G04 #@! TD*
D15*
G04 #@! TO.C,R133*
X191850000Y-99060000D03*
X189150000Y-99060000D03*
G04 #@! TD*
G04 #@! TO.C,R134*
X191850000Y-101600000D03*
X189150000Y-101600000D03*
G04 #@! TD*
G04 #@! TO.C,R135*
X191850000Y-104140000D03*
X189150000Y-104140000D03*
G04 #@! TD*
G04 #@! TO.C,R136*
X189150000Y-106680000D03*
X191850000Y-106680000D03*
G04 #@! TD*
D24*
G04 #@! TO.C,R137*
X165100000Y-145970000D03*
X165100000Y-148670000D03*
G04 #@! TD*
G04 #@! TO.C,R138*
X167640000Y-148670000D03*
X167640000Y-145970000D03*
G04 #@! TD*
G04 #@! TO.C,R139*
X162560000Y-145970000D03*
X162560000Y-148670000D03*
G04 #@! TD*
G04 #@! TO.C,R140*
X160020000Y-148670000D03*
X160020000Y-145970000D03*
G04 #@! TD*
G04 #@! TO.C,R141*
X157480000Y-145970000D03*
X157480000Y-148670000D03*
G04 #@! TD*
G04 #@! TO.C,R142*
X215900000Y-36910000D03*
X215900000Y-34210000D03*
G04 #@! TD*
G04 #@! TO.C,R143*
X213360000Y-36910000D03*
X213360000Y-34210000D03*
G04 #@! TD*
G04 #@! TO.C,R144*
X210820000Y-36910000D03*
X210820000Y-34210000D03*
G04 #@! TD*
G04 #@! TO.C,R145*
X208280000Y-34210000D03*
X208280000Y-36910000D03*
G04 #@! TD*
G04 #@! TO.C,R146*
X205740000Y-36910000D03*
X205740000Y-34210000D03*
G04 #@! TD*
G04 #@! TO.C,R147*
X203200000Y-34210000D03*
X203200000Y-36910000D03*
G04 #@! TD*
G04 #@! TO.C,R148*
X200660000Y-36910000D03*
X200660000Y-34210000D03*
G04 #@! TD*
G04 #@! TO.C,R149*
X198120000Y-34210000D03*
X198120000Y-36910000D03*
G04 #@! TD*
G04 #@! TO.C,R150*
X195580000Y-36910000D03*
X195580000Y-34210000D03*
G04 #@! TD*
G04 #@! TO.C,R151*
X193040000Y-34210000D03*
X193040000Y-36910000D03*
G04 #@! TD*
G04 #@! TO.C,R152*
X190500000Y-34210000D03*
X190500000Y-36910000D03*
G04 #@! TD*
G04 #@! TO.C,R153*
X187960000Y-34210000D03*
X187960000Y-36910000D03*
G04 #@! TD*
G04 #@! TO.C,R154*
X185420000Y-36910000D03*
X185420000Y-34210000D03*
G04 #@! TD*
G04 #@! TO.C,R155*
X182880000Y-34210000D03*
X182880000Y-36910000D03*
G04 #@! TD*
G04 #@! TO.C,R156*
X180340000Y-36910000D03*
X180340000Y-34210000D03*
G04 #@! TD*
G04 #@! TO.C,R157*
X177800000Y-34210000D03*
X177800000Y-36910000D03*
G04 #@! TD*
G04 #@! TO.C,R158*
X175260000Y-36910000D03*
X175260000Y-34210000D03*
G04 #@! TD*
G04 #@! TO.C,R159*
X172720000Y-34210000D03*
X172720000Y-36910000D03*
G04 #@! TD*
G04 #@! TO.C,R160*
X144780000Y-97710000D03*
X144780000Y-100410000D03*
G04 #@! TD*
G04 #@! TO.C,R161*
X142240000Y-100410000D03*
X142240000Y-97710000D03*
G04 #@! TD*
G04 #@! TO.C,R162*
X139700000Y-97710000D03*
X139700000Y-100410000D03*
G04 #@! TD*
G04 #@! TO.C,R163*
X137160000Y-100410000D03*
X137160000Y-97710000D03*
G04 #@! TD*
G04 #@! TO.C,R164*
X134620000Y-97710000D03*
X134620000Y-100410000D03*
G04 #@! TD*
G04 #@! TO.C,R165*
X132080000Y-100410000D03*
X132080000Y-97710000D03*
G04 #@! TD*
G04 #@! TO.C,R166*
X129540000Y-100410000D03*
X129540000Y-97710000D03*
G04 #@! TD*
G04 #@! TO.C,R167*
X127000000Y-100410000D03*
X127000000Y-97710000D03*
G04 #@! TD*
G04 #@! TO.C,R168*
X124460000Y-97710000D03*
X124460000Y-100410000D03*
G04 #@! TD*
G04 #@! TO.C,R169*
X121920000Y-100410000D03*
X121920000Y-97710000D03*
G04 #@! TD*
G04 #@! TO.C,R170*
X119380000Y-97710000D03*
X119380000Y-100410000D03*
G04 #@! TD*
G04 #@! TO.C,R171*
X116840000Y-100410000D03*
X116840000Y-97710000D03*
G04 #@! TD*
G04 #@! TO.C,R172*
X114300000Y-97710000D03*
X114300000Y-100410000D03*
G04 #@! TD*
G04 #@! TO.C,R173*
X231140000Y-100410000D03*
X231140000Y-97710000D03*
G04 #@! TD*
G04 #@! TO.C,R174*
X228600000Y-100410000D03*
X228600000Y-97710000D03*
G04 #@! TD*
G04 #@! TO.C,R175*
X226060000Y-100410000D03*
X226060000Y-97710000D03*
G04 #@! TD*
G04 #@! TO.C,R176*
X223520000Y-97710000D03*
X223520000Y-100410000D03*
G04 #@! TD*
G04 #@! TO.C,R177*
X220980000Y-100410000D03*
X220980000Y-97710000D03*
G04 #@! TD*
G04 #@! TO.C,R178*
X218440000Y-97710000D03*
X218440000Y-100410000D03*
G04 #@! TD*
G04 #@! TO.C,R179*
X215900000Y-100410000D03*
X215900000Y-97710000D03*
G04 #@! TD*
G04 #@! TO.C,R180*
X213360000Y-97710000D03*
X213360000Y-100410000D03*
G04 #@! TD*
D15*
G04 #@! TO.C,R181*
X201850000Y-93980000D03*
X204550000Y-93980000D03*
G04 #@! TD*
G04 #@! TO.C,R182*
X204550000Y-96520000D03*
X201850000Y-96520000D03*
G04 #@! TD*
G04 #@! TO.C,R183*
X201850000Y-99060000D03*
X204550000Y-99060000D03*
G04 #@! TD*
G04 #@! TO.C,R184*
X204550000Y-101600000D03*
X201850000Y-101600000D03*
G04 #@! TD*
G04 #@! TO.C,R185*
X204550000Y-104140000D03*
X201850000Y-104140000D03*
G04 #@! TD*
G04 #@! TO.C,R186*
X201850000Y-106680000D03*
X204550000Y-106680000D03*
G04 #@! TD*
G04 #@! TO.C,R187*
X204550000Y-109220000D03*
X201850000Y-109220000D03*
G04 #@! TD*
G04 #@! TO.C,R188*
X201850000Y-111760000D03*
X204550000Y-111760000D03*
G04 #@! TD*
G04 #@! TO.C,R189*
X260430000Y-93980000D03*
X257730000Y-93980000D03*
G04 #@! TD*
G04 #@! TO.C,R190*
X257730000Y-109220000D03*
X260430000Y-109220000D03*
G04 #@! TD*
G04 #@! TO.C,R191*
X257730000Y-124460000D03*
X260430000Y-124460000D03*
G04 #@! TD*
M02*
